M48
; DRILL file {KiCad 9.0.6} date 2025-12-15T12:31:03+0100
; FORMAT={-:-/ absolute / metric / decimal}
; #@! TF.CreationDate,2025-12-15T12:31:03+01:00
; #@! TF.GenerationSoftware,Kicad,Pcbnew,9.0.6
; #@! TF.FileFunction,Plated,1,4,PTH
FMAT,2
METRIC
; #@! TA.AperFunction,Plated,PTH,ViaDrill
T1C0.300
; #@! TA.AperFunction,Plated,PTH,ComponentDrill
T2C1.300
; #@! TA.AperFunction,Plated,PTH,ComponentDrill
T3C1.500
; #@! TA.AperFunction,Plated,PTH,ComponentDrill
T4C2.200
%
G90
G05
T1
X171.653Y-81.57
X172.153Y-70.07
X173.353Y-91.52
X173.903Y-65.27
X173.903Y-67.17
X174.873Y-58.28
X175.553Y-80.82
X175.553Y-82.07
X176.853Y-72.72
X181.053Y-55.32
X181.853Y-88.57
X183.403Y-88.57
X183.653Y-67.97
X184.053Y-51.12
X184.653Y-56.92
X186.815Y-75.657
X186.923Y-87.38
X186.923Y-88.045
X186.923Y-88.71
X186.923Y-89.375
X186.923Y-90.04
X187.053Y-53.82
X187.603Y-57.07
X187.653Y-67.12
X188.103Y-54.67
X188.153Y-53.82
X188.773Y-87.38
X188.773Y-88.045
X188.773Y-88.71
X188.773Y-89.375
X188.773Y-90.04
X189.313Y-72.07
X189.313Y-73.12
X189.313Y-74.17
X189.313Y-74.97
X191.553Y-51.12
X198.253Y-54.87
X198.453Y-62.82
X198.533Y-65.45
X198.703Y-73.07
X198.703Y-74.37
X198.703Y-76.92
X200.703Y-68.149
X200.703Y-69.696
X201.053Y-63.77
X201.053Y-74.02
X201.603Y-75.12
X201.653Y-71.72
X202.053Y-57.12
X202.353Y-91.57
X204.303Y-68.149
X204.303Y-83.12
T2
X187.853Y-93.66
T3
X185.313Y-91.12
X185.313Y-96.2
X190.393Y-91.12
X190.393Y-96.2
T4
X173.353Y-51.12
X173.353Y-95.12
X202.353Y-51.12
X202.353Y-95.12
M30
