M48
; DRILL file {KiCad 9.0.6} date 2025-12-15T08:36:07+0100
; FORMAT={-:-/ absolute / metric / decimal}
; #@! TF.CreationDate,2025-12-15T08:36:07+01:00
; #@! TF.GenerationSoftware,Kicad,Pcbnew,9.0.6
; #@! TF.FileFunction,Plated,1,4,PTH
FMAT,2
METRIC
; #@! TA.AperFunction,Plated,PTH,ViaDrill
T1C0.300
; #@! TA.AperFunction,Plated,PTH,ViaDrill
T2C0.400
; #@! TA.AperFunction,Plated,PTH,ViaDrill
T3C0.500
; #@! TA.AperFunction,Plated,PTH,ComponentDrill
T4C0.600
; #@! TA.AperFunction,Plated,PTH,ComponentDrill
T5C0.700
; #@! TA.AperFunction,Plated,PTH,ComponentDrill
T6C1.300
; #@! TA.AperFunction,Plated,PTH,ComponentDrill
T7C1.500
%
G90
G05
T1
X92.855Y-80.005
X92.855Y-84.405
X92.946Y-81.105
X92.946Y-83.305
X95.911Y-80.03
X102.153Y-47.604
X102.566Y-70.685
X102.965Y-47.618
X103.603Y-42.667
X103.603Y-45.387
X106.603Y-42.667
X106.603Y-45.387
X107.753Y-48.106
X108.553Y-47.604
X108.8Y-55.692
X111.473Y-53.0
X114.176Y-54.148
T2
X91.775Y-73.855
X91.775Y-88.205
X100.323Y-73.952
X115.411Y-80.983
T3
X95.828Y-74.0
X95.828Y-88.0
X97.511Y-97.082
X103.793Y-59.003
X106.293Y-56.503
X106.293Y-61.503
X108.793Y-59.003
X112.111Y-43.798
X112.428Y-46.548
X114.013Y-70.7
X114.328Y-46.548
X114.878Y-86.0
X116.96Y-97.065
X117.804Y-44.044
X117.955Y-80.0
X118.88Y-41.301
T5
X102.463Y-45.524
X108.243Y-45.524
T6
X105.353Y-94.276
T7
X102.813Y-91.736
X102.813Y-96.816
X107.893Y-91.736
X107.893Y-96.816
T4
G00X101.033Y-42.144
M15
G01X101.033Y-41.545
M16
G05
G00X101.033Y-46.505
M15
G01X101.033Y-45.604
M16
G05
G00X109.673Y-42.144
M15
G01X109.673Y-41.545
M16
G05
G00X109.673Y-46.504
M15
G01X109.673Y-45.605
M16
G05
M30
