%TF.GenerationSoftware,KiCad,Pcbnew,9.0.6*%
%TF.CreationDate,2025-12-28T22:31:39+01:00*%
%TF.ProjectId,neptune-gnd,6e657074-756e-4652-9d67-6e642e6b6963,rev?*%
%TF.SameCoordinates,Original*%
%TF.FileFunction,Copper,L1,Top*%
%TF.FilePolarity,Positive*%
%FSLAX46Y46*%
G04 Gerber Fmt 4.6, Leading zero omitted, Abs format (unit mm)*
G04 Created by KiCad (PCBNEW 9.0.6) date 2025-12-28 22:31:39*
%MOMM*%
%LPD*%
G01*
G04 APERTURE LIST*
G04 Aperture macros list*
%AMRoundRect*
0 Rectangle with rounded corners*
0 $1 Rounding radius*
0 $2 $3 $4 $5 $6 $7 $8 $9 X,Y pos of 4 corners*
0 Add a 4 corners polygon primitive as box body*
4,1,4,$2,$3,$4,$5,$6,$7,$8,$9,$2,$3,0*
0 Add four circle primitives for the rounded corners*
1,1,$1+$1,$2,$3*
1,1,$1+$1,$4,$5*
1,1,$1+$1,$6,$7*
1,1,$1+$1,$8,$9*
0 Add four rect primitives between the rounded corners*
20,1,$1+$1,$2,$3,$4,$5,0*
20,1,$1+$1,$4,$5,$6,$7,0*
20,1,$1+$1,$6,$7,$8,$9,0*
20,1,$1+$1,$8,$9,$2,$3,0*%
G04 Aperture macros list end*
%TA.AperFunction,ConnectorPad*%
%ADD10C,3.800000*%
%TD*%
%TA.AperFunction,ComponentPad*%
%ADD11C,2.600000*%
%TD*%
%TA.AperFunction,SMDPad,CuDef*%
%ADD12R,0.900000X0.900000*%
%TD*%
%TA.AperFunction,SMDPad,CuDef*%
%ADD13R,1.500000X0.900000*%
%TD*%
%TA.AperFunction,SMDPad,CuDef*%
%ADD14R,0.900000X1.500000*%
%TD*%
%TA.AperFunction,SMDPad,CuDef*%
%ADD15RoundRect,0.225000X-0.225000X-0.250000X0.225000X-0.250000X0.225000X0.250000X-0.225000X0.250000X0*%
%TD*%
%TA.AperFunction,SMDPad,CuDef*%
%ADD16RoundRect,0.225000X-0.250000X0.225000X-0.250000X-0.225000X0.250000X-0.225000X0.250000X0.225000X0*%
%TD*%
%TA.AperFunction,SMDPad,CuDef*%
%ADD17R,1.700000X1.300000*%
%TD*%
%TA.AperFunction,SMDPad,CuDef*%
%ADD18RoundRect,0.200000X-0.200000X-0.275000X0.200000X-0.275000X0.200000X0.275000X-0.200000X0.275000X0*%
%TD*%
%TA.AperFunction,SMDPad,CuDef*%
%ADD19RoundRect,0.135000X-0.135000X-0.185000X0.135000X-0.185000X0.135000X0.185000X-0.135000X0.185000X0*%
%TD*%
%TA.AperFunction,SMDPad,CuDef*%
%ADD20RoundRect,0.200000X0.200000X0.275000X-0.200000X0.275000X-0.200000X-0.275000X0.200000X-0.275000X0*%
%TD*%
%TA.AperFunction,SMDPad,CuDef*%
%ADD21RoundRect,0.150000X-0.150000X0.512500X-0.150000X-0.512500X0.150000X-0.512500X0.150000X0.512500X0*%
%TD*%
%TA.AperFunction,SMDPad,CuDef*%
%ADD22RoundRect,0.250000X-0.475000X0.250000X-0.475000X-0.250000X0.475000X-0.250000X0.475000X0.250000X0*%
%TD*%
%TA.AperFunction,SMDPad,CuDef*%
%ADD23RoundRect,0.218750X0.218750X0.256250X-0.218750X0.256250X-0.218750X-0.256250X0.218750X-0.256250X0*%
%TD*%
%TA.AperFunction,ComponentPad*%
%ADD24C,2.500000*%
%TD*%
%TA.AperFunction,SMDPad,CuDef*%
%ADD25R,2.000000X0.800000*%
%TD*%
%TA.AperFunction,SMDPad,CuDef*%
%ADD26R,0.600000X1.100000*%
%TD*%
%TA.AperFunction,SMDPad,CuDef*%
%ADD27R,0.300000X1.100000*%
%TD*%
%TA.AperFunction,SMDPad,CuDef*%
%ADD28R,2.000000X1.200000*%
%TD*%
%TA.AperFunction,SMDPad,CuDef*%
%ADD29R,2.000000X1.500000*%
%TD*%
%TA.AperFunction,SMDPad,CuDef*%
%ADD30RoundRect,0.225000X0.250000X-0.225000X0.250000X0.225000X-0.250000X0.225000X-0.250000X-0.225000X0*%
%TD*%
%TA.AperFunction,ViaPad*%
%ADD31C,0.600000*%
%TD*%
%TA.AperFunction,Conductor*%
%ADD32C,0.250000*%
%TD*%
%TA.AperFunction,Conductor*%
%ADD33C,0.800000*%
%TD*%
%TA.AperFunction,Conductor*%
%ADD34C,0.600000*%
%TD*%
%TA.AperFunction,Conductor*%
%ADD35C,0.449600*%
%TD*%
%TA.AperFunction,Conductor*%
%ADD36C,0.500000*%
%TD*%
%TA.AperFunction,Conductor*%
%ADD37C,0.400000*%
%TD*%
G04 APERTURE END LIST*
D10*
%TO.P,H1,1*%
%TO.N,N/C*%
X202353000Y-51120000D03*
D11*
X202353000Y-51120000D03*
%TD*%
D10*
%TO.P,H2,1*%
%TO.N,N/C*%
X173353000Y-51120000D03*
D11*
X173353000Y-51120000D03*
%TD*%
D10*
%TO.P,H3,1*%
%TO.N,N/C*%
X173353000Y-95120000D03*
D11*
X173353000Y-95120000D03*
%TD*%
D10*
%TO.P,H4,1*%
%TO.N,N/C*%
X202353000Y-95120000D03*
D11*
X202353000Y-95120000D03*
%TD*%
D12*
%TO.P,U1,41_9,GND*%
%TO.N,GND*%
X188215500Y-74570000D03*
%TO.P,U1,41_8,GND*%
X186815500Y-74570000D03*
%TO.P,U1,41_7,GND*%
X185415500Y-74570000D03*
%TO.P,U1,41_6,GND*%
X188215500Y-73170000D03*
%TO.P,U1,41_5,GND*%
X186815500Y-73170000D03*
%TO.P,U1,41_4,GND*%
X185415500Y-73170000D03*
%TO.P,U1,41_3,GND*%
X188215500Y-71770000D03*
%TO.P,U1,41_2,GND*%
X186815500Y-71770000D03*
%TO.P,U1,41_1,GND*%
X185415500Y-71770000D03*
D13*
%TO.P,U1,40,GND*%
X197065500Y-65450000D03*
%TO.P,U1,39,IO1*%
%TO.N,unconnected-(U1-IO1-Pad39)*%
X197065500Y-66720000D03*
%TO.P,U1,38,IO2*%
%TO.N,/LORA_Reset*%
X197065500Y-67990000D03*
%TO.P,U1,37,TXD0*%
%TO.N,unconnected-(U1-TXD0-Pad37)*%
X197065500Y-69260000D03*
%TO.P,U1,36,RXD0*%
%TO.N,unconnected-(U1-RXD0-Pad36)*%
X197065500Y-70530000D03*
%TO.P,U1,35,IO42*%
%TO.N,/CS_LORA*%
X197065500Y-71800000D03*
%TO.P,U1,34,IO41*%
%TO.N,/SPI_CLK*%
X197065500Y-73070000D03*
%TO.P,U1,33,IO40*%
%TO.N,/SPI_MOSI*%
X197065500Y-74340000D03*
%TO.P,U1,32,IO39*%
%TO.N,/SPI_MISO*%
X197065500Y-75610000D03*
%TO.P,U1,31,IO38*%
%TO.N,/SD_CS*%
X197065500Y-76880000D03*
%TO.P,U1,30,IO37*%
%TO.N,Net-(U1-IO37)*%
X197065500Y-78150000D03*
%TO.P,U1,29,IO36*%
%TO.N,Net-(U1-IO36)*%
X197065500Y-79420000D03*
%TO.P,U1,28,IO35*%
%TO.N,unconnected-(U1-IO35-Pad28)*%
X197065500Y-80690000D03*
%TO.P,U1,27,IO0*%
%TO.N,Net-(U1-IO0)*%
X197065500Y-81960000D03*
D14*
%TO.P,U1,26,IO45*%
%TO.N,unconnected-(U1-IO45-Pad26)*%
X195300500Y-83210000D03*
%TO.P,U1,25,IO48*%
%TO.N,unconnected-(U1-IO48-Pad25)*%
X194030500Y-83210000D03*
%TO.P,U1,24,IO47*%
%TO.N,unconnected-(U1-IO47-Pad24)*%
X192760500Y-83210000D03*
%TO.P,U1,23,IO21*%
%TO.N,unconnected-(U1-IO21-Pad23)*%
X191490500Y-83210000D03*
%TO.P,U1,22,IO14*%
%TO.N,unconnected-(U1-IO14-Pad22)*%
X190220500Y-83210000D03*
%TO.P,U1,21,IO13*%
%TO.N,unconnected-(U1-IO13-Pad21)*%
X188950500Y-83210000D03*
%TO.P,U1,20,IO12*%
%TO.N,/LORA_DIO0*%
X187680500Y-83210000D03*
%TO.P,U1,19,IO11*%
%TO.N,unconnected-(U1-IO11-Pad19)*%
X186410500Y-83210000D03*
%TO.P,U1,18,IO10*%
%TO.N,unconnected-(U1-IO10-Pad18)*%
X185140500Y-83210000D03*
%TO.P,U1,17,IO9*%
%TO.N,unconnected-(U1-IO9-Pad17)*%
X183870500Y-83210000D03*
%TO.P,U1,16,IO46*%
%TO.N,unconnected-(U1-IO46-Pad16)*%
X182600500Y-83210000D03*
%TO.P,U1,15,IO3*%
%TO.N,unconnected-(U1-IO3-Pad15)*%
X181330500Y-83210000D03*
D13*
%TO.P,U1,14,IO20*%
%TO.N,Net-(U1-IO20)*%
X179565500Y-81960000D03*
%TO.P,U1,13,IO19*%
%TO.N,Net-(U1-IO19)*%
X179565500Y-80690000D03*
%TO.P,U1,12,IO8*%
%TO.N,unconnected-(U1-IO8-Pad12)*%
X179565500Y-79420000D03*
%TO.P,U1,11,IO18*%
%TO.N,unconnected-(U1-IO18-Pad11)*%
X179565500Y-78150000D03*
%TO.P,U1,10,IO17*%
%TO.N,unconnected-(U1-IO17-Pad10)*%
X179565500Y-76880000D03*
%TO.P,U1,9,IO16*%
%TO.N,unconnected-(U1-IO16-Pad9)*%
X179565500Y-75610000D03*
%TO.P,U1,8,IO15*%
%TO.N,unconnected-(U1-IO15-Pad8)*%
X179565500Y-74340000D03*
%TO.P,U1,7,IO7*%
%TO.N,unconnected-(U1-IO7-Pad7)*%
X179565500Y-73070000D03*
%TO.P,U1,6,IO6*%
%TO.N,unconnected-(U1-IO6-Pad6)*%
X179565500Y-71800000D03*
%TO.P,U1,5,IO5*%
%TO.N,Net-(U1-IO5)*%
X179565500Y-70530000D03*
%TO.P,U1,4,IO4*%
%TO.N,Net-(U1-IO4)*%
X179565500Y-69260000D03*
%TO.P,U1,3,EN*%
%TO.N,/EN*%
X179565500Y-67990000D03*
%TO.P,U1,2,3V3*%
%TO.N,+3.3V*%
X179565500Y-66720000D03*
%TO.P,U1,1,GND*%
%TO.N,GND*%
X179565500Y-65450000D03*
%TD*%
D15*
%TO.P,C7,1*%
%TO.N,VCC*%
X199503000Y-57120000D03*
%TO.P,C7,2*%
%TO.N,GND*%
X201053000Y-57120000D03*
%TD*%
D16*
%TO.P,C1,1*%
%TO.N,GND*%
X176953000Y-65445000D03*
%TO.P,C1,2*%
%TO.N,+3.3V*%
X176953000Y-66995000D03*
%TD*%
D17*
%TO.P,SW2,1,1*%
%TO.N,GND*%
X173353000Y-90279000D03*
%TO.P,SW2,2,2*%
%TO.N,Net-(C4-Pad1)*%
X173353000Y-85961000D03*
%TD*%
D18*
%TO.P,R1,1*%
%TO.N,+3.3V*%
X175328000Y-68720000D03*
%TO.P,R1,2*%
%TO.N,/EN*%
X176978000Y-68720000D03*
%TD*%
D17*
%TO.P,SW1,1,1*%
%TO.N,GND*%
X202353000Y-90279000D03*
%TO.P,SW1,2,2*%
%TO.N,Net-(U1-IO0)*%
X202353000Y-85961000D03*
%TD*%
D19*
%TO.P,R6,1*%
%TO.N,/USB_DP*%
X176343000Y-82070000D03*
%TO.P,R6,2*%
%TO.N,Net-(U1-IO20)*%
X177363000Y-82070000D03*
%TD*%
D20*
%TO.P,R9,1*%
%TO.N,Net-(U1-IO5)*%
X178368000Y-53430000D03*
%TO.P,R9,2*%
%TO.N,/RX*%
X176718000Y-53430000D03*
%TD*%
%TO.P,R2,1*%
%TO.N,/EN*%
X174728000Y-84270000D03*
%TO.P,R2,2*%
%TO.N,Net-(C4-Pad1)*%
X173078000Y-84270000D03*
%TD*%
%TO.P,R7,1*%
%TO.N,Net-(D2-A)*%
X201065500Y-77920000D03*
%TO.P,R7,2*%
%TO.N,Net-(U1-IO37)*%
X199415500Y-77920000D03*
%TD*%
D21*
%TO.P,U2,1,VIN*%
%TO.N,VCC*%
X201228000Y-58833000D03*
%TO.P,U2,2,GND*%
%TO.N,GND*%
X200278000Y-58833000D03*
%TO.P,U2,3,EN*%
%TO.N,VCC*%
X199328000Y-58833000D03*
%TO.P,U2,4,NC*%
%TO.N,unconnected-(U2-NC-Pad4)*%
X199328000Y-61108000D03*
%TO.P,U2,5,VOUT*%
%TO.N,+3.3V*%
X201228000Y-61108000D03*
%TD*%
D22*
%TO.P,C2,1*%
%TO.N,GND*%
X175133000Y-65270000D03*
%TO.P,C2,2*%
%TO.N,+3.3V*%
X175133000Y-67170000D03*
%TD*%
D23*
%TO.P,D1,1,K*%
%TO.N,GND*%
X204220500Y-80120000D03*
%TO.P,D1,2,A*%
%TO.N,Net-(D1-A)*%
X202645500Y-80120000D03*
%TD*%
D24*
%TO.P,J2,1,In*%
%TO.N,Net-(J2-In)*%
X187853000Y-93660000D03*
%TO.P,J2,2,Ext*%
%TO.N,GND*%
X185313000Y-96200000D03*
X190393000Y-96200000D03*
X185313000Y-91120000D03*
X190393000Y-91120000D03*
%TD*%
D25*
%TO.P,SW3,1,A*%
%TO.N,/TX*%
X171873000Y-60280000D03*
%TO.P,SW3,2,B*%
%TO.N,+3.3V*%
X171873000Y-58280000D03*
%TO.P,SW3,3,C*%
%TO.N,/RX*%
X171873000Y-56280000D03*
%TO.P,SW3,4,A*%
X177873000Y-56280000D03*
%TO.P,SW3,5,B*%
%TO.N,+3.3V*%
X177873000Y-58280000D03*
%TO.P,SW3,6,C*%
%TO.N,/TX*%
X177873000Y-60280000D03*
%TD*%
D16*
%TO.P,C11,1*%
%TO.N,GND*%
X197053000Y-54845000D03*
%TO.P,C11,2*%
%TO.N,VCC*%
X197053000Y-56395000D03*
%TD*%
D26*
%TO.P,J3,A1B12,GND*%
%TO.N,GND*%
X191053000Y-55870000D03*
%TO.P,J3,A4B9,VBUS*%
%TO.N,VCC*%
X190253000Y-55870000D03*
D27*
%TO.P,J3,A5,CC1*%
%TO.N,Net-(J3-CC1)*%
X189103000Y-55870000D03*
%TO.P,J3,A6,D+*%
%TO.N,/USB_DP*%
X188103000Y-55870000D03*
%TO.P,J3,A7,D-*%
%TO.N,/USB_DN*%
X187603000Y-55870000D03*
%TO.P,J3,A8,SBU1*%
%TO.N,unconnected-(J3-SBU1-PadA8)*%
X186603000Y-55870000D03*
D26*
%TO.P,J3,B1A12,GND*%
%TO.N,GND*%
X184653000Y-55870000D03*
%TO.P,J3,B4A9,VBUS*%
%TO.N,VCC*%
X185453000Y-55870000D03*
D27*
%TO.P,J3,B5,CC2*%
%TO.N,Net-(J3-CC2)*%
X186103000Y-55870000D03*
%TO.P,J3,B6,D+*%
%TO.N,/USB_DP*%
X187103000Y-55870000D03*
%TO.P,J3,B7,D-*%
%TO.N,/USB_DN*%
X188603000Y-55870000D03*
%TO.P,J3,B8,SBU2*%
%TO.N,unconnected-(J3-SBU2-PadB8)*%
X189603000Y-55870000D03*
D28*
%TO.P,J3,S1,SHIELD*%
%TO.N,GND*%
X193178000Y-55320000D03*
D29*
X193178000Y-51120000D03*
D28*
X182528000Y-55320000D03*
D29*
X182528000Y-51120000D03*
%TD*%
D15*
%TO.P,C8,1*%
%TO.N,GND*%
X199503000Y-62813000D03*
%TO.P,C8,2*%
%TO.N,+3.3V*%
X201053000Y-62813000D03*
%TD*%
D18*
%TO.P,R10,1*%
%TO.N,/TX*%
X176718000Y-63040000D03*
%TO.P,R10,2*%
%TO.N,Net-(U1-IO4)*%
X178368000Y-63040000D03*
%TD*%
D30*
%TO.P,C4,1*%
%TO.N,Net-(C4-Pad1)*%
X171653000Y-84320000D03*
%TO.P,C4,2*%
%TO.N,GND*%
X171653000Y-82770000D03*
%TD*%
D23*
%TO.P,D2,1,K*%
%TO.N,GND*%
X204220500Y-77920000D03*
%TO.P,D2,2,A*%
%TO.N,Net-(D2-A)*%
X202645500Y-77920000D03*
%TD*%
D30*
%TO.P,C3,1*%
%TO.N,GND*%
X176853000Y-71795000D03*
%TO.P,C3,2*%
%TO.N,/EN*%
X176853000Y-70245000D03*
%TD*%
D19*
%TO.P,R5,1*%
%TO.N,/USB_DN*%
X176343000Y-80820000D03*
%TO.P,R5,2*%
%TO.N,Net-(U1-IO19)*%
X177363000Y-80820000D03*
%TD*%
D30*
%TO.P,C10,1*%
%TO.N,VCC*%
X195453000Y-56395000D03*
%TO.P,C10,2*%
%TO.N,GND*%
X195453000Y-54845000D03*
%TD*%
D20*
%TO.P,R8,1*%
%TO.N,Net-(D1-A)*%
X201065500Y-80120000D03*
%TO.P,R8,2*%
%TO.N,Net-(U1-IO36)*%
X199415500Y-80120000D03*
%TD*%
D31*
%TO.N,GND*%
X193553000Y-66520000D03*
X203653000Y-65420000D03*
X191153000Y-88420000D03*
X198953000Y-85120000D03*
X202353000Y-88120000D03*
X173353000Y-88120000D03*
X177253000Y-89520000D03*
X177053000Y-95620000D03*
X179753000Y-91720000D03*
X181953000Y-95420000D03*
X197853000Y-95820000D03*
X195553000Y-93020000D03*
X197553000Y-90320000D03*
X194453000Y-86420000D03*
X188553000Y-77520000D03*
X172353000Y-76020000D03*
X186553000Y-62020000D03*
X184953000Y-64620000D03*
X172253000Y-64020000D03*
X179053000Y-50020000D03*
X182153000Y-58520000D03*
X195253000Y-59820000D03*
X203953000Y-58420000D03*
X197953000Y-50420000D03*
%TO.N,/LORA_DIO0*%
X177653000Y-87220000D03*
%TO.N,GND*%
X173903000Y-65270000D03*
%TO.N,+3.3V*%
X173903000Y-67170000D03*
%TO.N,GND*%
X181053000Y-55320000D03*
X184053000Y-51120000D03*
X191553000Y-51120000D03*
X198253000Y-54870000D03*
X184653000Y-56920000D03*
X202053000Y-57120000D03*
X198453000Y-62820000D03*
%TO.N,+3.3V*%
X201053000Y-63770000D03*
%TO.N,GND*%
X198533000Y-65450000D03*
X200703000Y-68149000D03*
X200703000Y-69696000D03*
X201653000Y-71720000D03*
%TO.N,+3.3V*%
X204303000Y-68149000D03*
%TO.N,/SPI_MISO*%
X201053000Y-74020000D03*
%TO.N,GND*%
X201603000Y-75120000D03*
X204303000Y-83120000D03*
X202353000Y-91570000D03*
%TO.N,+3.3V*%
X181853000Y-88570000D03*
%TO.N,GND*%
X183403000Y-88570000D03*
X173353000Y-91520000D03*
X171653000Y-81570000D03*
X172153000Y-70070000D03*
X176853000Y-72720000D03*
X186815500Y-75657500D03*
%TO.N,/LORA_Reset*%
X183653000Y-67970000D03*
%TO.N,+3.3V*%
X174873000Y-58280000D03*
%TO.N,/USB_DN*%
X175553000Y-80820000D03*
%TO.N,/USB_DP*%
X175553000Y-82070000D03*
%TO.N,/SPI_CLK*%
X198703000Y-73070000D03*
%TO.N,GND*%
X186923000Y-87380000D03*
X188773000Y-90040000D03*
X186923000Y-90040000D03*
X186923000Y-88045000D03*
X188773000Y-87380000D03*
X186923000Y-88710000D03*
X188773000Y-88710000D03*
X188773000Y-88045000D03*
X188773000Y-89375000D03*
X186923000Y-89375000D03*
%TO.N,/SPI_MISO*%
X189313000Y-74970000D03*
%TO.N,/SPI_MOSI*%
X189313000Y-74170000D03*
X198703000Y-74370000D03*
%TO.N,/SPI_CLK*%
X189313000Y-73120000D03*
%TO.N,/USB_DP*%
X187603000Y-57070000D03*
%TO.N,/SD_CS*%
X198703000Y-76920000D03*
%TO.N,/CS_LORA*%
X189313000Y-72070000D03*
%TO.N,Net-(J3-CC2)*%
X187053000Y-53820000D03*
%TO.N,Net-(J3-CC1)*%
X188153000Y-53820000D03*
%TO.N,/USB_DN*%
X188103000Y-54670000D03*
%TO.N,GND*%
X187653000Y-67120000D03*
%TD*%
D32*
%TO.N,/LORA_DIO0*%
X180353000Y-84520000D02*
X177653000Y-87220000D01*
X187680500Y-83692500D02*
X186853000Y-84520000D01*
X186853000Y-84520000D02*
X180353000Y-84520000D01*
X187680500Y-83210000D02*
X187680500Y-83692500D01*
D33*
%TO.N,GND*%
X193178000Y-55320000D02*
X193178000Y-51120000D01*
D34*
X185415500Y-74570000D02*
X188215500Y-74570000D01*
X185415500Y-71770000D02*
X185415500Y-74570000D01*
X186815500Y-71770000D02*
X186815500Y-74570000D01*
X188215500Y-74570000D02*
X188215500Y-71770000D01*
X188215500Y-71770000D02*
X185415500Y-71770000D01*
D35*
%TO.N,Net-(U1-IO19)*%
X177363000Y-80820000D02*
X179435500Y-80820000D01*
%TO.N,Net-(U1-IO20)*%
X177363000Y-82070000D02*
X179455500Y-82070000D01*
D34*
%TO.N,GND*%
X195453000Y-54845000D02*
X193653000Y-54845000D01*
X176953000Y-65445000D02*
X175308000Y-65445000D01*
X179565500Y-65450000D02*
X176958000Y-65450000D01*
D36*
X182528000Y-55320000D02*
X183078000Y-55870000D01*
X200278000Y-57895000D02*
X201053000Y-57120000D01*
X192628000Y-55870000D02*
X191053000Y-55870000D01*
D33*
X182528000Y-51120000D02*
X182528000Y-55320000D01*
D34*
X197053000Y-54845000D02*
X195453000Y-54845000D01*
X193653000Y-54845000D02*
X193178000Y-55320000D01*
D36*
X193178000Y-55320000D02*
X192628000Y-55870000D01*
X200278000Y-58833000D02*
X200278000Y-57895000D01*
X183078000Y-55870000D02*
X184653000Y-55870000D01*
D34*
X185415500Y-73170000D02*
X188215500Y-73170000D01*
%TO.N,+3.3V*%
X175328000Y-68720000D02*
X175328000Y-67365000D01*
X179415500Y-66870000D02*
X177078000Y-66870000D01*
D36*
X201228000Y-61108000D02*
X201228000Y-62638000D01*
D34*
X175183000Y-67120000D02*
X176828000Y-67120000D01*
D37*
%TO.N,/EN*%
X174728000Y-71295000D02*
X174728000Y-84270000D01*
X176828000Y-70220000D02*
X175803000Y-70220000D01*
X176853000Y-70245000D02*
X176853000Y-68845000D01*
X175803000Y-70220000D02*
X174728000Y-71295000D01*
X179565500Y-67990000D02*
X177708000Y-67990000D01*
X177708000Y-67990000D02*
X176978000Y-68720000D01*
D34*
%TO.N,Net-(C4-Pad1)*%
X173078000Y-84270000D02*
X171703000Y-84270000D01*
X173078000Y-84270000D02*
X173078000Y-85686000D01*
D32*
%TO.N,/SPI_MISO*%
X195563000Y-75610000D02*
X197065500Y-75610000D01*
X189283000Y-74970000D02*
X194923000Y-74970000D01*
X194923000Y-74970000D02*
X195563000Y-75610000D01*
%TO.N,/SPI_MOSI*%
X197065500Y-74340000D02*
X198673000Y-74340000D01*
X198673000Y-74340000D02*
X198703000Y-74370000D01*
%TO.N,/SPI_CLK*%
X197015500Y-73120000D02*
X189273000Y-73120000D01*
D34*
%TO.N,Net-(U1-IO0)*%
X202353000Y-85961000D02*
X202353000Y-82900000D01*
X201413000Y-81960000D02*
X197065500Y-81960000D01*
X202353000Y-82900000D02*
X201413000Y-81960000D01*
%TO.N,/RX*%
X171873000Y-56280000D02*
X173170150Y-54982850D01*
X173170150Y-54982850D02*
X176575850Y-54982850D01*
X176575850Y-54982850D02*
X176718000Y-54840700D01*
X176575850Y-54982850D02*
X177873000Y-56280000D01*
X176718000Y-54840700D02*
X176718000Y-53430000D01*
D37*
%TO.N,Net-(U1-IO5)*%
X179565500Y-70530000D02*
X180715500Y-70530000D01*
X181814000Y-63661000D02*
X179558000Y-61405000D01*
X179558000Y-54620000D02*
X178368000Y-53430000D01*
X180715500Y-70530000D02*
X181814000Y-69431500D01*
X179558000Y-61405000D02*
X179558000Y-54620000D01*
X181814000Y-69431500D02*
X181814000Y-63661000D01*
D36*
%TO.N,VCC*%
X189255000Y-57820000D02*
X186253000Y-57820000D01*
X190155000Y-56920000D02*
X189255000Y-57820000D01*
X199328000Y-58833000D02*
X199328000Y-59495499D01*
X197728000Y-56395000D02*
X198453000Y-57120000D01*
X200776999Y-59946500D02*
X201228000Y-59495499D01*
X195453000Y-56395000D02*
X197053000Y-56395000D01*
X199328000Y-59495499D02*
X199779001Y-59946500D01*
X194078000Y-56395000D02*
X195453000Y-56395000D01*
X199328000Y-58833000D02*
X199328000Y-57295000D01*
X190253000Y-56822000D02*
X190155000Y-56920000D01*
X198453000Y-57120000D02*
X199503000Y-57120000D01*
X197053000Y-56395000D02*
X197728000Y-56395000D01*
X199779001Y-59946500D02*
X200776999Y-59946500D01*
X186253000Y-57820000D02*
X185453000Y-57020000D01*
X190155000Y-56920000D02*
X193553000Y-56920000D01*
X201228000Y-59495499D02*
X201228000Y-58833000D01*
X193553000Y-56920000D02*
X194078000Y-56395000D01*
X185453000Y-57020000D02*
X185453000Y-55870000D01*
X190253000Y-55870000D02*
X190253000Y-56822000D01*
D32*
%TO.N,/USB_DP*%
X187103000Y-55870000D02*
X187103000Y-56570000D01*
X188103000Y-56570000D02*
X188103000Y-55870000D01*
X188103000Y-56570000D02*
X187603000Y-57070000D01*
X187103000Y-56570000D02*
X187603000Y-57070000D01*
%TO.N,/SD_CS*%
X197065500Y-76880000D02*
X198663000Y-76880000D01*
X198663000Y-76880000D02*
X198703000Y-76920000D01*
%TO.N,/CS_LORA*%
X189223000Y-72070000D02*
X196795500Y-72070000D01*
D34*
%TO.N,/TX*%
X176718000Y-63040000D02*
X176718000Y-61719300D01*
X176718000Y-61719300D02*
X176575850Y-61577150D01*
X176575850Y-61577150D02*
X177873000Y-60280000D01*
X173170150Y-61577150D02*
X176575850Y-61577150D01*
X171873000Y-60280000D02*
X173170150Y-61577150D01*
D37*
%TO.N,Net-(U1-IO4)*%
X181213000Y-64220000D02*
X180033000Y-63040000D01*
X181213000Y-68344500D02*
X181213000Y-64220000D01*
X180033000Y-63040000D02*
X178368000Y-63040000D01*
X179565500Y-69260000D02*
X180297500Y-69260000D01*
X180297500Y-69260000D02*
X181213000Y-68344500D01*
D32*
%TO.N,Net-(J3-CC2)*%
X187003000Y-53870000D02*
X186953000Y-53870000D01*
X186103000Y-54720000D02*
X186103000Y-55870000D01*
X186953000Y-53870000D02*
X186103000Y-54720000D01*
%TO.N,Net-(J3-CC1)*%
X189103000Y-54770000D02*
X188153000Y-53820000D01*
X189103000Y-55870000D02*
X189103000Y-54770000D01*
%TO.N,/USB_DN*%
X188603000Y-55170000D02*
X188103000Y-54670000D01*
X188603000Y-55870000D02*
X188603000Y-55170000D01*
X187603000Y-55170000D02*
X188103000Y-54670000D01*
D37*
%TO.N,Net-(D1-A)*%
X201065500Y-80120000D02*
X202645500Y-80120000D01*
%TO.N,Net-(D2-A)*%
X201065500Y-77920000D02*
X202645500Y-77920000D01*
%TO.N,Net-(U1-IO37)*%
X199185500Y-78150000D02*
X199415500Y-77920000D01*
X197065500Y-78150000D02*
X199185500Y-78150000D01*
%TO.N,Net-(U1-IO36)*%
X197065500Y-79420000D02*
X198715500Y-79420000D01*
X198715500Y-79420000D02*
X199415500Y-80120000D01*
D32*
%TO.N,/SPI_CLK*%
X197065500Y-73070000D02*
X198703000Y-73070000D01*
D37*
%TO.N,GND*%
X204220500Y-80120000D02*
X204220500Y-77920000D01*
D32*
%TO.N,/USB_DN*%
X187603000Y-55870000D02*
X187603000Y-55170000D01*
D35*
%TO.N,/USB_DP*%
X176343000Y-82070000D02*
X175553000Y-82070000D01*
%TO.N,/USB_DN*%
X176343000Y-80820000D02*
X175553000Y-80820000D01*
D34*
%TO.N,+3.3V*%
X171873000Y-58280000D02*
X174873000Y-58280000D01*
X174873000Y-58280000D02*
X177873000Y-58280000D01*
D32*
%TO.N,/SPI_MOSI*%
X195573000Y-74340000D02*
X195403000Y-74170000D01*
X195403000Y-74170000D02*
X189313000Y-74170000D01*
X197065500Y-74340000D02*
X195573000Y-74340000D01*
%TO.N,/LORA_Reset*%
X197065500Y-67990000D02*
X183673000Y-67990000D01*
X183673000Y-67990000D02*
X183653000Y-67970000D01*
D34*
%TO.N,GND*%
X186815500Y-75657500D02*
X186815500Y-74570000D01*
X176853000Y-71795000D02*
X176853000Y-72720000D01*
X171653000Y-82770000D02*
X171653000Y-81570000D01*
X173353000Y-90279000D02*
X173353000Y-91520000D01*
X202353000Y-90279000D02*
X202353000Y-91570000D01*
D37*
X204220500Y-83037500D02*
X204303000Y-83120000D01*
X204220500Y-80120000D02*
X204220500Y-83037500D01*
D32*
%TO.N,/SPI_MISO*%
X200253000Y-74020000D02*
X198663000Y-75610000D01*
X201053000Y-74020000D02*
X200253000Y-74020000D01*
X198663000Y-75610000D02*
X197065500Y-75610000D01*
D34*
%TO.N,GND*%
X198533000Y-65450000D02*
X197065500Y-65450000D01*
D36*
%TO.N,+3.3V*%
X201053000Y-62813000D02*
X201053000Y-63770000D01*
%TO.N,GND*%
X199503000Y-62813000D02*
X198460000Y-62813000D01*
X198460000Y-62813000D02*
X198453000Y-62820000D01*
X201053000Y-57120000D02*
X202053000Y-57120000D01*
X184653000Y-55870000D02*
X184653000Y-56920000D01*
D34*
X197053000Y-54845000D02*
X198228000Y-54845000D01*
X198228000Y-54845000D02*
X198253000Y-54870000D01*
D33*
X193178000Y-51120000D02*
X191553000Y-51120000D01*
X182528000Y-51120000D02*
X184053000Y-51120000D01*
D36*
X182528000Y-55320000D02*
X181053000Y-55320000D01*
D34*
%TO.N,+3.3V*%
X175133000Y-67170000D02*
X173903000Y-67170000D01*
%TO.N,GND*%
X175133000Y-65270000D02*
X173903000Y-65270000D01*
%TD*%
%TA.AperFunction,Conductor*%
%TO.N,GND*%
G36*
X204359061Y-48421097D02*
G01*
X204477317Y-48432744D01*
X204501145Y-48437483D01*
X204609005Y-48470202D01*
X204631453Y-48479501D01*
X204730849Y-48532629D01*
X204751059Y-48546133D01*
X204838179Y-48617630D01*
X204855369Y-48634820D01*
X204926866Y-48721940D01*
X204940370Y-48742150D01*
X204993495Y-48841538D01*
X205002798Y-48863997D01*
X205035514Y-48971848D01*
X205040256Y-48995688D01*
X205051903Y-49113937D01*
X205052500Y-49126092D01*
X205052500Y-67467059D01*
X205032815Y-67534098D01*
X204980011Y-67579853D01*
X204910853Y-67589797D01*
X204847297Y-67560772D01*
X204840819Y-67554740D01*
X204813292Y-67527213D01*
X204813288Y-67527210D01*
X204682185Y-67439609D01*
X204682172Y-67439602D01*
X204536501Y-67379264D01*
X204536489Y-67379261D01*
X204381845Y-67348500D01*
X204381842Y-67348500D01*
X204224158Y-67348500D01*
X204224155Y-67348500D01*
X204069510Y-67379261D01*
X204069498Y-67379264D01*
X203923827Y-67439602D01*
X203923814Y-67439609D01*
X203792711Y-67527210D01*
X203792707Y-67527213D01*
X203681213Y-67638707D01*
X203681210Y-67638711D01*
X203593609Y-67769814D01*
X203593602Y-67769827D01*
X203533264Y-67915498D01*
X203533261Y-67915510D01*
X203502500Y-68070153D01*
X203502500Y-68227846D01*
X203533261Y-68382489D01*
X203533264Y-68382501D01*
X203593602Y-68528172D01*
X203593609Y-68528185D01*
X203681210Y-68659288D01*
X203681213Y-68659292D01*
X203792707Y-68770786D01*
X203792711Y-68770789D01*
X203923814Y-68858390D01*
X203923827Y-68858397D01*
X204069498Y-68918735D01*
X204069503Y-68918737D01*
X204224153Y-68949499D01*
X204224156Y-68949500D01*
X204224158Y-68949500D01*
X204381844Y-68949500D01*
X204381845Y-68949499D01*
X204536497Y-68918737D01*
X204682179Y-68858394D01*
X204813289Y-68770789D01*
X204821955Y-68762123D01*
X204840819Y-68743260D01*
X204902142Y-68709775D01*
X204971834Y-68714759D01*
X205027767Y-68756631D01*
X205052184Y-68822095D01*
X205052500Y-68830941D01*
X205052500Y-76975354D01*
X205032815Y-77042393D01*
X204980011Y-77088148D01*
X204910853Y-77098092D01*
X204863403Y-77080893D01*
X204745077Y-77007908D01*
X204745072Y-77007906D01*
X204585583Y-76955057D01*
X204487150Y-76945000D01*
X204470500Y-76945000D01*
X204470500Y-78894999D01*
X204487136Y-78894999D01*
X204487152Y-78894998D01*
X204585583Y-78884943D01*
X204745072Y-78832093D01*
X204745079Y-78832090D01*
X204863402Y-78759107D01*
X204930795Y-78740666D01*
X204997458Y-78761588D01*
X205042228Y-78815230D01*
X205052500Y-78864645D01*
X205052500Y-79175354D01*
X205032815Y-79242393D01*
X204980011Y-79288148D01*
X204910853Y-79298092D01*
X204863403Y-79280893D01*
X204745077Y-79207908D01*
X204745072Y-79207906D01*
X204585583Y-79155057D01*
X204487150Y-79145000D01*
X204470500Y-79145000D01*
X204470500Y-81094999D01*
X204487136Y-81094999D01*
X204487152Y-81094998D01*
X204585583Y-81084943D01*
X204745072Y-81032093D01*
X204745079Y-81032090D01*
X204863402Y-80959107D01*
X204930795Y-80940666D01*
X204997458Y-80961588D01*
X205042228Y-81015230D01*
X205052500Y-81064645D01*
X205052500Y-97113907D01*
X205051903Y-97126061D01*
X205051903Y-97126062D01*
X205040256Y-97244311D01*
X205035514Y-97268151D01*
X205002798Y-97376002D01*
X204993495Y-97398461D01*
X204940370Y-97497849D01*
X204926866Y-97518059D01*
X204855369Y-97605179D01*
X204838179Y-97622369D01*
X204751059Y-97693866D01*
X204730849Y-97707370D01*
X204631461Y-97760495D01*
X204609002Y-97769798D01*
X204501151Y-97802514D01*
X204477311Y-97807256D01*
X204390215Y-97815834D01*
X204359060Y-97818903D01*
X204346907Y-97819500D01*
X191522408Y-97819500D01*
X191455369Y-97799815D01*
X191409614Y-97747011D01*
X191399670Y-97677853D01*
X191428695Y-97614297D01*
X191440992Y-97602710D01*
X191441064Y-97601617D01*
X190717033Y-96877586D01*
X190748263Y-96864651D01*
X190871104Y-96782572D01*
X190975572Y-96678104D01*
X191057651Y-96555263D01*
X191070586Y-96524033D01*
X191794617Y-97248064D01*
X191851192Y-97174334D01*
X191851197Y-97174327D01*
X191965893Y-96975668D01*
X191965897Y-96975659D01*
X192053681Y-96763730D01*
X192113057Y-96542137D01*
X192142998Y-96314710D01*
X192143000Y-96314694D01*
X192143000Y-96085305D01*
X192142998Y-96085289D01*
X192113057Y-95857862D01*
X192053681Y-95636269D01*
X191965897Y-95424340D01*
X191965893Y-95424330D01*
X191851194Y-95225666D01*
X191794618Y-95151934D01*
X191794617Y-95151934D01*
X191070586Y-95875965D01*
X191057651Y-95844737D01*
X190975572Y-95721896D01*
X190871104Y-95617428D01*
X190748263Y-95535349D01*
X190717033Y-95522412D01*
X191254260Y-94985186D01*
X199952500Y-94985186D01*
X199952500Y-95254813D01*
X199982686Y-95522719D01*
X199982688Y-95522731D01*
X200042684Y-95785594D01*
X200042687Y-95785602D01*
X200131734Y-96040082D01*
X200248714Y-96282994D01*
X200248716Y-96282997D01*
X200392162Y-96511289D01*
X200560266Y-96722085D01*
X200750915Y-96912734D01*
X200961711Y-97080838D01*
X201190003Y-97224284D01*
X201432921Y-97341267D01*
X201624049Y-97408145D01*
X201687397Y-97430312D01*
X201687405Y-97430315D01*
X201687408Y-97430315D01*
X201687409Y-97430316D01*
X201950268Y-97490312D01*
X202218187Y-97520499D01*
X202218188Y-97520500D01*
X202218191Y-97520500D01*
X202487812Y-97520500D01*
X202487812Y-97520499D01*
X202755732Y-97490312D01*
X203018591Y-97430316D01*
X203273079Y-97341267D01*
X203515997Y-97224284D01*
X203744289Y-97080838D01*
X203955085Y-96912734D01*
X204145734Y-96722085D01*
X204313838Y-96511289D01*
X204457284Y-96282997D01*
X204574267Y-96040079D01*
X204663316Y-95785591D01*
X204723312Y-95522732D01*
X204753500Y-95254809D01*
X204753500Y-94985191D01*
X204723312Y-94717268D01*
X204663316Y-94454409D01*
X204656833Y-94435883D01*
X204582653Y-94223887D01*
X204574267Y-94199921D01*
X204457284Y-93957003D01*
X204313838Y-93728711D01*
X204145734Y-93517915D01*
X203955085Y-93327266D01*
X203943177Y-93317770D01*
X203901549Y-93284573D01*
X203744289Y-93159162D01*
X203515997Y-93015716D01*
X203515994Y-93015714D01*
X203273082Y-92898734D01*
X203018602Y-92809687D01*
X203018594Y-92809684D01*
X202821446Y-92764687D01*
X202755732Y-92749688D01*
X202755728Y-92749687D01*
X202755719Y-92749686D01*
X202487813Y-92719500D01*
X202487809Y-92719500D01*
X202218191Y-92719500D01*
X202218186Y-92719500D01*
X201950280Y-92749686D01*
X201950268Y-92749688D01*
X201687405Y-92809684D01*
X201687397Y-92809687D01*
X201432917Y-92898734D01*
X201190005Y-93015714D01*
X200961712Y-93159161D01*
X200750915Y-93327265D01*
X200560265Y-93517915D01*
X200392161Y-93728712D01*
X200248714Y-93957005D01*
X200131734Y-94199917D01*
X200042687Y-94454397D01*
X200042684Y-94454405D01*
X199982688Y-94717268D01*
X199982686Y-94717280D01*
X199952500Y-94985186D01*
X191254260Y-94985186D01*
X191345415Y-94894031D01*
X191441064Y-94798381D01*
X191441064Y-94798380D01*
X191367331Y-94741805D01*
X191367324Y-94741799D01*
X191168669Y-94627106D01*
X191168659Y-94627102D01*
X190956730Y-94539318D01*
X190735137Y-94479942D01*
X190507710Y-94450001D01*
X190507694Y-94450000D01*
X190278306Y-94450000D01*
X190278289Y-94450001D01*
X190050862Y-94479942D01*
X189829269Y-94539318D01*
X189617340Y-94627102D01*
X189617328Y-94627108D01*
X189566021Y-94656729D01*
X189498120Y-94673200D01*
X189432094Y-94650347D01*
X189388905Y-94595425D01*
X189382264Y-94525872D01*
X189396633Y-94487348D01*
X189426344Y-94435888D01*
X189514158Y-94223887D01*
X189573548Y-94002238D01*
X189603500Y-93774734D01*
X189603500Y-93545266D01*
X189573548Y-93317762D01*
X189514158Y-93096113D01*
X189432401Y-92898734D01*
X189426349Y-92884123D01*
X189426346Y-92884117D01*
X189426344Y-92884112D01*
X189396636Y-92832656D01*
X189380163Y-92764760D01*
X189403015Y-92698732D01*
X189457935Y-92655541D01*
X189527488Y-92648899D01*
X189566022Y-92663271D01*
X189617323Y-92692889D01*
X189617340Y-92692897D01*
X189829269Y-92780681D01*
X190050862Y-92840057D01*
X190278289Y-92869998D01*
X190278306Y-92870000D01*
X190507694Y-92870000D01*
X190507710Y-92869998D01*
X190735137Y-92840057D01*
X190956730Y-92780681D01*
X191168659Y-92692897D01*
X191168668Y-92692893D01*
X191367327Y-92578197D01*
X191367334Y-92578192D01*
X191441064Y-92521617D01*
X190717033Y-91797586D01*
X190748263Y-91784651D01*
X190871104Y-91702572D01*
X190975572Y-91598104D01*
X191057651Y-91475263D01*
X191070586Y-91444033D01*
X191794617Y-92168064D01*
X191851192Y-92094334D01*
X191851197Y-92094327D01*
X191965893Y-91895668D01*
X191965897Y-91895659D01*
X192053681Y-91683730D01*
X192113057Y-91462137D01*
X192142998Y-91234710D01*
X192143000Y-91234694D01*
X192143000Y-91005305D01*
X192142998Y-91005289D01*
X192139253Y-90976844D01*
X201003000Y-90976844D01*
X201009401Y-91036372D01*
X201009403Y-91036379D01*
X201059645Y-91171086D01*
X201059649Y-91171093D01*
X201145809Y-91286187D01*
X201145812Y-91286190D01*
X201260906Y-91372350D01*
X201260913Y-91372354D01*
X201395620Y-91422596D01*
X201395627Y-91422598D01*
X201455155Y-91428999D01*
X201455172Y-91429000D01*
X202103000Y-91429000D01*
X202603000Y-91429000D01*
X203250828Y-91429000D01*
X203250844Y-91428999D01*
X203310372Y-91422598D01*
X203310379Y-91422596D01*
X203445086Y-91372354D01*
X203445093Y-91372350D01*
X203560187Y-91286190D01*
X203560190Y-91286187D01*
X203646350Y-91171093D01*
X203646354Y-91171086D01*
X203696596Y-91036379D01*
X203696598Y-91036372D01*
X203702999Y-90976844D01*
X203703000Y-90976827D01*
X203703000Y-90529000D01*
X202603000Y-90529000D01*
X202603000Y-91429000D01*
X202103000Y-91429000D01*
X202103000Y-90529000D01*
X201003000Y-90529000D01*
X201003000Y-90976844D01*
X192139253Y-90976844D01*
X192113057Y-90777862D01*
X192053680Y-90556266D01*
X192040767Y-90525090D01*
X191965897Y-90344340D01*
X191965893Y-90344330D01*
X191851194Y-90145666D01*
X191794618Y-90071934D01*
X191794617Y-90071934D01*
X191070586Y-90795965D01*
X191057651Y-90764737D01*
X190975572Y-90641896D01*
X190871104Y-90537428D01*
X190748263Y-90455349D01*
X190717032Y-90442412D01*
X191441064Y-89718381D01*
X191441064Y-89718380D01*
X191386129Y-89676228D01*
X191386127Y-89676226D01*
X191367339Y-89661810D01*
X191367324Y-89661799D01*
X191227644Y-89581155D01*
X201003000Y-89581155D01*
X201003000Y-90029000D01*
X202103000Y-90029000D01*
X202603000Y-90029000D01*
X203703000Y-90029000D01*
X203703000Y-89581172D01*
X203702999Y-89581155D01*
X203696598Y-89521627D01*
X203696596Y-89521620D01*
X203646354Y-89386913D01*
X203646350Y-89386906D01*
X203560190Y-89271812D01*
X203560187Y-89271809D01*
X203445093Y-89185649D01*
X203445086Y-89185645D01*
X203310379Y-89135403D01*
X203310372Y-89135401D01*
X203250844Y-89129000D01*
X202603000Y-89129000D01*
X202603000Y-90029000D01*
X202103000Y-90029000D01*
X202103000Y-89129000D01*
X201455155Y-89129000D01*
X201395627Y-89135401D01*
X201395620Y-89135403D01*
X201260913Y-89185645D01*
X201260906Y-89185649D01*
X201145812Y-89271809D01*
X201145809Y-89271812D01*
X201059649Y-89386906D01*
X201059645Y-89386913D01*
X201009403Y-89521620D01*
X201009401Y-89521627D01*
X201003000Y-89581155D01*
X191227644Y-89581155D01*
X191168669Y-89547106D01*
X191168659Y-89547102D01*
X190956730Y-89459318D01*
X190735137Y-89399942D01*
X190507710Y-89370001D01*
X190507694Y-89370000D01*
X190278306Y-89370000D01*
X190278289Y-89370001D01*
X190050862Y-89399942D01*
X189829269Y-89459318D01*
X189617340Y-89547102D01*
X189617330Y-89547106D01*
X189418673Y-89661801D01*
X189418659Y-89661810D01*
X189344934Y-89718380D01*
X190068966Y-90442413D01*
X190037737Y-90455349D01*
X189914896Y-90537428D01*
X189810428Y-90641896D01*
X189728349Y-90764737D01*
X189715412Y-90795966D01*
X188991380Y-90071934D01*
X188934810Y-90145659D01*
X188934801Y-90145673D01*
X188820106Y-90344330D01*
X188820102Y-90344340D01*
X188732318Y-90556269D01*
X188672942Y-90777862D01*
X188643001Y-91005289D01*
X188643000Y-91005305D01*
X188643000Y-91234694D01*
X188643001Y-91234710D01*
X188672942Y-91462137D01*
X188732318Y-91683730D01*
X188820102Y-91895659D01*
X188820104Y-91895664D01*
X188849729Y-91946977D01*
X188866200Y-92014878D01*
X188843348Y-92080904D01*
X188788426Y-92124094D01*
X188718873Y-92130735D01*
X188680346Y-92116365D01*
X188628888Y-92086656D01*
X188628882Y-92086653D01*
X188628876Y-92086650D01*
X188416887Y-91998842D01*
X188367127Y-91985509D01*
X188195238Y-91939452D01*
X188157215Y-91934446D01*
X187967741Y-91909500D01*
X187967734Y-91909500D01*
X187738266Y-91909500D01*
X187738258Y-91909500D01*
X187521715Y-91938009D01*
X187510762Y-91939452D01*
X187417076Y-91964554D01*
X187289112Y-91998842D01*
X187077123Y-92086650D01*
X187077109Y-92086657D01*
X187025658Y-92116363D01*
X186957758Y-92132836D01*
X186891731Y-92109983D01*
X186848540Y-92055062D01*
X186841899Y-91985509D01*
X186856271Y-91946976D01*
X186885893Y-91895668D01*
X186885897Y-91895659D01*
X186973681Y-91683730D01*
X187033057Y-91462137D01*
X187062998Y-91234710D01*
X187063000Y-91234694D01*
X187063000Y-91005305D01*
X187062998Y-91005289D01*
X187033057Y-90777862D01*
X186973681Y-90556269D01*
X186885897Y-90344340D01*
X186885893Y-90344330D01*
X186771194Y-90145666D01*
X186714618Y-90071934D01*
X186714617Y-90071934D01*
X185990586Y-90795966D01*
X185977651Y-90764737D01*
X185895572Y-90641896D01*
X185791104Y-90537428D01*
X185668263Y-90455349D01*
X185637032Y-90442412D01*
X186361064Y-89718381D01*
X186361064Y-89718380D01*
X186287331Y-89661805D01*
X186287324Y-89661799D01*
X186088669Y-89547106D01*
X186088659Y-89547102D01*
X185876730Y-89459318D01*
X185655137Y-89399942D01*
X185427710Y-89370001D01*
X185427694Y-89370000D01*
X185198306Y-89370000D01*
X185198289Y-89370001D01*
X184970862Y-89399942D01*
X184749269Y-89459318D01*
X184537340Y-89547102D01*
X184537330Y-89547106D01*
X184338673Y-89661801D01*
X184338659Y-89661810D01*
X184264934Y-89718380D01*
X184988966Y-90442413D01*
X184957737Y-90455349D01*
X184834896Y-90537428D01*
X184730428Y-90641896D01*
X184648349Y-90764737D01*
X184635413Y-90795966D01*
X183911380Y-90071934D01*
X183854810Y-90145659D01*
X183854801Y-90145673D01*
X183740106Y-90344330D01*
X183740102Y-90344340D01*
X183652318Y-90556269D01*
X183592942Y-90777862D01*
X183563001Y-91005289D01*
X183563000Y-91005305D01*
X183563000Y-91234694D01*
X183563001Y-91234710D01*
X183592942Y-91462137D01*
X183652318Y-91683730D01*
X183740102Y-91895659D01*
X183740106Y-91895669D01*
X183854799Y-92094324D01*
X183854805Y-92094331D01*
X183911381Y-92168064D01*
X184635412Y-91444032D01*
X184648349Y-91475263D01*
X184730428Y-91598104D01*
X184834896Y-91702572D01*
X184957737Y-91784651D01*
X184988966Y-91797586D01*
X184264934Y-92521617D01*
X184264934Y-92521618D01*
X184338666Y-92578194D01*
X184537330Y-92692893D01*
X184537340Y-92692897D01*
X184749269Y-92780681D01*
X184970862Y-92840057D01*
X185198289Y-92869998D01*
X185198306Y-92870000D01*
X185427694Y-92870000D01*
X185427710Y-92869998D01*
X185655137Y-92840057D01*
X185876730Y-92780681D01*
X186088659Y-92692897D01*
X186088668Y-92692893D01*
X186139976Y-92663271D01*
X186207876Y-92646798D01*
X186273903Y-92669650D01*
X186317094Y-92724572D01*
X186323735Y-92794125D01*
X186309363Y-92832658D01*
X186279657Y-92884109D01*
X186279650Y-92884123D01*
X186191842Y-93096112D01*
X186132453Y-93317759D01*
X186132451Y-93317770D01*
X186102500Y-93545258D01*
X186102500Y-93774741D01*
X186126497Y-93957003D01*
X186132452Y-94002238D01*
X186132453Y-94002240D01*
X186191842Y-94223887D01*
X186279650Y-94435876D01*
X186279653Y-94435882D01*
X186279656Y-94435888D01*
X186309363Y-94487343D01*
X186325836Y-94555240D01*
X186302984Y-94621267D01*
X186248063Y-94664458D01*
X186178510Y-94671100D01*
X186139977Y-94656729D01*
X186088664Y-94627104D01*
X186088659Y-94627102D01*
X185876730Y-94539318D01*
X185655137Y-94479942D01*
X185427710Y-94450001D01*
X185427694Y-94450000D01*
X185198306Y-94450000D01*
X185198289Y-94450001D01*
X184970862Y-94479942D01*
X184749269Y-94539318D01*
X184537340Y-94627102D01*
X184537330Y-94627106D01*
X184338673Y-94741801D01*
X184338659Y-94741810D01*
X184264934Y-94798380D01*
X184988966Y-95522412D01*
X184957737Y-95535349D01*
X184834896Y-95617428D01*
X184730428Y-95721896D01*
X184648349Y-95844737D01*
X184635413Y-95875966D01*
X183911380Y-95151934D01*
X183854810Y-95225659D01*
X183854801Y-95225673D01*
X183740106Y-95424330D01*
X183740102Y-95424340D01*
X183652318Y-95636269D01*
X183592942Y-95857862D01*
X183563001Y-96085289D01*
X183563000Y-96085305D01*
X183563000Y-96314694D01*
X183563001Y-96314710D01*
X183592942Y-96542137D01*
X183652318Y-96763730D01*
X183740102Y-96975659D01*
X183740106Y-96975669D01*
X183854799Y-97174324D01*
X183854805Y-97174331D01*
X183911381Y-97248064D01*
X184635412Y-96524032D01*
X184648349Y-96555263D01*
X184730428Y-96678104D01*
X184834896Y-96782572D01*
X184957737Y-96864651D01*
X184988965Y-96877586D01*
X184264934Y-97601617D01*
X184265188Y-97605493D01*
X184300280Y-97653551D01*
X184304435Y-97723297D01*
X184270224Y-97784218D01*
X184208507Y-97816971D01*
X184183591Y-97819500D01*
X171359093Y-97819500D01*
X171346939Y-97818903D01*
X171296081Y-97813893D01*
X171228688Y-97807256D01*
X171204848Y-97802514D01*
X171096997Y-97769798D01*
X171074541Y-97760496D01*
X170975150Y-97707370D01*
X170954940Y-97693866D01*
X170867820Y-97622369D01*
X170850630Y-97605179D01*
X170779133Y-97518059D01*
X170765629Y-97497849D01*
X170761601Y-97490313D01*
X170712501Y-97398453D01*
X170703201Y-97376002D01*
X170670483Y-97268145D01*
X170665744Y-97244317D01*
X170654097Y-97126061D01*
X170653500Y-97113907D01*
X170653500Y-94985186D01*
X170952500Y-94985186D01*
X170952500Y-95254813D01*
X170982686Y-95522719D01*
X170982688Y-95522731D01*
X171042684Y-95785594D01*
X171042687Y-95785602D01*
X171131734Y-96040082D01*
X171248714Y-96282994D01*
X171248716Y-96282997D01*
X171392162Y-96511289D01*
X171560266Y-96722085D01*
X171750915Y-96912734D01*
X171961711Y-97080838D01*
X172190003Y-97224284D01*
X172432921Y-97341267D01*
X172624049Y-97408145D01*
X172687397Y-97430312D01*
X172687405Y-97430315D01*
X172687408Y-97430315D01*
X172687409Y-97430316D01*
X172950268Y-97490312D01*
X173218187Y-97520499D01*
X173218188Y-97520500D01*
X173218191Y-97520500D01*
X173487812Y-97520500D01*
X173487812Y-97520499D01*
X173755732Y-97490312D01*
X174018591Y-97430316D01*
X174273079Y-97341267D01*
X174515997Y-97224284D01*
X174744289Y-97080838D01*
X174955085Y-96912734D01*
X175145734Y-96722085D01*
X175313838Y-96511289D01*
X175457284Y-96282997D01*
X175574267Y-96040079D01*
X175663316Y-95785591D01*
X175723312Y-95522732D01*
X175753500Y-95254809D01*
X175753500Y-94985191D01*
X175723312Y-94717268D01*
X175663316Y-94454409D01*
X175656833Y-94435883D01*
X175582653Y-94223887D01*
X175574267Y-94199921D01*
X175457284Y-93957003D01*
X175313838Y-93728711D01*
X175145734Y-93517915D01*
X174955085Y-93327266D01*
X174943177Y-93317770D01*
X174901549Y-93284573D01*
X174744289Y-93159162D01*
X174515997Y-93015716D01*
X174515994Y-93015714D01*
X174273082Y-92898734D01*
X174018602Y-92809687D01*
X174018594Y-92809684D01*
X173821446Y-92764687D01*
X173755732Y-92749688D01*
X173755728Y-92749687D01*
X173755719Y-92749686D01*
X173487813Y-92719500D01*
X173487809Y-92719500D01*
X173218191Y-92719500D01*
X173218186Y-92719500D01*
X172950280Y-92749686D01*
X172950268Y-92749688D01*
X172687405Y-92809684D01*
X172687397Y-92809687D01*
X172432917Y-92898734D01*
X172190005Y-93015714D01*
X171961712Y-93159161D01*
X171750915Y-93327265D01*
X171560265Y-93517915D01*
X171392161Y-93728712D01*
X171248714Y-93957005D01*
X171131734Y-94199917D01*
X171042687Y-94454397D01*
X171042684Y-94454405D01*
X170982688Y-94717268D01*
X170982686Y-94717280D01*
X170952500Y-94985186D01*
X170653500Y-94985186D01*
X170653500Y-90976844D01*
X172003000Y-90976844D01*
X172009401Y-91036372D01*
X172009403Y-91036379D01*
X172059645Y-91171086D01*
X172059649Y-91171093D01*
X172145809Y-91286187D01*
X172145812Y-91286190D01*
X172260906Y-91372350D01*
X172260913Y-91372354D01*
X172395620Y-91422596D01*
X172395627Y-91422598D01*
X172455155Y-91428999D01*
X172455172Y-91429000D01*
X173103000Y-91429000D01*
X173603000Y-91429000D01*
X174250828Y-91429000D01*
X174250844Y-91428999D01*
X174310372Y-91422598D01*
X174310379Y-91422596D01*
X174445086Y-91372354D01*
X174445093Y-91372350D01*
X174560187Y-91286190D01*
X174560190Y-91286187D01*
X174646350Y-91171093D01*
X174646354Y-91171086D01*
X174696596Y-91036379D01*
X174696598Y-91036373D01*
X174701801Y-90987984D01*
X174701801Y-90987981D01*
X174702999Y-90976836D01*
X174703000Y-90976827D01*
X174703000Y-90529000D01*
X173603000Y-90529000D01*
X173603000Y-91429000D01*
X173103000Y-91429000D01*
X173103000Y-90529000D01*
X172003000Y-90529000D01*
X172003000Y-90976844D01*
X170653500Y-90976844D01*
X170653500Y-89581155D01*
X172003000Y-89581155D01*
X172003000Y-90029000D01*
X173103000Y-90029000D01*
X173603000Y-90029000D01*
X174703000Y-90029000D01*
X174703000Y-89581172D01*
X174702999Y-89581155D01*
X174696598Y-89521627D01*
X174696596Y-89521620D01*
X174646354Y-89386913D01*
X174646350Y-89386906D01*
X174560190Y-89271812D01*
X174560187Y-89271809D01*
X174445093Y-89185649D01*
X174445086Y-89185645D01*
X174310379Y-89135403D01*
X174310372Y-89135401D01*
X174250844Y-89129000D01*
X173603000Y-89129000D01*
X173603000Y-90029000D01*
X173103000Y-90029000D01*
X173103000Y-89129000D01*
X172455155Y-89129000D01*
X172395627Y-89135401D01*
X172395620Y-89135403D01*
X172260913Y-89185645D01*
X172260906Y-89185649D01*
X172145812Y-89271809D01*
X172145809Y-89271812D01*
X172059649Y-89386906D01*
X172059645Y-89386913D01*
X172009403Y-89521620D01*
X172009401Y-89521627D01*
X172003000Y-89581155D01*
X170653500Y-89581155D01*
X170653500Y-88491153D01*
X181052500Y-88491153D01*
X181052500Y-88648846D01*
X181083261Y-88803489D01*
X181083264Y-88803501D01*
X181143602Y-88949172D01*
X181143609Y-88949185D01*
X181231210Y-89080288D01*
X181231213Y-89080292D01*
X181342707Y-89191786D01*
X181342711Y-89191789D01*
X181473814Y-89279390D01*
X181473827Y-89279397D01*
X181619498Y-89339735D01*
X181619503Y-89339737D01*
X181771644Y-89370000D01*
X181774153Y-89370499D01*
X181774156Y-89370500D01*
X181774158Y-89370500D01*
X181931844Y-89370500D01*
X181931845Y-89370499D01*
X182086497Y-89339737D01*
X182232179Y-89279394D01*
X182363289Y-89191789D01*
X182474789Y-89080289D01*
X182562394Y-88949179D01*
X182622737Y-88803497D01*
X182653500Y-88648842D01*
X182653500Y-88491158D01*
X182653500Y-88491155D01*
X182653499Y-88491153D01*
X182622738Y-88336510D01*
X182622737Y-88336503D01*
X182622735Y-88336498D01*
X182562397Y-88190827D01*
X182562390Y-88190814D01*
X182474789Y-88059711D01*
X182474786Y-88059707D01*
X182363292Y-87948213D01*
X182363288Y-87948210D01*
X182232185Y-87860609D01*
X182232172Y-87860602D01*
X182086501Y-87800264D01*
X182086489Y-87800261D01*
X181931845Y-87769500D01*
X181931842Y-87769500D01*
X181774158Y-87769500D01*
X181774155Y-87769500D01*
X181619510Y-87800261D01*
X181619498Y-87800264D01*
X181473827Y-87860602D01*
X181473814Y-87860609D01*
X181342711Y-87948210D01*
X181342707Y-87948213D01*
X181231213Y-88059707D01*
X181231210Y-88059711D01*
X181143609Y-88190814D01*
X181143602Y-88190827D01*
X181083264Y-88336498D01*
X181083261Y-88336510D01*
X181052500Y-88491153D01*
X170653500Y-88491153D01*
X170653500Y-85120874D01*
X170673185Y-85053835D01*
X170725989Y-85008080D01*
X170795147Y-84998136D01*
X170858703Y-85027161D01*
X170865181Y-85033193D01*
X170949955Y-85117967D01*
X170949959Y-85117970D01*
X171094294Y-85206998D01*
X171094297Y-85206999D01*
X171094303Y-85207003D01*
X171255292Y-85260349D01*
X171354655Y-85270500D01*
X171878500Y-85270499D01*
X171945539Y-85290183D01*
X171991294Y-85342987D01*
X172002500Y-85394499D01*
X172002500Y-86658870D01*
X172002501Y-86658876D01*
X172008908Y-86718483D01*
X172059202Y-86853328D01*
X172059206Y-86853335D01*
X172145452Y-86968544D01*
X172145455Y-86968547D01*
X172260664Y-87054793D01*
X172260671Y-87054797D01*
X172395517Y-87105091D01*
X172395516Y-87105091D01*
X172402444Y-87105835D01*
X172455127Y-87111500D01*
X174250872Y-87111499D01*
X174310483Y-87105091D01*
X174445331Y-87054796D01*
X174560546Y-86968546D01*
X174646796Y-86853331D01*
X174697091Y-86718483D01*
X174703500Y-86658873D01*
X174703499Y-85369499D01*
X174723184Y-85302461D01*
X174775987Y-85256706D01*
X174827499Y-85245500D01*
X174984613Y-85245500D01*
X174984616Y-85245500D01*
X175055196Y-85239086D01*
X175217606Y-85188478D01*
X175363185Y-85100472D01*
X175483472Y-84980185D01*
X175571478Y-84834606D01*
X175622086Y-84672196D01*
X175628500Y-84601616D01*
X175628500Y-83938384D01*
X175622086Y-83867804D01*
X175571478Y-83705394D01*
X175483472Y-83559815D01*
X175483470Y-83559813D01*
X175483469Y-83559811D01*
X175464819Y-83541161D01*
X175431334Y-83479838D01*
X175428500Y-83453480D01*
X175428500Y-82994500D01*
X175448185Y-82927461D01*
X175500989Y-82881706D01*
X175552500Y-82870500D01*
X175631844Y-82870500D01*
X175631845Y-82870499D01*
X175786497Y-82839737D01*
X175824417Y-82824029D01*
X175893883Y-82816560D01*
X175934986Y-82831857D01*
X175953607Y-82842869D01*
X175994268Y-82854682D01*
X176107791Y-82887664D01*
X176107794Y-82887664D01*
X176107796Y-82887665D01*
X176143819Y-82890500D01*
X176542180Y-82890499D01*
X176578204Y-82887665D01*
X176732393Y-82842869D01*
X176789882Y-82808869D01*
X176857602Y-82791688D01*
X176916117Y-82808869D01*
X176973607Y-82842869D01*
X176973610Y-82842869D01*
X176973612Y-82842871D01*
X177127791Y-82887664D01*
X177127794Y-82887664D01*
X177127796Y-82887665D01*
X177163819Y-82890500D01*
X177562180Y-82890499D01*
X177598204Y-82887665D01*
X177752393Y-82842869D01*
X177803629Y-82812567D01*
X177866750Y-82795300D01*
X178453758Y-82795300D01*
X178520797Y-82814985D01*
X178528057Y-82820025D01*
X178573168Y-82853795D01*
X178573171Y-82853797D01*
X178708017Y-82904091D01*
X178708016Y-82904091D01*
X178714944Y-82904835D01*
X178767627Y-82910500D01*
X180256000Y-82910499D01*
X180323039Y-82930184D01*
X180368794Y-82982987D01*
X180380000Y-83034499D01*
X180380000Y-83775109D01*
X180360315Y-83842148D01*
X180307511Y-83887903D01*
X180280191Y-83896726D01*
X180190599Y-83914546D01*
X180190600Y-83914547D01*
X180170549Y-83918536D01*
X180170547Y-83918536D01*
X180123397Y-83938067D01*
X180056719Y-83965685D01*
X180056717Y-83965686D01*
X179954266Y-84034141D01*
X179954263Y-84034144D01*
X177594203Y-86394205D01*
X177532880Y-86427690D01*
X177530714Y-86428141D01*
X177419508Y-86450261D01*
X177419498Y-86450264D01*
X177273827Y-86510602D01*
X177273814Y-86510609D01*
X177142711Y-86598210D01*
X177142707Y-86598213D01*
X177031213Y-86709707D01*
X177031210Y-86709711D01*
X176943609Y-86840814D01*
X176943602Y-86840827D01*
X176883264Y-86986498D01*
X176883261Y-86986510D01*
X176852500Y-87141153D01*
X176852500Y-87298846D01*
X176883261Y-87453489D01*
X176883264Y-87453501D01*
X176943602Y-87599172D01*
X176943609Y-87599185D01*
X177031210Y-87730288D01*
X177031213Y-87730292D01*
X177142707Y-87841786D01*
X177142711Y-87841789D01*
X177273814Y-87929390D01*
X177273827Y-87929397D01*
X177319254Y-87948213D01*
X177419503Y-87989737D01*
X177574153Y-88020499D01*
X177574156Y-88020500D01*
X177574158Y-88020500D01*
X177731844Y-88020500D01*
X177731845Y-88020499D01*
X177886497Y-87989737D01*
X178032179Y-87929394D01*
X178163289Y-87841789D01*
X178274789Y-87730289D01*
X178362394Y-87599179D01*
X178422737Y-87453497D01*
X178444858Y-87342282D01*
X178477240Y-87280375D01*
X178478734Y-87278854D01*
X180575772Y-85181819D01*
X180637095Y-85148334D01*
X180663453Y-85145500D01*
X186914607Y-85145500D01*
X186975029Y-85133481D01*
X187035452Y-85121463D01*
X187068792Y-85107652D01*
X187149286Y-85074312D01*
X187201030Y-85039737D01*
X187251733Y-85005858D01*
X187338858Y-84918733D01*
X187338858Y-84918731D01*
X187349066Y-84908524D01*
X187349067Y-84908521D01*
X187760772Y-84496818D01*
X187822095Y-84463333D01*
X187848453Y-84460499D01*
X188178371Y-84460499D01*
X188178372Y-84460499D01*
X188237983Y-84454091D01*
X188272167Y-84441340D01*
X188341858Y-84436357D01*
X188358827Y-84441338D01*
X188393017Y-84454091D01*
X188452627Y-84460500D01*
X189448372Y-84460499D01*
X189507983Y-84454091D01*
X189542167Y-84441340D01*
X189611858Y-84436357D01*
X189628827Y-84441338D01*
X189663017Y-84454091D01*
X189722627Y-84460500D01*
X190718372Y-84460499D01*
X190777983Y-84454091D01*
X190812167Y-84441340D01*
X190881858Y-84436357D01*
X190898827Y-84441338D01*
X190933017Y-84454091D01*
X190992627Y-84460500D01*
X191988372Y-84460499D01*
X192047983Y-84454091D01*
X192082167Y-84441340D01*
X192151858Y-84436357D01*
X192168827Y-84441338D01*
X192203017Y-84454091D01*
X192262627Y-84460500D01*
X193258372Y-84460499D01*
X193317983Y-84454091D01*
X193352167Y-84441340D01*
X193421858Y-84436357D01*
X193438827Y-84441338D01*
X193473017Y-84454091D01*
X193532627Y-84460500D01*
X194528372Y-84460499D01*
X194587983Y-84454091D01*
X194622167Y-84441340D01*
X194691858Y-84436357D01*
X194708827Y-84441338D01*
X194743017Y-84454091D01*
X194802627Y-84460500D01*
X195798372Y-84460499D01*
X195857983Y-84454091D01*
X195992831Y-84403796D01*
X196108046Y-84317546D01*
X196194296Y-84202331D01*
X196244591Y-84067483D01*
X196251000Y-84007873D01*
X196250999Y-83034498D01*
X196270683Y-82967460D01*
X196323487Y-82921705D01*
X196374994Y-82910499D01*
X197863372Y-82910499D01*
X197922983Y-82904091D01*
X198057831Y-82853796D01*
X198129267Y-82800319D01*
X198149420Y-82785233D01*
X198214885Y-82760816D01*
X198223731Y-82760500D01*
X201030060Y-82760500D01*
X201097099Y-82780185D01*
X201117741Y-82796819D01*
X201516181Y-83195259D01*
X201549666Y-83256582D01*
X201552500Y-83282940D01*
X201552500Y-84688648D01*
X201532815Y-84755687D01*
X201480011Y-84801442D01*
X201441755Y-84811938D01*
X201395516Y-84816909D01*
X201260671Y-84867202D01*
X201260664Y-84867206D01*
X201145455Y-84953452D01*
X201145452Y-84953455D01*
X201059206Y-85068664D01*
X201059202Y-85068671D01*
X201008908Y-85203517D01*
X201002501Y-85263116D01*
X201002501Y-85263123D01*
X201002500Y-85263135D01*
X201002500Y-86658870D01*
X201002501Y-86658876D01*
X201008908Y-86718483D01*
X201059202Y-86853328D01*
X201059206Y-86853335D01*
X201145452Y-86968544D01*
X201145455Y-86968547D01*
X201260664Y-87054793D01*
X201260671Y-87054797D01*
X201395517Y-87105091D01*
X201395516Y-87105091D01*
X201402444Y-87105835D01*
X201455127Y-87111500D01*
X203250872Y-87111499D01*
X203310483Y-87105091D01*
X203445331Y-87054796D01*
X203560546Y-86968546D01*
X203646796Y-86853331D01*
X203697091Y-86718483D01*
X203703500Y-86658873D01*
X203703499Y-85263128D01*
X203697091Y-85203517D01*
X203691481Y-85188477D01*
X203646797Y-85068671D01*
X203646793Y-85068664D01*
X203560547Y-84953455D01*
X203560544Y-84953452D01*
X203445335Y-84867206D01*
X203445328Y-84867202D01*
X203310483Y-84816908D01*
X203264243Y-84811937D01*
X203199693Y-84785199D01*
X203159845Y-84727806D01*
X203153500Y-84688648D01*
X203153500Y-82821160D01*
X203153500Y-82821158D01*
X203151533Y-82811267D01*
X203122738Y-82666503D01*
X203062394Y-82520821D01*
X203062392Y-82520818D01*
X203062390Y-82520814D01*
X202974789Y-82389711D01*
X202974786Y-82389707D01*
X201923292Y-81338213D01*
X201923288Y-81338210D01*
X201792185Y-81250609D01*
X201792176Y-81250604D01*
X201669798Y-81199914D01*
X201666325Y-81197115D01*
X201661935Y-81196331D01*
X201639365Y-81175390D01*
X201615395Y-81156073D01*
X201613986Y-81151841D01*
X201610717Y-81148808D01*
X201603052Y-81118991D01*
X201593330Y-81089779D01*
X201594433Y-81085456D01*
X201593323Y-81081138D01*
X201602994Y-81051914D01*
X201610609Y-81022080D01*
X201614267Y-81017850D01*
X201615275Y-81014806D01*
X201623991Y-81006609D01*
X201639281Y-80988934D01*
X201645854Y-80983618D01*
X201700685Y-80950472D01*
X201759182Y-80891974D01*
X201764273Y-80887858D01*
X201790734Y-80876844D01*
X201815885Y-80863111D01*
X201822579Y-80863589D01*
X201828778Y-80861010D01*
X201856990Y-80866050D01*
X201885577Y-80868095D01*
X201892178Y-80872337D01*
X201897559Y-80873299D01*
X201906313Y-80881422D01*
X201929924Y-80896596D01*
X201977608Y-80944280D01*
X201977612Y-80944283D01*
X202120704Y-81032544D01*
X202120707Y-81032545D01*
X202120713Y-81032549D01*
X202280315Y-81085436D01*
X202378826Y-81095500D01*
X202378831Y-81095500D01*
X202912169Y-81095500D01*
X202912174Y-81095500D01*
X203010685Y-81085436D01*
X203170287Y-81032549D01*
X203313391Y-80944281D01*
X203345672Y-80912000D01*
X203406995Y-80878515D01*
X203476687Y-80883499D01*
X203521034Y-80912000D01*
X203552919Y-80943885D01*
X203695922Y-81032091D01*
X203695927Y-81032093D01*
X203855416Y-81084942D01*
X203953856Y-81094999D01*
X203970500Y-81094998D01*
X203970500Y-79144999D01*
X203953856Y-79145000D01*
X203855415Y-79155057D01*
X203695927Y-79207906D01*
X203695922Y-79207908D01*
X203552919Y-79296114D01*
X203521033Y-79328000D01*
X203459709Y-79361485D01*
X203390018Y-79356499D01*
X203345673Y-79328000D01*
X203313392Y-79295719D01*
X203313387Y-79295716D01*
X203170295Y-79207455D01*
X203170289Y-79207452D01*
X203170287Y-79207451D01*
X203010685Y-79154564D01*
X203010683Y-79154563D01*
X202912181Y-79144500D01*
X202912174Y-79144500D01*
X202378826Y-79144500D01*
X202378818Y-79144500D01*
X202280316Y-79154563D01*
X202280315Y-79154564D01*
X202217575Y-79175354D01*
X202120715Y-79207450D01*
X202120704Y-79207455D01*
X201977612Y-79295716D01*
X201977608Y-79295719D01*
X201929924Y-79343404D01*
X201868601Y-79376889D01*
X201798909Y-79371905D01*
X201754562Y-79343404D01*
X201700688Y-79289530D01*
X201622714Y-79242393D01*
X201555106Y-79201522D01*
X201392696Y-79150914D01*
X201392694Y-79150913D01*
X201392692Y-79150913D01*
X201343278Y-79146423D01*
X201322116Y-79144500D01*
X200808884Y-79144500D01*
X200789645Y-79146248D01*
X200738307Y-79150913D01*
X200575893Y-79201522D01*
X200430311Y-79289530D01*
X200430310Y-79289531D01*
X200328181Y-79391661D01*
X200266858Y-79425146D01*
X200197166Y-79420162D01*
X200152819Y-79391661D01*
X200050688Y-79289530D01*
X199972714Y-79242393D01*
X199905106Y-79201522D01*
X199742696Y-79150914D01*
X199742694Y-79150913D01*
X199742692Y-79150913D01*
X199693278Y-79146423D01*
X199672116Y-79144500D01*
X199672113Y-79144500D01*
X199482019Y-79144500D01*
X199452578Y-79135855D01*
X199422592Y-79129332D01*
X199417576Y-79125577D01*
X199414980Y-79124815D01*
X199394338Y-79108181D01*
X199393338Y-79107181D01*
X199359853Y-79045858D01*
X199364837Y-78976166D01*
X199406709Y-78920233D01*
X199472173Y-78895816D01*
X199481019Y-78895500D01*
X199672113Y-78895500D01*
X199672116Y-78895500D01*
X199742696Y-78889086D01*
X199905106Y-78838478D01*
X200050685Y-78750472D01*
X200093676Y-78707481D01*
X200152819Y-78648339D01*
X200214142Y-78614854D01*
X200283834Y-78619838D01*
X200328181Y-78648339D01*
X200430311Y-78750469D01*
X200430313Y-78750470D01*
X200430315Y-78750472D01*
X200575894Y-78838478D01*
X200738304Y-78889086D01*
X200808884Y-78895500D01*
X200808887Y-78895500D01*
X201322113Y-78895500D01*
X201322116Y-78895500D01*
X201392696Y-78889086D01*
X201555106Y-78838478D01*
X201700685Y-78750472D01*
X201710491Y-78740666D01*
X201754562Y-78696596D01*
X201815885Y-78663111D01*
X201885577Y-78668095D01*
X201929924Y-78696596D01*
X201977608Y-78744280D01*
X201977612Y-78744283D01*
X202120704Y-78832544D01*
X202120707Y-78832545D01*
X202120713Y-78832549D01*
X202280315Y-78885436D01*
X202378826Y-78895500D01*
X202378831Y-78895500D01*
X202912169Y-78895500D01*
X202912174Y-78895500D01*
X203010685Y-78885436D01*
X203170287Y-78832549D01*
X203313391Y-78744281D01*
X203345672Y-78712000D01*
X203406995Y-78678515D01*
X203476687Y-78683499D01*
X203521034Y-78712000D01*
X203552919Y-78743885D01*
X203695922Y-78832091D01*
X203695927Y-78832093D01*
X203855416Y-78884942D01*
X203953856Y-78894999D01*
X203970500Y-78894998D01*
X203970500Y-76944999D01*
X203953856Y-76945000D01*
X203855415Y-76955057D01*
X203695927Y-77007906D01*
X203695922Y-77007908D01*
X203552919Y-77096114D01*
X203521033Y-77128000D01*
X203459709Y-77161485D01*
X203390018Y-77156499D01*
X203345673Y-77128000D01*
X203313392Y-77095719D01*
X203313387Y-77095716D01*
X203170295Y-77007455D01*
X203170289Y-77007452D01*
X203170287Y-77007451D01*
X203010685Y-76954564D01*
X203010683Y-76954563D01*
X202912181Y-76944500D01*
X202912174Y-76944500D01*
X202378826Y-76944500D01*
X202378818Y-76944500D01*
X202280316Y-76954563D01*
X202280315Y-76954564D01*
X202217575Y-76975354D01*
X202120715Y-77007450D01*
X202120704Y-77007455D01*
X201977612Y-77095716D01*
X201977608Y-77095719D01*
X201929924Y-77143404D01*
X201868601Y-77176889D01*
X201798909Y-77171905D01*
X201754562Y-77143404D01*
X201700688Y-77089530D01*
X201622714Y-77042393D01*
X201555106Y-77001522D01*
X201392696Y-76950914D01*
X201392694Y-76950913D01*
X201392692Y-76950913D01*
X201343278Y-76946423D01*
X201322116Y-76944500D01*
X200808884Y-76944500D01*
X200789645Y-76946248D01*
X200738307Y-76950913D01*
X200575893Y-77001522D01*
X200430311Y-77089530D01*
X200430310Y-77089531D01*
X200328181Y-77191661D01*
X200266858Y-77225146D01*
X200197166Y-77220162D01*
X200152819Y-77191661D01*
X200050688Y-77089530D01*
X199972714Y-77042393D01*
X199905106Y-77001522D01*
X199742696Y-76950914D01*
X199742694Y-76950913D01*
X199742692Y-76950913D01*
X199693278Y-76946423D01*
X199672116Y-76944500D01*
X199672113Y-76944500D01*
X199625820Y-76944500D01*
X199558781Y-76924815D01*
X199513026Y-76872011D01*
X199504203Y-76844691D01*
X199472738Y-76686510D01*
X199472737Y-76686503D01*
X199472735Y-76686498D01*
X199412397Y-76540827D01*
X199412390Y-76540814D01*
X199324789Y-76409711D01*
X199324786Y-76409707D01*
X199213292Y-76298213D01*
X199213288Y-76298210D01*
X199126766Y-76240397D01*
X199113256Y-76224232D01*
X199096391Y-76211607D01*
X199091300Y-76197959D01*
X199081961Y-76186784D01*
X199079335Y-76165882D01*
X199071973Y-76146143D01*
X199075069Y-76131910D01*
X199073254Y-76117459D01*
X199082346Y-76098455D01*
X199086824Y-76077870D01*
X199101707Y-76057987D01*
X199103409Y-76054432D01*
X199107937Y-76049653D01*
X199148858Y-76008733D01*
X199148859Y-76008730D01*
X200454623Y-74702967D01*
X200515944Y-74669484D01*
X200585636Y-74674468D01*
X200611193Y-74687548D01*
X200673814Y-74729390D01*
X200673827Y-74729397D01*
X200749077Y-74760566D01*
X200819503Y-74789737D01*
X200971644Y-74820000D01*
X200974153Y-74820499D01*
X200974156Y-74820500D01*
X200974158Y-74820500D01*
X201131844Y-74820500D01*
X201131845Y-74820499D01*
X201286497Y-74789737D01*
X201432179Y-74729394D01*
X201563289Y-74641789D01*
X201674789Y-74530289D01*
X201762394Y-74399179D01*
X201822737Y-74253497D01*
X201853500Y-74098842D01*
X201853500Y-73941158D01*
X201853500Y-73941155D01*
X201853499Y-73941153D01*
X201847965Y-73913332D01*
X201822737Y-73786503D01*
X201798249Y-73727383D01*
X201762397Y-73640827D01*
X201762390Y-73640814D01*
X201674789Y-73509711D01*
X201674786Y-73509707D01*
X201563292Y-73398213D01*
X201563288Y-73398210D01*
X201432185Y-73310609D01*
X201432172Y-73310602D01*
X201286501Y-73250264D01*
X201286489Y-73250261D01*
X201131845Y-73219500D01*
X201131842Y-73219500D01*
X200974158Y-73219500D01*
X200974155Y-73219500D01*
X200819510Y-73250261D01*
X200819498Y-73250264D01*
X200673827Y-73310602D01*
X200673815Y-73310609D01*
X200579541Y-73373602D01*
X200561494Y-73379252D01*
X200545585Y-73389477D01*
X200514625Y-73393928D01*
X200512864Y-73394480D01*
X200510650Y-73394500D01*
X200320741Y-73394500D01*
X200320721Y-73394499D01*
X200314607Y-73394499D01*
X200191394Y-73394499D01*
X200090597Y-73414548D01*
X200090592Y-73414548D01*
X200070548Y-73418536D01*
X200070545Y-73418537D01*
X200047398Y-73428126D01*
X200047395Y-73428127D01*
X199956721Y-73465684D01*
X199956708Y-73465691D01*
X199854267Y-73534141D01*
X199854263Y-73534144D01*
X199513303Y-73875104D01*
X199451980Y-73908589D01*
X199382288Y-73903605D01*
X199336471Y-73873609D01*
X199328713Y-73865585D01*
X199324789Y-73859711D01*
X199272045Y-73806967D01*
X199271290Y-73806186D01*
X199255536Y-73776138D01*
X199239275Y-73746358D01*
X199239352Y-73745270D01*
X199238847Y-73744306D01*
X199241838Y-73710515D01*
X199244259Y-73676666D01*
X199244926Y-73675627D01*
X199245008Y-73674709D01*
X199247981Y-73670873D01*
X199272760Y-73632319D01*
X199324786Y-73580292D01*
X199324789Y-73580289D01*
X199412394Y-73449179D01*
X199472737Y-73303497D01*
X199503500Y-73148842D01*
X199503500Y-72991158D01*
X199503500Y-72991155D01*
X199503499Y-72991153D01*
X199489346Y-72920000D01*
X199472737Y-72836503D01*
X199433105Y-72740821D01*
X199412397Y-72690827D01*
X199412390Y-72690814D01*
X199324789Y-72559711D01*
X199324786Y-72559707D01*
X199213292Y-72448213D01*
X199213288Y-72448210D01*
X199082185Y-72360609D01*
X199082172Y-72360602D01*
X198936501Y-72300264D01*
X198936489Y-72300261D01*
X198781845Y-72269500D01*
X198781842Y-72269500D01*
X198624158Y-72269500D01*
X198624155Y-72269500D01*
X198464190Y-72301319D01*
X198394599Y-72295092D01*
X198339421Y-72252229D01*
X198316177Y-72186339D01*
X198315999Y-72179734D01*
X198315999Y-71302128D01*
X198309591Y-71242517D01*
X198296840Y-71208332D01*
X198291857Y-71138642D01*
X198296840Y-71121669D01*
X198309591Y-71087483D01*
X198316000Y-71027873D01*
X198315999Y-70032128D01*
X198309591Y-69972517D01*
X198296840Y-69938332D01*
X198291857Y-69868642D01*
X198296840Y-69851669D01*
X198309591Y-69817483D01*
X198316000Y-69757873D01*
X198315999Y-68762128D01*
X198309591Y-68702517D01*
X198296840Y-68668332D01*
X198291857Y-68598642D01*
X198296838Y-68581672D01*
X198309591Y-68547483D01*
X198316000Y-68487873D01*
X198315999Y-67492128D01*
X198309591Y-67432517D01*
X198296840Y-67398332D01*
X198291857Y-67328642D01*
X198296838Y-67311672D01*
X198309591Y-67277483D01*
X198316000Y-67217873D01*
X198315999Y-66222128D01*
X198309591Y-66162517D01*
X198296573Y-66127616D01*
X198291590Y-66057926D01*
X198296575Y-66040949D01*
X198309097Y-66007375D01*
X198309098Y-66007372D01*
X198315499Y-65947844D01*
X198315500Y-65947827D01*
X198315500Y-65700000D01*
X195815500Y-65700000D01*
X195815500Y-65947844D01*
X195821901Y-66007372D01*
X195821903Y-66007379D01*
X195834425Y-66040952D01*
X195839409Y-66110643D01*
X195834425Y-66127617D01*
X195821409Y-66162514D01*
X195821408Y-66162516D01*
X195817698Y-66197032D01*
X195815001Y-66222123D01*
X195815000Y-66222135D01*
X195815000Y-67217870D01*
X195815001Y-67217885D01*
X195816008Y-67227243D01*
X195803604Y-67296003D01*
X195755994Y-67347141D01*
X195692719Y-67364500D01*
X184225283Y-67364500D01*
X184158244Y-67344815D01*
X184156392Y-67343602D01*
X184032185Y-67260609D01*
X184032172Y-67260602D01*
X183886501Y-67200264D01*
X183886489Y-67200261D01*
X183731845Y-67169500D01*
X183731842Y-67169500D01*
X183574158Y-67169500D01*
X183574155Y-67169500D01*
X183419510Y-67200261D01*
X183419498Y-67200264D01*
X183273827Y-67260602D01*
X183273814Y-67260609D01*
X183142711Y-67348210D01*
X183142707Y-67348213D01*
X183031213Y-67459707D01*
X183031210Y-67459711D01*
X182943609Y-67590814D01*
X182943602Y-67590827D01*
X182883264Y-67736498D01*
X182883261Y-67736510D01*
X182852500Y-67891153D01*
X182852500Y-68048846D01*
X182883261Y-68203489D01*
X182883264Y-68203501D01*
X182943602Y-68349172D01*
X182943609Y-68349185D01*
X183031210Y-68480288D01*
X183031213Y-68480292D01*
X183142707Y-68591786D01*
X183142711Y-68591789D01*
X183273814Y-68679390D01*
X183273827Y-68679397D01*
X183359200Y-68714759D01*
X183419503Y-68739737D01*
X183536398Y-68762989D01*
X183574153Y-68770499D01*
X183574156Y-68770500D01*
X183574158Y-68770500D01*
X183731844Y-68770500D01*
X183731845Y-68770499D01*
X183886497Y-68739737D01*
X184032179Y-68679394D01*
X184096527Y-68636398D01*
X184163204Y-68615520D01*
X184165418Y-68615500D01*
X195692719Y-68615500D01*
X195759758Y-68635185D01*
X195805513Y-68687989D01*
X195816007Y-68752756D01*
X195815000Y-68762127D01*
X195815000Y-68762129D01*
X195815000Y-69757870D01*
X195815001Y-69757876D01*
X195821408Y-69817481D01*
X195834159Y-69851669D01*
X195839142Y-69921361D01*
X195834159Y-69938331D01*
X195821408Y-69972518D01*
X195815001Y-70032116D01*
X195815001Y-70032123D01*
X195815000Y-70032135D01*
X195815000Y-71027870D01*
X195815001Y-71027876D01*
X195821408Y-71087481D01*
X195834159Y-71121669D01*
X195840151Y-71186195D01*
X195838182Y-71197544D01*
X195821409Y-71242517D01*
X195815000Y-71302127D01*
X195815000Y-71331175D01*
X195813175Y-71341695D01*
X195802270Y-71363850D01*
X195795315Y-71387539D01*
X195787115Y-71394644D01*
X195782322Y-71404383D01*
X195761168Y-71417127D01*
X195742511Y-71433294D01*
X195729712Y-71436078D01*
X195722474Y-71440439D01*
X195711172Y-71440111D01*
X195691000Y-71444500D01*
X189855350Y-71444500D01*
X189788311Y-71424815D01*
X189786459Y-71423602D01*
X189692184Y-71360609D01*
X189692172Y-71360602D01*
X189546501Y-71300264D01*
X189546489Y-71300261D01*
X189391845Y-71269500D01*
X189391842Y-71269500D01*
X189266407Y-71269500D01*
X189199368Y-71249815D01*
X189153613Y-71197011D01*
X189150225Y-71188833D01*
X189108854Y-71077913D01*
X189108850Y-71077906D01*
X189022690Y-70962812D01*
X189022687Y-70962809D01*
X188907593Y-70876649D01*
X188907586Y-70876645D01*
X188772879Y-70826403D01*
X188772872Y-70826401D01*
X188713344Y-70820000D01*
X188465500Y-70820000D01*
X188465500Y-75520000D01*
X188679560Y-75520000D01*
X188746599Y-75539685D01*
X188767242Y-75556320D01*
X188802707Y-75591786D01*
X188802711Y-75591789D01*
X188933814Y-75679390D01*
X188933827Y-75679397D01*
X189079498Y-75739735D01*
X189079503Y-75739737D01*
X189234153Y-75770499D01*
X189234156Y-75770500D01*
X189234158Y-75770500D01*
X189391844Y-75770500D01*
X189391845Y-75770499D01*
X189546497Y-75739737D01*
X189692179Y-75679394D01*
X189786459Y-75616398D01*
X189853136Y-75595520D01*
X189855350Y-75595500D01*
X194612548Y-75595500D01*
X194679587Y-75615185D01*
X194700229Y-75631819D01*
X195164263Y-76095855D01*
X195164267Y-76095858D01*
X195266710Y-76164309D01*
X195266711Y-76164309D01*
X195266715Y-76164312D01*
X195333397Y-76191932D01*
X195380548Y-76211463D01*
X195400597Y-76215451D01*
X195465624Y-76228385D01*
X195501392Y-76235501D01*
X195501394Y-76235501D01*
X195630721Y-76235501D01*
X195630741Y-76235500D01*
X195692719Y-76235500D01*
X195759758Y-76255185D01*
X195805513Y-76307989D01*
X195816007Y-76372756D01*
X195815000Y-76382127D01*
X195815000Y-76382129D01*
X195815000Y-77377870D01*
X195815001Y-77377876D01*
X195821408Y-77437481D01*
X195834159Y-77471669D01*
X195839142Y-77541361D01*
X195834159Y-77558331D01*
X195821408Y-77592518D01*
X195815001Y-77652116D01*
X195815001Y-77652123D01*
X195815000Y-77652135D01*
X195815000Y-78647870D01*
X195815001Y-78647876D01*
X195821408Y-78707481D01*
X195834159Y-78741669D01*
X195839142Y-78811361D01*
X195834159Y-78828331D01*
X195821408Y-78862518D01*
X195815001Y-78922116D01*
X195815001Y-78922123D01*
X195815000Y-78922135D01*
X195815000Y-79917870D01*
X195815001Y-79917876D01*
X195821408Y-79977481D01*
X195834159Y-80011669D01*
X195839142Y-80081361D01*
X195834159Y-80098331D01*
X195821408Y-80132518D01*
X195815001Y-80192116D01*
X195815001Y-80192123D01*
X195815000Y-80192135D01*
X195815000Y-81187870D01*
X195815001Y-81187876D01*
X195821408Y-81247481D01*
X195834159Y-81281669D01*
X195839142Y-81351361D01*
X195834159Y-81368331D01*
X195821408Y-81402518D01*
X195815001Y-81462116D01*
X195815001Y-81462123D01*
X195815000Y-81462135D01*
X195815000Y-81835500D01*
X195795315Y-81902539D01*
X195742511Y-81948294D01*
X195691000Y-81959500D01*
X194802629Y-81959500D01*
X194802623Y-81959501D01*
X194743018Y-81965908D01*
X194708831Y-81978659D01*
X194639139Y-81983642D01*
X194622169Y-81978659D01*
X194587980Y-81965908D01*
X194587982Y-81965908D01*
X194528383Y-81959501D01*
X194528381Y-81959500D01*
X194528373Y-81959500D01*
X194528364Y-81959500D01*
X193532629Y-81959500D01*
X193532623Y-81959501D01*
X193473018Y-81965908D01*
X193438831Y-81978659D01*
X193369139Y-81983642D01*
X193352169Y-81978659D01*
X193317980Y-81965908D01*
X193317982Y-81965908D01*
X193258383Y-81959501D01*
X193258381Y-81959500D01*
X193258373Y-81959500D01*
X193258364Y-81959500D01*
X192262629Y-81959500D01*
X192262623Y-81959501D01*
X192203018Y-81965908D01*
X192168831Y-81978659D01*
X192099139Y-81983642D01*
X192082169Y-81978659D01*
X192047980Y-81965908D01*
X192047982Y-81965908D01*
X191988383Y-81959501D01*
X191988381Y-81959500D01*
X191988373Y-81959500D01*
X191988364Y-81959500D01*
X190992629Y-81959500D01*
X190992623Y-81959501D01*
X190933018Y-81965908D01*
X190898831Y-81978659D01*
X190829139Y-81983642D01*
X190812169Y-81978659D01*
X190777980Y-81965908D01*
X190777982Y-81965908D01*
X190718383Y-81959501D01*
X190718381Y-81959500D01*
X190718373Y-81959500D01*
X190718364Y-81959500D01*
X189722629Y-81959500D01*
X189722623Y-81959501D01*
X189663018Y-81965908D01*
X189628831Y-81978659D01*
X189559139Y-81983642D01*
X189542169Y-81978659D01*
X189507980Y-81965908D01*
X189507982Y-81965908D01*
X189448383Y-81959501D01*
X189448381Y-81959500D01*
X189448373Y-81959500D01*
X189448364Y-81959500D01*
X188452629Y-81959500D01*
X188452623Y-81959501D01*
X188393018Y-81965908D01*
X188358831Y-81978659D01*
X188289139Y-81983642D01*
X188272169Y-81978659D01*
X188237980Y-81965908D01*
X188237982Y-81965908D01*
X188178383Y-81959501D01*
X188178381Y-81959500D01*
X188178373Y-81959500D01*
X188178364Y-81959500D01*
X187182629Y-81959500D01*
X187182623Y-81959501D01*
X187123018Y-81965908D01*
X187088831Y-81978659D01*
X187019139Y-81983642D01*
X187002169Y-81978659D01*
X186967980Y-81965908D01*
X186967982Y-81965908D01*
X186908383Y-81959501D01*
X186908381Y-81959500D01*
X186908373Y-81959500D01*
X186908364Y-81959500D01*
X185912629Y-81959500D01*
X185912623Y-81959501D01*
X185853018Y-81965908D01*
X185818831Y-81978659D01*
X185749139Y-81983642D01*
X185732169Y-81978659D01*
X185697980Y-81965908D01*
X185697982Y-81965908D01*
X185638383Y-81959501D01*
X185638381Y-81959500D01*
X185638373Y-81959500D01*
X185638364Y-81959500D01*
X184642629Y-81959500D01*
X184642623Y-81959501D01*
X184583018Y-81965908D01*
X184548831Y-81978659D01*
X184479139Y-81983642D01*
X184462169Y-81978659D01*
X184427980Y-81965908D01*
X184427982Y-81965908D01*
X184368383Y-81959501D01*
X184368381Y-81959500D01*
X184368373Y-81959500D01*
X184368364Y-81959500D01*
X183372629Y-81959500D01*
X183372623Y-81959501D01*
X183313018Y-81965908D01*
X183278831Y-81978659D01*
X183209139Y-81983642D01*
X183192169Y-81978659D01*
X183157980Y-81965908D01*
X183157982Y-81965908D01*
X183098383Y-81959501D01*
X183098381Y-81959500D01*
X183098373Y-81959500D01*
X183098364Y-81959500D01*
X182102629Y-81959500D01*
X182102623Y-81959501D01*
X182043018Y-81965908D01*
X182008831Y-81978659D01*
X181939139Y-81983642D01*
X181922169Y-81978659D01*
X181887980Y-81965908D01*
X181887982Y-81965908D01*
X181828383Y-81959501D01*
X181828381Y-81959500D01*
X181828373Y-81959500D01*
X181828365Y-81959500D01*
X180939999Y-81959500D01*
X180872960Y-81939815D01*
X180827205Y-81887011D01*
X180815999Y-81835500D01*
X180815999Y-81462129D01*
X180815998Y-81462123D01*
X180815997Y-81462116D01*
X180809591Y-81402517D01*
X180796840Y-81368332D01*
X180791857Y-81298642D01*
X180796840Y-81281669D01*
X180809591Y-81247483D01*
X180816000Y-81187873D01*
X180815999Y-80192128D01*
X180809591Y-80132517D01*
X180796840Y-80098332D01*
X180791857Y-80028642D01*
X180796840Y-80011669D01*
X180809591Y-79977483D01*
X180816000Y-79917873D01*
X180815999Y-78922128D01*
X180809591Y-78862517D01*
X180796840Y-78828332D01*
X180791857Y-78758642D01*
X180796840Y-78741669D01*
X180809591Y-78707483D01*
X180816000Y-78647873D01*
X180815999Y-77652128D01*
X180809591Y-77592517D01*
X180796840Y-77558332D01*
X180791857Y-77488642D01*
X180796840Y-77471669D01*
X180809591Y-77437483D01*
X180816000Y-77377873D01*
X180815999Y-76382128D01*
X180809591Y-76322517D01*
X180796840Y-76288332D01*
X180791857Y-76218642D01*
X180796840Y-76201669D01*
X180809591Y-76167483D01*
X180816000Y-76107873D01*
X180815999Y-75112128D01*
X180811239Y-75067844D01*
X184465500Y-75067844D01*
X184471901Y-75127372D01*
X184471903Y-75127379D01*
X184522145Y-75262086D01*
X184522149Y-75262093D01*
X184608309Y-75377187D01*
X184608312Y-75377190D01*
X184723406Y-75463350D01*
X184723413Y-75463354D01*
X184858120Y-75513596D01*
X184858127Y-75513598D01*
X184917655Y-75519999D01*
X184917672Y-75520000D01*
X185165500Y-75520000D01*
X185665500Y-75520000D01*
X185913328Y-75520000D01*
X185913344Y-75519999D01*
X185972872Y-75513598D01*
X185972876Y-75513597D01*
X186072166Y-75476564D01*
X186141858Y-75471580D01*
X186158834Y-75476564D01*
X186258123Y-75513597D01*
X186258127Y-75513598D01*
X186317655Y-75519999D01*
X186317672Y-75520000D01*
X186565500Y-75520000D01*
X187065500Y-75520000D01*
X187313328Y-75520000D01*
X187313344Y-75519999D01*
X187372872Y-75513598D01*
X187372876Y-75513597D01*
X187472166Y-75476564D01*
X187541858Y-75471580D01*
X187558834Y-75476564D01*
X187658123Y-75513597D01*
X187658127Y-75513598D01*
X187717655Y-75519999D01*
X187717672Y-75520000D01*
X187965500Y-75520000D01*
X187965500Y-74820000D01*
X187065500Y-74820000D01*
X187065500Y-75520000D01*
X186565500Y-75520000D01*
X186565500Y-74820000D01*
X185665500Y-74820000D01*
X185665500Y-75520000D01*
X185165500Y-75520000D01*
X185165500Y-74820000D01*
X184465500Y-74820000D01*
X184465500Y-75067844D01*
X180811239Y-75067844D01*
X180809591Y-75052517D01*
X180796840Y-75018331D01*
X180790069Y-74958927D01*
X180791901Y-74944912D01*
X180809591Y-74897483D01*
X180816000Y-74837873D01*
X180815999Y-73842128D01*
X180809591Y-73782517D01*
X180796840Y-73748332D01*
X180791857Y-73678642D01*
X180795027Y-73667844D01*
X184465500Y-73667844D01*
X184471901Y-73727372D01*
X184471903Y-73727383D01*
X184508934Y-73826668D01*
X184513918Y-73896360D01*
X184508934Y-73913332D01*
X184471903Y-74012616D01*
X184471901Y-74012627D01*
X184465500Y-74072155D01*
X184465500Y-74320000D01*
X185165500Y-74320000D01*
X185665500Y-74320000D01*
X186565500Y-74320000D01*
X187065500Y-74320000D01*
X187965500Y-74320000D01*
X187965500Y-73420000D01*
X187065500Y-73420000D01*
X187065500Y-74320000D01*
X186565500Y-74320000D01*
X186565500Y-73420000D01*
X185665500Y-73420000D01*
X185665500Y-74320000D01*
X185165500Y-74320000D01*
X185165500Y-73420000D01*
X184465500Y-73420000D01*
X184465500Y-73667844D01*
X180795027Y-73667844D01*
X180796840Y-73661669D01*
X180809591Y-73627483D01*
X180816000Y-73567873D01*
X180815999Y-73041158D01*
X180815999Y-72572129D01*
X180815998Y-72572123D01*
X180815997Y-72572116D01*
X180809591Y-72512517D01*
X180796840Y-72478332D01*
X180791857Y-72408642D01*
X180796840Y-72391669D01*
X180809591Y-72357483D01*
X180816000Y-72297873D01*
X180816000Y-72267844D01*
X184465500Y-72267844D01*
X184471901Y-72327372D01*
X184471903Y-72327383D01*
X184508934Y-72426668D01*
X184513918Y-72496360D01*
X184508934Y-72513332D01*
X184471903Y-72612616D01*
X184471901Y-72612627D01*
X184465500Y-72672155D01*
X184465500Y-72920000D01*
X185165500Y-72920000D01*
X185665500Y-72920000D01*
X186565500Y-72920000D01*
X187065500Y-72920000D01*
X187965500Y-72920000D01*
X187965500Y-72020000D01*
X187065500Y-72020000D01*
X187065500Y-72920000D01*
X186565500Y-72920000D01*
X186565500Y-72020000D01*
X185665500Y-72020000D01*
X185665500Y-72920000D01*
X185165500Y-72920000D01*
X185165500Y-72020000D01*
X184465500Y-72020000D01*
X184465500Y-72267844D01*
X180816000Y-72267844D01*
X180815999Y-71690821D01*
X180815999Y-71325997D01*
X180831808Y-71272155D01*
X184465500Y-71272155D01*
X184465500Y-71520000D01*
X185165500Y-71520000D01*
X185665500Y-71520000D01*
X186565500Y-71520000D01*
X187065500Y-71520000D01*
X187965500Y-71520000D01*
X187965500Y-70820000D01*
X187717655Y-70820000D01*
X187658127Y-70826401D01*
X187658116Y-70826403D01*
X187558832Y-70863434D01*
X187489140Y-70868418D01*
X187472168Y-70863434D01*
X187372883Y-70826403D01*
X187372872Y-70826401D01*
X187313344Y-70820000D01*
X187065500Y-70820000D01*
X187065500Y-71520000D01*
X186565500Y-71520000D01*
X186565500Y-70820000D01*
X186317655Y-70820000D01*
X186258127Y-70826401D01*
X186258116Y-70826403D01*
X186158832Y-70863434D01*
X186089140Y-70868418D01*
X186072168Y-70863434D01*
X185972883Y-70826403D01*
X185972872Y-70826401D01*
X185913344Y-70820000D01*
X185665500Y-70820000D01*
X185665500Y-71520000D01*
X185165500Y-71520000D01*
X185165500Y-70820000D01*
X184917655Y-70820000D01*
X184858127Y-70826401D01*
X184858120Y-70826403D01*
X184723413Y-70876645D01*
X184723406Y-70876649D01*
X184608312Y-70962809D01*
X184608309Y-70962812D01*
X184522149Y-71077906D01*
X184522145Y-71077913D01*
X184471903Y-71212620D01*
X184471901Y-71212627D01*
X184465500Y-71272155D01*
X180831808Y-71272155D01*
X180835683Y-71258958D01*
X180888487Y-71213203D01*
X180894878Y-71210498D01*
X180905074Y-71206514D01*
X180919828Y-71203580D01*
X181047311Y-71150775D01*
X181162043Y-71074114D01*
X182358114Y-69878043D01*
X182434775Y-69763311D01*
X182437024Y-69757883D01*
X182486482Y-69638478D01*
X182487580Y-69635828D01*
X182509164Y-69527322D01*
X182514500Y-69500496D01*
X182514500Y-64952155D01*
X195815500Y-64952155D01*
X195815500Y-65200000D01*
X196815500Y-65200000D01*
X197315500Y-65200000D01*
X198315500Y-65200000D01*
X198315500Y-64952172D01*
X198315499Y-64952155D01*
X198309098Y-64892627D01*
X198309096Y-64892620D01*
X198258854Y-64757913D01*
X198258850Y-64757906D01*
X198172690Y-64642812D01*
X198172687Y-64642809D01*
X198057593Y-64556649D01*
X198057586Y-64556645D01*
X197922879Y-64506403D01*
X197922872Y-64506401D01*
X197863344Y-64500000D01*
X197315500Y-64500000D01*
X197315500Y-65200000D01*
X196815500Y-65200000D01*
X196815500Y-64500000D01*
X196267655Y-64500000D01*
X196208127Y-64506401D01*
X196208120Y-64506403D01*
X196073413Y-64556645D01*
X196073406Y-64556649D01*
X195958312Y-64642809D01*
X195958309Y-64642812D01*
X195872149Y-64757906D01*
X195872145Y-64757913D01*
X195821903Y-64892620D01*
X195821901Y-64892627D01*
X195815500Y-64952155D01*
X182514500Y-64952155D01*
X182514500Y-63592006D01*
X182503459Y-63536504D01*
X182503459Y-63536503D01*
X182487580Y-63456672D01*
X182434775Y-63329189D01*
X182358114Y-63214457D01*
X182358112Y-63214454D01*
X182254980Y-63111322D01*
X198553001Y-63111322D01*
X198563144Y-63210607D01*
X198616452Y-63371481D01*
X198616457Y-63371492D01*
X198705424Y-63515728D01*
X198705427Y-63515732D01*
X198825267Y-63635572D01*
X198825271Y-63635575D01*
X198969507Y-63724542D01*
X198969518Y-63724547D01*
X199130393Y-63777855D01*
X199229683Y-63787999D01*
X199253000Y-63787998D01*
X199253000Y-63063000D01*
X198553001Y-63063000D01*
X198553001Y-63111322D01*
X182254980Y-63111322D01*
X180294819Y-61151161D01*
X180261334Y-61089838D01*
X180258500Y-61063480D01*
X180258500Y-55967844D01*
X181028000Y-55967844D01*
X181034401Y-56027372D01*
X181034403Y-56027379D01*
X181084645Y-56162086D01*
X181084649Y-56162093D01*
X181170809Y-56277187D01*
X181170812Y-56277190D01*
X181285906Y-56363350D01*
X181285913Y-56363354D01*
X181420620Y-56413596D01*
X181420627Y-56413598D01*
X181480155Y-56419999D01*
X181480172Y-56420000D01*
X182278000Y-56420000D01*
X182278000Y-55570000D01*
X181028000Y-55570000D01*
X181028000Y-55967844D01*
X180258500Y-55967844D01*
X180258500Y-54672155D01*
X181028000Y-54672155D01*
X181028000Y-55070000D01*
X182278000Y-55070000D01*
X182278000Y-54220000D01*
X182778000Y-54220000D01*
X182778000Y-56420000D01*
X183575828Y-56420000D01*
X183575844Y-56419999D01*
X183635372Y-56413598D01*
X183635380Y-56413596D01*
X183689442Y-56393432D01*
X183759134Y-56388446D01*
X183820457Y-56421931D01*
X183853943Y-56483253D01*
X183856066Y-56496355D01*
X183859401Y-56527373D01*
X183859403Y-56527379D01*
X183909645Y-56662086D01*
X183909649Y-56662093D01*
X183995809Y-56777187D01*
X183995812Y-56777190D01*
X184110906Y-56863350D01*
X184110913Y-56863354D01*
X184245620Y-56913596D01*
X184245627Y-56913598D01*
X184305155Y-56919999D01*
X184305172Y-56920000D01*
X184403000Y-56920000D01*
X184403000Y-55994000D01*
X184405550Y-55985314D01*
X184404262Y-55976353D01*
X184415240Y-55952312D01*
X184422685Y-55926961D01*
X184429525Y-55921033D01*
X184433287Y-55912797D01*
X184455521Y-55898507D01*
X184475489Y-55881206D01*
X184486003Y-55878918D01*
X184492065Y-55875023D01*
X184527000Y-55870000D01*
X184528501Y-55870000D01*
X184595540Y-55889685D01*
X184641295Y-55942489D01*
X184652501Y-55994000D01*
X184652501Y-56467876D01*
X184658908Y-56527483D01*
X184694682Y-56623395D01*
X184702500Y-56666728D01*
X184702500Y-57093918D01*
X184702500Y-57093920D01*
X184702499Y-57093920D01*
X184731340Y-57238907D01*
X184731343Y-57238917D01*
X184787913Y-57375490D01*
X184787914Y-57375491D01*
X184787916Y-57375495D01*
X184807598Y-57404951D01*
X184849742Y-57468026D01*
X184870051Y-57498420D01*
X184870052Y-57498421D01*
X185774584Y-58402952D01*
X185774586Y-58402954D01*
X185804058Y-58422645D01*
X185848270Y-58452186D01*
X185897505Y-58485084D01*
X185897506Y-58485084D01*
X185897507Y-58485085D01*
X185897509Y-58485086D01*
X186034082Y-58541656D01*
X186034087Y-58541658D01*
X186034091Y-58541658D01*
X186034092Y-58541659D01*
X186179079Y-58570500D01*
X186179082Y-58570500D01*
X189328920Y-58570500D01*
X189426462Y-58551096D01*
X189473913Y-58541658D01*
X189610495Y-58485084D01*
X189659729Y-58452186D01*
X189659734Y-58452183D01*
X189684071Y-58435921D01*
X189733416Y-58402952D01*
X190429548Y-57706818D01*
X190490871Y-57673334D01*
X190517229Y-57670500D01*
X193626920Y-57670500D01*
X193724462Y-57651096D01*
X193771913Y-57641658D01*
X193908495Y-57585084D01*
X193970494Y-57543658D01*
X194031416Y-57502952D01*
X194352549Y-57181817D01*
X194379478Y-57167113D01*
X194405294Y-57150523D01*
X194411494Y-57149631D01*
X194413871Y-57148334D01*
X194440229Y-57145500D01*
X194651126Y-57145500D01*
X194718165Y-57165185D01*
X194738807Y-57181819D01*
X194749955Y-57192967D01*
X194749959Y-57192970D01*
X194894294Y-57281998D01*
X194894297Y-57281999D01*
X194894303Y-57282003D01*
X195055292Y-57335349D01*
X195154655Y-57345500D01*
X195751344Y-57345499D01*
X195751352Y-57345498D01*
X195751355Y-57345498D01*
X195810786Y-57339427D01*
X195850708Y-57335349D01*
X196011697Y-57282003D01*
X196156044Y-57192968D01*
X196165319Y-57183693D01*
X196226642Y-57150208D01*
X196296334Y-57155192D01*
X196340681Y-57183693D01*
X196349955Y-57192967D01*
X196349959Y-57192970D01*
X196494294Y-57281998D01*
X196494297Y-57281999D01*
X196494303Y-57282003D01*
X196655292Y-57335349D01*
X196754655Y-57345500D01*
X197351344Y-57345499D01*
X197351352Y-57345498D01*
X197351355Y-57345498D01*
X197410786Y-57339427D01*
X197450708Y-57335349D01*
X197495483Y-57320511D01*
X197565309Y-57318109D01*
X197622168Y-57350536D01*
X197974584Y-57702952D01*
X197980372Y-57706819D01*
X198032508Y-57741655D01*
X198032510Y-57741656D01*
X198032513Y-57741658D01*
X198097505Y-57785084D01*
X198097506Y-57785084D01*
X198097507Y-57785085D01*
X198234082Y-57841656D01*
X198234087Y-57841658D01*
X198234091Y-57841658D01*
X198234092Y-57841659D01*
X198379079Y-57870500D01*
X198379082Y-57870500D01*
X198379083Y-57870500D01*
X198453500Y-57870500D01*
X198462185Y-57873050D01*
X198471147Y-57871762D01*
X198495187Y-57882740D01*
X198520539Y-57890185D01*
X198526466Y-57897025D01*
X198534703Y-57900787D01*
X198548992Y-57923021D01*
X198566294Y-57942989D01*
X198568581Y-57953503D01*
X198572477Y-57959565D01*
X198577500Y-57994500D01*
X198577500Y-58038170D01*
X198572576Y-58072765D01*
X198530402Y-58217926D01*
X198530401Y-58217932D01*
X198527500Y-58254798D01*
X198527500Y-59411201D01*
X198530401Y-59448067D01*
X198530402Y-59448073D01*
X198576254Y-59605893D01*
X198576255Y-59605896D01*
X198578302Y-59609357D01*
X198593189Y-59648290D01*
X198606340Y-59714404D01*
X198606343Y-59714416D01*
X198662914Y-59850991D01*
X198662915Y-59850993D01*
X198662916Y-59850994D01*
X198695813Y-59900228D01*
X198742421Y-59969984D01*
X198750423Y-59995539D01*
X198761538Y-60031040D01*
X198763298Y-60036660D01*
X198744813Y-60104040D01*
X198744810Y-60104042D01*
X198727000Y-60126553D01*
X198659920Y-60193633D01*
X198659917Y-60193637D01*
X198576255Y-60335103D01*
X198576254Y-60335106D01*
X198530402Y-60492926D01*
X198530401Y-60492932D01*
X198527500Y-60529798D01*
X198527500Y-61686201D01*
X198530401Y-61723067D01*
X198530402Y-61723073D01*
X198576254Y-61880893D01*
X198576255Y-61880896D01*
X198576256Y-61880898D01*
X198589225Y-61902828D01*
X198659919Y-62022365D01*
X198662783Y-62026058D01*
X198688316Y-62091095D01*
X198674634Y-62159612D01*
X198670340Y-62167152D01*
X198616454Y-62254513D01*
X198616452Y-62254518D01*
X198563144Y-62415393D01*
X198553000Y-62514677D01*
X198553000Y-62563000D01*
X199379000Y-62563000D01*
X199446039Y-62582685D01*
X199491794Y-62635489D01*
X199503000Y-62687000D01*
X199503000Y-62813000D01*
X199629000Y-62813000D01*
X199696039Y-62832685D01*
X199741794Y-62885489D01*
X199753000Y-62937000D01*
X199753000Y-63787999D01*
X199776308Y-63787999D01*
X199776322Y-63787998D01*
X199875607Y-63777855D01*
X200036481Y-63724547D01*
X200036487Y-63724544D01*
X200063402Y-63707943D01*
X200130794Y-63689502D01*
X200197458Y-63710423D01*
X200242228Y-63764065D01*
X200252500Y-63813481D01*
X200252500Y-63848846D01*
X200283261Y-64003489D01*
X200283264Y-64003501D01*
X200343602Y-64149172D01*
X200343609Y-64149185D01*
X200431210Y-64280288D01*
X200431213Y-64280292D01*
X200542707Y-64391786D01*
X200542711Y-64391789D01*
X200673814Y-64479390D01*
X200673827Y-64479397D01*
X200819498Y-64539735D01*
X200819503Y-64539737D01*
X200974153Y-64570499D01*
X200974156Y-64570500D01*
X200974158Y-64570500D01*
X201131844Y-64570500D01*
X201131845Y-64570499D01*
X201286497Y-64539737D01*
X201432179Y-64479394D01*
X201563289Y-64391789D01*
X201674789Y-64280289D01*
X201762394Y-64149179D01*
X201822737Y-64003497D01*
X201853500Y-63848842D01*
X201853500Y-63691158D01*
X201853500Y-63691155D01*
X201836053Y-63603447D01*
X201842280Y-63533855D01*
X201852132Y-63514158D01*
X201939998Y-63371705D01*
X201939997Y-63371705D01*
X201940003Y-63371697D01*
X201993349Y-63210708D01*
X202003500Y-63111345D01*
X202003499Y-62514656D01*
X201999488Y-62475394D01*
X201993349Y-62415292D01*
X201993348Y-62415289D01*
X201984794Y-62389474D01*
X201978500Y-62350470D01*
X201978500Y-61902828D01*
X201983424Y-61868233D01*
X202025597Y-61723073D01*
X202025597Y-61723071D01*
X202025598Y-61723069D01*
X202028500Y-61686194D01*
X202028500Y-60529806D01*
X202025598Y-60492931D01*
X201979744Y-60335102D01*
X201896081Y-60193635D01*
X201896079Y-60193633D01*
X201896076Y-60193629D01*
X201829001Y-60126554D01*
X201813790Y-60098697D01*
X201797101Y-60071682D01*
X201797162Y-60068245D01*
X201795516Y-60065231D01*
X201797780Y-60033569D01*
X201798346Y-60001824D01*
X201800350Y-59997635D01*
X201800500Y-59995539D01*
X201813578Y-59969985D01*
X201822275Y-59956968D01*
X201860186Y-59900228D01*
X201893084Y-59850994D01*
X201925590Y-59772517D01*
X201949659Y-59714411D01*
X201963963Y-59642495D01*
X201965665Y-59636828D01*
X201969368Y-59631140D01*
X201977700Y-59609354D01*
X201979745Y-59605896D01*
X202025597Y-59448073D01*
X202025598Y-59448067D01*
X202028500Y-59411194D01*
X202028500Y-58254806D01*
X202025598Y-58217931D01*
X201979744Y-58060102D01*
X201896081Y-57918635D01*
X201896078Y-57918632D01*
X201891298Y-57912469D01*
X201893758Y-57910560D01*
X201867192Y-57861907D01*
X201872176Y-57792215D01*
X201882820Y-57770451D01*
X201939544Y-57678488D01*
X201939547Y-57678481D01*
X201992855Y-57517606D01*
X202002999Y-57418322D01*
X202003000Y-57418309D01*
X202003000Y-57370000D01*
X201177000Y-57370000D01*
X201109961Y-57350315D01*
X201064206Y-57297511D01*
X201053000Y-57246000D01*
X201053000Y-57120000D01*
X200927000Y-57120000D01*
X200859961Y-57100315D01*
X200814206Y-57047511D01*
X200803000Y-56996000D01*
X200803000Y-56870000D01*
X201303000Y-56870000D01*
X202002999Y-56870000D01*
X202002999Y-56821692D01*
X202002998Y-56821677D01*
X201992855Y-56722392D01*
X201939547Y-56561518D01*
X201939542Y-56561507D01*
X201850575Y-56417271D01*
X201850572Y-56417267D01*
X201730732Y-56297427D01*
X201730728Y-56297424D01*
X201586492Y-56208457D01*
X201586481Y-56208452D01*
X201425606Y-56155144D01*
X201326322Y-56145000D01*
X201303000Y-56145000D01*
X201303000Y-56870000D01*
X200803000Y-56870000D01*
X200803000Y-56144999D01*
X200779693Y-56145000D01*
X200779674Y-56145001D01*
X200680392Y-56155144D01*
X200519518Y-56208452D01*
X200519507Y-56208457D01*
X200375271Y-56297424D01*
X200375265Y-56297428D01*
X200366031Y-56306663D01*
X200304707Y-56340146D01*
X200235015Y-56335159D01*
X200190672Y-56306660D01*
X200181044Y-56297032D01*
X200181040Y-56297029D01*
X200036705Y-56208001D01*
X200036699Y-56207998D01*
X200036697Y-56207997D01*
X199915411Y-56167807D01*
X199875709Y-56154651D01*
X199776346Y-56144500D01*
X199229662Y-56144500D01*
X199229644Y-56144501D01*
X199130292Y-56154650D01*
X199130289Y-56154651D01*
X198969305Y-56207996D01*
X198969300Y-56207998D01*
X198825800Y-56296511D01*
X198758407Y-56314951D01*
X198691744Y-56294029D01*
X198673022Y-56278653D01*
X198206421Y-55812052D01*
X198206414Y-55812046D01*
X198132729Y-55762812D01*
X198132729Y-55762813D01*
X198083495Y-55729916D01*
X197950625Y-55674879D01*
X197896223Y-55631039D01*
X197874158Y-55564745D01*
X197891437Y-55497046D01*
X197892541Y-55495221D01*
X197964544Y-55378488D01*
X197964547Y-55378481D01*
X198017855Y-55217606D01*
X198027999Y-55118322D01*
X198028000Y-55118309D01*
X198028000Y-55095000D01*
X195577000Y-55095000D01*
X195509961Y-55075315D01*
X195464206Y-55022511D01*
X195453000Y-54971000D01*
X195453000Y-54845000D01*
X195327000Y-54845000D01*
X195259961Y-54825315D01*
X195214206Y-54772511D01*
X195203000Y-54721000D01*
X195203000Y-53895000D01*
X195703000Y-53895000D01*
X195703000Y-54595000D01*
X196803000Y-54595000D01*
X197303000Y-54595000D01*
X198027999Y-54595000D01*
X198027999Y-54571692D01*
X198027998Y-54571677D01*
X198017855Y-54472392D01*
X197964547Y-54311518D01*
X197964542Y-54311507D01*
X197875575Y-54167271D01*
X197875572Y-54167267D01*
X197755732Y-54047427D01*
X197755728Y-54047424D01*
X197611492Y-53958457D01*
X197611481Y-53958452D01*
X197450606Y-53905144D01*
X197351322Y-53895000D01*
X197303000Y-53895000D01*
X197303000Y-54595000D01*
X196803000Y-54595000D01*
X196803000Y-53895000D01*
X196802999Y-53894999D01*
X196754693Y-53895000D01*
X196754675Y-53895001D01*
X196655392Y-53905144D01*
X196494518Y-53958452D01*
X196494507Y-53958457D01*
X196350271Y-54047424D01*
X196350267Y-54047427D01*
X196340681Y-54057014D01*
X196279358Y-54090499D01*
X196209666Y-54085515D01*
X196165319Y-54057014D01*
X196155732Y-54047427D01*
X196155728Y-54047424D01*
X196011492Y-53958457D01*
X196011481Y-53958452D01*
X195850606Y-53905144D01*
X195751322Y-53895000D01*
X195703000Y-53895000D01*
X195203000Y-53895000D01*
X195202999Y-53894999D01*
X195154693Y-53895000D01*
X195154675Y-53895001D01*
X195055392Y-53905144D01*
X194894518Y-53958452D01*
X194894507Y-53958457D01*
X194750271Y-54047424D01*
X194750267Y-54047427D01*
X194630426Y-54167268D01*
X194588706Y-54234906D01*
X194536757Y-54281630D01*
X194467794Y-54292851D01*
X194423745Y-54278642D01*
X194420093Y-54276648D01*
X194285379Y-54226403D01*
X194285372Y-54226401D01*
X194225844Y-54220000D01*
X193428000Y-54220000D01*
X193428000Y-55196000D01*
X193408315Y-55263039D01*
X193355511Y-55308794D01*
X193304000Y-55320000D01*
X193052000Y-55320000D01*
X192984961Y-55300315D01*
X192939206Y-55247511D01*
X192928000Y-55196000D01*
X192928000Y-54220000D01*
X192130155Y-54220000D01*
X192070627Y-54226401D01*
X192070620Y-54226403D01*
X191935913Y-54276645D01*
X191935906Y-54276649D01*
X191820812Y-54362809D01*
X191820809Y-54362812D01*
X191734649Y-54477906D01*
X191734645Y-54477913D01*
X191684403Y-54612620D01*
X191684401Y-54612627D01*
X191678000Y-54672155D01*
X191678000Y-54728977D01*
X191669354Y-54758421D01*
X191662831Y-54788405D01*
X191659601Y-54791634D01*
X191658315Y-54796016D01*
X191635126Y-54816109D01*
X191613425Y-54837810D01*
X191608961Y-54838780D01*
X191605511Y-54841771D01*
X191575139Y-54846138D01*
X191545152Y-54852661D01*
X191539032Y-54851329D01*
X191536353Y-54851715D01*
X191510665Y-54845158D01*
X191474627Y-54831716D01*
X191418694Y-54789844D01*
X191394278Y-54724379D01*
X191395023Y-54699346D01*
X191395506Y-54695684D01*
X191395506Y-54604316D01*
X191385096Y-54525246D01*
X191361448Y-54436991D01*
X191361443Y-54436980D01*
X191361442Y-54436975D01*
X191330934Y-54363321D01*
X191330932Y-54363318D01*
X191330930Y-54363312D01*
X191285246Y-54284184D01*
X191236695Y-54220912D01*
X191172088Y-54156305D01*
X191108816Y-54107754D01*
X191029688Y-54062070D01*
X191029684Y-54062068D01*
X191029678Y-54062065D01*
X190956024Y-54031557D01*
X190956011Y-54031553D01*
X190956012Y-54031553D01*
X190956009Y-54031552D01*
X190867754Y-54007904D01*
X190867753Y-54007903D01*
X190867750Y-54007903D01*
X190788691Y-53997494D01*
X190788684Y-53997494D01*
X190697316Y-53997494D01*
X190697308Y-53997494D01*
X190618249Y-54007903D01*
X190574118Y-54019728D01*
X190529991Y-54031552D01*
X190529989Y-54031552D01*
X190529988Y-54031553D01*
X190529975Y-54031557D01*
X190456321Y-54062065D01*
X190456310Y-54062071D01*
X190377185Y-54107753D01*
X190313909Y-54156307D01*
X190249307Y-54220909D01*
X190200753Y-54284185D01*
X190155071Y-54363310D01*
X190155065Y-54363321D01*
X190124557Y-54436975D01*
X190124553Y-54436988D01*
X190124552Y-54436991D01*
X190115066Y-54472392D01*
X190100903Y-54525249D01*
X190090494Y-54604308D01*
X190090494Y-54695500D01*
X190088703Y-54701599D01*
X190089878Y-54707848D01*
X190078976Y-54734722D01*
X190070809Y-54762539D01*
X190066005Y-54766701D01*
X190063615Y-54772594D01*
X190039915Y-54789307D01*
X190018005Y-54808294D01*
X190010408Y-54810118D01*
X190006517Y-54812863D01*
X189982182Y-54816898D01*
X189971831Y-54819385D01*
X189969145Y-54819500D01*
X189905128Y-54819501D01*
X189862315Y-54824102D01*
X189858339Y-54824274D01*
X189855934Y-54823679D01*
X189839754Y-54823679D01*
X189839056Y-54823604D01*
X189814459Y-54813417D01*
X189790514Y-54807493D01*
X189784316Y-54800933D01*
X189774504Y-54796870D01*
X189757942Y-54773020D01*
X189742529Y-54756707D01*
X189741011Y-54748638D01*
X189734652Y-54739480D01*
X189728901Y-54712463D01*
X189728500Y-54708396D01*
X189726699Y-54699340D01*
X189718554Y-54658393D01*
X189704463Y-54587549D01*
X189704460Y-54587543D01*
X189704459Y-54587538D01*
X189657314Y-54473719D01*
X189657313Y-54473717D01*
X189635999Y-54441819D01*
X189623902Y-54423714D01*
X189588858Y-54371267D01*
X189501733Y-54284142D01*
X189501729Y-54284139D01*
X188978793Y-53761203D01*
X188945308Y-53699880D01*
X188944887Y-53697864D01*
X188922737Y-53586503D01*
X188895398Y-53520500D01*
X188862397Y-53440827D01*
X188862390Y-53440814D01*
X188774789Y-53309711D01*
X188774786Y-53309707D01*
X188663292Y-53198213D01*
X188663288Y-53198210D01*
X188532185Y-53110609D01*
X188532172Y-53110602D01*
X188386501Y-53050264D01*
X188386489Y-53050261D01*
X188231845Y-53019500D01*
X188231842Y-53019500D01*
X188074158Y-53019500D01*
X188074155Y-53019500D01*
X187919510Y-53050261D01*
X187919498Y-53050264D01*
X187773827Y-53110602D01*
X187773814Y-53110609D01*
X187671891Y-53178713D01*
X187605213Y-53199591D01*
X187537833Y-53181107D01*
X187534109Y-53178713D01*
X187432185Y-53110609D01*
X187432172Y-53110602D01*
X187286501Y-53050264D01*
X187286489Y-53050261D01*
X187131845Y-53019500D01*
X187131842Y-53019500D01*
X186974158Y-53019500D01*
X186974155Y-53019500D01*
X186819510Y-53050261D01*
X186819498Y-53050264D01*
X186673827Y-53110602D01*
X186673814Y-53110609D01*
X186542711Y-53198210D01*
X186542707Y-53198213D01*
X186431213Y-53309707D01*
X186431210Y-53309711D01*
X186343609Y-53440814D01*
X186343602Y-53440827D01*
X186283263Y-53586500D01*
X186283261Y-53586508D01*
X186273556Y-53635298D01*
X186241170Y-53697209D01*
X186239620Y-53698787D01*
X185830656Y-54107753D01*
X185704269Y-54234140D01*
X185704267Y-54234142D01*
X185686602Y-54251807D01*
X185669908Y-54268501D01*
X185608584Y-54301985D01*
X185538893Y-54296999D01*
X185483855Y-54256307D01*
X185456695Y-54220912D01*
X185392088Y-54156305D01*
X185328816Y-54107754D01*
X185249688Y-54062070D01*
X185249684Y-54062068D01*
X185249678Y-54062065D01*
X185176024Y-54031557D01*
X185176011Y-54031553D01*
X185176012Y-54031553D01*
X185176009Y-54031552D01*
X185087754Y-54007904D01*
X185087753Y-54007903D01*
X185087750Y-54007903D01*
X185008691Y-53997494D01*
X185008684Y-53997494D01*
X184917316Y-53997494D01*
X184917308Y-53997494D01*
X184838249Y-54007903D01*
X184794118Y-54019728D01*
X184749991Y-54031552D01*
X184749989Y-54031552D01*
X184749988Y-54031553D01*
X184749975Y-54031557D01*
X184676321Y-54062065D01*
X184676310Y-54062071D01*
X184597185Y-54107753D01*
X184533909Y-54156307D01*
X184469307Y-54220909D01*
X184420753Y-54284185D01*
X184375071Y-54363310D01*
X184375065Y-54363321D01*
X184344557Y-54436975D01*
X184344553Y-54436988D01*
X184344552Y-54436991D01*
X184335066Y-54472392D01*
X184320903Y-54525249D01*
X184310494Y-54604308D01*
X184310494Y-54695677D01*
X184310495Y-54695694D01*
X184310977Y-54699356D01*
X184306357Y-54728968D01*
X184304220Y-54758866D01*
X184301028Y-54763129D01*
X184300208Y-54768391D01*
X184280310Y-54790806D01*
X184262350Y-54814800D01*
X184255872Y-54818337D01*
X184253825Y-54820644D01*
X184231373Y-54831716D01*
X184195336Y-54845158D01*
X184125645Y-54850144D01*
X184064321Y-54816660D01*
X184030834Y-54755338D01*
X184028000Y-54728977D01*
X184028000Y-54672172D01*
X184027999Y-54672155D01*
X184021598Y-54612627D01*
X184021596Y-54612620D01*
X183971354Y-54477913D01*
X183971350Y-54477906D01*
X183885190Y-54362812D01*
X183885187Y-54362809D01*
X183770093Y-54276649D01*
X183770086Y-54276645D01*
X183635379Y-54226403D01*
X183635372Y-54226401D01*
X183575844Y-54220000D01*
X182778000Y-54220000D01*
X182278000Y-54220000D01*
X181480155Y-54220000D01*
X181420627Y-54226401D01*
X181420620Y-54226403D01*
X181285913Y-54276645D01*
X181285906Y-54276649D01*
X181170812Y-54362809D01*
X181170809Y-54362812D01*
X181084649Y-54477906D01*
X181084645Y-54477913D01*
X181034403Y-54612620D01*
X181034401Y-54612627D01*
X181028000Y-54672155D01*
X180258500Y-54672155D01*
X180258500Y-54551006D01*
X180258499Y-54551003D01*
X180235724Y-54436502D01*
X180235723Y-54436501D01*
X180231580Y-54415671D01*
X180178775Y-54288189D01*
X180102114Y-54173457D01*
X180102112Y-54173454D01*
X179304819Y-53376161D01*
X179271334Y-53314838D01*
X179268500Y-53288480D01*
X179268500Y-53098386D01*
X179262086Y-53027807D01*
X179262086Y-53027804D01*
X179211478Y-52865394D01*
X179123472Y-52719815D01*
X179123470Y-52719813D01*
X179123469Y-52719811D01*
X179003188Y-52599530D01*
X178857606Y-52511522D01*
X178856852Y-52511287D01*
X178695196Y-52460914D01*
X178695194Y-52460913D01*
X178695192Y-52460913D01*
X178645778Y-52456423D01*
X178624616Y-52454500D01*
X178111384Y-52454500D01*
X178092145Y-52456248D01*
X178040807Y-52460913D01*
X177878393Y-52511522D01*
X177732811Y-52599530D01*
X177732810Y-52599531D01*
X177630681Y-52701661D01*
X177569358Y-52735146D01*
X177499666Y-52730162D01*
X177455319Y-52701661D01*
X177353188Y-52599530D01*
X177207606Y-52511522D01*
X177206852Y-52511287D01*
X177045196Y-52460914D01*
X177045194Y-52460913D01*
X177045192Y-52460913D01*
X176995778Y-52456423D01*
X176974616Y-52454500D01*
X176461384Y-52454500D01*
X176442145Y-52456248D01*
X176390807Y-52460913D01*
X176228393Y-52511522D01*
X176082811Y-52599530D01*
X175962530Y-52719811D01*
X175874522Y-52865393D01*
X175823913Y-53027807D01*
X175817500Y-53098386D01*
X175817500Y-53761613D01*
X175823913Y-53832192D01*
X175823913Y-53832194D01*
X175823914Y-53832196D01*
X175874522Y-53994606D01*
X175874523Y-53994607D01*
X175877602Y-54001449D01*
X175876341Y-54002016D01*
X175892112Y-54061761D01*
X175870591Y-54128233D01*
X175816549Y-54172518D01*
X175768159Y-54182350D01*
X173091305Y-54182350D01*
X172936660Y-54213111D01*
X172936648Y-54213114D01*
X172790977Y-54273452D01*
X172790965Y-54273459D01*
X172705916Y-54330288D01*
X172659858Y-54361062D01*
X171677739Y-55343181D01*
X171616416Y-55376666D01*
X171590058Y-55379500D01*
X170825129Y-55379500D01*
X170825123Y-55379501D01*
X170790753Y-55383196D01*
X170721994Y-55370789D01*
X170670857Y-55323178D01*
X170653500Y-55259906D01*
X170653500Y-50985186D01*
X170952500Y-50985186D01*
X170952500Y-51254813D01*
X170982686Y-51522719D01*
X170982688Y-51522731D01*
X171042684Y-51785594D01*
X171042687Y-51785602D01*
X171131734Y-52040082D01*
X171248714Y-52282994D01*
X171248716Y-52282997D01*
X171392162Y-52511289D01*
X171392348Y-52511522D01*
X171558452Y-52719811D01*
X171560266Y-52722085D01*
X171750915Y-52912734D01*
X171961711Y-53080838D01*
X172190003Y-53224284D01*
X172432921Y-53341267D01*
X172532643Y-53376161D01*
X172687397Y-53430312D01*
X172687405Y-53430315D01*
X172687408Y-53430315D01*
X172687409Y-53430316D01*
X172950268Y-53490312D01*
X173218187Y-53520499D01*
X173218188Y-53520500D01*
X173218191Y-53520500D01*
X173487812Y-53520500D01*
X173487812Y-53520499D01*
X173755732Y-53490312D01*
X174018591Y-53430316D01*
X174273079Y-53341267D01*
X174515997Y-53224284D01*
X174744289Y-53080838D01*
X174955085Y-52912734D01*
X175145734Y-52722085D01*
X175313838Y-52511289D01*
X175457284Y-52282997D01*
X175574267Y-52040079D01*
X175617039Y-51917844D01*
X181028000Y-51917844D01*
X181034401Y-51977372D01*
X181034403Y-51977379D01*
X181084645Y-52112086D01*
X181084649Y-52112093D01*
X181170809Y-52227187D01*
X181170812Y-52227190D01*
X181285906Y-52313350D01*
X181285913Y-52313354D01*
X181420620Y-52363596D01*
X181420627Y-52363598D01*
X181480155Y-52369999D01*
X181480172Y-52370000D01*
X182278000Y-52370000D01*
X182778000Y-52370000D01*
X183575828Y-52370000D01*
X183575844Y-52369999D01*
X183635372Y-52363598D01*
X183635379Y-52363596D01*
X183770086Y-52313354D01*
X183770093Y-52313350D01*
X183885187Y-52227190D01*
X183885190Y-52227187D01*
X183971350Y-52112093D01*
X183971354Y-52112086D01*
X184021596Y-51977379D01*
X184021598Y-51977372D01*
X184027999Y-51917844D01*
X191678000Y-51917844D01*
X191684401Y-51977372D01*
X191684403Y-51977379D01*
X191734645Y-52112086D01*
X191734649Y-52112093D01*
X191820809Y-52227187D01*
X191820812Y-52227190D01*
X191935906Y-52313350D01*
X191935913Y-52313354D01*
X192070620Y-52363596D01*
X192070627Y-52363598D01*
X192130155Y-52369999D01*
X192130172Y-52370000D01*
X192928000Y-52370000D01*
X193428000Y-52370000D01*
X194225828Y-52370000D01*
X194225844Y-52369999D01*
X194285372Y-52363598D01*
X194285379Y-52363596D01*
X194420086Y-52313354D01*
X194420093Y-52313350D01*
X194535187Y-52227190D01*
X194535190Y-52227187D01*
X194621350Y-52112093D01*
X194621354Y-52112086D01*
X194671596Y-51977379D01*
X194671598Y-51977372D01*
X194677999Y-51917844D01*
X194678000Y-51917827D01*
X194678000Y-51370000D01*
X193428000Y-51370000D01*
X193428000Y-52370000D01*
X192928000Y-52370000D01*
X192928000Y-51370000D01*
X191678000Y-51370000D01*
X191678000Y-51917844D01*
X184027999Y-51917844D01*
X184028000Y-51917827D01*
X184028000Y-51370000D01*
X182778000Y-51370000D01*
X182778000Y-52370000D01*
X182278000Y-52370000D01*
X182278000Y-51370000D01*
X181028000Y-51370000D01*
X181028000Y-51917844D01*
X175617039Y-51917844D01*
X175663316Y-51785591D01*
X175723312Y-51522732D01*
X175740521Y-51370000D01*
X175747873Y-51304754D01*
X175747873Y-51304753D01*
X175753499Y-51254815D01*
X175753500Y-51254813D01*
X175753500Y-51254809D01*
X175753500Y-50985191D01*
X175753499Y-50985186D01*
X199952500Y-50985186D01*
X199952500Y-51254813D01*
X199982686Y-51522719D01*
X199982688Y-51522731D01*
X200042684Y-51785594D01*
X200042687Y-51785602D01*
X200131734Y-52040082D01*
X200248714Y-52282994D01*
X200248716Y-52282997D01*
X200392162Y-52511289D01*
X200392348Y-52511522D01*
X200558452Y-52719811D01*
X200560266Y-52722085D01*
X200750915Y-52912734D01*
X200961711Y-53080838D01*
X201190003Y-53224284D01*
X201432921Y-53341267D01*
X201532643Y-53376161D01*
X201687397Y-53430312D01*
X201687405Y-53430315D01*
X201687408Y-53430315D01*
X201687409Y-53430316D01*
X201950268Y-53490312D01*
X202218187Y-53520499D01*
X202218188Y-53520500D01*
X202218191Y-53520500D01*
X202487812Y-53520500D01*
X202487812Y-53520499D01*
X202755732Y-53490312D01*
X203018591Y-53430316D01*
X203273079Y-53341267D01*
X203515997Y-53224284D01*
X203744289Y-53080838D01*
X203955085Y-52912734D01*
X204145734Y-52722085D01*
X204313838Y-52511289D01*
X204457284Y-52282997D01*
X204574267Y-52040079D01*
X204663316Y-51785591D01*
X204723312Y-51522732D01*
X204753500Y-51254809D01*
X204753500Y-50985191D01*
X204723312Y-50717268D01*
X204663316Y-50454409D01*
X204574267Y-50199921D01*
X204457284Y-49957003D01*
X204313838Y-49728711D01*
X204145734Y-49517915D01*
X203955085Y-49327266D01*
X203744289Y-49159162D01*
X203515997Y-49015716D01*
X203515994Y-49015714D01*
X203273082Y-48898734D01*
X203018602Y-48809687D01*
X203018594Y-48809684D01*
X202821446Y-48764687D01*
X202755732Y-48749688D01*
X202755728Y-48749687D01*
X202755719Y-48749686D01*
X202487813Y-48719500D01*
X202487809Y-48719500D01*
X202218191Y-48719500D01*
X202218186Y-48719500D01*
X201950280Y-48749686D01*
X201950268Y-48749688D01*
X201687405Y-48809684D01*
X201687397Y-48809687D01*
X201432917Y-48898734D01*
X201190005Y-49015714D01*
X200961712Y-49159161D01*
X200750915Y-49327265D01*
X200560265Y-49517915D01*
X200392161Y-49728712D01*
X200248714Y-49957005D01*
X200131734Y-50199917D01*
X200042687Y-50454397D01*
X200042684Y-50454405D01*
X199982688Y-50717268D01*
X199982686Y-50717280D01*
X199952500Y-50985186D01*
X175753499Y-50985186D01*
X175723312Y-50717268D01*
X175663316Y-50454409D01*
X175617044Y-50322172D01*
X175617038Y-50322155D01*
X181028000Y-50322155D01*
X181028000Y-50870000D01*
X182278000Y-50870000D01*
X182778000Y-50870000D01*
X184028000Y-50870000D01*
X184028000Y-50322172D01*
X184027999Y-50322155D01*
X191678000Y-50322155D01*
X191678000Y-50870000D01*
X192928000Y-50870000D01*
X193428000Y-50870000D01*
X194678000Y-50870000D01*
X194678000Y-50322172D01*
X194677999Y-50322155D01*
X194671598Y-50262627D01*
X194671596Y-50262620D01*
X194621354Y-50127913D01*
X194621350Y-50127906D01*
X194535190Y-50012812D01*
X194535187Y-50012809D01*
X194420093Y-49926649D01*
X194420086Y-49926645D01*
X194285379Y-49876403D01*
X194285372Y-49876401D01*
X194225844Y-49870000D01*
X193428000Y-49870000D01*
X193428000Y-50870000D01*
X192928000Y-50870000D01*
X192928000Y-49870000D01*
X192130155Y-49870000D01*
X192070627Y-49876401D01*
X192070620Y-49876403D01*
X191935913Y-49926645D01*
X191935906Y-49926649D01*
X191820812Y-50012809D01*
X191820809Y-50012812D01*
X191734649Y-50127906D01*
X191734645Y-50127913D01*
X191684403Y-50262620D01*
X191684401Y-50262627D01*
X191678000Y-50322155D01*
X184027999Y-50322155D01*
X184021598Y-50262627D01*
X184021596Y-50262620D01*
X183971354Y-50127913D01*
X183971350Y-50127906D01*
X183885190Y-50012812D01*
X183885187Y-50012809D01*
X183770093Y-49926649D01*
X183770086Y-49926645D01*
X183635379Y-49876403D01*
X183635372Y-49876401D01*
X183575844Y-49870000D01*
X182778000Y-49870000D01*
X182778000Y-50870000D01*
X182278000Y-50870000D01*
X182278000Y-49870000D01*
X181480155Y-49870000D01*
X181420627Y-49876401D01*
X181420620Y-49876403D01*
X181285913Y-49926645D01*
X181285906Y-49926649D01*
X181170812Y-50012809D01*
X181170809Y-50012812D01*
X181084649Y-50127906D01*
X181084645Y-50127913D01*
X181034403Y-50262620D01*
X181034401Y-50262627D01*
X181028000Y-50322155D01*
X175617038Y-50322155D01*
X175609765Y-50301371D01*
X175574267Y-50199921D01*
X175457284Y-49957003D01*
X175313838Y-49728711D01*
X175145734Y-49517915D01*
X174955085Y-49327266D01*
X174744289Y-49159162D01*
X174515997Y-49015716D01*
X174515994Y-49015714D01*
X174273082Y-48898734D01*
X174018602Y-48809687D01*
X174018594Y-48809684D01*
X173821446Y-48764687D01*
X173755732Y-48749688D01*
X173755728Y-48749687D01*
X173755719Y-48749686D01*
X173487813Y-48719500D01*
X173487809Y-48719500D01*
X173218191Y-48719500D01*
X173218186Y-48719500D01*
X172950280Y-48749686D01*
X172950268Y-48749688D01*
X172687405Y-48809684D01*
X172687397Y-48809687D01*
X172432917Y-48898734D01*
X172190005Y-49015714D01*
X171961712Y-49159161D01*
X171750915Y-49327265D01*
X171560265Y-49517915D01*
X171392161Y-49728712D01*
X171248714Y-49957005D01*
X171131734Y-50199917D01*
X171042687Y-50454397D01*
X171042684Y-50454405D01*
X170982688Y-50717268D01*
X170982686Y-50717280D01*
X170952500Y-50985186D01*
X170653500Y-50985186D01*
X170653500Y-49126092D01*
X170654097Y-49113938D01*
X170654097Y-49113937D01*
X170665744Y-48995680D01*
X170670483Y-48971856D01*
X170703203Y-48863990D01*
X170712499Y-48841549D01*
X170765632Y-48742144D01*
X170779133Y-48721940D01*
X170850635Y-48634814D01*
X170867814Y-48617635D01*
X170954942Y-48546131D01*
X170975144Y-48532632D01*
X171074549Y-48479499D01*
X171096990Y-48470203D01*
X171204856Y-48437483D01*
X171228682Y-48432744D01*
X171328730Y-48422890D01*
X171346940Y-48421097D01*
X171359093Y-48420500D01*
X171400595Y-48420500D01*
X204305405Y-48420500D01*
X204346907Y-48420500D01*
X204359061Y-48421097D01*
G37*
%TD.AperFunction*%
%TA.AperFunction,Conductor*%
G36*
X188814266Y-95210014D02*
G01*
X188857458Y-95264934D01*
X188864101Y-95334487D01*
X188849729Y-95373021D01*
X188820108Y-95424328D01*
X188820102Y-95424340D01*
X188732318Y-95636269D01*
X188672942Y-95857862D01*
X188643001Y-96085289D01*
X188643000Y-96085305D01*
X188643000Y-96314694D01*
X188643001Y-96314710D01*
X188672942Y-96542137D01*
X188732318Y-96763730D01*
X188820102Y-96975659D01*
X188820106Y-96975669D01*
X188934799Y-97174324D01*
X188934805Y-97174331D01*
X188991381Y-97248064D01*
X189715412Y-96524032D01*
X189728349Y-96555263D01*
X189810428Y-96678104D01*
X189914896Y-96782572D01*
X190037737Y-96864651D01*
X190068965Y-96877586D01*
X189344934Y-97601617D01*
X189345188Y-97605493D01*
X189380280Y-97653551D01*
X189384435Y-97723297D01*
X189350224Y-97784218D01*
X189288507Y-97816971D01*
X189263591Y-97819500D01*
X186442408Y-97819500D01*
X186375369Y-97799815D01*
X186329614Y-97747011D01*
X186319670Y-97677853D01*
X186348695Y-97614297D01*
X186360992Y-97602710D01*
X186361064Y-97601617D01*
X185637033Y-96877586D01*
X185668263Y-96864651D01*
X185791104Y-96782572D01*
X185895572Y-96678104D01*
X185977651Y-96555263D01*
X185990586Y-96524033D01*
X186714617Y-97248064D01*
X186771192Y-97174334D01*
X186771197Y-97174327D01*
X186885893Y-96975668D01*
X186885897Y-96975659D01*
X186973681Y-96763730D01*
X187033057Y-96542137D01*
X187062998Y-96314710D01*
X187063000Y-96314694D01*
X187063000Y-96085305D01*
X187062998Y-96085289D01*
X187033057Y-95857862D01*
X186973681Y-95636269D01*
X186885897Y-95424340D01*
X186885889Y-95424323D01*
X186856271Y-95373022D01*
X186839798Y-95305122D01*
X186862651Y-95239095D01*
X186917572Y-95195905D01*
X186987126Y-95189264D01*
X187025653Y-95203634D01*
X187077112Y-95233344D01*
X187077117Y-95233346D01*
X187077123Y-95233349D01*
X187153377Y-95264934D01*
X187289113Y-95321158D01*
X187510762Y-95380548D01*
X187738266Y-95410500D01*
X187738273Y-95410500D01*
X187967727Y-95410500D01*
X187967734Y-95410500D01*
X188195238Y-95380548D01*
X188416887Y-95321158D01*
X188628888Y-95233344D01*
X188680344Y-95203635D01*
X188748238Y-95187163D01*
X188814266Y-95210014D01*
G37*
%TD.AperFunction*%
%TA.AperFunction,Conductor*%
G36*
X170825127Y-61180500D02*
G01*
X171590059Y-61180499D01*
X171657098Y-61200183D01*
X171677740Y-61216818D01*
X172548361Y-62087439D01*
X172608177Y-62147255D01*
X172659862Y-62198940D01*
X172790967Y-62286542D01*
X172790969Y-62286542D01*
X172790971Y-62286544D01*
X172906951Y-62334584D01*
X172906952Y-62334585D01*
X172936648Y-62346885D01*
X172936653Y-62346887D01*
X173091303Y-62377649D01*
X173091306Y-62377650D01*
X173091308Y-62377650D01*
X173248992Y-62377650D01*
X175736460Y-62377650D01*
X175803499Y-62397335D01*
X175849254Y-62450139D01*
X175859198Y-62519297D01*
X175854847Y-62538531D01*
X175826549Y-62629345D01*
X175823913Y-62637807D01*
X175819443Y-62687000D01*
X175817500Y-62708384D01*
X175817500Y-63371616D01*
X175817508Y-63371705D01*
X175823913Y-63442192D01*
X175823913Y-63442194D01*
X175823914Y-63442196D01*
X175874522Y-63604606D01*
X175958386Y-63743334D01*
X175962530Y-63750188D01*
X176082811Y-63870469D01*
X176082813Y-63870470D01*
X176082815Y-63870472D01*
X176228394Y-63958478D01*
X176390804Y-64009086D01*
X176461384Y-64015500D01*
X176461387Y-64015500D01*
X176974613Y-64015500D01*
X176974616Y-64015500D01*
X177045196Y-64009086D01*
X177207606Y-63958478D01*
X177353185Y-63870472D01*
X177374815Y-63848842D01*
X177455319Y-63768339D01*
X177516642Y-63734854D01*
X177586334Y-63739838D01*
X177630681Y-63768339D01*
X177732811Y-63870469D01*
X177732813Y-63870470D01*
X177732815Y-63870472D01*
X177878394Y-63958478D01*
X178040804Y-64009086D01*
X178111384Y-64015500D01*
X178111387Y-64015500D01*
X178624613Y-64015500D01*
X178624616Y-64015500D01*
X178695196Y-64009086D01*
X178857606Y-63958478D01*
X179003185Y-63870472D01*
X179024815Y-63848842D01*
X179096839Y-63776819D01*
X179158162Y-63743334D01*
X179184520Y-63740500D01*
X179691481Y-63740500D01*
X179758520Y-63760185D01*
X179779162Y-63776819D01*
X180290662Y-64288319D01*
X180324147Y-64349642D01*
X180319163Y-64419334D01*
X180277291Y-64475267D01*
X180211827Y-64499684D01*
X180202981Y-64500000D01*
X179815500Y-64500000D01*
X179815500Y-65326000D01*
X179795815Y-65393039D01*
X179743011Y-65438794D01*
X179691500Y-65450000D01*
X179565500Y-65450000D01*
X179565500Y-65576000D01*
X179545815Y-65643039D01*
X179493011Y-65688794D01*
X179441500Y-65700000D01*
X178315500Y-65700000D01*
X178315500Y-65945500D01*
X178312949Y-65954185D01*
X178314238Y-65963147D01*
X178303259Y-65987187D01*
X178295815Y-66012539D01*
X178288974Y-66018466D01*
X178285213Y-66026703D01*
X178262978Y-66040992D01*
X178243011Y-66058294D01*
X178232496Y-66060581D01*
X178226435Y-66064477D01*
X178191500Y-66069500D01*
X178006107Y-66069500D01*
X177939068Y-66049815D01*
X177893313Y-65997011D01*
X177883369Y-65927853D01*
X177888401Y-65906496D01*
X177917855Y-65817606D01*
X177927999Y-65718322D01*
X177928000Y-65718309D01*
X177928000Y-65695000D01*
X175972000Y-65695000D01*
X175904961Y-65675315D01*
X175859206Y-65622511D01*
X175848000Y-65571000D01*
X175848000Y-65520000D01*
X173908001Y-65520000D01*
X173908001Y-65569986D01*
X173918494Y-65672697D01*
X173973641Y-65839119D01*
X173973643Y-65839124D01*
X174065684Y-65988345D01*
X174189655Y-66112316D01*
X174189659Y-66112319D01*
X174192656Y-66114168D01*
X174194279Y-66115972D01*
X174195323Y-66116798D01*
X174195181Y-66116976D01*
X174212356Y-66136071D01*
X174233987Y-66156074D01*
X174235456Y-66161753D01*
X174239381Y-66166116D01*
X174244112Y-66195195D01*
X174251494Y-66223715D01*
X174249659Y-66229288D01*
X174250602Y-66235079D01*
X174238860Y-66262102D01*
X174229652Y-66290083D01*
X174224629Y-66294857D01*
X174222759Y-66299161D01*
X174205689Y-66315995D01*
X174199464Y-66321045D01*
X174189344Y-66327288D01*
X174178900Y-66337731D01*
X174173900Y-66341789D01*
X174147368Y-66352883D01*
X174122128Y-66366666D01*
X174111737Y-66367783D01*
X174109440Y-66368744D01*
X174106930Y-66368300D01*
X174095770Y-66369500D01*
X173824155Y-66369500D01*
X173669510Y-66400261D01*
X173669498Y-66400264D01*
X173523827Y-66460602D01*
X173523814Y-66460609D01*
X173392711Y-66548210D01*
X173392707Y-66548213D01*
X173281213Y-66659707D01*
X173281210Y-66659711D01*
X173193609Y-66790814D01*
X173193602Y-66790827D01*
X173133264Y-66936498D01*
X173133261Y-66936510D01*
X173102500Y-67091153D01*
X173102500Y-67248846D01*
X173133261Y-67403489D01*
X173133264Y-67403501D01*
X173193602Y-67549172D01*
X173193609Y-67549185D01*
X173281210Y-67680288D01*
X173281213Y-67680292D01*
X173392707Y-67791786D01*
X173392711Y-67791789D01*
X173523814Y-67879390D01*
X173523827Y-67879397D01*
X173611013Y-67915510D01*
X173669503Y-67939737D01*
X173824153Y-67970499D01*
X173824156Y-67970500D01*
X173824158Y-67970500D01*
X174095770Y-67970500D01*
X174162809Y-67990185D01*
X174183451Y-68006819D01*
X174189344Y-68012712D01*
X174338666Y-68104814D01*
X174369539Y-68115044D01*
X174426985Y-68154816D01*
X174453808Y-68219332D01*
X174448922Y-68269638D01*
X174433914Y-68317803D01*
X174427500Y-68388386D01*
X174427500Y-69051613D01*
X174433913Y-69122192D01*
X174433913Y-69122194D01*
X174433914Y-69122196D01*
X174484522Y-69284606D01*
X174531614Y-69362506D01*
X174572530Y-69430188D01*
X174692811Y-69550469D01*
X174692813Y-69550470D01*
X174692815Y-69550472D01*
X174838394Y-69638478D01*
X175000804Y-69689086D01*
X175051060Y-69693653D01*
X175116041Y-69719322D01*
X175156830Y-69776050D01*
X175160474Y-69845824D01*
X175127518Y-69904824D01*
X174183884Y-70848458D01*
X174172313Y-70865777D01*
X174107228Y-70963182D01*
X174107221Y-70963195D01*
X174054421Y-71090667D01*
X174054418Y-71090677D01*
X174027500Y-71226004D01*
X174027500Y-83453480D01*
X174018855Y-83482920D01*
X174012332Y-83512907D01*
X174008577Y-83517922D01*
X174007815Y-83520519D01*
X173991181Y-83541161D01*
X173990681Y-83541661D01*
X173929358Y-83575146D01*
X173859666Y-83570162D01*
X173815319Y-83541661D01*
X173713188Y-83439530D01*
X173567606Y-83351522D01*
X173405985Y-83301160D01*
X173405196Y-83300914D01*
X173405194Y-83300913D01*
X173405192Y-83300913D01*
X173355778Y-83296423D01*
X173334616Y-83294500D01*
X172821384Y-83294500D01*
X172808062Y-83295710D01*
X172748088Y-83301160D01*
X172679542Y-83287623D01*
X172629197Y-83239176D01*
X172613036Y-83171201D01*
X172617148Y-83149378D01*
X172616439Y-83149227D01*
X172617855Y-83142608D01*
X172627999Y-83043322D01*
X172628000Y-83043309D01*
X172628000Y-83020000D01*
X171777000Y-83020000D01*
X171709961Y-83000315D01*
X171664206Y-82947511D01*
X171653000Y-82896000D01*
X171653000Y-82770000D01*
X171527000Y-82770000D01*
X171459961Y-82750315D01*
X171414206Y-82697511D01*
X171403000Y-82646000D01*
X171403000Y-82520000D01*
X171903000Y-82520000D01*
X172627999Y-82520000D01*
X172627999Y-82496692D01*
X172627998Y-82496677D01*
X172617855Y-82397392D01*
X172564547Y-82236518D01*
X172564542Y-82236507D01*
X172475575Y-82092271D01*
X172475572Y-82092267D01*
X172355732Y-81972427D01*
X172355728Y-81972424D01*
X172211492Y-81883457D01*
X172211481Y-81883452D01*
X172050606Y-81830144D01*
X171951322Y-81820000D01*
X171903000Y-81820000D01*
X171903000Y-82520000D01*
X171403000Y-82520000D01*
X171403000Y-81820000D01*
X171402999Y-81819999D01*
X171354693Y-81820000D01*
X171354675Y-81820001D01*
X171255392Y-81830144D01*
X171094518Y-81883452D01*
X171094507Y-81883457D01*
X170950271Y-81972424D01*
X170950267Y-81972427D01*
X170865181Y-82057514D01*
X170803858Y-82090999D01*
X170734166Y-82086015D01*
X170678233Y-82044143D01*
X170653816Y-81978679D01*
X170653500Y-81969833D01*
X170653500Y-64970013D01*
X173908000Y-64970013D01*
X173908000Y-65020000D01*
X174883000Y-65020000D01*
X175383000Y-65020000D01*
X176364000Y-65020000D01*
X176431039Y-65039685D01*
X176476794Y-65092489D01*
X176488000Y-65144000D01*
X176488000Y-65195000D01*
X176703000Y-65195000D01*
X177203000Y-65195000D01*
X177927999Y-65195000D01*
X177927999Y-65171692D01*
X177927998Y-65171677D01*
X177917855Y-65072392D01*
X177889843Y-64987855D01*
X177878013Y-64952155D01*
X178315500Y-64952155D01*
X178315500Y-65200000D01*
X179315500Y-65200000D01*
X179315500Y-64500000D01*
X178767655Y-64500000D01*
X178708127Y-64506401D01*
X178708120Y-64506403D01*
X178573413Y-64556645D01*
X178573406Y-64556649D01*
X178458312Y-64642809D01*
X178458309Y-64642812D01*
X178372149Y-64757906D01*
X178372145Y-64757913D01*
X178321903Y-64892620D01*
X178321901Y-64892627D01*
X178315500Y-64952155D01*
X177878013Y-64952155D01*
X177864547Y-64911518D01*
X177864542Y-64911507D01*
X177775575Y-64767271D01*
X177775572Y-64767267D01*
X177655732Y-64647427D01*
X177655728Y-64647424D01*
X177511492Y-64558457D01*
X177511481Y-64558452D01*
X177350606Y-64505144D01*
X177251322Y-64495000D01*
X177203000Y-64495000D01*
X177203000Y-65195000D01*
X176703000Y-65195000D01*
X176703000Y-64495000D01*
X176702999Y-64494999D01*
X176654693Y-64495000D01*
X176654675Y-64495001D01*
X176555392Y-64505144D01*
X176394518Y-64558452D01*
X176394511Y-64558456D01*
X176361511Y-64578810D01*
X176294118Y-64597249D01*
X176227455Y-64576325D01*
X176205833Y-64556353D01*
X176205424Y-64556763D01*
X176076345Y-64427684D01*
X175927124Y-64335643D01*
X175927119Y-64335641D01*
X175760697Y-64280494D01*
X175760690Y-64280493D01*
X175657986Y-64270000D01*
X175383000Y-64270000D01*
X175383000Y-65020000D01*
X174883000Y-65020000D01*
X174883000Y-64270000D01*
X174608029Y-64270000D01*
X174608012Y-64270001D01*
X174505302Y-64280494D01*
X174338880Y-64335641D01*
X174338875Y-64335643D01*
X174189654Y-64427684D01*
X174065684Y-64551654D01*
X173973643Y-64700875D01*
X173973641Y-64700880D01*
X173918494Y-64867302D01*
X173918493Y-64867309D01*
X173908000Y-64970013D01*
X170653500Y-64970013D01*
X170653500Y-61300093D01*
X170673185Y-61233054D01*
X170725989Y-61187299D01*
X170790754Y-61176804D01*
X170825127Y-61180500D01*
G37*
%TD.AperFunction*%
%TA.AperFunction,Conductor*%
G36*
X178258039Y-68710185D02*
G01*
X178303794Y-68762989D01*
X178315000Y-68814500D01*
X178315000Y-69757870D01*
X178315001Y-69757876D01*
X178321408Y-69817481D01*
X178334159Y-69851669D01*
X178339142Y-69921361D01*
X178334159Y-69938331D01*
X178321408Y-69972518D01*
X178315001Y-70032116D01*
X178315001Y-70032123D01*
X178315000Y-70032135D01*
X178315000Y-71027870D01*
X178315001Y-71027876D01*
X178321408Y-71087481D01*
X178334159Y-71121669D01*
X178339142Y-71191361D01*
X178334159Y-71208331D01*
X178321408Y-71242518D01*
X178315200Y-71300263D01*
X178315001Y-71302123D01*
X178315000Y-71302135D01*
X178315000Y-72297870D01*
X178315001Y-72297876D01*
X178321408Y-72357481D01*
X178334159Y-72391669D01*
X178339142Y-72461361D01*
X178334159Y-72478331D01*
X178321408Y-72512518D01*
X178316335Y-72559707D01*
X178315001Y-72572123D01*
X178315000Y-72572135D01*
X178315000Y-73567870D01*
X178315001Y-73567876D01*
X178321408Y-73627481D01*
X178334159Y-73661669D01*
X178339142Y-73731361D01*
X178334159Y-73748331D01*
X178321408Y-73782518D01*
X178318864Y-73806186D01*
X178315001Y-73842123D01*
X178315000Y-73842135D01*
X178315000Y-74837870D01*
X178315001Y-74837876D01*
X178321408Y-74897481D01*
X178334159Y-74931669D01*
X178339142Y-75001361D01*
X178334159Y-75018331D01*
X178321408Y-75052518D01*
X178315001Y-75112116D01*
X178315001Y-75112123D01*
X178315000Y-75112135D01*
X178315000Y-76107870D01*
X178315001Y-76107876D01*
X178321408Y-76167481D01*
X178334159Y-76201669D01*
X178339142Y-76271361D01*
X178334159Y-76288331D01*
X178321408Y-76322518D01*
X178316007Y-76372760D01*
X178315001Y-76382123D01*
X178315000Y-76382135D01*
X178315000Y-77377870D01*
X178315001Y-77377876D01*
X178321408Y-77437481D01*
X178334159Y-77471669D01*
X178339142Y-77541361D01*
X178334159Y-77558331D01*
X178321408Y-77592518D01*
X178315001Y-77652116D01*
X178315001Y-77652123D01*
X178315000Y-77652135D01*
X178315000Y-78647870D01*
X178315001Y-78647876D01*
X178321408Y-78707481D01*
X178334159Y-78741669D01*
X178339142Y-78811361D01*
X178334159Y-78828331D01*
X178321408Y-78862518D01*
X178315001Y-78922116D01*
X178315001Y-78922123D01*
X178315000Y-78922135D01*
X178315000Y-79917870D01*
X178315001Y-79917876D01*
X178319255Y-79957447D01*
X178306848Y-80026206D01*
X178259237Y-80077343D01*
X178195965Y-80094700D01*
X177866750Y-80094700D01*
X177803629Y-80077432D01*
X177800061Y-80075322D01*
X177752393Y-80047131D01*
X177752388Y-80047129D01*
X177598208Y-80002335D01*
X177598202Y-80002334D01*
X177562181Y-79999500D01*
X177163830Y-79999500D01*
X177163808Y-79999501D01*
X177127794Y-80002335D01*
X176973611Y-80047129D01*
X176973604Y-80047132D01*
X176916119Y-80081128D01*
X176848395Y-80098309D01*
X176789881Y-80081128D01*
X176732395Y-80047132D01*
X176732388Y-80047129D01*
X176578208Y-80002335D01*
X176578202Y-80002334D01*
X176542181Y-79999500D01*
X176143830Y-79999500D01*
X176143808Y-79999501D01*
X176107794Y-80002335D01*
X175953611Y-80047129D01*
X175953601Y-80047133D01*
X175934984Y-80058143D01*
X175867260Y-80075322D01*
X175824417Y-80065970D01*
X175786497Y-80050263D01*
X175786493Y-80050262D01*
X175786488Y-80050260D01*
X175631845Y-80019500D01*
X175631842Y-80019500D01*
X175552500Y-80019500D01*
X175485461Y-79999815D01*
X175439706Y-79947011D01*
X175428500Y-79895500D01*
X175428500Y-72068322D01*
X175878001Y-72068322D01*
X175888144Y-72167607D01*
X175941452Y-72328481D01*
X175941457Y-72328492D01*
X176030424Y-72472728D01*
X176030427Y-72472732D01*
X176150267Y-72592572D01*
X176150271Y-72592575D01*
X176294507Y-72681542D01*
X176294518Y-72681547D01*
X176455393Y-72734855D01*
X176554683Y-72744999D01*
X177103000Y-72744999D01*
X177151308Y-72744999D01*
X177151322Y-72744998D01*
X177250607Y-72734855D01*
X177411481Y-72681547D01*
X177411492Y-72681542D01*
X177555728Y-72592575D01*
X177555732Y-72592572D01*
X177675572Y-72472732D01*
X177675575Y-72472728D01*
X177764542Y-72328492D01*
X177764547Y-72328481D01*
X177817855Y-72167606D01*
X177827999Y-72068322D01*
X177828000Y-72068309D01*
X177828000Y-72045000D01*
X177103000Y-72045000D01*
X177103000Y-72744999D01*
X176554683Y-72744999D01*
X176602999Y-72744998D01*
X176603000Y-72744998D01*
X176603000Y-72045000D01*
X175878001Y-72045000D01*
X175878001Y-72068322D01*
X175428500Y-72068322D01*
X175428500Y-71636518D01*
X175448185Y-71569479D01*
X175464815Y-71548841D01*
X175675462Y-71338194D01*
X175736784Y-71304710D01*
X175806476Y-71309694D01*
X175862409Y-71351566D01*
X175886826Y-71417030D01*
X175886500Y-71438478D01*
X175878000Y-71521675D01*
X175878000Y-71545000D01*
X177827999Y-71545000D01*
X177827999Y-71521692D01*
X177827998Y-71521677D01*
X177817855Y-71422392D01*
X177764547Y-71261518D01*
X177764542Y-71261507D01*
X177675575Y-71117271D01*
X177675572Y-71117267D01*
X177666339Y-71108034D01*
X177632854Y-71046711D01*
X177637838Y-70977019D01*
X177666343Y-70932668D01*
X177675968Y-70923044D01*
X177765003Y-70778697D01*
X177818349Y-70617708D01*
X177828500Y-70518345D01*
X177828499Y-69971656D01*
X177818349Y-69872292D01*
X177765003Y-69711303D01*
X177697199Y-69601377D01*
X177678759Y-69533986D01*
X177699681Y-69467323D01*
X177715059Y-69448598D01*
X177733469Y-69430188D01*
X177733469Y-69430187D01*
X177733472Y-69430185D01*
X177821478Y-69284606D01*
X177872086Y-69122196D01*
X177878500Y-69051616D01*
X177878500Y-68861519D01*
X177887144Y-68832078D01*
X177893668Y-68802092D01*
X177897422Y-68797076D01*
X177898185Y-68794480D01*
X177914819Y-68773838D01*
X177961838Y-68726819D01*
X178023161Y-68693334D01*
X178049519Y-68690500D01*
X178191000Y-68690500D01*
X178258039Y-68710185D01*
G37*
%TD.AperFunction*%
%TD*%
M02*
