%TF.GenerationSoftware,KiCad,Pcbnew,9.0.6*%
%TF.CreationDate,2025-12-15T08:35:58+01:00*%
%TF.ProjectId,neptune-gnd,6e657074-756e-4652-9d67-6e642e6b6963,rev?*%
%TF.SameCoordinates,Original*%
%TF.FileFunction,Copper,L3,Inr*%
%TF.FilePolarity,Positive*%
%FSLAX46Y46*%
G04 Gerber Fmt 4.6, Leading zero omitted, Abs format (unit mm)*
G04 Created by KiCad (PCBNEW 9.0.6) date 2025-12-15 08:35:58*
%MOMM*%
%LPD*%
G01*
G04 APERTURE LIST*
%TA.AperFunction,ComponentPad*%
%ADD10C,2.500000*%
%TD*%
%TA.AperFunction,ComponentPad*%
%ADD11C,0.700000*%
%TD*%
%TA.AperFunction,ComponentPad*%
%ADD12O,1.100000X2.000000*%
%TD*%
%TA.AperFunction,ComponentPad*%
%ADD13O,1.200000X1.800000*%
%TD*%
%TA.AperFunction,ViaPad*%
%ADD14C,1.000000*%
%TD*%
%TA.AperFunction,ViaPad*%
%ADD15C,0.800000*%
%TD*%
%TA.AperFunction,ViaPad*%
%ADD16C,0.600000*%
%TD*%
G04 APERTURE END LIST*
D10*
%TO.N,Net-(J2-In)*%
%TO.C,J2*%
X105353000Y-94276000D03*
%TO.N,GND*%
X102813000Y-96816000D03*
X107893000Y-96816000D03*
X102813000Y-91736000D03*
X107893000Y-91736000D03*
%TD*%
D11*
%TO.N,*%
%TO.C,USB1*%
X108243000Y-45524500D03*
X102463000Y-45524500D03*
D12*
%TO.N,GND*%
X109673000Y-46054500D03*
D13*
X109673000Y-41844500D03*
D12*
X101033000Y-46054500D03*
D13*
X101033000Y-41844500D03*
%TD*%
D14*
%TO.N,GND*%
X117804500Y-44044000D03*
X112111500Y-43798000D03*
D15*
X100323000Y-73952000D03*
D14*
X116960000Y-97065000D03*
X114878000Y-86000000D03*
X95828000Y-88000000D03*
X106293000Y-56503000D03*
X114013000Y-70700000D03*
D16*
X108553000Y-47604500D03*
X108800000Y-55692000D03*
D15*
X91775000Y-88205000D03*
D14*
X106293000Y-61503000D03*
D15*
X91775000Y-73855000D03*
D16*
X103603000Y-42667000D03*
D14*
X97511000Y-97082000D03*
X114328000Y-46548000D03*
X117955000Y-80000000D03*
D16*
X106603000Y-42667000D03*
X102153000Y-47604500D03*
D14*
X103793000Y-59003000D03*
X108793000Y-59003000D03*
X95828000Y-74000000D03*
D16*
X92946000Y-83305000D03*
D14*
%TO.N,+3.3V*%
X118880000Y-41301000D03*
D16*
X92946000Y-81105000D03*
D14*
X112428000Y-46548000D03*
D16*
X114176000Y-54148000D03*
D15*
X115411000Y-80983000D03*
D16*
%TO.N,/EN*%
X111473000Y-53000000D03*
%TO.N,/SPI_MISO*%
X92855000Y-84405000D03*
%TO.N,/SPI_MOSI*%
X92855000Y-80005000D03*
%TO.N,/SPI_CLK*%
X95911000Y-80030000D03*
%TO.N,Net-(USB1-CC2)*%
X103603000Y-45387000D03*
%TO.N,Net-(USB1-CC1)*%
X106603000Y-45387000D03*
%TO.N,VCC*%
X107753000Y-48106000D03*
X102965000Y-47618000D03*
%TO.N,/SD_CS*%
X102566000Y-70685000D03*
%TD*%
%TA.AperFunction,Conductor*%
%TO.N,+3.3V*%
G36*
X120045539Y-39640185D02*
G01*
X120091294Y-39692989D01*
X120102500Y-39744500D01*
X120102500Y-98495500D01*
X120082815Y-98562539D01*
X120030011Y-98608294D01*
X119978500Y-98619500D01*
X108733020Y-98619500D01*
X108665981Y-98599815D01*
X108620226Y-98547011D01*
X108610282Y-98477853D01*
X108639307Y-98414297D01*
X108671020Y-98388113D01*
X108867612Y-98274611D01*
X109049661Y-98134919D01*
X109049665Y-98134914D01*
X109049670Y-98134911D01*
X109211911Y-97972670D01*
X109211914Y-97972665D01*
X109211919Y-97972661D01*
X109351611Y-97790612D01*
X109466344Y-97591888D01*
X109554158Y-97379887D01*
X109612127Y-97163543D01*
X115959499Y-97163543D01*
X115997947Y-97356829D01*
X115997950Y-97356839D01*
X116073364Y-97538907D01*
X116073371Y-97538920D01*
X116182860Y-97702781D01*
X116182863Y-97702785D01*
X116322214Y-97842136D01*
X116322218Y-97842139D01*
X116486079Y-97951628D01*
X116486092Y-97951635D01*
X116668160Y-98027049D01*
X116668165Y-98027051D01*
X116668169Y-98027051D01*
X116668170Y-98027052D01*
X116861456Y-98065500D01*
X116861459Y-98065500D01*
X117058543Y-98065500D01*
X117188582Y-98039632D01*
X117251835Y-98027051D01*
X117433914Y-97951632D01*
X117597782Y-97842139D01*
X117737139Y-97702782D01*
X117846632Y-97538914D01*
X117922051Y-97356835D01*
X117957118Y-97180543D01*
X117960500Y-97163543D01*
X117960500Y-96966456D01*
X117922052Y-96773170D01*
X117922051Y-96773169D01*
X117922051Y-96773165D01*
X117892270Y-96701266D01*
X117846635Y-96591092D01*
X117846628Y-96591079D01*
X117737139Y-96427218D01*
X117737136Y-96427214D01*
X117597785Y-96287863D01*
X117597781Y-96287860D01*
X117433920Y-96178371D01*
X117433907Y-96178364D01*
X117251839Y-96102950D01*
X117251829Y-96102947D01*
X117058543Y-96064500D01*
X117058541Y-96064500D01*
X116861459Y-96064500D01*
X116861457Y-96064500D01*
X116668170Y-96102947D01*
X116668160Y-96102950D01*
X116486092Y-96178364D01*
X116486079Y-96178371D01*
X116322218Y-96287860D01*
X116322214Y-96287863D01*
X116182863Y-96427214D01*
X116182860Y-96427218D01*
X116073371Y-96591079D01*
X116073364Y-96591092D01*
X115997950Y-96773160D01*
X115997947Y-96773170D01*
X115959500Y-96966456D01*
X115959500Y-96966459D01*
X115959500Y-97163541D01*
X115959500Y-97163543D01*
X115959499Y-97163543D01*
X109612127Y-97163543D01*
X109613548Y-97158238D01*
X109635128Y-96994322D01*
X109641730Y-96944181D01*
X109641730Y-96944180D01*
X109643498Y-96930746D01*
X109643499Y-96930741D01*
X109643500Y-96930734D01*
X109643500Y-96701266D01*
X109613548Y-96473762D01*
X109554158Y-96252113D01*
X109499413Y-96119947D01*
X109466349Y-96040123D01*
X109466346Y-96040117D01*
X109466344Y-96040112D01*
X109351611Y-95841388D01*
X109351608Y-95841385D01*
X109351607Y-95841382D01*
X109211918Y-95659338D01*
X109211911Y-95659330D01*
X109049670Y-95497089D01*
X109049661Y-95497081D01*
X108867617Y-95357392D01*
X108668890Y-95242657D01*
X108668876Y-95242650D01*
X108456887Y-95154842D01*
X108405257Y-95141008D01*
X108235238Y-95095452D01*
X108197215Y-95090446D01*
X108007741Y-95065500D01*
X108007734Y-95065500D01*
X107778266Y-95065500D01*
X107778258Y-95065500D01*
X107561715Y-95094009D01*
X107550762Y-95095452D01*
X107524548Y-95102476D01*
X107329112Y-95154842D01*
X107117123Y-95242650D01*
X107117113Y-95242655D01*
X107066522Y-95271864D01*
X106998622Y-95288336D01*
X106932595Y-95265483D01*
X106889405Y-95210561D01*
X106882764Y-95141008D01*
X106897134Y-95102480D01*
X106926344Y-95051888D01*
X107014158Y-94839887D01*
X107073548Y-94618238D01*
X107103500Y-94390734D01*
X107103500Y-94161266D01*
X107073548Y-93933762D01*
X107014158Y-93712113D01*
X106926344Y-93500112D01*
X106897135Y-93449520D01*
X106880663Y-93381624D01*
X106903515Y-93315597D01*
X106958436Y-93272406D01*
X107027989Y-93265764D01*
X107066518Y-93280134D01*
X107117112Y-93309344D01*
X107117120Y-93309347D01*
X107117123Y-93309349D01*
X107194586Y-93341435D01*
X107329113Y-93397158D01*
X107550762Y-93456548D01*
X107778266Y-93486500D01*
X107778273Y-93486500D01*
X108007727Y-93486500D01*
X108007734Y-93486500D01*
X108235238Y-93456548D01*
X108456887Y-93397158D01*
X108668888Y-93309344D01*
X108867612Y-93194611D01*
X109049661Y-93054919D01*
X109049665Y-93054914D01*
X109049670Y-93054911D01*
X109211911Y-92892670D01*
X109211914Y-92892665D01*
X109211919Y-92892661D01*
X109351611Y-92710612D01*
X109466344Y-92511888D01*
X109554158Y-92299887D01*
X109613548Y-92078238D01*
X109643500Y-91850734D01*
X109643500Y-91621266D01*
X109613548Y-91393762D01*
X109554158Y-91172113D01*
X109466344Y-90960112D01*
X109351611Y-90761388D01*
X109351608Y-90761385D01*
X109351607Y-90761382D01*
X109211918Y-90579338D01*
X109211911Y-90579330D01*
X109049670Y-90417089D01*
X109049661Y-90417081D01*
X108867617Y-90277392D01*
X108668890Y-90162657D01*
X108668876Y-90162650D01*
X108456887Y-90074842D01*
X108235238Y-90015452D01*
X108197215Y-90010446D01*
X108007741Y-89985500D01*
X108007734Y-89985500D01*
X107778266Y-89985500D01*
X107778258Y-89985500D01*
X107561715Y-90014009D01*
X107550762Y-90015452D01*
X107457076Y-90040554D01*
X107329112Y-90074842D01*
X107117123Y-90162650D01*
X107117109Y-90162657D01*
X106918382Y-90277392D01*
X106736338Y-90417081D01*
X106574081Y-90579338D01*
X106434392Y-90761382D01*
X106319657Y-90960109D01*
X106319650Y-90960123D01*
X106231842Y-91172112D01*
X106172453Y-91393759D01*
X106172451Y-91393770D01*
X106142500Y-91621258D01*
X106142500Y-91850741D01*
X106167446Y-92040215D01*
X106172452Y-92078238D01*
X106172453Y-92078240D01*
X106231842Y-92299887D01*
X106319650Y-92511876D01*
X106319657Y-92511890D01*
X106348863Y-92562476D01*
X106365336Y-92630376D01*
X106342483Y-92696403D01*
X106287562Y-92739594D01*
X106218009Y-92746235D01*
X106179476Y-92731863D01*
X106128890Y-92702657D01*
X106128876Y-92702650D01*
X105916887Y-92614842D01*
X105865257Y-92601008D01*
X105695238Y-92555452D01*
X105657215Y-92550446D01*
X105467741Y-92525500D01*
X105467734Y-92525500D01*
X105238266Y-92525500D01*
X105238258Y-92525500D01*
X105021715Y-92554009D01*
X105010762Y-92555452D01*
X104984548Y-92562476D01*
X104789112Y-92614842D01*
X104577123Y-92702650D01*
X104577113Y-92702655D01*
X104526522Y-92731864D01*
X104458622Y-92748336D01*
X104392595Y-92725483D01*
X104349405Y-92670561D01*
X104342764Y-92601008D01*
X104357134Y-92562480D01*
X104386344Y-92511888D01*
X104474158Y-92299887D01*
X104533548Y-92078238D01*
X104563500Y-91850734D01*
X104563500Y-91621266D01*
X104533548Y-91393762D01*
X104474158Y-91172113D01*
X104386344Y-90960112D01*
X104271611Y-90761388D01*
X104271608Y-90761385D01*
X104271607Y-90761382D01*
X104131918Y-90579338D01*
X104131911Y-90579330D01*
X103969670Y-90417089D01*
X103969661Y-90417081D01*
X103787617Y-90277392D01*
X103588890Y-90162657D01*
X103588876Y-90162650D01*
X103376887Y-90074842D01*
X103155238Y-90015452D01*
X103117215Y-90010446D01*
X102927741Y-89985500D01*
X102927734Y-89985500D01*
X102698266Y-89985500D01*
X102698258Y-89985500D01*
X102481715Y-90014009D01*
X102470762Y-90015452D01*
X102377076Y-90040554D01*
X102249112Y-90074842D01*
X102037123Y-90162650D01*
X102037109Y-90162657D01*
X101838382Y-90277392D01*
X101656338Y-90417081D01*
X101494081Y-90579338D01*
X101354392Y-90761382D01*
X101239657Y-90960109D01*
X101239650Y-90960123D01*
X101151842Y-91172112D01*
X101092453Y-91393759D01*
X101092451Y-91393770D01*
X101062500Y-91621258D01*
X101062500Y-91850741D01*
X101087446Y-92040215D01*
X101092452Y-92078238D01*
X101092453Y-92078240D01*
X101151842Y-92299887D01*
X101239650Y-92511876D01*
X101239656Y-92511888D01*
X101346185Y-92696403D01*
X101354392Y-92710617D01*
X101494081Y-92892661D01*
X101494089Y-92892670D01*
X101656330Y-93054911D01*
X101656338Y-93054918D01*
X101838382Y-93194607D01*
X101838385Y-93194608D01*
X101838388Y-93194611D01*
X102037112Y-93309344D01*
X102037117Y-93309346D01*
X102037123Y-93309349D01*
X102114586Y-93341435D01*
X102249113Y-93397158D01*
X102470762Y-93456548D01*
X102698266Y-93486500D01*
X102698273Y-93486500D01*
X102927727Y-93486500D01*
X102927734Y-93486500D01*
X103155238Y-93456548D01*
X103376887Y-93397158D01*
X103588888Y-93309344D01*
X103639477Y-93280136D01*
X103707374Y-93263663D01*
X103773402Y-93286515D01*
X103816593Y-93341435D01*
X103823235Y-93410988D01*
X103808864Y-93449522D01*
X103779655Y-93500113D01*
X103779650Y-93500123D01*
X103691842Y-93712112D01*
X103632453Y-93933759D01*
X103632451Y-93933770D01*
X103602500Y-94161258D01*
X103602500Y-94390741D01*
X103627446Y-94580215D01*
X103632452Y-94618238D01*
X103632453Y-94618240D01*
X103691842Y-94839887D01*
X103779650Y-95051876D01*
X103779657Y-95051890D01*
X103808863Y-95102476D01*
X103825336Y-95170376D01*
X103802483Y-95236403D01*
X103747562Y-95279594D01*
X103678009Y-95286235D01*
X103639476Y-95271863D01*
X103588890Y-95242657D01*
X103588876Y-95242650D01*
X103376887Y-95154842D01*
X103325257Y-95141008D01*
X103155238Y-95095452D01*
X103117215Y-95090446D01*
X102927741Y-95065500D01*
X102927734Y-95065500D01*
X102698266Y-95065500D01*
X102698258Y-95065500D01*
X102481715Y-95094009D01*
X102470762Y-95095452D01*
X102444548Y-95102476D01*
X102249112Y-95154842D01*
X102037123Y-95242650D01*
X102037109Y-95242657D01*
X101838382Y-95357392D01*
X101656338Y-95497081D01*
X101494081Y-95659338D01*
X101354392Y-95841382D01*
X101239657Y-96040109D01*
X101239650Y-96040123D01*
X101151842Y-96252112D01*
X101092453Y-96473759D01*
X101092451Y-96473770D01*
X101062500Y-96701258D01*
X101062500Y-96930741D01*
X101087446Y-97120215D01*
X101092452Y-97158238D01*
X101098428Y-97180541D01*
X101151842Y-97379887D01*
X101239650Y-97591876D01*
X101239657Y-97591890D01*
X101354392Y-97790617D01*
X101494081Y-97972661D01*
X101494089Y-97972670D01*
X101656330Y-98134911D01*
X101656338Y-98134918D01*
X101838382Y-98274607D01*
X101838385Y-98274608D01*
X101838388Y-98274611D01*
X102034980Y-98388113D01*
X102083196Y-98438680D01*
X102096419Y-98507287D01*
X102070451Y-98572152D01*
X102013536Y-98612680D01*
X101972980Y-98619500D01*
X90727500Y-98619500D01*
X90660461Y-98599815D01*
X90614706Y-98547011D01*
X90603500Y-98495500D01*
X90603500Y-97180543D01*
X96510499Y-97180543D01*
X96548947Y-97373829D01*
X96548950Y-97373839D01*
X96624364Y-97555907D01*
X96624371Y-97555920D01*
X96733860Y-97719781D01*
X96733863Y-97719785D01*
X96873214Y-97859136D01*
X96873218Y-97859139D01*
X97037079Y-97968628D01*
X97037092Y-97968635D01*
X97178118Y-98027049D01*
X97219165Y-98044051D01*
X97219169Y-98044051D01*
X97219170Y-98044052D01*
X97412456Y-98082500D01*
X97412459Y-98082500D01*
X97609543Y-98082500D01*
X97739582Y-98056632D01*
X97802835Y-98044051D01*
X97943655Y-97985721D01*
X97984907Y-97968635D01*
X97984907Y-97968634D01*
X97984914Y-97968632D01*
X98148782Y-97859139D01*
X98288139Y-97719782D01*
X98397632Y-97555914D01*
X98404677Y-97538907D01*
X98473049Y-97373839D01*
X98473051Y-97373835D01*
X98511500Y-97180541D01*
X98511500Y-96983459D01*
X98511500Y-96983456D01*
X98473052Y-96790170D01*
X98473051Y-96790169D01*
X98473051Y-96790165D01*
X98473049Y-96790160D01*
X98397635Y-96608092D01*
X98397628Y-96608079D01*
X98288139Y-96444218D01*
X98288136Y-96444214D01*
X98148785Y-96304863D01*
X98148781Y-96304860D01*
X97984920Y-96195371D01*
X97984907Y-96195364D01*
X97802839Y-96119950D01*
X97802829Y-96119947D01*
X97609543Y-96081500D01*
X97609541Y-96081500D01*
X97412459Y-96081500D01*
X97412457Y-96081500D01*
X97219170Y-96119947D01*
X97219160Y-96119950D01*
X97037092Y-96195364D01*
X97037079Y-96195371D01*
X96873218Y-96304860D01*
X96873214Y-96304863D01*
X96733863Y-96444214D01*
X96733860Y-96444218D01*
X96624371Y-96608079D01*
X96624364Y-96608092D01*
X96548950Y-96790160D01*
X96548947Y-96790170D01*
X96510500Y-96983456D01*
X96510500Y-96983459D01*
X96510500Y-97180541D01*
X96510500Y-97180543D01*
X96510499Y-97180543D01*
X90603500Y-97180543D01*
X90603500Y-88116304D01*
X90874500Y-88116304D01*
X90874500Y-88293695D01*
X90909103Y-88467658D01*
X90909106Y-88467667D01*
X90976983Y-88631540D01*
X90976990Y-88631553D01*
X91075535Y-88779034D01*
X91075538Y-88779038D01*
X91200961Y-88904461D01*
X91200965Y-88904464D01*
X91348446Y-89003009D01*
X91348459Y-89003016D01*
X91471363Y-89053923D01*
X91512334Y-89070894D01*
X91512336Y-89070894D01*
X91512341Y-89070896D01*
X91686304Y-89105499D01*
X91686307Y-89105500D01*
X91686309Y-89105500D01*
X91863693Y-89105500D01*
X91863694Y-89105499D01*
X91921682Y-89093964D01*
X92037658Y-89070896D01*
X92037661Y-89070894D01*
X92037666Y-89070894D01*
X92201547Y-89003013D01*
X92349035Y-88904464D01*
X92474464Y-88779035D01*
X92573013Y-88631547D01*
X92640894Y-88467666D01*
X92675500Y-88293691D01*
X92675500Y-88116309D01*
X92675500Y-88116306D01*
X92675499Y-88116304D01*
X92671966Y-88098543D01*
X94827499Y-88098543D01*
X94865947Y-88291829D01*
X94865950Y-88291839D01*
X94941364Y-88473907D01*
X94941371Y-88473920D01*
X95050860Y-88637781D01*
X95050863Y-88637785D01*
X95190214Y-88777136D01*
X95190218Y-88777139D01*
X95354079Y-88886628D01*
X95354092Y-88886635D01*
X95536160Y-88962049D01*
X95536165Y-88962051D01*
X95536169Y-88962051D01*
X95536170Y-88962052D01*
X95729456Y-89000500D01*
X95729459Y-89000500D01*
X95926543Y-89000500D01*
X96056582Y-88974632D01*
X96119835Y-88962051D01*
X96301914Y-88886632D01*
X96465782Y-88777139D01*
X96605139Y-88637782D01*
X96714632Y-88473914D01*
X96790051Y-88291835D01*
X96824966Y-88116309D01*
X96828500Y-88098543D01*
X96828500Y-87901456D01*
X96790052Y-87708170D01*
X96790051Y-87708169D01*
X96790051Y-87708165D01*
X96758074Y-87630965D01*
X96714635Y-87526092D01*
X96714628Y-87526079D01*
X96605139Y-87362218D01*
X96605136Y-87362214D01*
X96465785Y-87222863D01*
X96465781Y-87222860D01*
X96301920Y-87113371D01*
X96301907Y-87113364D01*
X96119839Y-87037950D01*
X96119829Y-87037947D01*
X95926543Y-86999500D01*
X95926541Y-86999500D01*
X95729459Y-86999500D01*
X95729457Y-86999500D01*
X95536170Y-87037947D01*
X95536160Y-87037950D01*
X95354092Y-87113364D01*
X95354079Y-87113371D01*
X95190218Y-87222860D01*
X95190214Y-87222863D01*
X95050863Y-87362214D01*
X95050860Y-87362218D01*
X94941371Y-87526079D01*
X94941364Y-87526092D01*
X94865950Y-87708160D01*
X94865947Y-87708170D01*
X94827500Y-87901456D01*
X94827500Y-87901459D01*
X94827500Y-88098541D01*
X94827500Y-88098543D01*
X94827499Y-88098543D01*
X92671966Y-88098543D01*
X92640896Y-87942341D01*
X92640894Y-87942337D01*
X92640894Y-87942334D01*
X92613741Y-87876781D01*
X92573016Y-87778459D01*
X92573009Y-87778446D01*
X92474464Y-87630965D01*
X92474461Y-87630961D01*
X92349038Y-87505538D01*
X92349034Y-87505535D01*
X92201553Y-87406990D01*
X92201540Y-87406983D01*
X92037667Y-87339106D01*
X92037658Y-87339103D01*
X91863694Y-87304500D01*
X91863691Y-87304500D01*
X91686309Y-87304500D01*
X91686306Y-87304500D01*
X91512341Y-87339103D01*
X91512332Y-87339106D01*
X91348459Y-87406983D01*
X91348446Y-87406990D01*
X91200965Y-87505535D01*
X91200961Y-87505538D01*
X91075538Y-87630961D01*
X91075535Y-87630965D01*
X90976990Y-87778446D01*
X90976983Y-87778459D01*
X90909106Y-87942332D01*
X90909103Y-87942341D01*
X90874500Y-88116304D01*
X90603500Y-88116304D01*
X90603500Y-86098543D01*
X113877499Y-86098543D01*
X113915947Y-86291829D01*
X113915950Y-86291839D01*
X113991364Y-86473907D01*
X113991371Y-86473920D01*
X114100860Y-86637781D01*
X114100863Y-86637785D01*
X114240214Y-86777136D01*
X114240218Y-86777139D01*
X114404079Y-86886628D01*
X114404092Y-86886635D01*
X114586160Y-86962049D01*
X114586165Y-86962051D01*
X114586169Y-86962051D01*
X114586170Y-86962052D01*
X114779456Y-87000500D01*
X114779459Y-87000500D01*
X114976543Y-87000500D01*
X115106582Y-86974632D01*
X115169835Y-86962051D01*
X115351914Y-86886632D01*
X115515782Y-86777139D01*
X115655139Y-86637782D01*
X115764632Y-86473914D01*
X115840051Y-86291835D01*
X115878500Y-86098541D01*
X115878500Y-85901459D01*
X115878500Y-85901456D01*
X115840052Y-85708170D01*
X115840051Y-85708169D01*
X115840051Y-85708165D01*
X115840049Y-85708160D01*
X115764635Y-85526092D01*
X115764628Y-85526079D01*
X115655139Y-85362218D01*
X115655136Y-85362214D01*
X115515785Y-85222863D01*
X115515781Y-85222860D01*
X115351920Y-85113371D01*
X115351907Y-85113364D01*
X115169839Y-85037950D01*
X115169829Y-85037947D01*
X114976543Y-84999500D01*
X114976541Y-84999500D01*
X114779459Y-84999500D01*
X114779457Y-84999500D01*
X114586170Y-85037947D01*
X114586160Y-85037950D01*
X114404092Y-85113364D01*
X114404079Y-85113371D01*
X114240218Y-85222860D01*
X114240214Y-85222863D01*
X114100863Y-85362214D01*
X114100860Y-85362218D01*
X113991371Y-85526079D01*
X113991364Y-85526092D01*
X113915950Y-85708160D01*
X113915947Y-85708170D01*
X113877500Y-85901456D01*
X113877500Y-85901459D01*
X113877500Y-86098541D01*
X113877500Y-86098543D01*
X113877499Y-86098543D01*
X90603500Y-86098543D01*
X90603500Y-84326153D01*
X92054500Y-84326153D01*
X92054500Y-84483846D01*
X92085261Y-84638489D01*
X92085264Y-84638501D01*
X92145602Y-84784172D01*
X92145609Y-84784185D01*
X92233210Y-84915288D01*
X92233213Y-84915292D01*
X92344707Y-85026786D01*
X92344711Y-85026789D01*
X92475814Y-85114390D01*
X92475827Y-85114397D01*
X92621498Y-85174735D01*
X92621503Y-85174737D01*
X92776153Y-85205499D01*
X92776156Y-85205500D01*
X92776158Y-85205500D01*
X92933844Y-85205500D01*
X92933845Y-85205499D01*
X93088497Y-85174737D01*
X93234179Y-85114394D01*
X93365289Y-85026789D01*
X93476789Y-84915289D01*
X93564394Y-84784179D01*
X93624737Y-84638497D01*
X93655500Y-84483842D01*
X93655500Y-84326158D01*
X93655500Y-84326155D01*
X93655499Y-84326153D01*
X93624738Y-84171510D01*
X93624737Y-84171503D01*
X93624735Y-84171498D01*
X93564397Y-84025827D01*
X93564392Y-84025818D01*
X93564238Y-84025588D01*
X93537963Y-83986264D01*
X93517085Y-83919590D01*
X93535568Y-83852209D01*
X93553379Y-83829698D01*
X93567789Y-83815289D01*
X93655394Y-83684179D01*
X93715737Y-83538497D01*
X93746500Y-83383842D01*
X93746500Y-83226158D01*
X93746500Y-83226155D01*
X93746499Y-83226153D01*
X93715738Y-83071510D01*
X93715737Y-83071503D01*
X93715735Y-83071498D01*
X93655397Y-82925827D01*
X93655390Y-82925814D01*
X93567789Y-82794711D01*
X93567786Y-82794707D01*
X93456292Y-82683213D01*
X93456288Y-82683210D01*
X93325185Y-82595609D01*
X93325172Y-82595602D01*
X93179501Y-82535264D01*
X93179489Y-82535261D01*
X93024845Y-82504500D01*
X93024842Y-82504500D01*
X92867158Y-82504500D01*
X92867155Y-82504500D01*
X92712510Y-82535261D01*
X92712498Y-82535264D01*
X92566827Y-82595602D01*
X92566814Y-82595609D01*
X92435711Y-82683210D01*
X92435707Y-82683213D01*
X92324213Y-82794707D01*
X92324210Y-82794711D01*
X92236609Y-82925814D01*
X92236602Y-82925827D01*
X92176264Y-83071498D01*
X92176261Y-83071510D01*
X92145500Y-83226153D01*
X92145500Y-83383846D01*
X92176261Y-83538489D01*
X92176264Y-83538501D01*
X92236602Y-83684172D01*
X92236612Y-83684190D01*
X92263035Y-83723735D01*
X92283913Y-83790412D01*
X92265428Y-83857792D01*
X92247619Y-83880302D01*
X92233209Y-83894712D01*
X92233208Y-83894714D01*
X92145609Y-84025814D01*
X92145602Y-84025827D01*
X92085264Y-84171498D01*
X92085261Y-84171510D01*
X92054500Y-84326153D01*
X90603500Y-84326153D01*
X90603500Y-79926153D01*
X92054500Y-79926153D01*
X92054500Y-80083846D01*
X92085261Y-80238489D01*
X92085264Y-80238501D01*
X92145602Y-80384172D01*
X92145609Y-80384185D01*
X92233210Y-80515288D01*
X92233213Y-80515292D01*
X92344707Y-80626786D01*
X92344711Y-80626789D01*
X92475814Y-80714390D01*
X92475827Y-80714397D01*
X92621498Y-80774735D01*
X92621503Y-80774737D01*
X92747176Y-80799735D01*
X92776153Y-80805499D01*
X92776156Y-80805500D01*
X92776158Y-80805500D01*
X92933844Y-80805500D01*
X92933845Y-80805499D01*
X93088497Y-80774737D01*
X93234179Y-80714394D01*
X93365289Y-80626789D01*
X93476789Y-80515289D01*
X93564394Y-80384179D01*
X93624737Y-80238497D01*
X93655500Y-80083842D01*
X93655500Y-79951153D01*
X95110500Y-79951153D01*
X95110500Y-80108846D01*
X95141261Y-80263489D01*
X95141264Y-80263501D01*
X95201602Y-80409172D01*
X95201609Y-80409185D01*
X95289210Y-80540288D01*
X95289213Y-80540292D01*
X95400707Y-80651786D01*
X95400711Y-80651789D01*
X95531814Y-80739390D01*
X95531827Y-80739397D01*
X95622946Y-80777139D01*
X95677503Y-80799737D01*
X95832153Y-80830499D01*
X95832156Y-80830500D01*
X95832158Y-80830500D01*
X95989844Y-80830500D01*
X95989845Y-80830499D01*
X96144497Y-80799737D01*
X96290179Y-80739394D01*
X96421289Y-80651789D01*
X96532789Y-80540289D01*
X96620394Y-80409179D01*
X96680737Y-80263497D01*
X96711500Y-80108842D01*
X96711500Y-80098543D01*
X116954499Y-80098543D01*
X116992947Y-80291829D01*
X116992950Y-80291839D01*
X117068364Y-80473907D01*
X117068371Y-80473920D01*
X117177860Y-80637781D01*
X117177863Y-80637785D01*
X117317214Y-80777136D01*
X117317218Y-80777139D01*
X117481079Y-80886628D01*
X117481092Y-80886635D01*
X117663160Y-80962049D01*
X117663165Y-80962051D01*
X117663169Y-80962051D01*
X117663170Y-80962052D01*
X117856456Y-81000500D01*
X117856459Y-81000500D01*
X118053543Y-81000500D01*
X118183582Y-80974632D01*
X118246835Y-80962051D01*
X118428914Y-80886632D01*
X118592782Y-80777139D01*
X118732139Y-80637782D01*
X118841632Y-80473914D01*
X118917051Y-80291835D01*
X118929632Y-80228582D01*
X118955500Y-80098543D01*
X118955500Y-79901456D01*
X118917052Y-79708170D01*
X118917051Y-79708169D01*
X118917051Y-79708165D01*
X118882946Y-79625827D01*
X118841635Y-79526092D01*
X118841628Y-79526079D01*
X118732139Y-79362218D01*
X118732136Y-79362214D01*
X118592785Y-79222863D01*
X118592781Y-79222860D01*
X118428920Y-79113371D01*
X118428907Y-79113364D01*
X118246839Y-79037950D01*
X118246829Y-79037947D01*
X118053543Y-78999500D01*
X118053541Y-78999500D01*
X117856459Y-78999500D01*
X117856457Y-78999500D01*
X117663170Y-79037947D01*
X117663160Y-79037950D01*
X117481092Y-79113364D01*
X117481079Y-79113371D01*
X117317218Y-79222860D01*
X117317214Y-79222863D01*
X117177863Y-79362214D01*
X117177860Y-79362218D01*
X117068371Y-79526079D01*
X117068364Y-79526092D01*
X116992950Y-79708160D01*
X116992947Y-79708170D01*
X116954500Y-79901456D01*
X116954500Y-79901459D01*
X116954500Y-80098541D01*
X116954500Y-80098543D01*
X116954499Y-80098543D01*
X96711500Y-80098543D01*
X96711500Y-79951158D01*
X96711500Y-79951155D01*
X96711499Y-79951153D01*
X96705215Y-79919558D01*
X96680738Y-79796508D01*
X96680737Y-79796507D01*
X96680737Y-79796503D01*
X96644149Y-79708170D01*
X96620397Y-79650827D01*
X96620390Y-79650814D01*
X96532789Y-79519711D01*
X96532786Y-79519707D01*
X96421292Y-79408213D01*
X96421288Y-79408210D01*
X96290185Y-79320609D01*
X96290172Y-79320602D01*
X96144501Y-79260264D01*
X96144489Y-79260261D01*
X95989845Y-79229500D01*
X95989842Y-79229500D01*
X95832158Y-79229500D01*
X95832155Y-79229500D01*
X95677510Y-79260261D01*
X95677498Y-79260264D01*
X95531827Y-79320602D01*
X95531814Y-79320609D01*
X95400711Y-79408210D01*
X95400707Y-79408213D01*
X95289213Y-79519707D01*
X95289210Y-79519711D01*
X95201609Y-79650814D01*
X95201602Y-79650827D01*
X95141264Y-79796498D01*
X95141261Y-79796510D01*
X95110500Y-79951153D01*
X93655500Y-79951153D01*
X93655500Y-79926158D01*
X93655500Y-79926155D01*
X93655499Y-79926153D01*
X93624738Y-79771510D01*
X93624737Y-79771503D01*
X93574752Y-79650827D01*
X93564397Y-79625827D01*
X93564390Y-79625814D01*
X93476789Y-79494711D01*
X93476786Y-79494707D01*
X93365292Y-79383213D01*
X93365288Y-79383210D01*
X93234185Y-79295609D01*
X93234172Y-79295602D01*
X93088501Y-79235264D01*
X93088489Y-79235261D01*
X92933845Y-79204500D01*
X92933842Y-79204500D01*
X92776158Y-79204500D01*
X92776155Y-79204500D01*
X92621510Y-79235261D01*
X92621498Y-79235264D01*
X92475827Y-79295602D01*
X92475814Y-79295609D01*
X92344711Y-79383210D01*
X92344707Y-79383213D01*
X92233213Y-79494707D01*
X92233210Y-79494711D01*
X92145609Y-79625814D01*
X92145602Y-79625827D01*
X92085264Y-79771498D01*
X92085261Y-79771510D01*
X92054500Y-79926153D01*
X90603500Y-79926153D01*
X90603500Y-73766304D01*
X90874500Y-73766304D01*
X90874500Y-73943695D01*
X90909103Y-74117658D01*
X90909106Y-74117667D01*
X90976983Y-74281540D01*
X90976990Y-74281553D01*
X91075535Y-74429034D01*
X91075538Y-74429038D01*
X91200961Y-74554461D01*
X91200965Y-74554464D01*
X91348446Y-74653009D01*
X91348459Y-74653016D01*
X91471363Y-74703923D01*
X91512334Y-74720894D01*
X91512336Y-74720894D01*
X91512341Y-74720896D01*
X91686304Y-74755499D01*
X91686307Y-74755500D01*
X91686309Y-74755500D01*
X91863693Y-74755500D01*
X91863694Y-74755499D01*
X91921682Y-74743964D01*
X92037658Y-74720896D01*
X92037661Y-74720894D01*
X92037666Y-74720894D01*
X92201547Y-74653013D01*
X92349035Y-74554464D01*
X92474464Y-74429035D01*
X92573013Y-74281547D01*
X92640894Y-74117666D01*
X92644699Y-74098543D01*
X94827499Y-74098543D01*
X94865947Y-74291829D01*
X94865950Y-74291839D01*
X94941364Y-74473907D01*
X94941371Y-74473920D01*
X95050860Y-74637781D01*
X95050863Y-74637785D01*
X95190214Y-74777136D01*
X95190218Y-74777139D01*
X95354079Y-74886628D01*
X95354092Y-74886635D01*
X95536160Y-74962049D01*
X95536165Y-74962051D01*
X95536169Y-74962051D01*
X95536170Y-74962052D01*
X95729456Y-75000500D01*
X95729459Y-75000500D01*
X95926543Y-75000500D01*
X96056582Y-74974632D01*
X96119835Y-74962051D01*
X96301914Y-74886632D01*
X96465782Y-74777139D01*
X96605139Y-74637782D01*
X96714632Y-74473914D01*
X96790051Y-74291835D01*
X96824696Y-74117666D01*
X96828500Y-74098543D01*
X96828500Y-73901457D01*
X96824512Y-73881410D01*
X96824512Y-73881408D01*
X96820911Y-73863304D01*
X99422500Y-73863304D01*
X99422500Y-74040695D01*
X99457103Y-74214658D01*
X99457106Y-74214667D01*
X99524983Y-74378540D01*
X99524990Y-74378553D01*
X99623535Y-74526034D01*
X99623538Y-74526038D01*
X99748961Y-74651461D01*
X99748965Y-74651464D01*
X99896446Y-74750009D01*
X99896459Y-74750016D01*
X100019363Y-74800923D01*
X100060334Y-74817894D01*
X100060336Y-74817894D01*
X100060341Y-74817896D01*
X100234304Y-74852499D01*
X100234307Y-74852500D01*
X100234309Y-74852500D01*
X100411693Y-74852500D01*
X100411694Y-74852499D01*
X100469682Y-74840964D01*
X100585658Y-74817896D01*
X100585661Y-74817894D01*
X100585666Y-74817894D01*
X100736300Y-74755500D01*
X100749540Y-74750016D01*
X100749540Y-74750015D01*
X100749547Y-74750013D01*
X100897035Y-74651464D01*
X101022464Y-74526035D01*
X101121013Y-74378547D01*
X101188894Y-74214666D01*
X101223500Y-74040691D01*
X101223500Y-73863309D01*
X101223500Y-73863306D01*
X101223499Y-73863304D01*
X101188896Y-73689341D01*
X101188893Y-73689332D01*
X101121016Y-73525459D01*
X101121009Y-73525446D01*
X101022464Y-73377965D01*
X101022461Y-73377961D01*
X100897038Y-73252538D01*
X100897034Y-73252535D01*
X100749553Y-73153990D01*
X100749540Y-73153983D01*
X100585667Y-73086106D01*
X100585658Y-73086103D01*
X100411694Y-73051500D01*
X100411691Y-73051500D01*
X100234309Y-73051500D01*
X100234306Y-73051500D01*
X100060341Y-73086103D01*
X100060332Y-73086106D01*
X99896459Y-73153983D01*
X99896446Y-73153990D01*
X99748965Y-73252535D01*
X99748961Y-73252538D01*
X99623538Y-73377961D01*
X99623535Y-73377965D01*
X99524990Y-73525446D01*
X99524983Y-73525459D01*
X99457106Y-73689332D01*
X99457103Y-73689341D01*
X99422500Y-73863304D01*
X96820911Y-73863304D01*
X96790052Y-73708172D01*
X96790052Y-73708170D01*
X96790051Y-73708165D01*
X96742072Y-73592332D01*
X96714635Y-73526092D01*
X96714628Y-73526079D01*
X96605139Y-73362218D01*
X96605136Y-73362214D01*
X96465785Y-73222863D01*
X96465781Y-73222860D01*
X96301920Y-73113371D01*
X96301907Y-73113364D01*
X96119839Y-73037950D01*
X96119829Y-73037947D01*
X95926543Y-72999500D01*
X95926541Y-72999500D01*
X95729459Y-72999500D01*
X95729457Y-72999500D01*
X95536170Y-73037947D01*
X95536160Y-73037950D01*
X95354092Y-73113364D01*
X95354079Y-73113371D01*
X95190218Y-73222860D01*
X95190214Y-73222863D01*
X95050863Y-73362214D01*
X95050860Y-73362218D01*
X94941371Y-73526079D01*
X94941364Y-73526092D01*
X94865950Y-73708160D01*
X94865947Y-73708170D01*
X94827500Y-73901456D01*
X94827500Y-73901457D01*
X94827500Y-73901459D01*
X94827500Y-74098541D01*
X94827500Y-74098543D01*
X94827499Y-74098543D01*
X92644699Y-74098543D01*
X92644699Y-74098541D01*
X92675499Y-73943695D01*
X92675500Y-73943693D01*
X92675500Y-73766306D01*
X92675499Y-73766304D01*
X92640896Y-73592341D01*
X92640893Y-73592332D01*
X92573016Y-73428459D01*
X92573009Y-73428446D01*
X92474464Y-73280965D01*
X92474461Y-73280961D01*
X92349038Y-73155538D01*
X92349034Y-73155535D01*
X92201553Y-73056990D01*
X92201540Y-73056983D01*
X92037667Y-72989106D01*
X92037658Y-72989103D01*
X91863694Y-72954500D01*
X91863691Y-72954500D01*
X91686309Y-72954500D01*
X91686306Y-72954500D01*
X91512341Y-72989103D01*
X91512332Y-72989106D01*
X91348459Y-73056983D01*
X91348446Y-73056990D01*
X91200965Y-73155535D01*
X91200961Y-73155538D01*
X91075538Y-73280961D01*
X91075535Y-73280965D01*
X90976990Y-73428446D01*
X90976983Y-73428459D01*
X90909106Y-73592332D01*
X90909103Y-73592341D01*
X90874500Y-73766304D01*
X90603500Y-73766304D01*
X90603500Y-70606153D01*
X101765500Y-70606153D01*
X101765500Y-70763846D01*
X101796261Y-70918489D01*
X101796264Y-70918501D01*
X101856602Y-71064172D01*
X101856609Y-71064185D01*
X101944210Y-71195288D01*
X101944213Y-71195292D01*
X102055707Y-71306786D01*
X102055711Y-71306789D01*
X102186814Y-71394390D01*
X102186827Y-71394397D01*
X102332498Y-71454735D01*
X102332503Y-71454737D01*
X102445110Y-71477136D01*
X102487153Y-71485499D01*
X102487156Y-71485500D01*
X102487158Y-71485500D01*
X102644844Y-71485500D01*
X102644845Y-71485499D01*
X102799497Y-71454737D01*
X102945179Y-71394394D01*
X103076289Y-71306789D01*
X103187789Y-71195289D01*
X103275394Y-71064179D01*
X103335737Y-70918497D01*
X103359597Y-70798543D01*
X113012499Y-70798543D01*
X113050947Y-70991829D01*
X113050950Y-70991839D01*
X113126364Y-71173907D01*
X113126371Y-71173920D01*
X113235860Y-71337781D01*
X113235863Y-71337785D01*
X113375214Y-71477136D01*
X113375218Y-71477139D01*
X113539079Y-71586628D01*
X113539092Y-71586635D01*
X113721160Y-71662049D01*
X113721165Y-71662051D01*
X113721169Y-71662051D01*
X113721170Y-71662052D01*
X113914456Y-71700500D01*
X113914459Y-71700500D01*
X114111543Y-71700500D01*
X114241582Y-71674632D01*
X114304835Y-71662051D01*
X114486914Y-71586632D01*
X114650782Y-71477139D01*
X114790139Y-71337782D01*
X114899632Y-71173914D01*
X114975051Y-70991835D01*
X115013500Y-70798541D01*
X115013500Y-70601459D01*
X115013500Y-70601456D01*
X114975052Y-70408170D01*
X114975051Y-70408169D01*
X114975051Y-70408165D01*
X114932656Y-70305814D01*
X114899635Y-70226092D01*
X114899628Y-70226079D01*
X114790139Y-70062218D01*
X114790136Y-70062214D01*
X114650785Y-69922863D01*
X114650781Y-69922860D01*
X114486920Y-69813371D01*
X114486907Y-69813364D01*
X114304839Y-69737950D01*
X114304829Y-69737947D01*
X114111543Y-69699500D01*
X114111541Y-69699500D01*
X113914459Y-69699500D01*
X113914457Y-69699500D01*
X113721170Y-69737947D01*
X113721160Y-69737950D01*
X113539092Y-69813364D01*
X113539079Y-69813371D01*
X113375218Y-69922860D01*
X113375214Y-69922863D01*
X113235863Y-70062214D01*
X113235860Y-70062218D01*
X113126371Y-70226079D01*
X113126364Y-70226092D01*
X113050950Y-70408160D01*
X113050947Y-70408170D01*
X113012500Y-70601456D01*
X113012500Y-70601459D01*
X113012500Y-70798541D01*
X113012500Y-70798543D01*
X113012499Y-70798543D01*
X103359597Y-70798543D01*
X103366500Y-70763842D01*
X103366500Y-70606158D01*
X103366498Y-70606151D01*
X103366498Y-70606145D01*
X103335738Y-70451510D01*
X103335737Y-70451503D01*
X103317784Y-70408160D01*
X103275397Y-70305827D01*
X103275390Y-70305814D01*
X103187789Y-70174711D01*
X103187786Y-70174707D01*
X103076292Y-70063213D01*
X103076288Y-70063210D01*
X102945185Y-69975609D01*
X102945172Y-69975602D01*
X102799501Y-69915264D01*
X102799489Y-69915261D01*
X102644845Y-69884500D01*
X102644842Y-69884500D01*
X102487158Y-69884500D01*
X102487155Y-69884500D01*
X102332510Y-69915261D01*
X102332498Y-69915264D01*
X102186827Y-69975602D01*
X102186814Y-69975609D01*
X102055711Y-70063210D01*
X102055707Y-70063213D01*
X101944213Y-70174707D01*
X101944210Y-70174711D01*
X101856609Y-70305814D01*
X101856602Y-70305827D01*
X101796264Y-70451498D01*
X101796261Y-70451510D01*
X101765500Y-70606153D01*
X90603500Y-70606153D01*
X90603500Y-61601543D01*
X105292499Y-61601543D01*
X105330947Y-61794829D01*
X105330950Y-61794839D01*
X105406364Y-61976907D01*
X105406371Y-61976920D01*
X105515860Y-62140781D01*
X105515863Y-62140785D01*
X105655214Y-62280136D01*
X105655218Y-62280139D01*
X105819079Y-62389628D01*
X105819092Y-62389635D01*
X106001160Y-62465049D01*
X106001165Y-62465051D01*
X106001169Y-62465051D01*
X106001170Y-62465052D01*
X106194456Y-62503500D01*
X106194459Y-62503500D01*
X106391543Y-62503500D01*
X106521582Y-62477632D01*
X106584835Y-62465051D01*
X106766914Y-62389632D01*
X106930782Y-62280139D01*
X107070139Y-62140782D01*
X107179632Y-61976914D01*
X107255051Y-61794835D01*
X107293500Y-61601541D01*
X107293500Y-61404459D01*
X107293500Y-61404456D01*
X107255052Y-61211170D01*
X107255051Y-61211169D01*
X107255051Y-61211165D01*
X107255049Y-61211160D01*
X107179635Y-61029092D01*
X107179628Y-61029079D01*
X107070139Y-60865218D01*
X107070136Y-60865214D01*
X106930785Y-60725863D01*
X106930781Y-60725860D01*
X106766920Y-60616371D01*
X106766907Y-60616364D01*
X106584839Y-60540950D01*
X106584829Y-60540947D01*
X106391543Y-60502500D01*
X106391541Y-60502500D01*
X106194459Y-60502500D01*
X106194457Y-60502500D01*
X106001170Y-60540947D01*
X106001160Y-60540950D01*
X105819092Y-60616364D01*
X105819079Y-60616371D01*
X105655218Y-60725860D01*
X105655214Y-60725863D01*
X105515863Y-60865214D01*
X105515860Y-60865218D01*
X105406371Y-61029079D01*
X105406364Y-61029092D01*
X105330950Y-61211160D01*
X105330947Y-61211170D01*
X105292500Y-61404456D01*
X105292500Y-61404459D01*
X105292500Y-61601541D01*
X105292500Y-61601543D01*
X105292499Y-61601543D01*
X90603500Y-61601543D01*
X90603500Y-59101543D01*
X102792499Y-59101543D01*
X102830947Y-59294829D01*
X102830950Y-59294839D01*
X102906364Y-59476907D01*
X102906371Y-59476920D01*
X103015860Y-59640781D01*
X103015863Y-59640785D01*
X103155214Y-59780136D01*
X103155218Y-59780139D01*
X103319079Y-59889628D01*
X103319092Y-59889635D01*
X103501160Y-59965049D01*
X103501165Y-59965051D01*
X103501169Y-59965051D01*
X103501170Y-59965052D01*
X103694456Y-60003500D01*
X103694459Y-60003500D01*
X103891543Y-60003500D01*
X104021582Y-59977632D01*
X104084835Y-59965051D01*
X104266914Y-59889632D01*
X104430782Y-59780139D01*
X104570139Y-59640782D01*
X104679632Y-59476914D01*
X104755051Y-59294835D01*
X104793500Y-59101543D01*
X107792499Y-59101543D01*
X107830947Y-59294829D01*
X107830950Y-59294839D01*
X107906364Y-59476907D01*
X107906371Y-59476920D01*
X108015860Y-59640781D01*
X108015863Y-59640785D01*
X108155214Y-59780136D01*
X108155218Y-59780139D01*
X108319079Y-59889628D01*
X108319092Y-59889635D01*
X108501160Y-59965049D01*
X108501165Y-59965051D01*
X108501169Y-59965051D01*
X108501170Y-59965052D01*
X108694456Y-60003500D01*
X108694459Y-60003500D01*
X108891543Y-60003500D01*
X109021582Y-59977632D01*
X109084835Y-59965051D01*
X109266914Y-59889632D01*
X109430782Y-59780139D01*
X109570139Y-59640782D01*
X109679632Y-59476914D01*
X109755051Y-59294835D01*
X109793500Y-59101541D01*
X109793500Y-58904459D01*
X109793500Y-58904456D01*
X109755052Y-58711170D01*
X109755051Y-58711169D01*
X109755051Y-58711165D01*
X109755049Y-58711160D01*
X109679635Y-58529092D01*
X109679628Y-58529079D01*
X109570139Y-58365218D01*
X109570136Y-58365214D01*
X109430785Y-58225863D01*
X109430781Y-58225860D01*
X109266920Y-58116371D01*
X109266907Y-58116364D01*
X109084839Y-58040950D01*
X109084829Y-58040947D01*
X108891543Y-58002500D01*
X108891541Y-58002500D01*
X108694459Y-58002500D01*
X108694457Y-58002500D01*
X108501170Y-58040947D01*
X108501160Y-58040950D01*
X108319092Y-58116364D01*
X108319079Y-58116371D01*
X108155218Y-58225860D01*
X108155214Y-58225863D01*
X108015863Y-58365214D01*
X108015860Y-58365218D01*
X107906371Y-58529079D01*
X107906364Y-58529092D01*
X107830950Y-58711160D01*
X107830947Y-58711170D01*
X107792500Y-58904456D01*
X107792500Y-58904459D01*
X107792500Y-59101541D01*
X107792500Y-59101543D01*
X107792499Y-59101543D01*
X104793500Y-59101543D01*
X104793500Y-59101541D01*
X104793500Y-58904459D01*
X104793500Y-58904456D01*
X104755052Y-58711170D01*
X104755051Y-58711169D01*
X104755051Y-58711165D01*
X104755049Y-58711160D01*
X104679635Y-58529092D01*
X104679628Y-58529079D01*
X104570139Y-58365218D01*
X104570136Y-58365214D01*
X104430785Y-58225863D01*
X104430781Y-58225860D01*
X104266920Y-58116371D01*
X104266907Y-58116364D01*
X104084839Y-58040950D01*
X104084829Y-58040947D01*
X103891543Y-58002500D01*
X103891541Y-58002500D01*
X103694459Y-58002500D01*
X103694457Y-58002500D01*
X103501170Y-58040947D01*
X103501160Y-58040950D01*
X103319092Y-58116364D01*
X103319079Y-58116371D01*
X103155218Y-58225860D01*
X103155214Y-58225863D01*
X103015863Y-58365214D01*
X103015860Y-58365218D01*
X102906371Y-58529079D01*
X102906364Y-58529092D01*
X102830950Y-58711160D01*
X102830947Y-58711170D01*
X102792500Y-58904456D01*
X102792500Y-58904459D01*
X102792500Y-59101541D01*
X102792500Y-59101543D01*
X102792499Y-59101543D01*
X90603500Y-59101543D01*
X90603500Y-56601543D01*
X105292499Y-56601543D01*
X105330947Y-56794829D01*
X105330950Y-56794839D01*
X105406364Y-56976907D01*
X105406371Y-56976920D01*
X105515860Y-57140781D01*
X105515863Y-57140785D01*
X105655214Y-57280136D01*
X105655218Y-57280139D01*
X105819079Y-57389628D01*
X105819092Y-57389635D01*
X106001160Y-57465049D01*
X106001165Y-57465051D01*
X106001169Y-57465051D01*
X106001170Y-57465052D01*
X106194456Y-57503500D01*
X106194459Y-57503500D01*
X106391543Y-57503500D01*
X106521582Y-57477632D01*
X106584835Y-57465051D01*
X106766914Y-57389632D01*
X106930782Y-57280139D01*
X107070139Y-57140782D01*
X107179632Y-56976914D01*
X107255051Y-56794835D01*
X107293500Y-56601541D01*
X107293500Y-56404459D01*
X107293500Y-56404456D01*
X107255052Y-56211170D01*
X107255051Y-56211169D01*
X107255051Y-56211165D01*
X107251376Y-56202292D01*
X107179635Y-56029092D01*
X107179628Y-56029079D01*
X107070139Y-55865218D01*
X107070136Y-55865214D01*
X106930784Y-55725862D01*
X106907297Y-55710169D01*
X106907296Y-55710168D01*
X106766920Y-55616371D01*
X106766907Y-55616364D01*
X106759155Y-55613153D01*
X107999500Y-55613153D01*
X107999500Y-55770846D01*
X108030261Y-55925489D01*
X108030264Y-55925501D01*
X108090602Y-56071172D01*
X108090609Y-56071185D01*
X108178210Y-56202288D01*
X108178213Y-56202292D01*
X108289707Y-56313786D01*
X108289711Y-56313789D01*
X108420814Y-56401390D01*
X108420827Y-56401397D01*
X108566498Y-56461735D01*
X108566503Y-56461737D01*
X108721153Y-56492499D01*
X108721156Y-56492500D01*
X108721158Y-56492500D01*
X108878844Y-56492500D01*
X108878845Y-56492499D01*
X109033497Y-56461737D01*
X109146166Y-56415067D01*
X109179172Y-56401397D01*
X109179172Y-56401396D01*
X109179179Y-56401394D01*
X109310289Y-56313789D01*
X109421789Y-56202289D01*
X109509394Y-56071179D01*
X109569737Y-55925497D01*
X109600500Y-55770842D01*
X109600500Y-55613158D01*
X109600500Y-55613155D01*
X109600499Y-55613153D01*
X109586137Y-55540950D01*
X109569737Y-55458503D01*
X109569735Y-55458498D01*
X109509397Y-55312827D01*
X109509390Y-55312814D01*
X109421789Y-55181711D01*
X109421786Y-55181707D01*
X109310292Y-55070213D01*
X109310288Y-55070210D01*
X109179185Y-54982609D01*
X109179172Y-54982602D01*
X109033501Y-54922264D01*
X109033489Y-54922261D01*
X108878845Y-54891500D01*
X108878842Y-54891500D01*
X108721158Y-54891500D01*
X108721155Y-54891500D01*
X108566510Y-54922261D01*
X108566498Y-54922264D01*
X108420827Y-54982602D01*
X108420814Y-54982609D01*
X108289711Y-55070210D01*
X108289707Y-55070213D01*
X108178213Y-55181707D01*
X108178210Y-55181711D01*
X108090609Y-55312814D01*
X108090602Y-55312827D01*
X108030264Y-55458498D01*
X108030261Y-55458510D01*
X107999500Y-55613153D01*
X106759155Y-55613153D01*
X106584839Y-55540950D01*
X106584829Y-55540947D01*
X106391543Y-55502500D01*
X106391541Y-55502500D01*
X106194459Y-55502500D01*
X106194457Y-55502500D01*
X106001170Y-55540947D01*
X106001160Y-55540950D01*
X105819092Y-55616364D01*
X105819079Y-55616371D01*
X105655218Y-55725860D01*
X105655214Y-55725863D01*
X105515863Y-55865214D01*
X105515860Y-55865218D01*
X105406371Y-56029079D01*
X105406364Y-56029092D01*
X105330950Y-56211160D01*
X105330947Y-56211170D01*
X105292500Y-56404456D01*
X105292500Y-56404459D01*
X105292500Y-56601541D01*
X105292500Y-56601543D01*
X105292499Y-56601543D01*
X90603500Y-56601543D01*
X90603500Y-52921153D01*
X110672500Y-52921153D01*
X110672500Y-53078846D01*
X110703261Y-53233489D01*
X110703264Y-53233501D01*
X110763602Y-53379172D01*
X110763609Y-53379185D01*
X110851210Y-53510288D01*
X110851213Y-53510292D01*
X110962707Y-53621786D01*
X110962711Y-53621789D01*
X111093814Y-53709390D01*
X111093827Y-53709397D01*
X111239498Y-53769735D01*
X111239503Y-53769737D01*
X111394153Y-53800499D01*
X111394156Y-53800500D01*
X111394158Y-53800500D01*
X111551844Y-53800500D01*
X111551845Y-53800499D01*
X111706497Y-53769737D01*
X111852179Y-53709394D01*
X111983289Y-53621789D01*
X112094789Y-53510289D01*
X112182394Y-53379179D01*
X112242737Y-53233497D01*
X112273500Y-53078842D01*
X112273500Y-52921158D01*
X112273500Y-52921155D01*
X112273499Y-52921153D01*
X112242738Y-52766510D01*
X112242737Y-52766503D01*
X112242735Y-52766498D01*
X112182397Y-52620827D01*
X112182390Y-52620814D01*
X112094789Y-52489711D01*
X112094786Y-52489707D01*
X111983292Y-52378213D01*
X111983288Y-52378210D01*
X111852185Y-52290609D01*
X111852172Y-52290602D01*
X111706501Y-52230264D01*
X111706489Y-52230261D01*
X111551845Y-52199500D01*
X111551842Y-52199500D01*
X111394158Y-52199500D01*
X111394155Y-52199500D01*
X111239510Y-52230261D01*
X111239498Y-52230264D01*
X111093827Y-52290602D01*
X111093814Y-52290609D01*
X110962711Y-52378210D01*
X110962707Y-52378213D01*
X110851213Y-52489707D01*
X110851210Y-52489711D01*
X110763609Y-52620814D01*
X110763602Y-52620827D01*
X110703264Y-52766498D01*
X110703261Y-52766510D01*
X110672500Y-52921153D01*
X90603500Y-52921153D01*
X90603500Y-45501030D01*
X99982500Y-45501030D01*
X99982500Y-46607969D01*
X100022868Y-46810912D01*
X100022870Y-46810920D01*
X100102058Y-47002096D01*
X100217024Y-47174157D01*
X100363342Y-47320475D01*
X100363345Y-47320477D01*
X100535402Y-47435441D01*
X100726580Y-47514630D01*
X100861691Y-47541505D01*
X100929530Y-47554999D01*
X100929534Y-47555000D01*
X100929535Y-47555000D01*
X101136466Y-47555000D01*
X101136466Y-47554999D01*
X101204308Y-47541505D01*
X101273900Y-47547732D01*
X101329077Y-47590595D01*
X101352322Y-47656484D01*
X101352500Y-47663122D01*
X101352500Y-47683346D01*
X101383261Y-47837989D01*
X101383264Y-47838001D01*
X101443602Y-47983672D01*
X101443609Y-47983685D01*
X101531210Y-48114788D01*
X101531213Y-48114792D01*
X101642707Y-48226286D01*
X101642711Y-48226289D01*
X101773814Y-48313890D01*
X101773827Y-48313897D01*
X101919498Y-48374235D01*
X101919503Y-48374237D01*
X102074153Y-48404999D01*
X102074156Y-48405000D01*
X102074158Y-48405000D01*
X102231844Y-48405000D01*
X102231845Y-48404999D01*
X102386497Y-48374237D01*
X102495254Y-48329188D01*
X102564719Y-48321720D01*
X102590151Y-48329187D01*
X102731503Y-48387737D01*
X102818687Y-48405079D01*
X102886153Y-48418499D01*
X102886156Y-48418500D01*
X102886158Y-48418500D01*
X103043844Y-48418500D01*
X103043845Y-48418499D01*
X103198497Y-48387737D01*
X103314979Y-48339489D01*
X103344172Y-48327397D01*
X103344172Y-48327396D01*
X103344179Y-48327394D01*
X103475289Y-48239789D01*
X103586789Y-48128289D01*
X103674394Y-47997179D01*
X103734737Y-47851497D01*
X103765500Y-47696842D01*
X103765500Y-47539158D01*
X103765500Y-47539155D01*
X103765499Y-47539153D01*
X103759710Y-47510049D01*
X103734737Y-47384503D01*
X103714756Y-47336264D01*
X103674397Y-47238827D01*
X103674390Y-47238814D01*
X103586789Y-47107711D01*
X103586786Y-47107707D01*
X103475292Y-46996213D01*
X103475288Y-46996210D01*
X103344185Y-46908609D01*
X103344172Y-46908602D01*
X103198501Y-46848264D01*
X103198489Y-46848261D01*
X103043845Y-46817500D01*
X103043842Y-46817500D01*
X102886158Y-46817500D01*
X102886155Y-46817500D01*
X102731510Y-46848261D01*
X102731498Y-46848264D01*
X102622748Y-46893310D01*
X102553279Y-46900779D01*
X102527844Y-46893310D01*
X102386501Y-46834764D01*
X102386489Y-46834761D01*
X102231845Y-46804000D01*
X102231842Y-46804000D01*
X102195601Y-46804000D01*
X102183594Y-46800474D01*
X102171127Y-46801561D01*
X102150700Y-46790815D01*
X102128562Y-46784315D01*
X102120368Y-46774859D01*
X102109291Y-46769032D01*
X102097916Y-46748948D01*
X102082807Y-46731511D01*
X102080197Y-46717661D01*
X102074859Y-46708236D01*
X102074512Y-46687497D01*
X102071795Y-46673075D01*
X102072282Y-46664357D01*
X102083500Y-46607965D01*
X102083500Y-46463812D01*
X102083694Y-46460344D01*
X102094280Y-46430554D01*
X102103185Y-46400230D01*
X102105890Y-46397885D01*
X102107091Y-46394508D01*
X102132112Y-46375164D01*
X102155989Y-46354475D01*
X102159533Y-46353965D01*
X102162368Y-46351774D01*
X102193861Y-46349029D01*
X102225147Y-46344531D01*
X102231672Y-46345648D01*
X102379231Y-46374999D01*
X102379232Y-46375000D01*
X102379233Y-46375000D01*
X102546768Y-46375000D01*
X102546769Y-46374999D01*
X102711082Y-46342316D01*
X102865863Y-46278203D01*
X103005162Y-46185126D01*
X103074123Y-46116164D01*
X103135443Y-46082680D01*
X103205135Y-46087664D01*
X103220266Y-46094493D01*
X103223811Y-46096387D01*
X103223821Y-46096394D01*
X103369503Y-46156737D01*
X103512208Y-46185123D01*
X103524153Y-46187499D01*
X103524156Y-46187500D01*
X103524158Y-46187500D01*
X103681844Y-46187500D01*
X103681845Y-46187499D01*
X103836497Y-46156737D01*
X103982179Y-46096394D01*
X104113289Y-46008789D01*
X104224789Y-45897289D01*
X104312394Y-45766179D01*
X104372737Y-45620497D01*
X104403500Y-45465842D01*
X104403500Y-45308158D01*
X104403500Y-45308155D01*
X104403499Y-45308153D01*
X105802500Y-45308153D01*
X105802500Y-45465846D01*
X105833261Y-45620489D01*
X105833264Y-45620501D01*
X105893602Y-45766172D01*
X105893609Y-45766185D01*
X105981210Y-45897288D01*
X105981213Y-45897292D01*
X106092707Y-46008786D01*
X106092711Y-46008789D01*
X106223814Y-46096390D01*
X106223827Y-46096397D01*
X106369498Y-46156735D01*
X106369503Y-46156737D01*
X106512208Y-46185123D01*
X106524153Y-46187499D01*
X106524156Y-46187500D01*
X106524158Y-46187500D01*
X106681844Y-46187500D01*
X106681845Y-46187499D01*
X106836497Y-46156737D01*
X106982179Y-46096394D01*
X107113289Y-46008789D01*
X107224789Y-45897289D01*
X107251498Y-45857316D01*
X107305108Y-45812511D01*
X107374433Y-45803802D01*
X107437461Y-45833956D01*
X107469160Y-45878752D01*
X107489293Y-45927356D01*
X107489295Y-45927360D01*
X107582373Y-46066662D01*
X107700837Y-46185126D01*
X107793494Y-46247037D01*
X107840137Y-46278203D01*
X107994918Y-46342316D01*
X108159228Y-46374999D01*
X108159232Y-46375000D01*
X108159233Y-46375000D01*
X108326768Y-46375000D01*
X108326768Y-46374999D01*
X108474309Y-46345652D01*
X108491923Y-46347228D01*
X108509265Y-46343737D01*
X108526002Y-46350277D01*
X108543900Y-46351879D01*
X108557867Y-46362729D01*
X108574342Y-46369167D01*
X108584886Y-46383718D01*
X108599077Y-46394742D01*
X108605003Y-46411480D01*
X108615340Y-46425744D01*
X108620356Y-46454839D01*
X108622306Y-46460344D01*
X108622500Y-46463812D01*
X108622500Y-46607965D01*
X108633717Y-46664359D01*
X108634205Y-46673075D01*
X108628156Y-46698940D01*
X108625789Y-46725401D01*
X108620324Y-46732435D01*
X108618296Y-46741109D01*
X108599221Y-46759600D01*
X108582925Y-46780578D01*
X108574525Y-46783541D01*
X108568129Y-46789742D01*
X108542083Y-46794985D01*
X108517035Y-46803822D01*
X108510399Y-46804000D01*
X108474155Y-46804000D01*
X108319510Y-46834761D01*
X108319498Y-46834764D01*
X108173827Y-46895102D01*
X108173814Y-46895109D01*
X108042711Y-46982710D01*
X108042707Y-46982713D01*
X107931213Y-47094207D01*
X107931210Y-47094211D01*
X107843609Y-47225314D01*
X107843602Y-47225328D01*
X107842099Y-47228957D01*
X107840803Y-47230564D01*
X107840736Y-47230691D01*
X107840711Y-47230678D01*
X107798256Y-47283359D01*
X107731961Y-47305421D01*
X107727540Y-47305500D01*
X107674155Y-47305500D01*
X107519510Y-47336261D01*
X107519498Y-47336264D01*
X107373827Y-47396602D01*
X107373814Y-47396609D01*
X107242711Y-47484210D01*
X107242707Y-47484213D01*
X107131213Y-47595707D01*
X107131210Y-47595711D01*
X107043609Y-47726814D01*
X107043602Y-47726827D01*
X106983264Y-47872498D01*
X106983261Y-47872510D01*
X106952500Y-48027153D01*
X106952500Y-48184846D01*
X106983261Y-48339489D01*
X106983264Y-48339501D01*
X107043602Y-48485172D01*
X107043609Y-48485185D01*
X107131210Y-48616288D01*
X107131213Y-48616292D01*
X107242707Y-48727786D01*
X107242711Y-48727789D01*
X107373814Y-48815390D01*
X107373827Y-48815397D01*
X107519498Y-48875735D01*
X107519503Y-48875737D01*
X107674153Y-48906499D01*
X107674156Y-48906500D01*
X107674158Y-48906500D01*
X107831844Y-48906500D01*
X107831845Y-48906499D01*
X107986497Y-48875737D01*
X108132179Y-48815394D01*
X108263289Y-48727789D01*
X108374789Y-48616289D01*
X108462394Y-48485179D01*
X108462776Y-48484255D01*
X108463901Y-48481543D01*
X108465196Y-48479935D01*
X108465264Y-48479809D01*
X108465288Y-48479821D01*
X108507744Y-48427141D01*
X108574039Y-48405079D01*
X108578460Y-48405000D01*
X108631844Y-48405000D01*
X108631845Y-48404999D01*
X108786497Y-48374237D01*
X108932179Y-48313894D01*
X109063289Y-48226289D01*
X109174789Y-48114789D01*
X109262394Y-47983679D01*
X109322737Y-47837997D01*
X109353500Y-47683342D01*
X109353500Y-47663122D01*
X109373185Y-47596083D01*
X109425989Y-47550328D01*
X109495147Y-47540384D01*
X109501682Y-47541503D01*
X109569533Y-47554999D01*
X109569534Y-47555000D01*
X109569535Y-47555000D01*
X109776466Y-47555000D01*
X109776467Y-47554999D01*
X109979420Y-47514630D01*
X110170598Y-47435441D01*
X110342655Y-47320477D01*
X110488977Y-47174155D01*
X110603941Y-47002098D01*
X110683130Y-46810920D01*
X110715826Y-46646543D01*
X113327499Y-46646543D01*
X113365947Y-46839829D01*
X113365950Y-46839839D01*
X113441364Y-47021907D01*
X113441371Y-47021920D01*
X113550860Y-47185781D01*
X113550863Y-47185785D01*
X113690214Y-47325136D01*
X113690218Y-47325139D01*
X113854079Y-47434628D01*
X113854092Y-47434635D01*
X114036160Y-47510049D01*
X114036165Y-47510051D01*
X114036169Y-47510051D01*
X114036170Y-47510052D01*
X114229456Y-47548500D01*
X114229459Y-47548500D01*
X114426543Y-47548500D01*
X114556582Y-47522632D01*
X114619835Y-47510051D01*
X114801914Y-47434632D01*
X114965782Y-47325139D01*
X115105139Y-47185782D01*
X115214632Y-47021914D01*
X115290051Y-46839835D01*
X115309689Y-46741109D01*
X115328500Y-46646543D01*
X115328500Y-46449456D01*
X115290052Y-46256170D01*
X115290051Y-46256169D01*
X115290051Y-46256165D01*
X115260625Y-46185123D01*
X115214635Y-46074092D01*
X115214628Y-46074079D01*
X115105139Y-45910218D01*
X115105136Y-45910214D01*
X114965785Y-45770863D01*
X114965781Y-45770860D01*
X114801920Y-45661371D01*
X114801907Y-45661364D01*
X114619839Y-45585950D01*
X114619829Y-45585947D01*
X114426543Y-45547500D01*
X114426541Y-45547500D01*
X114229459Y-45547500D01*
X114229457Y-45547500D01*
X114036170Y-45585947D01*
X114036160Y-45585950D01*
X113854092Y-45661364D01*
X113854079Y-45661371D01*
X113690218Y-45770860D01*
X113690214Y-45770863D01*
X113550863Y-45910214D01*
X113550860Y-45910218D01*
X113441371Y-46074079D01*
X113441364Y-46074092D01*
X113365950Y-46256160D01*
X113365947Y-46256170D01*
X113327500Y-46449456D01*
X113327500Y-46449459D01*
X113327500Y-46646541D01*
X113327500Y-46646543D01*
X113327499Y-46646543D01*
X110715826Y-46646543D01*
X110723500Y-46607965D01*
X110723500Y-45501035D01*
X110683130Y-45298080D01*
X110603941Y-45106902D01*
X110488977Y-44934845D01*
X110488975Y-44934842D01*
X110342657Y-44788524D01*
X110220170Y-44706682D01*
X110170598Y-44673559D01*
X110034683Y-44617261D01*
X109979420Y-44594370D01*
X109979412Y-44594368D01*
X109776469Y-44554000D01*
X109776465Y-44554000D01*
X109569535Y-44554000D01*
X109569530Y-44554000D01*
X109366587Y-44594368D01*
X109366579Y-44594370D01*
X109175403Y-44673558D01*
X109003344Y-44788523D01*
X108942741Y-44849126D01*
X108881417Y-44882610D01*
X108811726Y-44877625D01*
X108786170Y-44864546D01*
X108645865Y-44770798D01*
X108645861Y-44770796D01*
X108491082Y-44706684D01*
X108491074Y-44706682D01*
X108326771Y-44674000D01*
X108326767Y-44674000D01*
X108159233Y-44674000D01*
X108159228Y-44674000D01*
X107994925Y-44706682D01*
X107994917Y-44706684D01*
X107840139Y-44770795D01*
X107700837Y-44863873D01*
X107582376Y-44982334D01*
X107582373Y-44982338D01*
X107538080Y-45048628D01*
X107484468Y-45093433D01*
X107415143Y-45102140D01*
X107352115Y-45071986D01*
X107320417Y-45027189D01*
X107312397Y-45007827D01*
X107312390Y-45007814D01*
X107224789Y-44876711D01*
X107224786Y-44876707D01*
X107113292Y-44765213D01*
X107113288Y-44765210D01*
X106982185Y-44677609D01*
X106982172Y-44677602D01*
X106836501Y-44617264D01*
X106836489Y-44617261D01*
X106681845Y-44586500D01*
X106681842Y-44586500D01*
X106524158Y-44586500D01*
X106524155Y-44586500D01*
X106369510Y-44617261D01*
X106369498Y-44617264D01*
X106223827Y-44677602D01*
X106223814Y-44677609D01*
X106092711Y-44765210D01*
X106092707Y-44765213D01*
X105981213Y-44876707D01*
X105981210Y-44876711D01*
X105893609Y-45007814D01*
X105893602Y-45007827D01*
X105833264Y-45153498D01*
X105833261Y-45153510D01*
X105802500Y-45308153D01*
X104403499Y-45308153D01*
X104372738Y-45153510D01*
X104372737Y-45153503D01*
X104353435Y-45106903D01*
X104312397Y-45007827D01*
X104312390Y-45007814D01*
X104224789Y-44876711D01*
X104224786Y-44876707D01*
X104113292Y-44765213D01*
X104113288Y-44765210D01*
X103982185Y-44677609D01*
X103982172Y-44677602D01*
X103836501Y-44617264D01*
X103836489Y-44617261D01*
X103681845Y-44586500D01*
X103681842Y-44586500D01*
X103524158Y-44586500D01*
X103524155Y-44586500D01*
X103369510Y-44617261D01*
X103369498Y-44617264D01*
X103223827Y-44677602D01*
X103223814Y-44677609D01*
X103092714Y-44765208D01*
X103092713Y-44765208D01*
X103070454Y-44787467D01*
X103009130Y-44820949D01*
X102939438Y-44815962D01*
X102913886Y-44802885D01*
X102892393Y-44788524D01*
X102865863Y-44770797D01*
X102865860Y-44770795D01*
X102865859Y-44770795D01*
X102711082Y-44706684D01*
X102711074Y-44706682D01*
X102546771Y-44674000D01*
X102546767Y-44674000D01*
X102379233Y-44674000D01*
X102379228Y-44674000D01*
X102214925Y-44706682D01*
X102214917Y-44706684D01*
X102060140Y-44770795D01*
X101919829Y-44864547D01*
X101853151Y-44885424D01*
X101785771Y-44866939D01*
X101763258Y-44849125D01*
X101702657Y-44788524D01*
X101580170Y-44706682D01*
X101530598Y-44673559D01*
X101394683Y-44617261D01*
X101339420Y-44594370D01*
X101339412Y-44594368D01*
X101136469Y-44554000D01*
X101136465Y-44554000D01*
X100929535Y-44554000D01*
X100929530Y-44554000D01*
X100726587Y-44594368D01*
X100726579Y-44594370D01*
X100535403Y-44673558D01*
X100363342Y-44788524D01*
X100217024Y-44934842D01*
X100102058Y-45106903D01*
X100022870Y-45298079D01*
X100022868Y-45298087D01*
X99982500Y-45501030D01*
X90603500Y-45501030D01*
X90603500Y-43896543D01*
X111110999Y-43896543D01*
X111149447Y-44089829D01*
X111149450Y-44089839D01*
X111224864Y-44271907D01*
X111224871Y-44271920D01*
X111334360Y-44435781D01*
X111334363Y-44435785D01*
X111473714Y-44575136D01*
X111473718Y-44575139D01*
X111637579Y-44684628D01*
X111637592Y-44684635D01*
X111819660Y-44760049D01*
X111819665Y-44760051D01*
X111819669Y-44760051D01*
X111819670Y-44760052D01*
X112012956Y-44798500D01*
X112012959Y-44798500D01*
X112210043Y-44798500D01*
X112377409Y-44765208D01*
X112403335Y-44760051D01*
X112585414Y-44684632D01*
X112749282Y-44575139D01*
X112888639Y-44435782D01*
X112998132Y-44271914D01*
X113051719Y-44142543D01*
X116803999Y-44142543D01*
X116842447Y-44335829D01*
X116842450Y-44335839D01*
X116917864Y-44517907D01*
X116917871Y-44517920D01*
X117027360Y-44681781D01*
X117027363Y-44681785D01*
X117166714Y-44821136D01*
X117166718Y-44821139D01*
X117330579Y-44930628D01*
X117330592Y-44930635D01*
X117455416Y-44982338D01*
X117512665Y-45006051D01*
X117512669Y-45006051D01*
X117512670Y-45006052D01*
X117705956Y-45044500D01*
X117705959Y-45044500D01*
X117903043Y-45044500D01*
X118033082Y-45018632D01*
X118096335Y-45006051D01*
X118278414Y-44930632D01*
X118442282Y-44821139D01*
X118581639Y-44681782D01*
X118691132Y-44517914D01*
X118766551Y-44335835D01*
X118805000Y-44142541D01*
X118805000Y-43945459D01*
X118805000Y-43945456D01*
X118766552Y-43752170D01*
X118766551Y-43752169D01*
X118766551Y-43752165D01*
X118744720Y-43699459D01*
X118691135Y-43570092D01*
X118691128Y-43570079D01*
X118581639Y-43406218D01*
X118581636Y-43406214D01*
X118442285Y-43266863D01*
X118442281Y-43266860D01*
X118278420Y-43157371D01*
X118278407Y-43157364D01*
X118096339Y-43081950D01*
X118096329Y-43081947D01*
X117903043Y-43043500D01*
X117903041Y-43043500D01*
X117705959Y-43043500D01*
X117705957Y-43043500D01*
X117512670Y-43081947D01*
X117512660Y-43081950D01*
X117330592Y-43157364D01*
X117330579Y-43157371D01*
X117166718Y-43266860D01*
X117166714Y-43266863D01*
X117027363Y-43406214D01*
X117027360Y-43406218D01*
X116917871Y-43570079D01*
X116917864Y-43570092D01*
X116842450Y-43752160D01*
X116842447Y-43752170D01*
X116804000Y-43945456D01*
X116804000Y-43945459D01*
X116804000Y-44142541D01*
X116804000Y-44142543D01*
X116803999Y-44142543D01*
X113051719Y-44142543D01*
X113073551Y-44089835D01*
X113082301Y-44045842D01*
X113108294Y-43915175D01*
X113108294Y-43915174D01*
X113111999Y-43896545D01*
X113112000Y-43896543D01*
X113112000Y-43699456D01*
X113073552Y-43506170D01*
X113073551Y-43506169D01*
X113073551Y-43506165D01*
X113044793Y-43436737D01*
X112998135Y-43324092D01*
X112998128Y-43324079D01*
X112888639Y-43160218D01*
X112888636Y-43160214D01*
X112749285Y-43020863D01*
X112749281Y-43020860D01*
X112585420Y-42911371D01*
X112585407Y-42911364D01*
X112403339Y-42835950D01*
X112403329Y-42835947D01*
X112210043Y-42797500D01*
X112210041Y-42797500D01*
X112012959Y-42797500D01*
X112012957Y-42797500D01*
X111819670Y-42835947D01*
X111819660Y-42835950D01*
X111637592Y-42911364D01*
X111637579Y-42911371D01*
X111473718Y-43020860D01*
X111473714Y-43020863D01*
X111334363Y-43160214D01*
X111334360Y-43160218D01*
X111224871Y-43324079D01*
X111224864Y-43324092D01*
X111149450Y-43506160D01*
X111149447Y-43506170D01*
X111111000Y-43699456D01*
X111111000Y-43699459D01*
X111111000Y-43896541D01*
X111111000Y-43896543D01*
X111110999Y-43896543D01*
X90603500Y-43896543D01*
X90603500Y-41457889D01*
X99932500Y-41457889D01*
X99932500Y-42231110D01*
X99959597Y-42402197D01*
X99959597Y-42402199D01*
X99959598Y-42402201D01*
X100013127Y-42566945D01*
X100091768Y-42721288D01*
X100193586Y-42861428D01*
X100316072Y-42983914D01*
X100456212Y-43085732D01*
X100610555Y-43164373D01*
X100775299Y-43217902D01*
X100946389Y-43245000D01*
X100946390Y-43245000D01*
X101119610Y-43245000D01*
X101119611Y-43245000D01*
X101290701Y-43217902D01*
X101455445Y-43164373D01*
X101609788Y-43085732D01*
X101749928Y-42983914D01*
X101872414Y-42861428D01*
X101974232Y-42721288D01*
X102042067Y-42588153D01*
X102802500Y-42588153D01*
X102802500Y-42745846D01*
X102833261Y-42900489D01*
X102833264Y-42900501D01*
X102893602Y-43046172D01*
X102893609Y-43046185D01*
X102981210Y-43177288D01*
X102981213Y-43177292D01*
X103092707Y-43288786D01*
X103092711Y-43288789D01*
X103223814Y-43376390D01*
X103223827Y-43376397D01*
X103369498Y-43436735D01*
X103369503Y-43436737D01*
X103524153Y-43467499D01*
X103524156Y-43467500D01*
X103524158Y-43467500D01*
X103681844Y-43467500D01*
X103681845Y-43467499D01*
X103836497Y-43436737D01*
X103982179Y-43376394D01*
X104113289Y-43288789D01*
X104224789Y-43177289D01*
X104312394Y-43046179D01*
X104372737Y-42900497D01*
X104403500Y-42745842D01*
X104403500Y-42588158D01*
X104403500Y-42588155D01*
X104403499Y-42588153D01*
X105802500Y-42588153D01*
X105802500Y-42745846D01*
X105833261Y-42900489D01*
X105833264Y-42900501D01*
X105893602Y-43046172D01*
X105893609Y-43046185D01*
X105981210Y-43177288D01*
X105981213Y-43177292D01*
X106092707Y-43288786D01*
X106092711Y-43288789D01*
X106223814Y-43376390D01*
X106223827Y-43376397D01*
X106369498Y-43436735D01*
X106369503Y-43436737D01*
X106524153Y-43467499D01*
X106524156Y-43467500D01*
X106524158Y-43467500D01*
X106681844Y-43467500D01*
X106681845Y-43467499D01*
X106836497Y-43436737D01*
X106982179Y-43376394D01*
X107113289Y-43288789D01*
X107224789Y-43177289D01*
X107312394Y-43046179D01*
X107372737Y-42900497D01*
X107403500Y-42745842D01*
X107403500Y-42588158D01*
X107403500Y-42588155D01*
X107403499Y-42588153D01*
X107372738Y-42433510D01*
X107372737Y-42433503D01*
X107372735Y-42433498D01*
X107312397Y-42287827D01*
X107312390Y-42287814D01*
X107224789Y-42156711D01*
X107224786Y-42156707D01*
X107113292Y-42045213D01*
X107113288Y-42045210D01*
X106982185Y-41957609D01*
X106982172Y-41957602D01*
X106836501Y-41897264D01*
X106836489Y-41897261D01*
X106681845Y-41866500D01*
X106681842Y-41866500D01*
X106524158Y-41866500D01*
X106524155Y-41866500D01*
X106369510Y-41897261D01*
X106369498Y-41897264D01*
X106223827Y-41957602D01*
X106223814Y-41957609D01*
X106092711Y-42045210D01*
X106092707Y-42045213D01*
X105981213Y-42156707D01*
X105981210Y-42156711D01*
X105893609Y-42287814D01*
X105893602Y-42287827D01*
X105833264Y-42433498D01*
X105833261Y-42433510D01*
X105802500Y-42588153D01*
X104403499Y-42588153D01*
X104372738Y-42433510D01*
X104372737Y-42433503D01*
X104372735Y-42433498D01*
X104312397Y-42287827D01*
X104312390Y-42287814D01*
X104224789Y-42156711D01*
X104224786Y-42156707D01*
X104113292Y-42045213D01*
X104113288Y-42045210D01*
X103982185Y-41957609D01*
X103982172Y-41957602D01*
X103836501Y-41897264D01*
X103836489Y-41897261D01*
X103681845Y-41866500D01*
X103681842Y-41866500D01*
X103524158Y-41866500D01*
X103524155Y-41866500D01*
X103369510Y-41897261D01*
X103369498Y-41897264D01*
X103223827Y-41957602D01*
X103223814Y-41957609D01*
X103092711Y-42045210D01*
X103092707Y-42045213D01*
X102981213Y-42156707D01*
X102981210Y-42156711D01*
X102893609Y-42287814D01*
X102893602Y-42287827D01*
X102833264Y-42433498D01*
X102833261Y-42433510D01*
X102802500Y-42588153D01*
X102042067Y-42588153D01*
X102052873Y-42566945D01*
X102106402Y-42402201D01*
X102133500Y-42231111D01*
X102133500Y-41457889D01*
X108572500Y-41457889D01*
X108572500Y-42231110D01*
X108599597Y-42402197D01*
X108599597Y-42402199D01*
X108599598Y-42402201D01*
X108653127Y-42566945D01*
X108731768Y-42721288D01*
X108833586Y-42861428D01*
X108956072Y-42983914D01*
X109096212Y-43085732D01*
X109250555Y-43164373D01*
X109415299Y-43217902D01*
X109586389Y-43245000D01*
X109586390Y-43245000D01*
X109759610Y-43245000D01*
X109759611Y-43245000D01*
X109930701Y-43217902D01*
X110095445Y-43164373D01*
X110249788Y-43085732D01*
X110389928Y-42983914D01*
X110512414Y-42861428D01*
X110614232Y-42721288D01*
X110692873Y-42566945D01*
X110746402Y-42402201D01*
X110773500Y-42231111D01*
X110773500Y-41457889D01*
X110746402Y-41286799D01*
X110692873Y-41122055D01*
X110614232Y-40967712D01*
X110512414Y-40827572D01*
X110389928Y-40705086D01*
X110249788Y-40603268D01*
X110095445Y-40524627D01*
X109930701Y-40471098D01*
X109930699Y-40471097D01*
X109930698Y-40471097D01*
X109799271Y-40450281D01*
X109759611Y-40444000D01*
X109586389Y-40444000D01*
X109546728Y-40450281D01*
X109415302Y-40471097D01*
X109250552Y-40524628D01*
X109096211Y-40603268D01*
X109016256Y-40661359D01*
X108956072Y-40705086D01*
X108956070Y-40705088D01*
X108956069Y-40705088D01*
X108833588Y-40827569D01*
X108833588Y-40827570D01*
X108833586Y-40827572D01*
X108789859Y-40887756D01*
X108731768Y-40967711D01*
X108653128Y-41122052D01*
X108599597Y-41286802D01*
X108572500Y-41457889D01*
X102133500Y-41457889D01*
X102106402Y-41286799D01*
X102052873Y-41122055D01*
X101974232Y-40967712D01*
X101872414Y-40827572D01*
X101749928Y-40705086D01*
X101609788Y-40603268D01*
X101455445Y-40524627D01*
X101290701Y-40471098D01*
X101290699Y-40471097D01*
X101290698Y-40471097D01*
X101159271Y-40450281D01*
X101119611Y-40444000D01*
X100946389Y-40444000D01*
X100906728Y-40450281D01*
X100775302Y-40471097D01*
X100610552Y-40524628D01*
X100456211Y-40603268D01*
X100376256Y-40661359D01*
X100316072Y-40705086D01*
X100316070Y-40705088D01*
X100316069Y-40705088D01*
X100193588Y-40827569D01*
X100193588Y-40827570D01*
X100193586Y-40827572D01*
X100149859Y-40887756D01*
X100091768Y-40967711D01*
X100013128Y-41122052D01*
X99959597Y-41286802D01*
X99932500Y-41457889D01*
X90603500Y-41457889D01*
X90603500Y-39744500D01*
X90623185Y-39677461D01*
X90675989Y-39631706D01*
X90727500Y-39620500D01*
X119978500Y-39620500D01*
X120045539Y-39640185D01*
G37*
%TD.AperFunction*%
%TD*%
M02*
