%TF.GenerationSoftware,KiCad,Pcbnew,9.0.6*%
%TF.CreationDate,2025-12-28T22:31:39+01:00*%
%TF.ProjectId,neptune-gnd,6e657074-756e-4652-9d67-6e642e6b6963,rev?*%
%TF.SameCoordinates,Original*%
%TF.FileFunction,Paste,Bot*%
%TF.FilePolarity,Positive*%
%FSLAX46Y46*%
G04 Gerber Fmt 4.6, Leading zero omitted, Abs format (unit mm)*
G04 Created by KiCad (PCBNEW 9.0.6) date 2025-12-28 22:31:39*
%MOMM*%
%LPD*%
G01*
G04 APERTURE LIST*
G04 Aperture macros list*
%AMRoundRect*
0 Rectangle with rounded corners*
0 $1 Rounding radius*
0 $2 $3 $4 $5 $6 $7 $8 $9 X,Y pos of 4 corners*
0 Add a 4 corners polygon primitive as box body*
4,1,4,$2,$3,$4,$5,$6,$7,$8,$9,$2,$3,0*
0 Add four circle primitives for the rounded corners*
1,1,$1+$1,$2,$3*
1,1,$1+$1,$4,$5*
1,1,$1+$1,$6,$7*
1,1,$1+$1,$8,$9*
0 Add four rect primitives between the rounded corners*
20,1,$1+$1,$2,$3,$4,$5,0*
20,1,$1+$1,$4,$5,$6,$7,0*
20,1,$1+$1,$6,$7,$8,$9,0*
20,1,$1+$1,$8,$9,$2,$3,0*%
G04 Aperture macros list end*
%ADD10RoundRect,0.317500X-0.317500X1.157500X-0.317500X-1.157500X0.317500X-1.157500X0.317500X1.157500X0*%
%ADD11R,1.750000X0.700000*%
%ADD12R,1.000000X1.450000*%
%ADD13R,1.550000X1.000000*%
%ADD14R,1.500000X0.800000*%
%ADD15R,1.500000X1.300000*%
%ADD16R,1.500000X1.500000*%
%ADD17R,1.400000X0.800000*%
%ADD18RoundRect,0.225000X0.225000X0.250000X-0.225000X0.250000X-0.225000X-0.250000X0.225000X-0.250000X0*%
%ADD19RoundRect,0.225000X-0.225000X-0.250000X0.225000X-0.250000X0.225000X0.250000X-0.225000X0.250000X0*%
%ADD20RoundRect,0.135000X-0.185000X0.135000X-0.185000X-0.135000X0.185000X-0.135000X0.185000X0.135000X0*%
%ADD21RoundRect,0.135000X0.185000X-0.135000X0.185000X0.135000X-0.185000X0.135000X-0.185000X-0.135000X0*%
G04 APERTURE END LIST*
D10*
%TO.C,U3*%
X173653000Y-85120000D03*
X175653000Y-85120000D03*
X177653000Y-85120000D03*
X179653000Y-85120000D03*
X181653000Y-85120000D03*
X183653000Y-85120000D03*
X185653000Y-85120000D03*
X187653000Y-85120000D03*
X187653000Y-70070000D03*
X185653000Y-70070000D03*
X183653000Y-70070000D03*
X181653000Y-70070000D03*
X179653000Y-70070000D03*
X177653000Y-70070000D03*
X175653000Y-70070000D03*
X173653000Y-70070000D03*
%TD*%
D11*
%TO.C,J1*%
X203071552Y-80636869D03*
X203071552Y-79536869D03*
X203071552Y-78436869D03*
X203071552Y-77336869D03*
X203071552Y-76236869D03*
X203071552Y-75136869D03*
X203071552Y-74036869D03*
X203071552Y-72936869D03*
D12*
X193846552Y-71811869D03*
D13*
X192271552Y-83036869D03*
D14*
X195346552Y-71486869D03*
D15*
X202946552Y-71736869D03*
D16*
X202946552Y-83086869D03*
D17*
X194696552Y-83436869D03*
%TD*%
D18*
%TO.C,C6*%
X203278000Y-68149000D03*
X201728000Y-68149000D03*
%TD*%
D19*
%TO.C,C9*%
X181853000Y-87670000D03*
X183403000Y-87670000D03*
%TD*%
D18*
%TO.C,C5*%
X203278000Y-69696000D03*
X201728000Y-69696000D03*
%TD*%
D20*
%TO.C,R4*%
X188153000Y-51710000D03*
X188153000Y-52730000D03*
%TD*%
D21*
%TO.C,R3*%
X187053000Y-52730000D03*
X187053000Y-51710000D03*
%TD*%
M02*
