%TF.GenerationSoftware,KiCad,Pcbnew,9.0.6*%
%TF.CreationDate,2025-12-28T22:37:44+01:00*%
%TF.ProjectId,neptune-gnd,6e657074-756e-4652-9d67-6e642e6b6963,rev?*%
%TF.SameCoordinates,Original*%
%TF.FileFunction,Legend,Top*%
%TF.FilePolarity,Positive*%
%FSLAX46Y46*%
G04 Gerber Fmt 4.6, Leading zero omitted, Abs format (unit mm)*
G04 Created by KiCad (PCBNEW 9.0.6) date 2025-12-28 22:37:44*
%MOMM*%
%LPD*%
G01*
G04 APERTURE LIST*
%ADD10C,0.200000*%
%ADD11C,0.140000*%
%ADD12C,0.150000*%
%ADD13C,0.112500*%
%ADD14C,0.100000*%
%ADD15C,0.160000*%
%ADD16C,0.120000*%
%ADD17C,0.254000*%
%ADD18C,0.250000*%
%ADD19C,0.000000*%
%ADD20C,0.127000*%
G04 APERTURE END LIST*
D10*
X179733000Y-58410000D02*
X179733000Y-60410000D01*
X179733000Y-60410000D02*
X179233000Y-60410000D01*
D11*
X192333500Y-57834041D02*
X192397250Y-57841138D01*
X192458714Y-57851859D01*
X192488502Y-57858611D01*
X192517616Y-57866309D01*
X192546021Y-57874966D01*
X192573683Y-57884594D01*
X192600566Y-57895207D01*
X192626638Y-57906819D01*
X192651864Y-57919441D01*
X192676208Y-57933087D01*
X192699637Y-57947771D01*
X192722117Y-57963505D01*
X192743613Y-57980302D01*
X192764090Y-57998176D01*
X192783515Y-58017140D01*
X192801853Y-58037207D01*
X192819070Y-58058389D01*
X192835130Y-58080701D01*
X192850001Y-58104155D01*
X192863647Y-58128764D01*
X192876035Y-58154542D01*
X192887129Y-58181501D01*
X192896895Y-58209655D01*
X192905300Y-58239016D01*
X192912308Y-58269599D01*
X192917886Y-58301415D01*
X192921999Y-58334479D01*
X192924612Y-58368803D01*
X192655444Y-58368805D01*
X192653357Y-58348974D01*
X192650358Y-58329764D01*
X192646472Y-58311172D01*
X192641727Y-58293197D01*
X192636150Y-58275837D01*
X192629768Y-58259090D01*
X192622608Y-58242954D01*
X192614698Y-58227428D01*
X192606064Y-58212510D01*
X192596734Y-58198198D01*
X192586735Y-58184489D01*
X192576094Y-58171383D01*
X192564837Y-58158878D01*
X192552993Y-58146971D01*
X192540589Y-58135661D01*
X192527650Y-58124946D01*
X192514205Y-58114825D01*
X192500281Y-58105294D01*
X192471104Y-58088001D01*
X192440334Y-58073052D01*
X192408190Y-58060432D01*
X192374889Y-58050127D01*
X192340647Y-58042123D01*
X192305682Y-58036406D01*
X192270210Y-58032959D01*
X192267739Y-57830464D01*
X192333500Y-57834041D01*
G36*
X192333500Y-57834041D02*
G01*
X192397250Y-57841138D01*
X192458714Y-57851859D01*
X192488502Y-57858611D01*
X192517616Y-57866309D01*
X192546021Y-57874966D01*
X192573683Y-57884594D01*
X192600566Y-57895207D01*
X192626638Y-57906819D01*
X192651864Y-57919441D01*
X192676208Y-57933087D01*
X192699637Y-57947771D01*
X192722117Y-57963505D01*
X192743613Y-57980302D01*
X192764090Y-57998176D01*
X192783515Y-58017140D01*
X192801853Y-58037207D01*
X192819070Y-58058389D01*
X192835130Y-58080701D01*
X192850001Y-58104155D01*
X192863647Y-58128764D01*
X192876035Y-58154542D01*
X192887129Y-58181501D01*
X192896895Y-58209655D01*
X192905300Y-58239016D01*
X192912308Y-58269599D01*
X192917886Y-58301415D01*
X192921999Y-58334479D01*
X192924612Y-58368803D01*
X192655444Y-58368805D01*
X192653357Y-58348974D01*
X192650358Y-58329764D01*
X192646472Y-58311172D01*
X192641727Y-58293197D01*
X192636150Y-58275837D01*
X192629768Y-58259090D01*
X192622608Y-58242954D01*
X192614698Y-58227428D01*
X192606064Y-58212510D01*
X192596734Y-58198198D01*
X192586735Y-58184489D01*
X192576094Y-58171383D01*
X192564837Y-58158878D01*
X192552993Y-58146971D01*
X192540589Y-58135661D01*
X192527650Y-58124946D01*
X192514205Y-58114825D01*
X192500281Y-58105294D01*
X192471104Y-58088001D01*
X192440334Y-58073052D01*
X192408190Y-58060432D01*
X192374889Y-58050127D01*
X192340647Y-58042123D01*
X192305682Y-58036406D01*
X192270210Y-58032959D01*
X192267739Y-57830464D01*
X192333500Y-57834041D01*
G37*
X195342199Y-58420662D02*
X195606430Y-58420662D01*
X195606430Y-59578832D01*
X195342199Y-59578832D01*
X195342199Y-58420662D01*
G36*
X195342199Y-58420662D02*
G01*
X195606430Y-58420662D01*
X195606430Y-59578832D01*
X195342199Y-59578832D01*
X195342199Y-58420662D01*
G37*
X186541098Y-59176313D02*
X186548506Y-57855159D01*
X186797920Y-57855159D01*
X186797920Y-59578832D01*
X186523812Y-59578832D01*
X185368112Y-57855159D01*
X185627403Y-57855159D01*
X186541098Y-59176313D01*
G36*
X186541098Y-59176313D02*
G01*
X186548506Y-57855159D01*
X186797920Y-57855159D01*
X186797920Y-59578832D01*
X186523812Y-59578832D01*
X185368112Y-57855159D01*
X185627403Y-57855159D01*
X186541098Y-59176313D01*
G37*
X191023139Y-59176313D02*
X191030548Y-57855159D01*
X191279961Y-57855159D01*
X191279961Y-59578832D01*
X191005853Y-59578832D01*
X189850153Y-57855159D01*
X190109445Y-57855159D01*
X191023139Y-59176313D01*
G36*
X191023139Y-59176313D02*
G01*
X191030548Y-57855159D01*
X191279961Y-57855159D01*
X191279961Y-59578832D01*
X191005853Y-59578832D01*
X189850153Y-57855159D01*
X190109445Y-57855159D01*
X191023139Y-59176313D01*
G37*
X184249510Y-57832804D02*
X184295499Y-57837029D01*
X184340466Y-57843114D01*
X184384380Y-57851035D01*
X184427207Y-57860766D01*
X184468914Y-57872283D01*
X184509467Y-57885560D01*
X184548835Y-57900573D01*
X184586983Y-57917298D01*
X184623880Y-57935708D01*
X184659491Y-57955780D01*
X184693785Y-57977488D01*
X184726727Y-58000808D01*
X184758285Y-58025714D01*
X184788426Y-58052182D01*
X184817117Y-58080187D01*
X184844325Y-58109704D01*
X184870017Y-58140709D01*
X184894159Y-58173175D01*
X184916720Y-58207079D01*
X184937665Y-58242396D01*
X184956962Y-58279100D01*
X184974578Y-58317167D01*
X184990480Y-58356572D01*
X185004635Y-58397290D01*
X185017009Y-58439297D01*
X185027571Y-58482567D01*
X185036286Y-58527075D01*
X185043122Y-58572797D01*
X185048045Y-58619707D01*
X185051023Y-58667782D01*
X185052024Y-58716995D01*
X185051015Y-58768641D01*
X185048009Y-58818923D01*
X185043032Y-58867823D01*
X185036112Y-58915323D01*
X185027277Y-58961405D01*
X185016554Y-59006051D01*
X185003970Y-59049243D01*
X184989554Y-59090963D01*
X184973333Y-59131192D01*
X184955335Y-59169913D01*
X184935586Y-59207107D01*
X184914115Y-59242757D01*
X184890950Y-59276844D01*
X184866117Y-59309350D01*
X184839645Y-59340257D01*
X184811561Y-59369547D01*
X184781892Y-59397203D01*
X184750667Y-59423205D01*
X184717912Y-59447536D01*
X184683656Y-59470177D01*
X184647926Y-59491111D01*
X184610749Y-59510320D01*
X184572153Y-59527785D01*
X184532166Y-59543489D01*
X184490815Y-59557412D01*
X184448128Y-59569538D01*
X184404133Y-59579848D01*
X184358856Y-59588324D01*
X184312327Y-59594948D01*
X184264571Y-59599702D01*
X184215617Y-59602568D01*
X184165492Y-59603527D01*
X184117828Y-59602555D01*
X184071163Y-59599657D01*
X184025528Y-59594863D01*
X183980954Y-59588199D01*
X183937470Y-59579694D01*
X183895108Y-59569375D01*
X183853896Y-59557272D01*
X183813866Y-59543411D01*
X183775048Y-59527821D01*
X183737472Y-59510531D01*
X183701168Y-59491567D01*
X183666167Y-59470958D01*
X183632499Y-59448732D01*
X183600194Y-59424917D01*
X183569283Y-59399542D01*
X183539796Y-59372633D01*
X183511763Y-59344220D01*
X183485214Y-59314330D01*
X183460180Y-59282991D01*
X183436692Y-59250232D01*
X183414778Y-59216080D01*
X183394471Y-59180563D01*
X183375799Y-59143709D01*
X183358793Y-59105547D01*
X183343484Y-59066105D01*
X183329902Y-59025410D01*
X183318077Y-58983490D01*
X183308039Y-58940374D01*
X183299820Y-58896090D01*
X183293448Y-58850665D01*
X183288954Y-58804128D01*
X183286369Y-58756507D01*
X183555539Y-58756505D01*
X183557548Y-58790157D01*
X183560788Y-58823038D01*
X183565247Y-58855128D01*
X183570910Y-58886406D01*
X183577765Y-58916855D01*
X183585800Y-58946454D01*
X183595000Y-58975183D01*
X183605352Y-59003025D01*
X183616844Y-59029958D01*
X183629462Y-59055964D01*
X183643194Y-59081023D01*
X183658026Y-59105116D01*
X183673944Y-59128223D01*
X183690937Y-59150325D01*
X183708990Y-59171403D01*
X183728091Y-59191436D01*
X183748227Y-59210406D01*
X183769384Y-59228293D01*
X183791550Y-59245077D01*
X183814710Y-59260740D01*
X183838853Y-59275261D01*
X183863965Y-59288622D01*
X183890032Y-59300802D01*
X183917043Y-59311783D01*
X183944983Y-59321545D01*
X183973839Y-59330068D01*
X184003599Y-59337334D01*
X184034250Y-59343322D01*
X184065777Y-59348013D01*
X184098169Y-59351388D01*
X184131412Y-59353427D01*
X184165492Y-59354111D01*
X184200954Y-59353391D01*
X184235558Y-59351243D01*
X184269289Y-59347685D01*
X184302127Y-59342738D01*
X184334055Y-59336420D01*
X184365056Y-59328750D01*
X184395112Y-59319747D01*
X184424205Y-59309430D01*
X184452318Y-59297818D01*
X184479433Y-59284929D01*
X184505532Y-59270784D01*
X184530598Y-59255401D01*
X184554614Y-59238799D01*
X184577561Y-59220996D01*
X184599421Y-59202013D01*
X184620178Y-59181867D01*
X184639814Y-59160579D01*
X184658311Y-59138166D01*
X184675651Y-59114648D01*
X184691817Y-59090045D01*
X184706790Y-59064373D01*
X184720555Y-59037654D01*
X184733092Y-59009906D01*
X184744384Y-58981148D01*
X184754414Y-58951398D01*
X184763163Y-58920676D01*
X184770615Y-58889001D01*
X184776752Y-58856392D01*
X184781556Y-58822868D01*
X184785009Y-58788447D01*
X184787093Y-58753149D01*
X184787792Y-58716993D01*
X184787137Y-58681973D01*
X184785180Y-58647765D01*
X184781940Y-58614387D01*
X184777432Y-58581854D01*
X184771672Y-58550184D01*
X184764677Y-58519394D01*
X184756463Y-58489500D01*
X184747046Y-58460519D01*
X184736443Y-58432467D01*
X184724669Y-58405362D01*
X184711742Y-58379220D01*
X184697677Y-58354058D01*
X184682490Y-58329892D01*
X184666198Y-58306740D01*
X184648818Y-58284618D01*
X184630365Y-58263542D01*
X184610856Y-58243530D01*
X184590306Y-58224599D01*
X184568733Y-58206764D01*
X184546153Y-58190043D01*
X184522581Y-58174452D01*
X184498035Y-58160008D01*
X184472530Y-58146729D01*
X184446083Y-58134630D01*
X184418709Y-58123728D01*
X184390426Y-58114040D01*
X184361249Y-58105584D01*
X184331195Y-58098374D01*
X184300281Y-58092429D01*
X184268521Y-58087765D01*
X184235933Y-58084399D01*
X184202533Y-58082347D01*
X184202533Y-57830464D01*
X184249510Y-57832804D01*
G36*
X184249510Y-57832804D02*
G01*
X184295499Y-57837029D01*
X184340466Y-57843114D01*
X184384380Y-57851035D01*
X184427207Y-57860766D01*
X184468914Y-57872283D01*
X184509467Y-57885560D01*
X184548835Y-57900573D01*
X184586983Y-57917298D01*
X184623880Y-57935708D01*
X184659491Y-57955780D01*
X184693785Y-57977488D01*
X184726727Y-58000808D01*
X184758285Y-58025714D01*
X184788426Y-58052182D01*
X184817117Y-58080187D01*
X184844325Y-58109704D01*
X184870017Y-58140709D01*
X184894159Y-58173175D01*
X184916720Y-58207079D01*
X184937665Y-58242396D01*
X184956962Y-58279100D01*
X184974578Y-58317167D01*
X184990480Y-58356572D01*
X185004635Y-58397290D01*
X185017009Y-58439297D01*
X185027571Y-58482567D01*
X185036286Y-58527075D01*
X185043122Y-58572797D01*
X185048045Y-58619707D01*
X185051023Y-58667782D01*
X185052024Y-58716995D01*
X185051015Y-58768641D01*
X185048009Y-58818923D01*
X185043032Y-58867823D01*
X185036112Y-58915323D01*
X185027277Y-58961405D01*
X185016554Y-59006051D01*
X185003970Y-59049243D01*
X184989554Y-59090963D01*
X184973333Y-59131192D01*
X184955335Y-59169913D01*
X184935586Y-59207107D01*
X184914115Y-59242757D01*
X184890950Y-59276844D01*
X184866117Y-59309350D01*
X184839645Y-59340257D01*
X184811561Y-59369547D01*
X184781892Y-59397203D01*
X184750667Y-59423205D01*
X184717912Y-59447536D01*
X184683656Y-59470177D01*
X184647926Y-59491111D01*
X184610749Y-59510320D01*
X184572153Y-59527785D01*
X184532166Y-59543489D01*
X184490815Y-59557412D01*
X184448128Y-59569538D01*
X184404133Y-59579848D01*
X184358856Y-59588324D01*
X184312327Y-59594948D01*
X184264571Y-59599702D01*
X184215617Y-59602568D01*
X184165492Y-59603527D01*
X184117828Y-59602555D01*
X184071163Y-59599657D01*
X184025528Y-59594863D01*
X183980954Y-59588199D01*
X183937470Y-59579694D01*
X183895108Y-59569375D01*
X183853896Y-59557272D01*
X183813866Y-59543411D01*
X183775048Y-59527821D01*
X183737472Y-59510531D01*
X183701168Y-59491567D01*
X183666167Y-59470958D01*
X183632499Y-59448732D01*
X183600194Y-59424917D01*
X183569283Y-59399542D01*
X183539796Y-59372633D01*
X183511763Y-59344220D01*
X183485214Y-59314330D01*
X183460180Y-59282991D01*
X183436692Y-59250232D01*
X183414778Y-59216080D01*
X183394471Y-59180563D01*
X183375799Y-59143709D01*
X183358793Y-59105547D01*
X183343484Y-59066105D01*
X183329902Y-59025410D01*
X183318077Y-58983490D01*
X183308039Y-58940374D01*
X183299820Y-58896090D01*
X183293448Y-58850665D01*
X183288954Y-58804128D01*
X183286369Y-58756507D01*
X183555539Y-58756505D01*
X183557548Y-58790157D01*
X183560788Y-58823038D01*
X183565247Y-58855128D01*
X183570910Y-58886406D01*
X183577765Y-58916855D01*
X183585800Y-58946454D01*
X183595000Y-58975183D01*
X183605352Y-59003025D01*
X183616844Y-59029958D01*
X183629462Y-59055964D01*
X183643194Y-59081023D01*
X183658026Y-59105116D01*
X183673944Y-59128223D01*
X183690937Y-59150325D01*
X183708990Y-59171403D01*
X183728091Y-59191436D01*
X183748227Y-59210406D01*
X183769384Y-59228293D01*
X183791550Y-59245077D01*
X183814710Y-59260740D01*
X183838853Y-59275261D01*
X183863965Y-59288622D01*
X183890032Y-59300802D01*
X183917043Y-59311783D01*
X183944983Y-59321545D01*
X183973839Y-59330068D01*
X184003599Y-59337334D01*
X184034250Y-59343322D01*
X184065777Y-59348013D01*
X184098169Y-59351388D01*
X184131412Y-59353427D01*
X184165492Y-59354111D01*
X184200954Y-59353391D01*
X184235558Y-59351243D01*
X184269289Y-59347685D01*
X184302127Y-59342738D01*
X184334055Y-59336420D01*
X184365056Y-59328750D01*
X184395112Y-59319747D01*
X184424205Y-59309430D01*
X184452318Y-59297818D01*
X184479433Y-59284929D01*
X184505532Y-59270784D01*
X184530598Y-59255401D01*
X184554614Y-59238799D01*
X184577561Y-59220996D01*
X184599421Y-59202013D01*
X184620178Y-59181867D01*
X184639814Y-59160579D01*
X184658311Y-59138166D01*
X184675651Y-59114648D01*
X184691817Y-59090045D01*
X184706790Y-59064373D01*
X184720555Y-59037654D01*
X184733092Y-59009906D01*
X184744384Y-58981148D01*
X184754414Y-58951398D01*
X184763163Y-58920676D01*
X184770615Y-58889001D01*
X184776752Y-58856392D01*
X184781556Y-58822868D01*
X184785009Y-58788447D01*
X184787093Y-58753149D01*
X184787792Y-58716993D01*
X184787137Y-58681973D01*
X184785180Y-58647765D01*
X184781940Y-58614387D01*
X184777432Y-58581854D01*
X184771672Y-58550184D01*
X184764677Y-58519394D01*
X184756463Y-58489500D01*
X184747046Y-58460519D01*
X184736443Y-58432467D01*
X184724669Y-58405362D01*
X184711742Y-58379220D01*
X184697677Y-58354058D01*
X184682490Y-58329892D01*
X184666198Y-58306740D01*
X184648818Y-58284618D01*
X184630365Y-58263542D01*
X184610856Y-58243530D01*
X184590306Y-58224599D01*
X184568733Y-58206764D01*
X184546153Y-58190043D01*
X184522581Y-58174452D01*
X184498035Y-58160008D01*
X184472530Y-58146729D01*
X184446083Y-58134630D01*
X184418709Y-58123728D01*
X184390426Y-58114040D01*
X184361249Y-58105584D01*
X184331195Y-58098374D01*
X184300281Y-58092429D01*
X184268521Y-58087765D01*
X184235933Y-58084399D01*
X184202533Y-58082347D01*
X184202533Y-57830464D01*
X184249510Y-57832804D01*
G37*
D10*
X179723000Y-56120000D02*
X179723000Y-58120000D01*
D11*
X187175745Y-58368803D02*
X187442445Y-58368803D01*
X187442445Y-59578832D01*
X187175745Y-59578832D01*
X187175745Y-58368803D01*
G36*
X187175745Y-58368803D02*
G01*
X187442445Y-58368803D01*
X187442445Y-59578832D01*
X187175745Y-59578832D01*
X187175745Y-58368803D01*
G37*
D10*
X179223000Y-56120000D02*
X179723000Y-56120000D01*
D11*
X187175745Y-57855157D02*
X187444915Y-57855157D01*
X187444915Y-58055183D01*
X187175745Y-58055183D01*
X187175745Y-57855157D01*
G36*
X187175745Y-57855157D02*
G01*
X187444915Y-57855157D01*
X187444915Y-58055183D01*
X187175745Y-58055183D01*
X187175745Y-57855157D01*
G37*
X191847933Y-58319413D02*
X191851203Y-58334167D01*
X191855429Y-58348342D01*
X191860567Y-58361955D01*
X191866575Y-58375018D01*
X191873409Y-58387548D01*
X191881027Y-58399560D01*
X191889385Y-58411068D01*
X191898441Y-58422087D01*
X191908152Y-58432632D01*
X191918475Y-58442718D01*
X191940784Y-58461574D01*
X191965024Y-58478772D01*
X191990853Y-58494434D01*
X192017926Y-58508677D01*
X192045899Y-58521622D01*
X192074430Y-58533387D01*
X192103174Y-58544093D01*
X192159928Y-58562802D01*
X192213412Y-58578704D01*
X192310337Y-58605251D01*
X192360652Y-58619682D01*
X192385867Y-58627390D01*
X192410967Y-58635502D01*
X192461907Y-58650705D01*
X192511737Y-58666833D01*
X192560156Y-58684119D01*
X192606864Y-58702794D01*
X192651560Y-58723090D01*
X192693946Y-58745238D01*
X192714178Y-58757078D01*
X192733719Y-58769469D01*
X192752532Y-58782438D01*
X192770580Y-58796015D01*
X192787825Y-58810229D01*
X192804230Y-58825108D01*
X192819756Y-58840682D01*
X192834366Y-58856980D01*
X192848024Y-58874029D01*
X192860690Y-58891860D01*
X192872329Y-58910502D01*
X192882901Y-58929983D01*
X192892371Y-58950331D01*
X192900699Y-58971577D01*
X192907850Y-58993749D01*
X192913784Y-59016876D01*
X192918465Y-59040987D01*
X192921855Y-59066111D01*
X192923916Y-59092276D01*
X192924612Y-59119513D01*
X192923618Y-59150884D01*
X192920680Y-59181108D01*
X192915868Y-59210194D01*
X192909250Y-59238152D01*
X192900894Y-59264993D01*
X192890867Y-59290726D01*
X192879239Y-59315361D01*
X192866078Y-59338908D01*
X192851452Y-59361377D01*
X192835429Y-59382778D01*
X192818077Y-59403121D01*
X192799466Y-59422416D01*
X192779662Y-59440672D01*
X192758735Y-59457901D01*
X192736752Y-59474111D01*
X192713783Y-59489313D01*
X192665155Y-59516731D01*
X192613399Y-59540235D01*
X192559059Y-59559905D01*
X192502683Y-59575821D01*
X192444817Y-59588060D01*
X192386007Y-59596705D01*
X192326799Y-59601833D01*
X192267739Y-59603525D01*
X192197355Y-59601819D01*
X192129021Y-59596594D01*
X192063053Y-59587686D01*
X192031055Y-59581800D01*
X191999766Y-59574933D01*
X191969226Y-59567064D01*
X191939474Y-59558172D01*
X191910549Y-59548238D01*
X191882491Y-59537240D01*
X191855340Y-59525160D01*
X191829133Y-59511975D01*
X191803912Y-59497666D01*
X191779715Y-59482213D01*
X191756581Y-59465595D01*
X191734550Y-59447792D01*
X191713662Y-59428784D01*
X191693955Y-59408549D01*
X191675468Y-59387069D01*
X191658242Y-59364322D01*
X191642316Y-59340288D01*
X191627728Y-59314947D01*
X191614519Y-59288278D01*
X191602727Y-59260262D01*
X191592392Y-59230877D01*
X191583553Y-59200103D01*
X191576250Y-59167921D01*
X191570521Y-59134309D01*
X191566407Y-59099248D01*
X191563947Y-59062717D01*
X191838054Y-59062714D01*
X191840191Y-59084535D01*
X191843339Y-59105553D01*
X191847470Y-59125776D01*
X191852553Y-59145209D01*
X191858558Y-59163861D01*
X191865456Y-59181740D01*
X191873217Y-59198851D01*
X191881810Y-59215202D01*
X191891207Y-59230802D01*
X191901376Y-59245656D01*
X191912289Y-59259772D01*
X191923916Y-59273157D01*
X191936226Y-59285819D01*
X191949190Y-59297765D01*
X191962779Y-59309002D01*
X191976961Y-59319537D01*
X191991707Y-59329377D01*
X192006989Y-59338530D01*
X192022774Y-59347004D01*
X192039035Y-59354804D01*
X192072860Y-59368415D01*
X192108227Y-59379421D01*
X192144896Y-59387881D01*
X192182629Y-59393852D01*
X192221186Y-59397393D01*
X192260330Y-59398560D01*
X192287584Y-59397895D01*
X192317117Y-59395786D01*
X192348372Y-59392065D01*
X192380792Y-59386560D01*
X192413820Y-59379101D01*
X192446898Y-59369519D01*
X192463282Y-59363879D01*
X192479470Y-59357644D01*
X192495392Y-59350793D01*
X192510979Y-59343306D01*
X192526160Y-59335159D01*
X192540866Y-59326334D01*
X192555029Y-59316807D01*
X192568577Y-59306558D01*
X192581441Y-59295566D01*
X192593552Y-59283809D01*
X192604840Y-59271267D01*
X192615236Y-59257917D01*
X192624669Y-59243739D01*
X192633070Y-59228711D01*
X192640370Y-59212812D01*
X192646499Y-59196022D01*
X192651387Y-59178318D01*
X192654965Y-59159679D01*
X192657163Y-59140084D01*
X192657911Y-59119513D01*
X192657674Y-59107408D01*
X192656970Y-59095630D01*
X192655809Y-59084172D01*
X192654202Y-59073027D01*
X192652159Y-59062190D01*
X192649690Y-59051655D01*
X192646807Y-59041414D01*
X192643519Y-59031462D01*
X192639836Y-59021791D01*
X192635770Y-59012397D01*
X192631330Y-59003272D01*
X192626527Y-58994410D01*
X192621371Y-58985806D01*
X192615873Y-58977451D01*
X192610043Y-58969341D01*
X192603892Y-58961469D01*
X192590666Y-58946412D01*
X192576279Y-58932231D01*
X192560815Y-58918874D01*
X192544355Y-58906292D01*
X192526984Y-58894433D01*
X192508785Y-58883247D01*
X192489840Y-58872683D01*
X192470233Y-58862691D01*
X192449629Y-58854463D01*
X192428562Y-58846409D01*
X192385038Y-58830589D01*
X192292433Y-58798486D01*
X192244935Y-58785830D01*
X192195816Y-58773174D01*
X192171011Y-58766556D01*
X192146234Y-58759592D01*
X192121631Y-58752164D01*
X192097347Y-58744158D01*
X192049149Y-58730433D01*
X192001965Y-58715967D01*
X191956053Y-58700538D01*
X191911675Y-58683927D01*
X191869092Y-58665912D01*
X191828563Y-58646272D01*
X191809151Y-58635775D01*
X191790349Y-58624788D01*
X191772192Y-58613285D01*
X191754711Y-58601239D01*
X191737939Y-58588620D01*
X191721909Y-58575403D01*
X191706653Y-58561559D01*
X191692203Y-58547060D01*
X191678593Y-58531880D01*
X191665855Y-58515990D01*
X191654020Y-58499363D01*
X191643123Y-58481972D01*
X191633195Y-58463788D01*
X191624270Y-58444785D01*
X191616378Y-58424934D01*
X191609554Y-58404208D01*
X191603830Y-58382580D01*
X191599238Y-58360022D01*
X191595810Y-58336506D01*
X191593580Y-58312005D01*
X191847933Y-58319413D01*
G36*
X191847933Y-58319413D02*
G01*
X191851203Y-58334167D01*
X191855429Y-58348342D01*
X191860567Y-58361955D01*
X191866575Y-58375018D01*
X191873409Y-58387548D01*
X191881027Y-58399560D01*
X191889385Y-58411068D01*
X191898441Y-58422087D01*
X191908152Y-58432632D01*
X191918475Y-58442718D01*
X191940784Y-58461574D01*
X191965024Y-58478772D01*
X191990853Y-58494434D01*
X192017926Y-58508677D01*
X192045899Y-58521622D01*
X192074430Y-58533387D01*
X192103174Y-58544093D01*
X192159928Y-58562802D01*
X192213412Y-58578704D01*
X192310337Y-58605251D01*
X192360652Y-58619682D01*
X192385867Y-58627390D01*
X192410967Y-58635502D01*
X192461907Y-58650705D01*
X192511737Y-58666833D01*
X192560156Y-58684119D01*
X192606864Y-58702794D01*
X192651560Y-58723090D01*
X192693946Y-58745238D01*
X192714178Y-58757078D01*
X192733719Y-58769469D01*
X192752532Y-58782438D01*
X192770580Y-58796015D01*
X192787825Y-58810229D01*
X192804230Y-58825108D01*
X192819756Y-58840682D01*
X192834366Y-58856980D01*
X192848024Y-58874029D01*
X192860690Y-58891860D01*
X192872329Y-58910502D01*
X192882901Y-58929983D01*
X192892371Y-58950331D01*
X192900699Y-58971577D01*
X192907850Y-58993749D01*
X192913784Y-59016876D01*
X192918465Y-59040987D01*
X192921855Y-59066111D01*
X192923916Y-59092276D01*
X192924612Y-59119513D01*
X192923618Y-59150884D01*
X192920680Y-59181108D01*
X192915868Y-59210194D01*
X192909250Y-59238152D01*
X192900894Y-59264993D01*
X192890867Y-59290726D01*
X192879239Y-59315361D01*
X192866078Y-59338908D01*
X192851452Y-59361377D01*
X192835429Y-59382778D01*
X192818077Y-59403121D01*
X192799466Y-59422416D01*
X192779662Y-59440672D01*
X192758735Y-59457901D01*
X192736752Y-59474111D01*
X192713783Y-59489313D01*
X192665155Y-59516731D01*
X192613399Y-59540235D01*
X192559059Y-59559905D01*
X192502683Y-59575821D01*
X192444817Y-59588060D01*
X192386007Y-59596705D01*
X192326799Y-59601833D01*
X192267739Y-59603525D01*
X192197355Y-59601819D01*
X192129021Y-59596594D01*
X192063053Y-59587686D01*
X192031055Y-59581800D01*
X191999766Y-59574933D01*
X191969226Y-59567064D01*
X191939474Y-59558172D01*
X191910549Y-59548238D01*
X191882491Y-59537240D01*
X191855340Y-59525160D01*
X191829133Y-59511975D01*
X191803912Y-59497666D01*
X191779715Y-59482213D01*
X191756581Y-59465595D01*
X191734550Y-59447792D01*
X191713662Y-59428784D01*
X191693955Y-59408549D01*
X191675468Y-59387069D01*
X191658242Y-59364322D01*
X191642316Y-59340288D01*
X191627728Y-59314947D01*
X191614519Y-59288278D01*
X191602727Y-59260262D01*
X191592392Y-59230877D01*
X191583553Y-59200103D01*
X191576250Y-59167921D01*
X191570521Y-59134309D01*
X191566407Y-59099248D01*
X191563947Y-59062717D01*
X191838054Y-59062714D01*
X191840191Y-59084535D01*
X191843339Y-59105553D01*
X191847470Y-59125776D01*
X191852553Y-59145209D01*
X191858558Y-59163861D01*
X191865456Y-59181740D01*
X191873217Y-59198851D01*
X191881810Y-59215202D01*
X191891207Y-59230802D01*
X191901376Y-59245656D01*
X191912289Y-59259772D01*
X191923916Y-59273157D01*
X191936226Y-59285819D01*
X191949190Y-59297765D01*
X191962779Y-59309002D01*
X191976961Y-59319537D01*
X191991707Y-59329377D01*
X192006989Y-59338530D01*
X192022774Y-59347004D01*
X192039035Y-59354804D01*
X192072860Y-59368415D01*
X192108227Y-59379421D01*
X192144896Y-59387881D01*
X192182629Y-59393852D01*
X192221186Y-59397393D01*
X192260330Y-59398560D01*
X192287584Y-59397895D01*
X192317117Y-59395786D01*
X192348372Y-59392065D01*
X192380792Y-59386560D01*
X192413820Y-59379101D01*
X192446898Y-59369519D01*
X192463282Y-59363879D01*
X192479470Y-59357644D01*
X192495392Y-59350793D01*
X192510979Y-59343306D01*
X192526160Y-59335159D01*
X192540866Y-59326334D01*
X192555029Y-59316807D01*
X192568577Y-59306558D01*
X192581441Y-59295566D01*
X192593552Y-59283809D01*
X192604840Y-59271267D01*
X192615236Y-59257917D01*
X192624669Y-59243739D01*
X192633070Y-59228711D01*
X192640370Y-59212812D01*
X192646499Y-59196022D01*
X192651387Y-59178318D01*
X192654965Y-59159679D01*
X192657163Y-59140084D01*
X192657911Y-59119513D01*
X192657674Y-59107408D01*
X192656970Y-59095630D01*
X192655809Y-59084172D01*
X192654202Y-59073027D01*
X192652159Y-59062190D01*
X192649690Y-59051655D01*
X192646807Y-59041414D01*
X192643519Y-59031462D01*
X192639836Y-59021791D01*
X192635770Y-59012397D01*
X192631330Y-59003272D01*
X192626527Y-58994410D01*
X192621371Y-58985806D01*
X192615873Y-58977451D01*
X192610043Y-58969341D01*
X192603892Y-58961469D01*
X192590666Y-58946412D01*
X192576279Y-58932231D01*
X192560815Y-58918874D01*
X192544355Y-58906292D01*
X192526984Y-58894433D01*
X192508785Y-58883247D01*
X192489840Y-58872683D01*
X192470233Y-58862691D01*
X192449629Y-58854463D01*
X192428562Y-58846409D01*
X192385038Y-58830589D01*
X192292433Y-58798486D01*
X192244935Y-58785830D01*
X192195816Y-58773174D01*
X192171011Y-58766556D01*
X192146234Y-58759592D01*
X192121631Y-58752164D01*
X192097347Y-58744158D01*
X192049149Y-58730433D01*
X192001965Y-58715967D01*
X191956053Y-58700538D01*
X191911675Y-58683927D01*
X191869092Y-58665912D01*
X191828563Y-58646272D01*
X191809151Y-58635775D01*
X191790349Y-58624788D01*
X191772192Y-58613285D01*
X191754711Y-58601239D01*
X191737939Y-58588620D01*
X191721909Y-58575403D01*
X191706653Y-58561559D01*
X191692203Y-58547060D01*
X191678593Y-58531880D01*
X191665855Y-58515990D01*
X191654020Y-58499363D01*
X191643123Y-58481972D01*
X191633195Y-58463788D01*
X191624270Y-58444785D01*
X191616378Y-58424934D01*
X191609554Y-58404208D01*
X191603830Y-58382580D01*
X191599238Y-58360022D01*
X191595810Y-58336506D01*
X191593580Y-58312005D01*
X191847933Y-58319413D01*
G37*
X190087218Y-58749096D02*
X190087218Y-59578832D01*
X189830396Y-59578832D01*
X189830396Y-58378681D01*
X190087218Y-58749096D01*
G36*
X190087218Y-58749096D02*
G01*
X190087218Y-59578832D01*
X189830396Y-59578832D01*
X189830396Y-58378681D01*
X190087218Y-58749096D01*
G37*
X194722368Y-59578832D02*
X194413687Y-59578832D01*
X193877817Y-58070000D01*
X193863000Y-58070000D01*
X193361704Y-59578832D01*
X193072779Y-59578832D01*
X193680262Y-57855159D01*
X194060557Y-57855159D01*
X194722368Y-59578832D01*
G36*
X194722368Y-59578832D02*
G01*
X194413687Y-59578832D01*
X193877817Y-58070000D01*
X193863000Y-58070000D01*
X193361704Y-59578832D01*
X193072779Y-59578832D01*
X193680262Y-57855159D01*
X194060557Y-57855159D01*
X194722368Y-59578832D01*
G37*
X185605178Y-58749096D02*
X185605178Y-59578832D01*
X185348355Y-59578832D01*
X185348355Y-58378681D01*
X185605178Y-58749096D01*
G36*
X185605178Y-58749096D02*
G01*
X185605178Y-59578832D01*
X185348355Y-59578832D01*
X185348355Y-58378681D01*
X185605178Y-58749096D01*
G37*
X188731550Y-57832804D02*
X188777539Y-57837029D01*
X188822507Y-57843114D01*
X188866420Y-57851035D01*
X188909247Y-57860766D01*
X188950954Y-57872283D01*
X188991507Y-57885560D01*
X189030875Y-57900573D01*
X189069023Y-57917298D01*
X189105920Y-57935708D01*
X189141531Y-57955780D01*
X189175825Y-57977488D01*
X189208767Y-58000808D01*
X189240325Y-58025714D01*
X189270466Y-58052182D01*
X189299157Y-58080187D01*
X189326365Y-58109704D01*
X189352057Y-58140709D01*
X189376200Y-58173175D01*
X189398760Y-58207079D01*
X189419705Y-58242396D01*
X189439003Y-58279100D01*
X189456619Y-58317167D01*
X189472520Y-58356572D01*
X189486675Y-58397290D01*
X189499049Y-58439297D01*
X189509611Y-58482567D01*
X189518326Y-58527075D01*
X189525162Y-58572797D01*
X189530085Y-58619707D01*
X189533064Y-58667782D01*
X189534064Y-58716995D01*
X189533055Y-58768641D01*
X189530049Y-58818923D01*
X189525072Y-58867823D01*
X189518152Y-58915323D01*
X189509317Y-58961405D01*
X189498594Y-59006051D01*
X189486010Y-59049243D01*
X189471594Y-59090963D01*
X189455373Y-59131192D01*
X189437375Y-59169913D01*
X189417627Y-59207107D01*
X189396156Y-59242757D01*
X189372990Y-59276844D01*
X189348158Y-59309350D01*
X189321686Y-59340257D01*
X189293601Y-59369547D01*
X189263933Y-59397203D01*
X189232708Y-59423205D01*
X189199953Y-59447536D01*
X189165697Y-59470177D01*
X189129966Y-59491111D01*
X189092790Y-59510320D01*
X189054194Y-59527785D01*
X189014207Y-59543489D01*
X188972856Y-59557412D01*
X188930169Y-59569538D01*
X188886173Y-59579848D01*
X188840897Y-59588324D01*
X188794367Y-59594948D01*
X188746611Y-59599702D01*
X188697657Y-59602568D01*
X188647532Y-59603527D01*
X188599868Y-59602555D01*
X188553203Y-59599657D01*
X188507569Y-59594863D01*
X188462995Y-59588199D01*
X188419511Y-59579694D01*
X188377148Y-59569375D01*
X188335937Y-59557272D01*
X188295907Y-59543411D01*
X188257089Y-59527821D01*
X188219513Y-59510531D01*
X188183209Y-59491567D01*
X188148208Y-59470958D01*
X188114540Y-59448732D01*
X188082235Y-59424917D01*
X188051324Y-59399542D01*
X188021837Y-59372633D01*
X187993804Y-59344220D01*
X187967255Y-59314330D01*
X187942222Y-59282991D01*
X187918733Y-59250232D01*
X187896819Y-59216080D01*
X187876512Y-59180563D01*
X187857840Y-59143709D01*
X187840834Y-59105547D01*
X187825525Y-59066105D01*
X187811943Y-59025410D01*
X187800118Y-58983490D01*
X187790081Y-58940374D01*
X187781861Y-58896090D01*
X187775489Y-58850665D01*
X187770995Y-58804128D01*
X187768410Y-58756507D01*
X188037579Y-58756505D01*
X188039588Y-58790157D01*
X188042828Y-58823038D01*
X188047286Y-58855128D01*
X188052950Y-58886406D01*
X188059805Y-58916855D01*
X188067839Y-58946454D01*
X188077039Y-58975183D01*
X188087392Y-59003025D01*
X188098884Y-59029958D01*
X188111502Y-59055964D01*
X188125233Y-59081023D01*
X188140065Y-59105116D01*
X188155984Y-59128223D01*
X188172976Y-59150325D01*
X188191030Y-59171403D01*
X188210131Y-59191436D01*
X188230266Y-59210406D01*
X188251423Y-59228293D01*
X188273589Y-59245077D01*
X188296749Y-59260740D01*
X188320892Y-59275261D01*
X188346004Y-59288622D01*
X188372071Y-59300802D01*
X188399082Y-59311783D01*
X188427022Y-59321545D01*
X188455878Y-59330068D01*
X188485638Y-59337334D01*
X188516289Y-59343322D01*
X188547816Y-59348013D01*
X188580208Y-59351388D01*
X188613451Y-59353427D01*
X188647531Y-59354111D01*
X188682993Y-59353391D01*
X188717598Y-59351243D01*
X188751328Y-59347685D01*
X188784166Y-59342738D01*
X188816094Y-59336420D01*
X188847095Y-59328750D01*
X188877151Y-59319747D01*
X188906245Y-59309430D01*
X188934358Y-59297818D01*
X188961473Y-59284929D01*
X188987572Y-59270784D01*
X189012638Y-59255401D01*
X189036654Y-59238799D01*
X189059601Y-59220996D01*
X189081461Y-59202013D01*
X189102218Y-59181867D01*
X189121854Y-59160579D01*
X189140351Y-59138166D01*
X189157691Y-59114648D01*
X189173857Y-59090045D01*
X189188830Y-59064373D01*
X189202595Y-59037654D01*
X189215132Y-59009906D01*
X189226424Y-58981148D01*
X189236454Y-58951398D01*
X189245204Y-58920676D01*
X189252656Y-58889001D01*
X189258792Y-58856392D01*
X189263596Y-58822868D01*
X189267049Y-58788447D01*
X189269133Y-58753149D01*
X189269832Y-58716993D01*
X189269177Y-58681973D01*
X189267221Y-58647765D01*
X189263980Y-58614387D01*
X189259472Y-58581854D01*
X189253712Y-58550184D01*
X189246717Y-58519394D01*
X189238503Y-58489500D01*
X189229086Y-58460519D01*
X189218483Y-58432467D01*
X189206709Y-58405362D01*
X189193782Y-58379220D01*
X189179717Y-58354058D01*
X189164530Y-58329892D01*
X189148239Y-58306740D01*
X189130858Y-58284618D01*
X189112405Y-58263542D01*
X189092896Y-58243530D01*
X189072346Y-58224599D01*
X189050774Y-58206764D01*
X189028193Y-58190043D01*
X189004622Y-58174452D01*
X188980075Y-58160008D01*
X188954570Y-58146729D01*
X188928123Y-58134630D01*
X188900749Y-58123728D01*
X188872466Y-58114040D01*
X188843289Y-58105584D01*
X188813236Y-58098374D01*
X188782321Y-58092429D01*
X188750561Y-58087765D01*
X188717973Y-58084399D01*
X188684574Y-58082347D01*
X188684574Y-57830464D01*
X188731550Y-57832804D01*
G36*
X188731550Y-57832804D02*
G01*
X188777539Y-57837029D01*
X188822507Y-57843114D01*
X188866420Y-57851035D01*
X188909247Y-57860766D01*
X188950954Y-57872283D01*
X188991507Y-57885560D01*
X189030875Y-57900573D01*
X189069023Y-57917298D01*
X189105920Y-57935708D01*
X189141531Y-57955780D01*
X189175825Y-57977488D01*
X189208767Y-58000808D01*
X189240325Y-58025714D01*
X189270466Y-58052182D01*
X189299157Y-58080187D01*
X189326365Y-58109704D01*
X189352057Y-58140709D01*
X189376200Y-58173175D01*
X189398760Y-58207079D01*
X189419705Y-58242396D01*
X189439003Y-58279100D01*
X189456619Y-58317167D01*
X189472520Y-58356572D01*
X189486675Y-58397290D01*
X189499049Y-58439297D01*
X189509611Y-58482567D01*
X189518326Y-58527075D01*
X189525162Y-58572797D01*
X189530085Y-58619707D01*
X189533064Y-58667782D01*
X189534064Y-58716995D01*
X189533055Y-58768641D01*
X189530049Y-58818923D01*
X189525072Y-58867823D01*
X189518152Y-58915323D01*
X189509317Y-58961405D01*
X189498594Y-59006051D01*
X189486010Y-59049243D01*
X189471594Y-59090963D01*
X189455373Y-59131192D01*
X189437375Y-59169913D01*
X189417627Y-59207107D01*
X189396156Y-59242757D01*
X189372990Y-59276844D01*
X189348158Y-59309350D01*
X189321686Y-59340257D01*
X189293601Y-59369547D01*
X189263933Y-59397203D01*
X189232708Y-59423205D01*
X189199953Y-59447536D01*
X189165697Y-59470177D01*
X189129966Y-59491111D01*
X189092790Y-59510320D01*
X189054194Y-59527785D01*
X189014207Y-59543489D01*
X188972856Y-59557412D01*
X188930169Y-59569538D01*
X188886173Y-59579848D01*
X188840897Y-59588324D01*
X188794367Y-59594948D01*
X188746611Y-59599702D01*
X188697657Y-59602568D01*
X188647532Y-59603527D01*
X188599868Y-59602555D01*
X188553203Y-59599657D01*
X188507569Y-59594863D01*
X188462995Y-59588199D01*
X188419511Y-59579694D01*
X188377148Y-59569375D01*
X188335937Y-59557272D01*
X188295907Y-59543411D01*
X188257089Y-59527821D01*
X188219513Y-59510531D01*
X188183209Y-59491567D01*
X188148208Y-59470958D01*
X188114540Y-59448732D01*
X188082235Y-59424917D01*
X188051324Y-59399542D01*
X188021837Y-59372633D01*
X187993804Y-59344220D01*
X187967255Y-59314330D01*
X187942222Y-59282991D01*
X187918733Y-59250232D01*
X187896819Y-59216080D01*
X187876512Y-59180563D01*
X187857840Y-59143709D01*
X187840834Y-59105547D01*
X187825525Y-59066105D01*
X187811943Y-59025410D01*
X187800118Y-58983490D01*
X187790081Y-58940374D01*
X187781861Y-58896090D01*
X187775489Y-58850665D01*
X187770995Y-58804128D01*
X187768410Y-58756507D01*
X188037579Y-58756505D01*
X188039588Y-58790157D01*
X188042828Y-58823038D01*
X188047286Y-58855128D01*
X188052950Y-58886406D01*
X188059805Y-58916855D01*
X188067839Y-58946454D01*
X188077039Y-58975183D01*
X188087392Y-59003025D01*
X188098884Y-59029958D01*
X188111502Y-59055964D01*
X188125233Y-59081023D01*
X188140065Y-59105116D01*
X188155984Y-59128223D01*
X188172976Y-59150325D01*
X188191030Y-59171403D01*
X188210131Y-59191436D01*
X188230266Y-59210406D01*
X188251423Y-59228293D01*
X188273589Y-59245077D01*
X188296749Y-59260740D01*
X188320892Y-59275261D01*
X188346004Y-59288622D01*
X188372071Y-59300802D01*
X188399082Y-59311783D01*
X188427022Y-59321545D01*
X188455878Y-59330068D01*
X188485638Y-59337334D01*
X188516289Y-59343322D01*
X188547816Y-59348013D01*
X188580208Y-59351388D01*
X188613451Y-59353427D01*
X188647531Y-59354111D01*
X188682993Y-59353391D01*
X188717598Y-59351243D01*
X188751328Y-59347685D01*
X188784166Y-59342738D01*
X188816094Y-59336420D01*
X188847095Y-59328750D01*
X188877151Y-59319747D01*
X188906245Y-59309430D01*
X188934358Y-59297818D01*
X188961473Y-59284929D01*
X188987572Y-59270784D01*
X189012638Y-59255401D01*
X189036654Y-59238799D01*
X189059601Y-59220996D01*
X189081461Y-59202013D01*
X189102218Y-59181867D01*
X189121854Y-59160579D01*
X189140351Y-59138166D01*
X189157691Y-59114648D01*
X189173857Y-59090045D01*
X189188830Y-59064373D01*
X189202595Y-59037654D01*
X189215132Y-59009906D01*
X189226424Y-58981148D01*
X189236454Y-58951398D01*
X189245204Y-58920676D01*
X189252656Y-58889001D01*
X189258792Y-58856392D01*
X189263596Y-58822868D01*
X189267049Y-58788447D01*
X189269133Y-58753149D01*
X189269832Y-58716993D01*
X189269177Y-58681973D01*
X189267221Y-58647765D01*
X189263980Y-58614387D01*
X189259472Y-58581854D01*
X189253712Y-58550184D01*
X189246717Y-58519394D01*
X189238503Y-58489500D01*
X189229086Y-58460519D01*
X189218483Y-58432467D01*
X189206709Y-58405362D01*
X189193782Y-58379220D01*
X189179717Y-58354058D01*
X189164530Y-58329892D01*
X189148239Y-58306740D01*
X189130858Y-58284618D01*
X189112405Y-58263542D01*
X189092896Y-58243530D01*
X189072346Y-58224599D01*
X189050774Y-58206764D01*
X189028193Y-58190043D01*
X189004622Y-58174452D01*
X188980075Y-58160008D01*
X188954570Y-58146729D01*
X188928123Y-58134630D01*
X188900749Y-58123728D01*
X188872466Y-58114040D01*
X188843289Y-58105584D01*
X188813236Y-58098374D01*
X188782321Y-58092429D01*
X188750561Y-58087765D01*
X188717973Y-58084399D01*
X188684574Y-58082347D01*
X188684574Y-57830464D01*
X188731550Y-57832804D01*
G37*
X194808799Y-57855159D02*
X196134892Y-57855159D01*
X196134892Y-58114450D01*
X194808799Y-58114450D01*
X194808799Y-57855159D01*
G36*
X194808799Y-57855159D02*
G01*
X196134892Y-57855159D01*
X196134892Y-58114450D01*
X194808799Y-58114450D01*
X194808799Y-57855159D01*
G37*
D10*
X179233000Y-58410000D02*
X179733000Y-58410000D01*
X179723000Y-58120000D02*
X179223000Y-58120000D01*
D12*
X176171104Y-89175839D02*
X176209200Y-89213935D01*
X176209200Y-89213935D02*
X176247295Y-89328220D01*
X176247295Y-89328220D02*
X176247295Y-89404411D01*
X176247295Y-89404411D02*
X176209200Y-89518697D01*
X176209200Y-89518697D02*
X176133009Y-89594887D01*
X176133009Y-89594887D02*
X176056819Y-89632982D01*
X176056819Y-89632982D02*
X175904438Y-89671078D01*
X175904438Y-89671078D02*
X175790152Y-89671078D01*
X175790152Y-89671078D02*
X175637771Y-89632982D01*
X175637771Y-89632982D02*
X175561580Y-89594887D01*
X175561580Y-89594887D02*
X175485390Y-89518697D01*
X175485390Y-89518697D02*
X175447295Y-89404411D01*
X175447295Y-89404411D02*
X175447295Y-89328220D01*
X175447295Y-89328220D02*
X175485390Y-89213935D01*
X175485390Y-89213935D02*
X175523485Y-89175839D01*
X176247295Y-88832982D02*
X175447295Y-88832982D01*
X175447295Y-88832982D02*
X175447295Y-88528220D01*
X175447295Y-88528220D02*
X175485390Y-88452030D01*
X175485390Y-88452030D02*
X175523485Y-88413935D01*
X175523485Y-88413935D02*
X175599676Y-88375839D01*
X175599676Y-88375839D02*
X175713961Y-88375839D01*
X175713961Y-88375839D02*
X175790152Y-88413935D01*
X175790152Y-88413935D02*
X175828247Y-88452030D01*
X175828247Y-88452030D02*
X175866342Y-88528220D01*
X175866342Y-88528220D02*
X175866342Y-88832982D01*
X175447295Y-88109173D02*
X176247295Y-87918697D01*
X176247295Y-87918697D02*
X175675866Y-87766316D01*
X175675866Y-87766316D02*
X176247295Y-87613935D01*
X176247295Y-87613935D02*
X175447295Y-87423459D01*
X176247295Y-86661553D02*
X175866342Y-86928220D01*
X176247295Y-87118696D02*
X175447295Y-87118696D01*
X175447295Y-87118696D02*
X175447295Y-86813934D01*
X175447295Y-86813934D02*
X175485390Y-86737744D01*
X175485390Y-86737744D02*
X175523485Y-86699649D01*
X175523485Y-86699649D02*
X175599676Y-86661553D01*
X175599676Y-86661553D02*
X175713961Y-86661553D01*
X175713961Y-86661553D02*
X175790152Y-86699649D01*
X175790152Y-86699649D02*
X175828247Y-86737744D01*
X175828247Y-86737744D02*
X175866342Y-86813934D01*
X175866342Y-86813934D02*
X175866342Y-87118696D01*
D13*
X185791129Y-60097057D02*
X185714939Y-60058962D01*
X185714939Y-60058962D02*
X185600653Y-60058962D01*
X185600653Y-60058962D02*
X185486367Y-60097057D01*
X185486367Y-60097057D02*
X185410177Y-60173247D01*
X185410177Y-60173247D02*
X185372082Y-60249438D01*
X185372082Y-60249438D02*
X185333986Y-60401819D01*
X185333986Y-60401819D02*
X185333986Y-60516105D01*
X185333986Y-60516105D02*
X185372082Y-60668486D01*
X185372082Y-60668486D02*
X185410177Y-60744676D01*
X185410177Y-60744676D02*
X185486367Y-60820867D01*
X185486367Y-60820867D02*
X185600653Y-60858962D01*
X185600653Y-60858962D02*
X185676844Y-60858962D01*
X185676844Y-60858962D02*
X185791129Y-60820867D01*
X185791129Y-60820867D02*
X185829225Y-60782771D01*
X185829225Y-60782771D02*
X185829225Y-60516105D01*
X185829225Y-60516105D02*
X185676844Y-60516105D01*
X186172082Y-60858962D02*
X186172082Y-60325628D01*
X186172082Y-60478009D02*
X186210177Y-60401819D01*
X186210177Y-60401819D02*
X186248272Y-60363724D01*
X186248272Y-60363724D02*
X186324463Y-60325628D01*
X186324463Y-60325628D02*
X186400653Y-60325628D01*
X186781605Y-60858962D02*
X186705415Y-60820867D01*
X186705415Y-60820867D02*
X186667320Y-60782771D01*
X186667320Y-60782771D02*
X186629224Y-60706581D01*
X186629224Y-60706581D02*
X186629224Y-60478009D01*
X186629224Y-60478009D02*
X186667320Y-60401819D01*
X186667320Y-60401819D02*
X186705415Y-60363724D01*
X186705415Y-60363724D02*
X186781605Y-60325628D01*
X186781605Y-60325628D02*
X186895891Y-60325628D01*
X186895891Y-60325628D02*
X186972082Y-60363724D01*
X186972082Y-60363724D02*
X187010177Y-60401819D01*
X187010177Y-60401819D02*
X187048272Y-60478009D01*
X187048272Y-60478009D02*
X187048272Y-60706581D01*
X187048272Y-60706581D02*
X187010177Y-60782771D01*
X187010177Y-60782771D02*
X186972082Y-60820867D01*
X186972082Y-60820867D02*
X186895891Y-60858962D01*
X186895891Y-60858962D02*
X186781605Y-60858962D01*
X187733987Y-60325628D02*
X187733987Y-60858962D01*
X187391130Y-60325628D02*
X187391130Y-60744676D01*
X187391130Y-60744676D02*
X187429225Y-60820867D01*
X187429225Y-60820867D02*
X187505415Y-60858962D01*
X187505415Y-60858962D02*
X187619701Y-60858962D01*
X187619701Y-60858962D02*
X187695892Y-60820867D01*
X187695892Y-60820867D02*
X187733987Y-60782771D01*
X188114940Y-60325628D02*
X188114940Y-60858962D01*
X188114940Y-60401819D02*
X188153035Y-60363724D01*
X188153035Y-60363724D02*
X188229225Y-60325628D01*
X188229225Y-60325628D02*
X188343511Y-60325628D01*
X188343511Y-60325628D02*
X188419702Y-60363724D01*
X188419702Y-60363724D02*
X188457797Y-60439914D01*
X188457797Y-60439914D02*
X188457797Y-60858962D01*
X189181607Y-60858962D02*
X189181607Y-60058962D01*
X189181607Y-60820867D02*
X189105416Y-60858962D01*
X189105416Y-60858962D02*
X188953035Y-60858962D01*
X188953035Y-60858962D02*
X188876845Y-60820867D01*
X188876845Y-60820867D02*
X188838750Y-60782771D01*
X188838750Y-60782771D02*
X188800654Y-60706581D01*
X188800654Y-60706581D02*
X188800654Y-60478009D01*
X188800654Y-60478009D02*
X188838750Y-60401819D01*
X188838750Y-60401819D02*
X188876845Y-60363724D01*
X188876845Y-60363724D02*
X188953035Y-60325628D01*
X188953035Y-60325628D02*
X189105416Y-60325628D01*
X189105416Y-60325628D02*
X189181607Y-60363724D01*
X190133988Y-60820867D02*
X190248274Y-60858962D01*
X190248274Y-60858962D02*
X190438750Y-60858962D01*
X190438750Y-60858962D02*
X190514941Y-60820867D01*
X190514941Y-60820867D02*
X190553036Y-60782771D01*
X190553036Y-60782771D02*
X190591131Y-60706581D01*
X190591131Y-60706581D02*
X190591131Y-60630390D01*
X190591131Y-60630390D02*
X190553036Y-60554200D01*
X190553036Y-60554200D02*
X190514941Y-60516105D01*
X190514941Y-60516105D02*
X190438750Y-60478009D01*
X190438750Y-60478009D02*
X190286369Y-60439914D01*
X190286369Y-60439914D02*
X190210179Y-60401819D01*
X190210179Y-60401819D02*
X190172084Y-60363724D01*
X190172084Y-60363724D02*
X190133988Y-60287533D01*
X190133988Y-60287533D02*
X190133988Y-60211343D01*
X190133988Y-60211343D02*
X190172084Y-60135152D01*
X190172084Y-60135152D02*
X190210179Y-60097057D01*
X190210179Y-60097057D02*
X190286369Y-60058962D01*
X190286369Y-60058962D02*
X190476846Y-60058962D01*
X190476846Y-60058962D02*
X190591131Y-60097057D01*
X190819703Y-60325628D02*
X191124465Y-60325628D01*
X190933989Y-60058962D02*
X190933989Y-60744676D01*
X190933989Y-60744676D02*
X190972084Y-60820867D01*
X190972084Y-60820867D02*
X191048274Y-60858962D01*
X191048274Y-60858962D02*
X191124465Y-60858962D01*
X191733989Y-60858962D02*
X191733989Y-60439914D01*
X191733989Y-60439914D02*
X191695894Y-60363724D01*
X191695894Y-60363724D02*
X191619703Y-60325628D01*
X191619703Y-60325628D02*
X191467322Y-60325628D01*
X191467322Y-60325628D02*
X191391132Y-60363724D01*
X191733989Y-60820867D02*
X191657798Y-60858962D01*
X191657798Y-60858962D02*
X191467322Y-60858962D01*
X191467322Y-60858962D02*
X191391132Y-60820867D01*
X191391132Y-60820867D02*
X191353036Y-60744676D01*
X191353036Y-60744676D02*
X191353036Y-60668486D01*
X191353036Y-60668486D02*
X191391132Y-60592295D01*
X191391132Y-60592295D02*
X191467322Y-60554200D01*
X191467322Y-60554200D02*
X191657798Y-60554200D01*
X191657798Y-60554200D02*
X191733989Y-60516105D01*
X192000656Y-60325628D02*
X192305418Y-60325628D01*
X192114942Y-60058962D02*
X192114942Y-60744676D01*
X192114942Y-60744676D02*
X192153037Y-60820867D01*
X192153037Y-60820867D02*
X192229227Y-60858962D01*
X192229227Y-60858962D02*
X192305418Y-60858962D01*
X192572085Y-60858962D02*
X192572085Y-60325628D01*
X192572085Y-60058962D02*
X192533989Y-60097057D01*
X192533989Y-60097057D02*
X192572085Y-60135152D01*
X192572085Y-60135152D02*
X192610180Y-60097057D01*
X192610180Y-60097057D02*
X192572085Y-60058962D01*
X192572085Y-60058962D02*
X192572085Y-60135152D01*
X193067322Y-60858962D02*
X192991132Y-60820867D01*
X192991132Y-60820867D02*
X192953037Y-60782771D01*
X192953037Y-60782771D02*
X192914941Y-60706581D01*
X192914941Y-60706581D02*
X192914941Y-60478009D01*
X192914941Y-60478009D02*
X192953037Y-60401819D01*
X192953037Y-60401819D02*
X192991132Y-60363724D01*
X192991132Y-60363724D02*
X193067322Y-60325628D01*
X193067322Y-60325628D02*
X193181608Y-60325628D01*
X193181608Y-60325628D02*
X193257799Y-60363724D01*
X193257799Y-60363724D02*
X193295894Y-60401819D01*
X193295894Y-60401819D02*
X193333989Y-60478009D01*
X193333989Y-60478009D02*
X193333989Y-60706581D01*
X193333989Y-60706581D02*
X193295894Y-60782771D01*
X193295894Y-60782771D02*
X193257799Y-60820867D01*
X193257799Y-60820867D02*
X193181608Y-60858962D01*
X193181608Y-60858962D02*
X193067322Y-60858962D01*
X193676847Y-60325628D02*
X193676847Y-60858962D01*
X193676847Y-60401819D02*
X193714942Y-60363724D01*
X193714942Y-60363724D02*
X193791132Y-60325628D01*
X193791132Y-60325628D02*
X193905418Y-60325628D01*
X193905418Y-60325628D02*
X193981609Y-60363724D01*
X193981609Y-60363724D02*
X194019704Y-60439914D01*
X194019704Y-60439914D02*
X194019704Y-60858962D01*
D14*
X180155371Y-59867143D02*
X180155371Y-59524286D01*
X180755371Y-59695714D02*
X180155371Y-59695714D01*
X180155371Y-59381428D02*
X180755371Y-58981428D01*
X180155371Y-58981428D02*
X180755371Y-59381428D01*
D12*
X199887752Y-86987969D02*
X199849657Y-87102255D01*
X199849657Y-87102255D02*
X199811561Y-87140350D01*
X199811561Y-87140350D02*
X199735371Y-87178446D01*
X199735371Y-87178446D02*
X199621085Y-87178446D01*
X199621085Y-87178446D02*
X199544895Y-87140350D01*
X199544895Y-87140350D02*
X199506800Y-87102255D01*
X199506800Y-87102255D02*
X199468704Y-87026065D01*
X199468704Y-87026065D02*
X199468704Y-86721303D01*
X199468704Y-86721303D02*
X200268704Y-86721303D01*
X200268704Y-86721303D02*
X200268704Y-86987969D01*
X200268704Y-86987969D02*
X200230609Y-87064160D01*
X200230609Y-87064160D02*
X200192514Y-87102255D01*
X200192514Y-87102255D02*
X200116323Y-87140350D01*
X200116323Y-87140350D02*
X200040133Y-87140350D01*
X200040133Y-87140350D02*
X199963942Y-87102255D01*
X199963942Y-87102255D02*
X199925847Y-87064160D01*
X199925847Y-87064160D02*
X199887752Y-86987969D01*
X199887752Y-86987969D02*
X199887752Y-86721303D01*
X200268704Y-87673684D02*
X200268704Y-87826065D01*
X200268704Y-87826065D02*
X200230609Y-87902255D01*
X200230609Y-87902255D02*
X200154419Y-87978446D01*
X200154419Y-87978446D02*
X200002038Y-88016541D01*
X200002038Y-88016541D02*
X199735371Y-88016541D01*
X199735371Y-88016541D02*
X199582990Y-87978446D01*
X199582990Y-87978446D02*
X199506800Y-87902255D01*
X199506800Y-87902255D02*
X199468704Y-87826065D01*
X199468704Y-87826065D02*
X199468704Y-87673684D01*
X199468704Y-87673684D02*
X199506800Y-87597493D01*
X199506800Y-87597493D02*
X199582990Y-87521303D01*
X199582990Y-87521303D02*
X199735371Y-87483207D01*
X199735371Y-87483207D02*
X200002038Y-87483207D01*
X200002038Y-87483207D02*
X200154419Y-87521303D01*
X200154419Y-87521303D02*
X200230609Y-87597493D01*
X200230609Y-87597493D02*
X200268704Y-87673684D01*
X200268704Y-88511779D02*
X200268704Y-88664160D01*
X200268704Y-88664160D02*
X200230609Y-88740350D01*
X200230609Y-88740350D02*
X200154419Y-88816541D01*
X200154419Y-88816541D02*
X200002038Y-88854636D01*
X200002038Y-88854636D02*
X199735371Y-88854636D01*
X199735371Y-88854636D02*
X199582990Y-88816541D01*
X199582990Y-88816541D02*
X199506800Y-88740350D01*
X199506800Y-88740350D02*
X199468704Y-88664160D01*
X199468704Y-88664160D02*
X199468704Y-88511779D01*
X199468704Y-88511779D02*
X199506800Y-88435588D01*
X199506800Y-88435588D02*
X199582990Y-88359398D01*
X199582990Y-88359398D02*
X199735371Y-88321302D01*
X199735371Y-88321302D02*
X200002038Y-88321302D01*
X200002038Y-88321302D02*
X200154419Y-88359398D01*
X200154419Y-88359398D02*
X200230609Y-88435588D01*
X200230609Y-88435588D02*
X200268704Y-88511779D01*
X200268704Y-89083207D02*
X200268704Y-89540350D01*
X199468704Y-89311778D02*
X200268704Y-89311778D01*
D15*
X202957762Y-82081775D02*
X202691095Y-81700822D01*
X202500619Y-82081775D02*
X202500619Y-81281775D01*
X202500619Y-81281775D02*
X202805381Y-81281775D01*
X202805381Y-81281775D02*
X202881571Y-81319870D01*
X202881571Y-81319870D02*
X202919666Y-81357965D01*
X202919666Y-81357965D02*
X202957762Y-81434156D01*
X202957762Y-81434156D02*
X202957762Y-81548441D01*
X202957762Y-81548441D02*
X202919666Y-81624632D01*
X202919666Y-81624632D02*
X202881571Y-81662727D01*
X202881571Y-81662727D02*
X202805381Y-81700822D01*
X202805381Y-81700822D02*
X202500619Y-81700822D01*
X203262523Y-81853203D02*
X203643476Y-81853203D01*
X203186333Y-82081775D02*
X203453000Y-81281775D01*
X203453000Y-81281775D02*
X203719666Y-82081775D01*
X203986333Y-82081775D02*
X203986333Y-81281775D01*
X203986333Y-81281775D02*
X204176809Y-81281775D01*
X204176809Y-81281775D02*
X204291095Y-81319870D01*
X204291095Y-81319870D02*
X204367285Y-81396060D01*
X204367285Y-81396060D02*
X204405380Y-81472251D01*
X204405380Y-81472251D02*
X204443476Y-81624632D01*
X204443476Y-81624632D02*
X204443476Y-81738918D01*
X204443476Y-81738918D02*
X204405380Y-81891299D01*
X204405380Y-81891299D02*
X204367285Y-81967489D01*
X204367285Y-81967489D02*
X204291095Y-82043680D01*
X204291095Y-82043680D02*
X204176809Y-82081775D01*
X204176809Y-82081775D02*
X203986333Y-82081775D01*
D14*
X186955867Y-62051102D02*
X186955867Y-61617769D01*
X186955867Y-61741578D02*
X186986820Y-61679673D01*
X186986820Y-61679673D02*
X187017772Y-61648721D01*
X187017772Y-61648721D02*
X187079677Y-61617769D01*
X187079677Y-61617769D02*
X187141582Y-61617769D01*
X187605867Y-62020150D02*
X187543963Y-62051102D01*
X187543963Y-62051102D02*
X187420153Y-62051102D01*
X187420153Y-62051102D02*
X187358248Y-62020150D01*
X187358248Y-62020150D02*
X187327296Y-61958245D01*
X187327296Y-61958245D02*
X187327296Y-61710626D01*
X187327296Y-61710626D02*
X187358248Y-61648721D01*
X187358248Y-61648721D02*
X187420153Y-61617769D01*
X187420153Y-61617769D02*
X187543963Y-61617769D01*
X187543963Y-61617769D02*
X187605867Y-61648721D01*
X187605867Y-61648721D02*
X187636820Y-61710626D01*
X187636820Y-61710626D02*
X187636820Y-61772530D01*
X187636820Y-61772530D02*
X187327296Y-61834435D01*
X187853487Y-61617769D02*
X188008249Y-62051102D01*
X188008249Y-62051102D02*
X188163010Y-61617769D01*
X188410629Y-62051102D02*
X188410629Y-61617769D01*
X188410629Y-61401102D02*
X188379677Y-61432054D01*
X188379677Y-61432054D02*
X188410629Y-61463007D01*
X188410629Y-61463007D02*
X188441582Y-61432054D01*
X188441582Y-61432054D02*
X188410629Y-61401102D01*
X188410629Y-61401102D02*
X188410629Y-61463007D01*
X188689201Y-62020150D02*
X188751106Y-62051102D01*
X188751106Y-62051102D02*
X188874915Y-62051102D01*
X188874915Y-62051102D02*
X188936820Y-62020150D01*
X188936820Y-62020150D02*
X188967772Y-61958245D01*
X188967772Y-61958245D02*
X188967772Y-61927292D01*
X188967772Y-61927292D02*
X188936820Y-61865388D01*
X188936820Y-61865388D02*
X188874915Y-61834435D01*
X188874915Y-61834435D02*
X188782058Y-61834435D01*
X188782058Y-61834435D02*
X188720153Y-61803483D01*
X188720153Y-61803483D02*
X188689201Y-61741578D01*
X188689201Y-61741578D02*
X188689201Y-61710626D01*
X188689201Y-61710626D02*
X188720153Y-61648721D01*
X188720153Y-61648721D02*
X188782058Y-61617769D01*
X188782058Y-61617769D02*
X188874915Y-61617769D01*
X188874915Y-61617769D02*
X188936820Y-61648721D01*
X189246343Y-62051102D02*
X189246343Y-61617769D01*
X189246343Y-61401102D02*
X189215391Y-61432054D01*
X189215391Y-61432054D02*
X189246343Y-61463007D01*
X189246343Y-61463007D02*
X189277296Y-61432054D01*
X189277296Y-61432054D02*
X189246343Y-61401102D01*
X189246343Y-61401102D02*
X189246343Y-61463007D01*
X189648725Y-62051102D02*
X189586820Y-62020150D01*
X189586820Y-62020150D02*
X189555867Y-61989197D01*
X189555867Y-61989197D02*
X189524915Y-61927292D01*
X189524915Y-61927292D02*
X189524915Y-61741578D01*
X189524915Y-61741578D02*
X189555867Y-61679673D01*
X189555867Y-61679673D02*
X189586820Y-61648721D01*
X189586820Y-61648721D02*
X189648725Y-61617769D01*
X189648725Y-61617769D02*
X189741582Y-61617769D01*
X189741582Y-61617769D02*
X189803486Y-61648721D01*
X189803486Y-61648721D02*
X189834439Y-61679673D01*
X189834439Y-61679673D02*
X189865391Y-61741578D01*
X189865391Y-61741578D02*
X189865391Y-61927292D01*
X189865391Y-61927292D02*
X189834439Y-61989197D01*
X189834439Y-61989197D02*
X189803486Y-62020150D01*
X189803486Y-62020150D02*
X189741582Y-62051102D01*
X189741582Y-62051102D02*
X189648725Y-62051102D01*
X190143962Y-61617769D02*
X190143962Y-62051102D01*
X190143962Y-61679673D02*
X190174915Y-61648721D01*
X190174915Y-61648721D02*
X190236820Y-61617769D01*
X190236820Y-61617769D02*
X190329677Y-61617769D01*
X190329677Y-61617769D02*
X190391581Y-61648721D01*
X190391581Y-61648721D02*
X190422534Y-61710626D01*
X190422534Y-61710626D02*
X190422534Y-62051102D01*
X191567772Y-62051102D02*
X191196343Y-62051102D01*
X191382057Y-62051102D02*
X191382057Y-61401102D01*
X191382057Y-61401102D02*
X191320153Y-61493959D01*
X191320153Y-61493959D02*
X191258248Y-61555864D01*
X191258248Y-61555864D02*
X191196343Y-61586816D01*
X191846343Y-61989197D02*
X191877296Y-62020150D01*
X191877296Y-62020150D02*
X191846343Y-62051102D01*
X191846343Y-62051102D02*
X191815391Y-62020150D01*
X191815391Y-62020150D02*
X191846343Y-61989197D01*
X191846343Y-61989197D02*
X191846343Y-62051102D01*
X192496344Y-62051102D02*
X192124915Y-62051102D01*
X192310629Y-62051102D02*
X192310629Y-61401102D01*
X192310629Y-61401102D02*
X192248725Y-61493959D01*
X192248725Y-61493959D02*
X192186820Y-61555864D01*
X192186820Y-61555864D02*
X192124915Y-61586816D01*
X185934439Y-63097566D02*
X185934439Y-62447566D01*
X185934439Y-62447566D02*
X186182058Y-62447566D01*
X186182058Y-62447566D02*
X186243963Y-62478518D01*
X186243963Y-62478518D02*
X186274916Y-62509471D01*
X186274916Y-62509471D02*
X186305868Y-62571375D01*
X186305868Y-62571375D02*
X186305868Y-62664233D01*
X186305868Y-62664233D02*
X186274916Y-62726137D01*
X186274916Y-62726137D02*
X186243963Y-62757090D01*
X186243963Y-62757090D02*
X186182058Y-62788042D01*
X186182058Y-62788042D02*
X185934439Y-62788042D01*
X186584439Y-63097566D02*
X186584439Y-62664233D01*
X186584439Y-62788042D02*
X186615392Y-62726137D01*
X186615392Y-62726137D02*
X186646344Y-62695185D01*
X186646344Y-62695185D02*
X186708249Y-62664233D01*
X186708249Y-62664233D02*
X186770154Y-62664233D01*
X187079678Y-63097566D02*
X187017773Y-63066614D01*
X187017773Y-63066614D02*
X186986820Y-63035661D01*
X186986820Y-63035661D02*
X186955868Y-62973756D01*
X186955868Y-62973756D02*
X186955868Y-62788042D01*
X186955868Y-62788042D02*
X186986820Y-62726137D01*
X186986820Y-62726137D02*
X187017773Y-62695185D01*
X187017773Y-62695185D02*
X187079678Y-62664233D01*
X187079678Y-62664233D02*
X187172535Y-62664233D01*
X187172535Y-62664233D02*
X187234439Y-62695185D01*
X187234439Y-62695185D02*
X187265392Y-62726137D01*
X187265392Y-62726137D02*
X187296344Y-62788042D01*
X187296344Y-62788042D02*
X187296344Y-62973756D01*
X187296344Y-62973756D02*
X187265392Y-63035661D01*
X187265392Y-63035661D02*
X187234439Y-63066614D01*
X187234439Y-63066614D02*
X187172535Y-63097566D01*
X187172535Y-63097566D02*
X187079678Y-63097566D01*
X187574915Y-62664233D02*
X187574915Y-63221375D01*
X187574915Y-63221375D02*
X187543963Y-63283280D01*
X187543963Y-63283280D02*
X187482058Y-63314233D01*
X187482058Y-63314233D02*
X187451106Y-63314233D01*
X187574915Y-62447566D02*
X187543963Y-62478518D01*
X187543963Y-62478518D02*
X187574915Y-62509471D01*
X187574915Y-62509471D02*
X187605868Y-62478518D01*
X187605868Y-62478518D02*
X187574915Y-62447566D01*
X187574915Y-62447566D02*
X187574915Y-62509471D01*
X188132058Y-63066614D02*
X188070154Y-63097566D01*
X188070154Y-63097566D02*
X187946344Y-63097566D01*
X187946344Y-63097566D02*
X187884439Y-63066614D01*
X187884439Y-63066614D02*
X187853487Y-63004709D01*
X187853487Y-63004709D02*
X187853487Y-62757090D01*
X187853487Y-62757090D02*
X187884439Y-62695185D01*
X187884439Y-62695185D02*
X187946344Y-62664233D01*
X187946344Y-62664233D02*
X188070154Y-62664233D01*
X188070154Y-62664233D02*
X188132058Y-62695185D01*
X188132058Y-62695185D02*
X188163011Y-62757090D01*
X188163011Y-62757090D02*
X188163011Y-62818994D01*
X188163011Y-62818994D02*
X187853487Y-62880899D01*
X188720154Y-63066614D02*
X188658249Y-63097566D01*
X188658249Y-63097566D02*
X188534440Y-63097566D01*
X188534440Y-63097566D02*
X188472535Y-63066614D01*
X188472535Y-63066614D02*
X188441582Y-63035661D01*
X188441582Y-63035661D02*
X188410630Y-62973756D01*
X188410630Y-62973756D02*
X188410630Y-62788042D01*
X188410630Y-62788042D02*
X188441582Y-62726137D01*
X188441582Y-62726137D02*
X188472535Y-62695185D01*
X188472535Y-62695185D02*
X188534440Y-62664233D01*
X188534440Y-62664233D02*
X188658249Y-62664233D01*
X188658249Y-62664233D02*
X188720154Y-62695185D01*
X188905868Y-62664233D02*
X189153487Y-62664233D01*
X188998725Y-62447566D02*
X188998725Y-63004709D01*
X188998725Y-63004709D02*
X189029678Y-63066614D01*
X189029678Y-63066614D02*
X189091583Y-63097566D01*
X189091583Y-63097566D02*
X189153487Y-63097566D01*
X189865392Y-63097566D02*
X189865392Y-62447566D01*
X189865392Y-62447566D02*
X190236821Y-63097566D01*
X190236821Y-63097566D02*
X190236821Y-62447566D01*
X190793963Y-63066614D02*
X190732059Y-63097566D01*
X190732059Y-63097566D02*
X190608249Y-63097566D01*
X190608249Y-63097566D02*
X190546344Y-63066614D01*
X190546344Y-63066614D02*
X190515392Y-63004709D01*
X190515392Y-63004709D02*
X190515392Y-62757090D01*
X190515392Y-62757090D02*
X190546344Y-62695185D01*
X190546344Y-62695185D02*
X190608249Y-62664233D01*
X190608249Y-62664233D02*
X190732059Y-62664233D01*
X190732059Y-62664233D02*
X190793963Y-62695185D01*
X190793963Y-62695185D02*
X190824916Y-62757090D01*
X190824916Y-62757090D02*
X190824916Y-62818994D01*
X190824916Y-62818994D02*
X190515392Y-62880899D01*
X191103487Y-62664233D02*
X191103487Y-63314233D01*
X191103487Y-62695185D02*
X191165392Y-62664233D01*
X191165392Y-62664233D02*
X191289202Y-62664233D01*
X191289202Y-62664233D02*
X191351106Y-62695185D01*
X191351106Y-62695185D02*
X191382059Y-62726137D01*
X191382059Y-62726137D02*
X191413011Y-62788042D01*
X191413011Y-62788042D02*
X191413011Y-62973756D01*
X191413011Y-62973756D02*
X191382059Y-63035661D01*
X191382059Y-63035661D02*
X191351106Y-63066614D01*
X191351106Y-63066614D02*
X191289202Y-63097566D01*
X191289202Y-63097566D02*
X191165392Y-63097566D01*
X191165392Y-63097566D02*
X191103487Y-63066614D01*
X191598725Y-62664233D02*
X191846344Y-62664233D01*
X191691582Y-62447566D02*
X191691582Y-63004709D01*
X191691582Y-63004709D02*
X191722535Y-63066614D01*
X191722535Y-63066614D02*
X191784440Y-63097566D01*
X191784440Y-63097566D02*
X191846344Y-63097566D01*
X192341583Y-62664233D02*
X192341583Y-63097566D01*
X192063011Y-62664233D02*
X192063011Y-63004709D01*
X192063011Y-63004709D02*
X192093964Y-63066614D01*
X192093964Y-63066614D02*
X192155869Y-63097566D01*
X192155869Y-63097566D02*
X192248726Y-63097566D01*
X192248726Y-63097566D02*
X192310630Y-63066614D01*
X192310630Y-63066614D02*
X192341583Y-63035661D01*
X192651106Y-62664233D02*
X192651106Y-63097566D01*
X192651106Y-62726137D02*
X192682059Y-62695185D01*
X192682059Y-62695185D02*
X192743964Y-62664233D01*
X192743964Y-62664233D02*
X192836821Y-62664233D01*
X192836821Y-62664233D02*
X192898725Y-62695185D01*
X192898725Y-62695185D02*
X192929678Y-62757090D01*
X192929678Y-62757090D02*
X192929678Y-63097566D01*
X193486820Y-63066614D02*
X193424916Y-63097566D01*
X193424916Y-63097566D02*
X193301106Y-63097566D01*
X193301106Y-63097566D02*
X193239201Y-63066614D01*
X193239201Y-63066614D02*
X193208249Y-63004709D01*
X193208249Y-63004709D02*
X193208249Y-62757090D01*
X193208249Y-62757090D02*
X193239201Y-62695185D01*
X193239201Y-62695185D02*
X193301106Y-62664233D01*
X193301106Y-62664233D02*
X193424916Y-62664233D01*
X193424916Y-62664233D02*
X193486820Y-62695185D01*
X193486820Y-62695185D02*
X193517773Y-62757090D01*
X193517773Y-62757090D02*
X193517773Y-62818994D01*
X193517773Y-62818994D02*
X193208249Y-62880899D01*
D15*
X202500618Y-76643680D02*
X202614904Y-76681775D01*
X202614904Y-76681775D02*
X202805380Y-76681775D01*
X202805380Y-76681775D02*
X202881571Y-76643680D01*
X202881571Y-76643680D02*
X202919666Y-76605584D01*
X202919666Y-76605584D02*
X202957761Y-76529394D01*
X202957761Y-76529394D02*
X202957761Y-76453203D01*
X202957761Y-76453203D02*
X202919666Y-76377013D01*
X202919666Y-76377013D02*
X202881571Y-76338918D01*
X202881571Y-76338918D02*
X202805380Y-76300822D01*
X202805380Y-76300822D02*
X202652999Y-76262727D01*
X202652999Y-76262727D02*
X202576809Y-76224632D01*
X202576809Y-76224632D02*
X202538714Y-76186537D01*
X202538714Y-76186537D02*
X202500618Y-76110346D01*
X202500618Y-76110346D02*
X202500618Y-76034156D01*
X202500618Y-76034156D02*
X202538714Y-75957965D01*
X202538714Y-75957965D02*
X202576809Y-75919870D01*
X202576809Y-75919870D02*
X202652999Y-75881775D01*
X202652999Y-75881775D02*
X202843476Y-75881775D01*
X202843476Y-75881775D02*
X202957761Y-75919870D01*
X203453000Y-76300822D02*
X203453000Y-76681775D01*
X203186333Y-75881775D02*
X203453000Y-76300822D01*
X203453000Y-76300822D02*
X203719666Y-75881775D01*
X203948237Y-76643680D02*
X204062523Y-76681775D01*
X204062523Y-76681775D02*
X204252999Y-76681775D01*
X204252999Y-76681775D02*
X204329190Y-76643680D01*
X204329190Y-76643680D02*
X204367285Y-76605584D01*
X204367285Y-76605584D02*
X204405380Y-76529394D01*
X204405380Y-76529394D02*
X204405380Y-76453203D01*
X204405380Y-76453203D02*
X204367285Y-76377013D01*
X204367285Y-76377013D02*
X204329190Y-76338918D01*
X204329190Y-76338918D02*
X204252999Y-76300822D01*
X204252999Y-76300822D02*
X204100618Y-76262727D01*
X204100618Y-76262727D02*
X204024428Y-76224632D01*
X204024428Y-76224632D02*
X203986333Y-76186537D01*
X203986333Y-76186537D02*
X203948237Y-76110346D01*
X203948237Y-76110346D02*
X203948237Y-76034156D01*
X203948237Y-76034156D02*
X203986333Y-75957965D01*
X203986333Y-75957965D02*
X204024428Y-75919870D01*
X204024428Y-75919870D02*
X204100618Y-75881775D01*
X204100618Y-75881775D02*
X204291095Y-75881775D01*
X204291095Y-75881775D02*
X204405380Y-75919870D01*
D14*
X180745371Y-57219999D02*
X180459657Y-57419999D01*
X180745371Y-57562856D02*
X180145371Y-57562856D01*
X180145371Y-57562856D02*
X180145371Y-57334285D01*
X180145371Y-57334285D02*
X180173942Y-57277142D01*
X180173942Y-57277142D02*
X180202514Y-57248571D01*
X180202514Y-57248571D02*
X180259657Y-57219999D01*
X180259657Y-57219999D02*
X180345371Y-57219999D01*
X180345371Y-57219999D02*
X180402514Y-57248571D01*
X180402514Y-57248571D02*
X180431085Y-57277142D01*
X180431085Y-57277142D02*
X180459657Y-57334285D01*
X180459657Y-57334285D02*
X180459657Y-57562856D01*
X180145371Y-57019999D02*
X180745371Y-56619999D01*
X180145371Y-56619999D02*
X180745371Y-57019999D01*
D16*
%TO.C,C7*%
X200137420Y-56610000D02*
X200418580Y-56610000D01*
X200137420Y-57630000D02*
X200418580Y-57630000D01*
%TO.C,C1*%
X176443000Y-66079420D02*
X176443000Y-66360580D01*
X177463000Y-66079420D02*
X177463000Y-66360580D01*
D17*
%TO.C,SW2*%
X171829000Y-86088000D02*
X172272000Y-86088000D01*
X171829000Y-90152000D02*
X171829000Y-86088000D01*
X172272000Y-90152000D02*
X171829000Y-90152000D01*
X172337000Y-86913500D02*
X174369000Y-86913500D01*
X172337000Y-89326500D02*
X172337000Y-86913500D01*
X174369000Y-86913500D02*
X174369000Y-89326500D01*
X174369000Y-89326500D02*
X172337000Y-89326500D01*
X174434000Y-86088000D02*
X174877000Y-86088000D01*
X174877000Y-86088000D02*
X174877000Y-90152000D01*
X174877000Y-90152000D02*
X174434000Y-90152000D01*
X173980000Y-88125500D02*
G75*
G02*
X172730000Y-88125500I-625000J0D01*
G01*
X172730000Y-88125500D02*
G75*
G02*
X173980000Y-88125500I625000J0D01*
G01*
D16*
%TO.C,R1*%
X175915742Y-68197500D02*
X176390258Y-68197500D01*
X175915742Y-69242500D02*
X176390258Y-69242500D01*
D17*
%TO.C,SW1*%
X200829000Y-86088000D02*
X201272000Y-86088000D01*
X200829000Y-90152000D02*
X200829000Y-86088000D01*
X201272000Y-90152000D02*
X200829000Y-90152000D01*
X201337000Y-86913500D02*
X203369000Y-86913500D01*
X201337000Y-89326500D02*
X201337000Y-86913500D01*
X203369000Y-86913500D02*
X203369000Y-89326500D01*
X203369000Y-89326500D02*
X201337000Y-89326500D01*
X203434000Y-86088000D02*
X203877000Y-86088000D01*
X203877000Y-86088000D02*
X203877000Y-90152000D01*
X203877000Y-90152000D02*
X203434000Y-90152000D01*
X202980000Y-88125500D02*
G75*
G02*
X201730000Y-88125500I-625000J0D01*
G01*
X201730000Y-88125500D02*
G75*
G02*
X202980000Y-88125500I625000J0D01*
G01*
D16*
%TO.C,R6*%
X176699359Y-81690000D02*
X177006641Y-81690000D01*
X176699359Y-82450000D02*
X177006641Y-82450000D01*
%TO.C,R9*%
X177780258Y-52907500D02*
X177305742Y-52907500D01*
X177780258Y-53952500D02*
X177305742Y-53952500D01*
%TO.C,R2*%
X174140258Y-83747500D02*
X173665742Y-83747500D01*
X174140258Y-84792500D02*
X173665742Y-84792500D01*
%TO.C,R7*%
X200477758Y-77397500D02*
X200003242Y-77397500D01*
X200477758Y-78442500D02*
X200003242Y-78442500D01*
%TO.C,U2*%
X198718000Y-59060500D02*
X198768000Y-59060500D01*
X198718000Y-60880500D02*
X198718000Y-59060500D01*
X198768000Y-60880500D02*
X198718000Y-60880500D01*
X200668000Y-60880500D02*
X199888000Y-60880500D01*
X201788000Y-59060500D02*
X201838000Y-59060500D01*
X201838000Y-59060500D02*
X201838000Y-60880500D01*
X201838000Y-60880500D02*
X201788000Y-60880500D01*
%TO.C,C2*%
X174398000Y-65958748D02*
X174398000Y-66481252D01*
X175868000Y-65958748D02*
X175868000Y-66481252D01*
%TO.C,D1*%
X202633000Y-80855000D02*
X204918000Y-80855000D01*
X204918000Y-79385000D02*
X202633000Y-79385000D01*
X204918000Y-80855000D02*
X204918000Y-79385000D01*
D18*
%TO.C,J2*%
X184803000Y-92510000D02*
X184803000Y-94810000D01*
X184803000Y-94810000D02*
X184803000Y-94590000D01*
X186703000Y-96710000D02*
X189003000Y-96710000D01*
X189003000Y-90610000D02*
X186703000Y-90610000D01*
X190903000Y-94620000D02*
X190903000Y-94810000D01*
X190903000Y-94810000D02*
X190903000Y-92510000D01*
D17*
%TO.C,SW3*%
X172873000Y-54680000D02*
X176873000Y-54680000D01*
X172873000Y-55649000D02*
X172873000Y-54680000D01*
X172873000Y-57649000D02*
X172873000Y-56911000D01*
X172873000Y-59649000D02*
X172873000Y-58911000D01*
X172873000Y-61880000D02*
X172873000Y-60911000D01*
X172873000Y-61880000D02*
X176873000Y-61880000D01*
X173873000Y-56280000D02*
X174173500Y-56280000D01*
X173873000Y-58280000D02*
X175873000Y-58280000D01*
X173873000Y-60280000D02*
X173873000Y-56280000D01*
X174173500Y-60280000D02*
X173873000Y-60280000D01*
X175572500Y-56280000D02*
X175873000Y-56280000D01*
X175873000Y-56280000D02*
X175873000Y-60280000D01*
X175873000Y-60280000D02*
X175572500Y-60280000D01*
X176873000Y-55649000D02*
X176873000Y-54680000D01*
X176873000Y-57649000D02*
X176873000Y-56911000D01*
X176873000Y-59649000D02*
X176873000Y-58911000D01*
X176873000Y-61880000D02*
X176873000Y-60911000D01*
D19*
G36*
X175881500Y-58261500D02*
G01*
X173881500Y-58261500D01*
X173881500Y-56261500D01*
X175881500Y-56261500D01*
X175881500Y-58261500D01*
G37*
D16*
%TO.C,C11*%
X196543000Y-55479420D02*
X196543000Y-55760580D01*
X197563000Y-55479420D02*
X197563000Y-55760580D01*
D17*
%TO.C,J3*%
X183281000Y-48288000D02*
X192425000Y-48288000D01*
X183281000Y-50139000D02*
X183281000Y-48288000D01*
X183281000Y-54489000D02*
X183281000Y-52101000D01*
X184122000Y-55781000D02*
X183759000Y-55781000D01*
X191947000Y-55781000D02*
X191584000Y-55781000D01*
X192425000Y-48288000D02*
X192425000Y-50139000D01*
X192425000Y-52101000D02*
X192425000Y-54489000D01*
D16*
%TO.C,C8*%
X200137420Y-62303000D02*
X200418580Y-62303000D01*
X200137420Y-63323000D02*
X200418580Y-63323000D01*
%TO.C,R10*%
X177305742Y-62517500D02*
X177780258Y-62517500D01*
X177305742Y-63562500D02*
X177780258Y-63562500D01*
%TO.C,C4*%
X171143000Y-83685580D02*
X171143000Y-83404420D01*
X172163000Y-83685580D02*
X172163000Y-83404420D01*
%TO.C,D2*%
X202633000Y-78655000D02*
X204918000Y-78655000D01*
X204918000Y-77185000D02*
X202633000Y-77185000D01*
X204918000Y-78655000D02*
X204918000Y-77185000D01*
%TO.C,C3*%
X176343000Y-71160580D02*
X176343000Y-70879420D01*
X177363000Y-71160580D02*
X177363000Y-70879420D01*
%TO.C,R5*%
X176699359Y-80440000D02*
X177006641Y-80440000D01*
X176699359Y-81200000D02*
X177006641Y-81200000D01*
%TO.C,C10*%
X194943000Y-55760580D02*
X194943000Y-55479420D01*
X195963000Y-55760580D02*
X195963000Y-55479420D01*
D20*
%TO.C,U1*%
X179315500Y-64260000D02*
X197315500Y-64260000D01*
X179315500Y-64680000D02*
X179315500Y-64260000D01*
X179315500Y-83460000D02*
X179315500Y-82730000D01*
X180560500Y-83460000D02*
X179315500Y-83460000D01*
X197315500Y-64260000D02*
X197315500Y-64680000D01*
X197315500Y-83460000D02*
X196070500Y-83460000D01*
X197315500Y-83460000D02*
X197315500Y-82730000D01*
D16*
%TO.C,R8*%
X200477758Y-79597500D02*
X200003242Y-79597500D01*
X200477758Y-80642500D02*
X200003242Y-80642500D01*
%TD*%
M02*
