%TF.GenerationSoftware,KiCad,Pcbnew,9.0.6*%
%TF.CreationDate,2025-12-15T08:35:58+01:00*%
%TF.ProjectId,neptune-gnd,6e657074-756e-4652-9d67-6e642e6b6963,rev?*%
%TF.SameCoordinates,Original*%
%TF.FileFunction,Legend,Top*%
%TF.FilePolarity,Positive*%
%FSLAX46Y46*%
G04 Gerber Fmt 4.6, Leading zero omitted, Abs format (unit mm)*
G04 Created by KiCad (PCBNEW 9.0.6) date 2025-12-15 08:35:58*
%MOMM*%
%LPD*%
G01*
G04 APERTURE LIST*
%ADD10C,0.120000*%
%ADD11C,0.254000*%
%ADD12C,0.250000*%
%ADD13C,0.127000*%
G04 APERTURE END LIST*
D10*
%TO.C,C7*%
X111601500Y-41682420D02*
X111601500Y-41963580D01*
X112621500Y-41682420D02*
X112621500Y-41963580D01*
%TO.C,C1*%
X113518580Y-49358000D02*
X113237420Y-49358000D01*
X113518580Y-50378000D02*
X113237420Y-50378000D01*
D11*
%TO.C,SW2*%
X113171000Y-92891000D02*
X113614000Y-92891000D01*
X113171000Y-96955000D02*
X113171000Y-92891000D01*
X113614000Y-96955000D02*
X113171000Y-96955000D01*
X113679000Y-93716500D02*
X115711000Y-93716500D01*
X113679000Y-96129500D02*
X113679000Y-93716500D01*
X115711000Y-93716500D02*
X115711000Y-96129500D01*
X115711000Y-96129500D02*
X113679000Y-96129500D01*
X115776000Y-92891000D02*
X116219000Y-92891000D01*
X116219000Y-92891000D02*
X116219000Y-96955000D01*
X116219000Y-96955000D02*
X115776000Y-96955000D01*
X115322000Y-94928500D02*
G75*
G02*
X114072000Y-94928500I-625000J0D01*
G01*
X114072000Y-94928500D02*
G75*
G02*
X115322000Y-94928500I625000J0D01*
G01*
%TO.C,SW1*%
X94487000Y-92891000D02*
X94930000Y-92891000D01*
X94487000Y-96955000D02*
X94487000Y-92891000D01*
X94930000Y-96955000D02*
X94487000Y-96955000D01*
X94995000Y-93716500D02*
X97027000Y-93716500D01*
X94995000Y-96129500D02*
X94995000Y-93716500D01*
X97027000Y-93716500D02*
X97027000Y-96129500D01*
X97027000Y-96129500D02*
X94995000Y-96129500D01*
X97092000Y-92891000D02*
X97535000Y-92891000D01*
X97535000Y-92891000D02*
X97535000Y-96955000D01*
X97535000Y-96955000D02*
X97092000Y-96955000D01*
X96638000Y-94928500D02*
G75*
G02*
X95388000Y-94928500I-625000J0D01*
G01*
X95388000Y-94928500D02*
G75*
G02*
X96638000Y-94928500I625000J0D01*
G01*
D10*
%TO.C,R6*%
X97123000Y-49561359D02*
X97123000Y-49868641D01*
X97883000Y-49561359D02*
X97883000Y-49868641D01*
%TO.C,R2*%
X115694258Y-90500500D02*
X115219742Y-90500500D01*
X115694258Y-91545500D02*
X115219742Y-91545500D01*
%TO.C,U2*%
X114052000Y-40767000D02*
X115872000Y-40767000D01*
X114052000Y-40817000D02*
X114052000Y-40767000D01*
X114052000Y-43887000D02*
X114052000Y-43837000D01*
X115872000Y-40767000D02*
X115872000Y-40817000D01*
X115872000Y-41937000D02*
X115872000Y-42717000D01*
X115872000Y-43837000D02*
X115872000Y-43887000D01*
X115872000Y-43887000D02*
X114052000Y-43887000D01*
%TO.C,C2*%
X113639252Y-47313000D02*
X113116748Y-47313000D01*
X113639252Y-48783000D02*
X113116748Y-48783000D01*
D12*
%TO.C,J2*%
X102303000Y-93126000D02*
X102303000Y-95426000D01*
X102303000Y-95426000D02*
X102303000Y-95206000D01*
X104203000Y-97326000D02*
X106503000Y-97326000D01*
X106503000Y-91226000D02*
X104203000Y-91226000D01*
X108403000Y-95236000D02*
X108403000Y-95426000D01*
X108403000Y-95426000D02*
X108403000Y-93126000D01*
%TO.C,USB1*%
X100783000Y-39404500D02*
X100783000Y-40874500D01*
X100783000Y-42834500D02*
X100783000Y-44824500D01*
X100853000Y-39254500D02*
X109853000Y-39254500D01*
X109853000Y-39254500D02*
X109853000Y-40874500D01*
X109853000Y-42834500D02*
X109853000Y-44824500D01*
D10*
%TO.C,C8*%
X117294500Y-42209580D02*
X117294500Y-41928420D01*
X118314500Y-42209580D02*
X118314500Y-41928420D01*
%TO.C,U3*%
X97253000Y-72900000D02*
X97253000Y-73300000D01*
X97253000Y-72900000D02*
X113453000Y-72900000D01*
X97253000Y-88700000D02*
X97253000Y-89100000D01*
X97253000Y-89100000D02*
X113453000Y-89100000D01*
X113453000Y-72900000D02*
X113453000Y-73300000D01*
X113453000Y-89100000D02*
X113453000Y-88700000D01*
%TO.C,C4*%
X117053000Y-94782420D02*
X117053000Y-95063580D01*
X118073000Y-94782420D02*
X118073000Y-95063580D01*
%TO.C,C6*%
X94783000Y-82064420D02*
X94783000Y-82345580D01*
X95803000Y-82064420D02*
X95803000Y-82345580D01*
%TO.C,C9*%
X116039420Y-79490000D02*
X116320580Y-79490000D01*
X116039420Y-80510000D02*
X116320580Y-80510000D01*
%TO.C,C5*%
X93236000Y-82064420D02*
X93236000Y-82345580D01*
X94256000Y-82064420D02*
X94256000Y-82345580D01*
%TO.C,R5*%
X98393000Y-49561359D02*
X98393000Y-49868641D01*
X99153000Y-49561359D02*
X99153000Y-49868641D01*
D13*
%TO.C,U1*%
X96003000Y-51503000D02*
X96733000Y-51503000D01*
X96003000Y-52748000D02*
X96003000Y-51503000D01*
X96003000Y-69503000D02*
X96003000Y-68258000D01*
X96003000Y-69503000D02*
X96733000Y-69503000D01*
X114783000Y-51503000D02*
X115203000Y-51503000D01*
X115203000Y-51503000D02*
X115203000Y-69503000D01*
X115203000Y-69503000D02*
X114783000Y-69503000D01*
%TD*%
M02*
