%TF.GenerationSoftware,KiCad,Pcbnew,9.0.6*%
%TF.CreationDate,2025-12-28T22:37:44+01:00*%
%TF.ProjectId,neptune-gnd,6e657074-756e-4652-9d67-6e642e6b6963,rev?*%
%TF.SameCoordinates,Original*%
%TF.FileFunction,Copper,L2,Inr*%
%TF.FilePolarity,Positive*%
%FSLAX46Y46*%
G04 Gerber Fmt 4.6, Leading zero omitted, Abs format (unit mm)*
G04 Created by KiCad (PCBNEW 9.0.6) date 2025-12-28 22:37:44*
%MOMM*%
%LPD*%
G01*
G04 APERTURE LIST*
%TA.AperFunction,ComponentPad*%
%ADD10C,2.600000*%
%TD*%
%TA.AperFunction,ComponentPad*%
%ADD11C,2.500000*%
%TD*%
%TA.AperFunction,ViaPad*%
%ADD12C,0.600000*%
%TD*%
G04 APERTURE END LIST*
D10*
%TO.N,N/C*%
%TO.C,H3*%
X173353000Y-95120000D03*
%TD*%
D11*
%TO.N,Net-(J2-In)*%
%TO.C,J2*%
X187853000Y-93660000D03*
%TO.N,GND*%
X185313000Y-96200000D03*
X190393000Y-96200000D03*
X185313000Y-91120000D03*
X190393000Y-91120000D03*
%TD*%
D10*
%TO.N,N/C*%
%TO.C,H2*%
X173353000Y-51120000D03*
%TD*%
%TO.N,N/C*%
%TO.C,H1*%
X202353000Y-51120000D03*
%TD*%
%TO.N,N/C*%
%TO.C,H4*%
X202353000Y-95120000D03*
%TD*%
D12*
%TO.N,GND*%
X173353000Y-88120000D03*
X198253000Y-54870000D03*
X191553000Y-51120000D03*
X200703000Y-69696000D03*
X172253000Y-64020000D03*
X193553000Y-66520000D03*
X183403000Y-88570000D03*
X184653000Y-56920000D03*
X186923000Y-87380000D03*
X188773000Y-90040000D03*
X200703000Y-68149000D03*
X181053000Y-55320000D03*
X186553000Y-62020000D03*
X176853000Y-72720000D03*
X177053000Y-95620000D03*
X179753000Y-91720000D03*
X186923000Y-90040000D03*
X179053000Y-50020000D03*
X203653000Y-65420000D03*
X201603000Y-75120000D03*
X198953000Y-85120000D03*
X203953000Y-58420000D03*
X186923000Y-88045000D03*
X188773000Y-87380000D03*
X186923000Y-88710000D03*
X191153000Y-88420000D03*
X188773000Y-88710000D03*
X177253000Y-89520000D03*
X184953000Y-64620000D03*
X172153000Y-70070000D03*
X181953000Y-95420000D03*
X197953000Y-50420000D03*
X184053000Y-51120000D03*
X188773000Y-88045000D03*
X198533000Y-65450000D03*
X188553000Y-77520000D03*
X202353000Y-91570000D03*
X195553000Y-93020000D03*
X173353000Y-91520000D03*
X197553000Y-90320000D03*
X186815500Y-75657500D03*
X204303000Y-83120000D03*
X201653000Y-71720000D03*
X198453000Y-62820000D03*
X188773000Y-89375000D03*
X194453000Y-86420000D03*
X197853000Y-95820000D03*
X172353000Y-76020000D03*
X195253000Y-59820000D03*
X202353000Y-88120000D03*
X202053000Y-57120000D03*
X186923000Y-89375000D03*
X173903000Y-65270000D03*
X182153000Y-58520000D03*
X171653000Y-81570000D03*
X187653000Y-67120000D03*
%TO.N,+3.3V*%
X181853000Y-88570000D03*
X204303000Y-68149000D03*
X201053000Y-63770000D03*
X173903000Y-67170000D03*
X174873000Y-58280000D03*
%TO.N,/SPI_MISO*%
X201053000Y-74020000D03*
X189313000Y-74970000D03*
%TO.N,/SPI_MOSI*%
X189313000Y-74170000D03*
X198703000Y-74370000D03*
%TO.N,/SPI_CLK*%
X189313000Y-73120000D03*
X198703000Y-73070000D03*
%TO.N,/LORA_DIO0*%
X177653000Y-87220000D03*
%TO.N,/USB_DP*%
X187603000Y-57070000D03*
X175553000Y-82070000D03*
%TO.N,/SD_CS*%
X198703000Y-76920000D03*
%TO.N,/LORA_Reset*%
X183653000Y-67970000D03*
%TO.N,/CS_LORA*%
X189313000Y-72070000D03*
%TO.N,Net-(J3-CC2)*%
X187053000Y-53820000D03*
%TO.N,Net-(J3-CC1)*%
X188153000Y-53820000D03*
%TO.N,/USB_DN*%
X188103000Y-54670000D03*
X175553000Y-80820000D03*
%TD*%
%TA.AperFunction,Conductor*%
%TO.N,+3.3V*%
G36*
X204359061Y-48421097D02*
G01*
X204477317Y-48432744D01*
X204501145Y-48437483D01*
X204609005Y-48470202D01*
X204631453Y-48479501D01*
X204730849Y-48532629D01*
X204751059Y-48546133D01*
X204838179Y-48617630D01*
X204855369Y-48634820D01*
X204926866Y-48721940D01*
X204940370Y-48742150D01*
X204993495Y-48841538D01*
X205002798Y-48863997D01*
X205035514Y-48971848D01*
X205040256Y-48995688D01*
X205051903Y-49113937D01*
X205052500Y-49126092D01*
X205052500Y-82438059D01*
X205032815Y-82505098D01*
X204980011Y-82550853D01*
X204910853Y-82560797D01*
X204847297Y-82531772D01*
X204840819Y-82525740D01*
X204813292Y-82498213D01*
X204813288Y-82498210D01*
X204682185Y-82410609D01*
X204682172Y-82410602D01*
X204536501Y-82350264D01*
X204536489Y-82350261D01*
X204381845Y-82319500D01*
X204381842Y-82319500D01*
X204224158Y-82319500D01*
X204224155Y-82319500D01*
X204069510Y-82350261D01*
X204069498Y-82350264D01*
X203923827Y-82410602D01*
X203923814Y-82410609D01*
X203792711Y-82498210D01*
X203792707Y-82498213D01*
X203681213Y-82609707D01*
X203681210Y-82609711D01*
X203593609Y-82740814D01*
X203593602Y-82740827D01*
X203533264Y-82886498D01*
X203533261Y-82886510D01*
X203502500Y-83041153D01*
X203502500Y-83198846D01*
X203533261Y-83353489D01*
X203533264Y-83353501D01*
X203593602Y-83499172D01*
X203593609Y-83499185D01*
X203681210Y-83630288D01*
X203681213Y-83630292D01*
X203792707Y-83741786D01*
X203792711Y-83741789D01*
X203923814Y-83829390D01*
X203923827Y-83829397D01*
X204069498Y-83889735D01*
X204069503Y-83889737D01*
X204224153Y-83920499D01*
X204224156Y-83920500D01*
X204224158Y-83920500D01*
X204381844Y-83920500D01*
X204381845Y-83920499D01*
X204536497Y-83889737D01*
X204682179Y-83829394D01*
X204813289Y-83741789D01*
X204813292Y-83741786D01*
X204840819Y-83714260D01*
X204902142Y-83680775D01*
X204971834Y-83685759D01*
X205027767Y-83727631D01*
X205052184Y-83793095D01*
X205052500Y-83801941D01*
X205052500Y-97113907D01*
X205051903Y-97126061D01*
X205051903Y-97126062D01*
X205040256Y-97244311D01*
X205035514Y-97268151D01*
X205002798Y-97376002D01*
X204993495Y-97398461D01*
X204940370Y-97497849D01*
X204926866Y-97518059D01*
X204855369Y-97605179D01*
X204838179Y-97622369D01*
X204751059Y-97693866D01*
X204730849Y-97707370D01*
X204631461Y-97760495D01*
X204609002Y-97769798D01*
X204501151Y-97802514D01*
X204477311Y-97807256D01*
X204390215Y-97815834D01*
X204359060Y-97818903D01*
X204346907Y-97819500D01*
X191523229Y-97819500D01*
X191456190Y-97799815D01*
X191410435Y-97747011D01*
X191400491Y-97677853D01*
X191429516Y-97614297D01*
X191447742Y-97597125D01*
X191471437Y-97578942D01*
X191549661Y-97518919D01*
X191549665Y-97518914D01*
X191549670Y-97518911D01*
X191711911Y-97356670D01*
X191711914Y-97356665D01*
X191711919Y-97356661D01*
X191851611Y-97174612D01*
X191966344Y-96975888D01*
X192054158Y-96763887D01*
X192113548Y-96542238D01*
X192143500Y-96314734D01*
X192143500Y-96085266D01*
X192113548Y-95857762D01*
X192082303Y-95741153D01*
X197052500Y-95741153D01*
X197052500Y-95898846D01*
X197083261Y-96053489D01*
X197083264Y-96053501D01*
X197143602Y-96199172D01*
X197143609Y-96199185D01*
X197231210Y-96330288D01*
X197231213Y-96330292D01*
X197342707Y-96441786D01*
X197342711Y-96441789D01*
X197473814Y-96529390D01*
X197473827Y-96529397D01*
X197619498Y-96589735D01*
X197619503Y-96589737D01*
X197772997Y-96620269D01*
X197774153Y-96620499D01*
X197774156Y-96620500D01*
X197774158Y-96620500D01*
X197931844Y-96620500D01*
X197931845Y-96620499D01*
X198086497Y-96589737D01*
X198232179Y-96529394D01*
X198363289Y-96441789D01*
X198474789Y-96330289D01*
X198562394Y-96199179D01*
X198622737Y-96053497D01*
X198653500Y-95898842D01*
X198653500Y-95741158D01*
X198653500Y-95741155D01*
X198653499Y-95741153D01*
X198645311Y-95699991D01*
X198622737Y-95586503D01*
X198603955Y-95541158D01*
X198562397Y-95440827D01*
X198562390Y-95440814D01*
X198474789Y-95309711D01*
X198474786Y-95309707D01*
X198363292Y-95198213D01*
X198363288Y-95198210D01*
X198232185Y-95110609D01*
X198232173Y-95110603D01*
X198086501Y-95050264D01*
X198086489Y-95050261D01*
X197931845Y-95019500D01*
X197931842Y-95019500D01*
X197774158Y-95019500D01*
X197774155Y-95019500D01*
X197619510Y-95050261D01*
X197619498Y-95050264D01*
X197473827Y-95110602D01*
X197473814Y-95110609D01*
X197342711Y-95198210D01*
X197342707Y-95198213D01*
X197231213Y-95309707D01*
X197231210Y-95309711D01*
X197143609Y-95440814D01*
X197143602Y-95440827D01*
X197083264Y-95586498D01*
X197083261Y-95586510D01*
X197052500Y-95741153D01*
X192082303Y-95741153D01*
X192054158Y-95636113D01*
X191973265Y-95440821D01*
X191966349Y-95424123D01*
X191966346Y-95424117D01*
X191966344Y-95424112D01*
X191851611Y-95225388D01*
X191851608Y-95225385D01*
X191851607Y-95225382D01*
X191711918Y-95043338D01*
X191711911Y-95043330D01*
X191670576Y-95001995D01*
X200552500Y-95001995D01*
X200552500Y-95238004D01*
X200552501Y-95238020D01*
X200577000Y-95424113D01*
X200583307Y-95472014D01*
X200601833Y-95541153D01*
X200644394Y-95699993D01*
X200734714Y-95918045D01*
X200734719Y-95918056D01*
X200781552Y-95999172D01*
X200852727Y-96122450D01*
X200852729Y-96122453D01*
X200852730Y-96122454D01*
X200996406Y-96309697D01*
X200996412Y-96309704D01*
X201163295Y-96476587D01*
X201163301Y-96476592D01*
X201350550Y-96620273D01*
X201481918Y-96696118D01*
X201554943Y-96738280D01*
X201554948Y-96738282D01*
X201554951Y-96738284D01*
X201773007Y-96828606D01*
X202000986Y-96889693D01*
X202234989Y-96920500D01*
X202234996Y-96920500D01*
X202471004Y-96920500D01*
X202471011Y-96920500D01*
X202705014Y-96889693D01*
X202932993Y-96828606D01*
X203151049Y-96738284D01*
X203355450Y-96620273D01*
X203542699Y-96476592D01*
X203709592Y-96309699D01*
X203853273Y-96122450D01*
X203971284Y-95918049D01*
X204061606Y-95699993D01*
X204122693Y-95472014D01*
X204153500Y-95238011D01*
X204153500Y-95001989D01*
X204122693Y-94767986D01*
X204061606Y-94540007D01*
X203971284Y-94321951D01*
X203971282Y-94321948D01*
X203971280Y-94321943D01*
X203929118Y-94248918D01*
X203853273Y-94117550D01*
X203709592Y-93930301D01*
X203709587Y-93930295D01*
X203542704Y-93763412D01*
X203542697Y-93763406D01*
X203355454Y-93619730D01*
X203355453Y-93619729D01*
X203355450Y-93619727D01*
X203273957Y-93572677D01*
X203151056Y-93501719D01*
X203151045Y-93501714D01*
X202932993Y-93411394D01*
X202705014Y-93350307D01*
X202705013Y-93350306D01*
X202705010Y-93350306D01*
X202471020Y-93319501D01*
X202471017Y-93319500D01*
X202471011Y-93319500D01*
X202234989Y-93319500D01*
X202234983Y-93319500D01*
X202234979Y-93319501D01*
X202000989Y-93350306D01*
X201773006Y-93411394D01*
X201554954Y-93501714D01*
X201554943Y-93501719D01*
X201350545Y-93619730D01*
X201163302Y-93763406D01*
X201163295Y-93763412D01*
X200996412Y-93930295D01*
X200996406Y-93930302D01*
X200852730Y-94117545D01*
X200734719Y-94321943D01*
X200734714Y-94321954D01*
X200644394Y-94540006D01*
X200583306Y-94767989D01*
X200552501Y-95001979D01*
X200552500Y-95001995D01*
X191670576Y-95001995D01*
X191549670Y-94881089D01*
X191549661Y-94881081D01*
X191367617Y-94741392D01*
X191168890Y-94626657D01*
X191168876Y-94626650D01*
X190956887Y-94538842D01*
X190905257Y-94525008D01*
X190735238Y-94479452D01*
X190697215Y-94474446D01*
X190507741Y-94449500D01*
X190507734Y-94449500D01*
X190278266Y-94449500D01*
X190278258Y-94449500D01*
X190061715Y-94478009D01*
X190050762Y-94479452D01*
X190024548Y-94486476D01*
X189829112Y-94538842D01*
X189617123Y-94626650D01*
X189617113Y-94626655D01*
X189566522Y-94655864D01*
X189498622Y-94672336D01*
X189432595Y-94649483D01*
X189389405Y-94594561D01*
X189382764Y-94525008D01*
X189397134Y-94486480D01*
X189426344Y-94435888D01*
X189514158Y-94223887D01*
X189573548Y-94002238D01*
X189603500Y-93774734D01*
X189603500Y-93545266D01*
X189573548Y-93317762D01*
X189514158Y-93096113D01*
X189449971Y-92941153D01*
X194752500Y-92941153D01*
X194752500Y-93098846D01*
X194783261Y-93253489D01*
X194783264Y-93253501D01*
X194843602Y-93399172D01*
X194843609Y-93399185D01*
X194931210Y-93530288D01*
X194931213Y-93530292D01*
X195042707Y-93641786D01*
X195042711Y-93641789D01*
X195173814Y-93729390D01*
X195173827Y-93729397D01*
X195255948Y-93763412D01*
X195319503Y-93789737D01*
X195474153Y-93820499D01*
X195474156Y-93820500D01*
X195474158Y-93820500D01*
X195631844Y-93820500D01*
X195631845Y-93820499D01*
X195786497Y-93789737D01*
X195932179Y-93729394D01*
X196063289Y-93641789D01*
X196174789Y-93530289D01*
X196262394Y-93399179D01*
X196322737Y-93253497D01*
X196353500Y-93098842D01*
X196353500Y-92941158D01*
X196353500Y-92941155D01*
X196353499Y-92941153D01*
X196342155Y-92884123D01*
X196322737Y-92786503D01*
X196284150Y-92693344D01*
X196262397Y-92640827D01*
X196262390Y-92640814D01*
X196174789Y-92509711D01*
X196174786Y-92509707D01*
X196063292Y-92398213D01*
X196063288Y-92398210D01*
X195932185Y-92310609D01*
X195932172Y-92310602D01*
X195786501Y-92250264D01*
X195786489Y-92250261D01*
X195631845Y-92219500D01*
X195631842Y-92219500D01*
X195474158Y-92219500D01*
X195474155Y-92219500D01*
X195319510Y-92250261D01*
X195319498Y-92250264D01*
X195173827Y-92310602D01*
X195173814Y-92310609D01*
X195042711Y-92398210D01*
X195042707Y-92398213D01*
X194931213Y-92509707D01*
X194931210Y-92509711D01*
X194843609Y-92640814D01*
X194843602Y-92640827D01*
X194783264Y-92786498D01*
X194783261Y-92786510D01*
X194752500Y-92941153D01*
X189449971Y-92941153D01*
X189426344Y-92884112D01*
X189397135Y-92833520D01*
X189380663Y-92765624D01*
X189403515Y-92699597D01*
X189458436Y-92656406D01*
X189527989Y-92649764D01*
X189566518Y-92664134D01*
X189617112Y-92693344D01*
X189617120Y-92693347D01*
X189617123Y-92693349D01*
X189694586Y-92725435D01*
X189829113Y-92781158D01*
X190050762Y-92840548D01*
X190278266Y-92870500D01*
X190278273Y-92870500D01*
X190507727Y-92870500D01*
X190507734Y-92870500D01*
X190735238Y-92840548D01*
X190956887Y-92781158D01*
X191168888Y-92693344D01*
X191367612Y-92578611D01*
X191549661Y-92438919D01*
X191549665Y-92438914D01*
X191549670Y-92438911D01*
X191711911Y-92276670D01*
X191711914Y-92276665D01*
X191711919Y-92276661D01*
X191851611Y-92094612D01*
X191966344Y-91895888D01*
X192054158Y-91683887D01*
X192105800Y-91491153D01*
X201552500Y-91491153D01*
X201552500Y-91648846D01*
X201583261Y-91803489D01*
X201583264Y-91803501D01*
X201643602Y-91949172D01*
X201643609Y-91949185D01*
X201731210Y-92080288D01*
X201731213Y-92080292D01*
X201842707Y-92191786D01*
X201842711Y-92191789D01*
X201973814Y-92279390D01*
X201973827Y-92279397D01*
X202073060Y-92320500D01*
X202119503Y-92339737D01*
X202274153Y-92370499D01*
X202274156Y-92370500D01*
X202274158Y-92370500D01*
X202431844Y-92370500D01*
X202431845Y-92370499D01*
X202586497Y-92339737D01*
X202732179Y-92279394D01*
X202863289Y-92191789D01*
X202974789Y-92080289D01*
X203062394Y-91949179D01*
X203063515Y-91946474D01*
X203083102Y-91899185D01*
X203122737Y-91803497D01*
X203153500Y-91648842D01*
X203153500Y-91491158D01*
X203153500Y-91491155D01*
X203153499Y-91491153D01*
X203123596Y-91340821D01*
X203122737Y-91336503D01*
X203122735Y-91336498D01*
X203062397Y-91190827D01*
X203062390Y-91190814D01*
X202974789Y-91059711D01*
X202974786Y-91059707D01*
X202863292Y-90948213D01*
X202863288Y-90948210D01*
X202732185Y-90860609D01*
X202732172Y-90860602D01*
X202586501Y-90800264D01*
X202586489Y-90800261D01*
X202431845Y-90769500D01*
X202431842Y-90769500D01*
X202274158Y-90769500D01*
X202274155Y-90769500D01*
X202119510Y-90800261D01*
X202119498Y-90800264D01*
X201973827Y-90860602D01*
X201973814Y-90860609D01*
X201842711Y-90948210D01*
X201842707Y-90948213D01*
X201731213Y-91059707D01*
X201731210Y-91059711D01*
X201643609Y-91190814D01*
X201643602Y-91190827D01*
X201583264Y-91336498D01*
X201583261Y-91336510D01*
X201552500Y-91491153D01*
X192105800Y-91491153D01*
X192113548Y-91462238D01*
X192143500Y-91234734D01*
X192143500Y-91005266D01*
X192113548Y-90777762D01*
X192054158Y-90556113D01*
X191966344Y-90344112D01*
X191906901Y-90241153D01*
X196752500Y-90241153D01*
X196752500Y-90398846D01*
X196783261Y-90553489D01*
X196783264Y-90553501D01*
X196843602Y-90699172D01*
X196843609Y-90699185D01*
X196931210Y-90830288D01*
X196931213Y-90830292D01*
X197042707Y-90941786D01*
X197042711Y-90941789D01*
X197173814Y-91029390D01*
X197173827Y-91029397D01*
X197247013Y-91059711D01*
X197319503Y-91089737D01*
X197474153Y-91120499D01*
X197474156Y-91120500D01*
X197474158Y-91120500D01*
X197631844Y-91120500D01*
X197631845Y-91120499D01*
X197786497Y-91089737D01*
X197932179Y-91029394D01*
X198063289Y-90941789D01*
X198174789Y-90830289D01*
X198262394Y-90699179D01*
X198322737Y-90553497D01*
X198353500Y-90398842D01*
X198353500Y-90241158D01*
X198353500Y-90241155D01*
X198353499Y-90241153D01*
X198333734Y-90141789D01*
X198322737Y-90086503D01*
X198299452Y-90030288D01*
X198262397Y-89940827D01*
X198262390Y-89940814D01*
X198174789Y-89809711D01*
X198174786Y-89809707D01*
X198063292Y-89698213D01*
X198063288Y-89698210D01*
X197932185Y-89610609D01*
X197932172Y-89610602D01*
X197786501Y-89550264D01*
X197786489Y-89550261D01*
X197631845Y-89519500D01*
X197631842Y-89519500D01*
X197474158Y-89519500D01*
X197474155Y-89519500D01*
X197319510Y-89550261D01*
X197319498Y-89550264D01*
X197173827Y-89610602D01*
X197173814Y-89610609D01*
X197042711Y-89698210D01*
X197042707Y-89698213D01*
X196931213Y-89809707D01*
X196931210Y-89809711D01*
X196843609Y-89940814D01*
X196843602Y-89940827D01*
X196783264Y-90086498D01*
X196783261Y-90086510D01*
X196752500Y-90241153D01*
X191906901Y-90241153D01*
X191851611Y-90145388D01*
X191851608Y-90145385D01*
X191851607Y-90145382D01*
X191711918Y-89963338D01*
X191711911Y-89963330D01*
X191549670Y-89801089D01*
X191549661Y-89801081D01*
X191367617Y-89661392D01*
X191168890Y-89546657D01*
X191168876Y-89546650D01*
X190956887Y-89458842D01*
X190938234Y-89453844D01*
X190735238Y-89399452D01*
X190697215Y-89394446D01*
X190507741Y-89369500D01*
X190507734Y-89369500D01*
X190278266Y-89369500D01*
X190278258Y-89369500D01*
X190061715Y-89398009D01*
X190050762Y-89399452D01*
X190012120Y-89409806D01*
X189829112Y-89458842D01*
X189829111Y-89458842D01*
X189744952Y-89493702D01*
X189675482Y-89501171D01*
X189613003Y-89469895D01*
X189577351Y-89409806D01*
X189573500Y-89379141D01*
X189573500Y-89296155D01*
X189573499Y-89296153D01*
X189542738Y-89141507D01*
X189542736Y-89141501D01*
X189542457Y-89140827D01*
X189521383Y-89089952D01*
X189513914Y-89020485D01*
X189521382Y-88995051D01*
X189542737Y-88943497D01*
X189573500Y-88788842D01*
X189573500Y-88631158D01*
X189573500Y-88631155D01*
X189573499Y-88631153D01*
X189573327Y-88630288D01*
X189542737Y-88476503D01*
X189521383Y-88424952D01*
X189518103Y-88394442D01*
X189512655Y-88364242D01*
X189514203Y-88358175D01*
X189513914Y-88355485D01*
X189518122Y-88341153D01*
X190352500Y-88341153D01*
X190352500Y-88498846D01*
X190383261Y-88653489D01*
X190383264Y-88653501D01*
X190443602Y-88799172D01*
X190443609Y-88799185D01*
X190531210Y-88930288D01*
X190531213Y-88930292D01*
X190642707Y-89041786D01*
X190642711Y-89041789D01*
X190773814Y-89129390D01*
X190773827Y-89129397D01*
X190919498Y-89189735D01*
X190919503Y-89189737D01*
X191074153Y-89220499D01*
X191074156Y-89220500D01*
X191074158Y-89220500D01*
X191231844Y-89220500D01*
X191231845Y-89220499D01*
X191386497Y-89189737D01*
X191504592Y-89140821D01*
X191532172Y-89129397D01*
X191532172Y-89129396D01*
X191532179Y-89129394D01*
X191663289Y-89041789D01*
X191774789Y-88930289D01*
X191862394Y-88799179D01*
X191922737Y-88653497D01*
X191953500Y-88498842D01*
X191953500Y-88341158D01*
X191953500Y-88341155D01*
X191953499Y-88341153D01*
X191951289Y-88330044D01*
X191922737Y-88186503D01*
X191896783Y-88123844D01*
X191879666Y-88082518D01*
X191862532Y-88041153D01*
X201552500Y-88041153D01*
X201552500Y-88198846D01*
X201583261Y-88353489D01*
X201583264Y-88353501D01*
X201643602Y-88499172D01*
X201643609Y-88499185D01*
X201731210Y-88630288D01*
X201731213Y-88630292D01*
X201842707Y-88741786D01*
X201842711Y-88741789D01*
X201973814Y-88829390D01*
X201973827Y-88829397D01*
X202119498Y-88889735D01*
X202119503Y-88889737D01*
X202274153Y-88920499D01*
X202274156Y-88920500D01*
X202274158Y-88920500D01*
X202431844Y-88920500D01*
X202431845Y-88920499D01*
X202586497Y-88889737D01*
X202732179Y-88829394D01*
X202863289Y-88741789D01*
X202974789Y-88630289D01*
X203062394Y-88499179D01*
X203065719Y-88491153D01*
X203093138Y-88424955D01*
X203122737Y-88353497D01*
X203153500Y-88198842D01*
X203153500Y-88041158D01*
X203153500Y-88041155D01*
X203153499Y-88041153D01*
X203135012Y-87948213D01*
X203122737Y-87886503D01*
X203122735Y-87886498D01*
X203062397Y-87740827D01*
X203062390Y-87740814D01*
X202974789Y-87609711D01*
X202974786Y-87609707D01*
X202863292Y-87498213D01*
X202863288Y-87498210D01*
X202732185Y-87410609D01*
X202732172Y-87410602D01*
X202586501Y-87350264D01*
X202586489Y-87350261D01*
X202431845Y-87319500D01*
X202431842Y-87319500D01*
X202274158Y-87319500D01*
X202274155Y-87319500D01*
X202119510Y-87350261D01*
X202119498Y-87350264D01*
X201973827Y-87410602D01*
X201973814Y-87410609D01*
X201842711Y-87498210D01*
X201842707Y-87498213D01*
X201731213Y-87609707D01*
X201731210Y-87609711D01*
X201643609Y-87740814D01*
X201643602Y-87740827D01*
X201583264Y-87886498D01*
X201583261Y-87886510D01*
X201552500Y-88041153D01*
X191862532Y-88041153D01*
X191862395Y-88040823D01*
X191862390Y-88040814D01*
X191774789Y-87909711D01*
X191774786Y-87909707D01*
X191663292Y-87798213D01*
X191663288Y-87798210D01*
X191532185Y-87710609D01*
X191532172Y-87710602D01*
X191386501Y-87650264D01*
X191386489Y-87650261D01*
X191231845Y-87619500D01*
X191231842Y-87619500D01*
X191074158Y-87619500D01*
X191074155Y-87619500D01*
X190919510Y-87650261D01*
X190919498Y-87650264D01*
X190773827Y-87710602D01*
X190773814Y-87710609D01*
X190642711Y-87798210D01*
X190642707Y-87798213D01*
X190531213Y-87909707D01*
X190531210Y-87909711D01*
X190443609Y-88040814D01*
X190443602Y-88040827D01*
X190383264Y-88186498D01*
X190383261Y-88186510D01*
X190352500Y-88341153D01*
X189518122Y-88341153D01*
X189521381Y-88330054D01*
X189542737Y-88278497D01*
X189573500Y-88123842D01*
X189573500Y-87966158D01*
X189573500Y-87966155D01*
X189573499Y-87966153D01*
X189557657Y-87886510D01*
X189542737Y-87811503D01*
X189521383Y-87759952D01*
X189513914Y-87690485D01*
X189521382Y-87665051D01*
X189542737Y-87613497D01*
X189573500Y-87458842D01*
X189573500Y-87301158D01*
X189573500Y-87301155D01*
X189573499Y-87301153D01*
X189542738Y-87146510D01*
X189542737Y-87146503D01*
X189535649Y-87129390D01*
X189482397Y-87000827D01*
X189482390Y-87000814D01*
X189394789Y-86869711D01*
X189394786Y-86869707D01*
X189283292Y-86758213D01*
X189283288Y-86758210D01*
X189152185Y-86670609D01*
X189152172Y-86670602D01*
X189006501Y-86610264D01*
X189006489Y-86610261D01*
X188851845Y-86579500D01*
X188851842Y-86579500D01*
X188694158Y-86579500D01*
X188694155Y-86579500D01*
X188539510Y-86610261D01*
X188539498Y-86610264D01*
X188393827Y-86670602D01*
X188393814Y-86670609D01*
X188262711Y-86758210D01*
X188262707Y-86758213D01*
X188151213Y-86869707D01*
X188151210Y-86869711D01*
X188063609Y-87000814D01*
X188063602Y-87000827D01*
X188003264Y-87146498D01*
X188003261Y-87146510D01*
X187972500Y-87301153D01*
X187972500Y-87458846D01*
X188003260Y-87613488D01*
X188003263Y-87613498D01*
X188024616Y-87665048D01*
X188028123Y-87697673D01*
X188032793Y-87730147D01*
X188031946Y-87733231D01*
X188032085Y-87734517D01*
X188030998Y-87736687D01*
X188024616Y-87759952D01*
X188003263Y-87811501D01*
X188003260Y-87811511D01*
X187972500Y-87966153D01*
X187972500Y-88123846D01*
X188003260Y-88278488D01*
X188003263Y-88278498D01*
X188024616Y-88330048D01*
X188028123Y-88362673D01*
X188032793Y-88395147D01*
X188031946Y-88398231D01*
X188032085Y-88399517D01*
X188030998Y-88401687D01*
X188024616Y-88424952D01*
X188003263Y-88476501D01*
X188003260Y-88476511D01*
X187972500Y-88631153D01*
X187972500Y-88788846D01*
X188003260Y-88943488D01*
X188003263Y-88943498D01*
X188024616Y-88995048D01*
X188028123Y-89027673D01*
X188032793Y-89060147D01*
X188031946Y-89063231D01*
X188032085Y-89064517D01*
X188030998Y-89066687D01*
X188024616Y-89089952D01*
X188003263Y-89141501D01*
X188003262Y-89141507D01*
X187972500Y-89296153D01*
X187972500Y-89453846D01*
X188003260Y-89608488D01*
X188003263Y-89608498D01*
X188024616Y-89660048D01*
X188028123Y-89692673D01*
X188032793Y-89725147D01*
X188031946Y-89728231D01*
X188032085Y-89729517D01*
X188030998Y-89731687D01*
X188024616Y-89754952D01*
X188003263Y-89806501D01*
X188003260Y-89806511D01*
X187972500Y-89961153D01*
X187972500Y-90118846D01*
X188003261Y-90273489D01*
X188003264Y-90273501D01*
X188063602Y-90419172D01*
X188063609Y-90419185D01*
X188151210Y-90550288D01*
X188151213Y-90550292D01*
X188262707Y-90661786D01*
X188262711Y-90661789D01*
X188393814Y-90749390D01*
X188393827Y-90749397D01*
X188461961Y-90777618D01*
X188539503Y-90809737D01*
X188551049Y-90812033D01*
X188612960Y-90844418D01*
X188647534Y-90905133D01*
X188649797Y-90949835D01*
X188642500Y-91005264D01*
X188642500Y-91234741D01*
X188667446Y-91424215D01*
X188672452Y-91462238D01*
X188712279Y-91610875D01*
X188731842Y-91683887D01*
X188819650Y-91895876D01*
X188819657Y-91895890D01*
X188848863Y-91946476D01*
X188865336Y-92014376D01*
X188842483Y-92080403D01*
X188787562Y-92123594D01*
X188718009Y-92130235D01*
X188679476Y-92115863D01*
X188628890Y-92086657D01*
X188628876Y-92086650D01*
X188416887Y-91998842D01*
X188365257Y-91985008D01*
X188195238Y-91939452D01*
X188157215Y-91934446D01*
X187967741Y-91909500D01*
X187967734Y-91909500D01*
X187738266Y-91909500D01*
X187738258Y-91909500D01*
X187521715Y-91938009D01*
X187510762Y-91939452D01*
X187474460Y-91949179D01*
X187289112Y-91998842D01*
X187077123Y-92086650D01*
X187077113Y-92086655D01*
X187026522Y-92115864D01*
X186958622Y-92132336D01*
X186892595Y-92109483D01*
X186849405Y-92054561D01*
X186842764Y-91985008D01*
X186857134Y-91946480D01*
X186886344Y-91895888D01*
X186974158Y-91683887D01*
X187033548Y-91462238D01*
X187063500Y-91234734D01*
X187063500Y-91005266D01*
X187056258Y-90950264D01*
X187055947Y-90947898D01*
X187066712Y-90878863D01*
X187113092Y-90826607D01*
X187150713Y-90811677D01*
X187150662Y-90811507D01*
X187152705Y-90810886D01*
X187154705Y-90810093D01*
X187156497Y-90809737D01*
X187302179Y-90749394D01*
X187433289Y-90661789D01*
X187544789Y-90550289D01*
X187632394Y-90419179D01*
X187692737Y-90273497D01*
X187723500Y-90118842D01*
X187723500Y-89961158D01*
X187723500Y-89961155D01*
X187723499Y-89961153D01*
X187711173Y-89899185D01*
X187692737Y-89806503D01*
X187671383Y-89754952D01*
X187667876Y-89722333D01*
X187663206Y-89689853D01*
X187664159Y-89687765D01*
X187663914Y-89685485D01*
X187671382Y-89660051D01*
X187692737Y-89608497D01*
X187723500Y-89453842D01*
X187723500Y-89296158D01*
X187723500Y-89296155D01*
X187723499Y-89296153D01*
X187692738Y-89141507D01*
X187692736Y-89141501D01*
X187692457Y-89140827D01*
X187671383Y-89089952D01*
X187667876Y-89057333D01*
X187663206Y-89024853D01*
X187664159Y-89022765D01*
X187663914Y-89020485D01*
X187671382Y-88995051D01*
X187692737Y-88943497D01*
X187723500Y-88788842D01*
X187723500Y-88631158D01*
X187723500Y-88631155D01*
X187723499Y-88631153D01*
X187723327Y-88630288D01*
X187692737Y-88476503D01*
X187671383Y-88424952D01*
X187667876Y-88392333D01*
X187663206Y-88359853D01*
X187664159Y-88357765D01*
X187663914Y-88355485D01*
X187671382Y-88330051D01*
X187692737Y-88278497D01*
X187723500Y-88123842D01*
X187723500Y-87966158D01*
X187723500Y-87966155D01*
X187723499Y-87966153D01*
X187707657Y-87886510D01*
X187692737Y-87811503D01*
X187671383Y-87759952D01*
X187667876Y-87727333D01*
X187663206Y-87694853D01*
X187664159Y-87692765D01*
X187663914Y-87690485D01*
X187671382Y-87665051D01*
X187692737Y-87613497D01*
X187723500Y-87458842D01*
X187723500Y-87301158D01*
X187723500Y-87301155D01*
X187723499Y-87301153D01*
X187692738Y-87146510D01*
X187692737Y-87146503D01*
X187685649Y-87129390D01*
X187632397Y-87000827D01*
X187632390Y-87000814D01*
X187544789Y-86869711D01*
X187544786Y-86869707D01*
X187433292Y-86758213D01*
X187433288Y-86758210D01*
X187302185Y-86670609D01*
X187302172Y-86670602D01*
X187156501Y-86610264D01*
X187156489Y-86610261D01*
X187001845Y-86579500D01*
X187001842Y-86579500D01*
X186844158Y-86579500D01*
X186844155Y-86579500D01*
X186689510Y-86610261D01*
X186689498Y-86610264D01*
X186543827Y-86670602D01*
X186543814Y-86670609D01*
X186412711Y-86758210D01*
X186412707Y-86758213D01*
X186301213Y-86869707D01*
X186301210Y-86869711D01*
X186213609Y-87000814D01*
X186213602Y-87000827D01*
X186153264Y-87146498D01*
X186153261Y-87146510D01*
X186122500Y-87301153D01*
X186122500Y-87458846D01*
X186153260Y-87613488D01*
X186153263Y-87613498D01*
X186174616Y-87665048D01*
X186182085Y-87734517D01*
X186174616Y-87759952D01*
X186153263Y-87811501D01*
X186153260Y-87811511D01*
X186122500Y-87966153D01*
X186122500Y-88123846D01*
X186153260Y-88278488D01*
X186153263Y-88278498D01*
X186174616Y-88330048D01*
X186182085Y-88399517D01*
X186174616Y-88424952D01*
X186153263Y-88476501D01*
X186153260Y-88476511D01*
X186122500Y-88631153D01*
X186122500Y-88788846D01*
X186153260Y-88943488D01*
X186153263Y-88943498D01*
X186174616Y-88995048D01*
X186182085Y-89064517D01*
X186174616Y-89089952D01*
X186153263Y-89141501D01*
X186153262Y-89141507D01*
X186122500Y-89296153D01*
X186122500Y-89374999D01*
X186102815Y-89442038D01*
X186050011Y-89487793D01*
X185980853Y-89497737D01*
X185951048Y-89489560D01*
X185876887Y-89458842D01*
X185858234Y-89453844D01*
X185655238Y-89399452D01*
X185617215Y-89394446D01*
X185427741Y-89369500D01*
X185427734Y-89369500D01*
X185198266Y-89369500D01*
X185198258Y-89369500D01*
X184981715Y-89398009D01*
X184970762Y-89399452D01*
X184932120Y-89409806D01*
X184749112Y-89458842D01*
X184537123Y-89546650D01*
X184537109Y-89546657D01*
X184338382Y-89661392D01*
X184156338Y-89801081D01*
X183994081Y-89963338D01*
X183854392Y-90145382D01*
X183739657Y-90344109D01*
X183739650Y-90344123D01*
X183651842Y-90556112D01*
X183592453Y-90777759D01*
X183592451Y-90777770D01*
X183562500Y-91005258D01*
X183562500Y-91234741D01*
X183587446Y-91424215D01*
X183592452Y-91462238D01*
X183632279Y-91610875D01*
X183651842Y-91683887D01*
X183739650Y-91895876D01*
X183739657Y-91895890D01*
X183747515Y-91909500D01*
X183846185Y-92080403D01*
X183854392Y-92094617D01*
X183994081Y-92276661D01*
X183994089Y-92276670D01*
X184156330Y-92438911D01*
X184156338Y-92438918D01*
X184338382Y-92578607D01*
X184338385Y-92578608D01*
X184338388Y-92578611D01*
X184537112Y-92693344D01*
X184537117Y-92693346D01*
X184537123Y-92693349D01*
X184614586Y-92725435D01*
X184749113Y-92781158D01*
X184970762Y-92840548D01*
X185198266Y-92870500D01*
X185198273Y-92870500D01*
X185427727Y-92870500D01*
X185427734Y-92870500D01*
X185655238Y-92840548D01*
X185876887Y-92781158D01*
X186088888Y-92693344D01*
X186139477Y-92664136D01*
X186207374Y-92647663D01*
X186273402Y-92670515D01*
X186316593Y-92725435D01*
X186323235Y-92794988D01*
X186308864Y-92833522D01*
X186279655Y-92884113D01*
X186279650Y-92884123D01*
X186191842Y-93096112D01*
X186157554Y-93224076D01*
X186149671Y-93253501D01*
X186132453Y-93317759D01*
X186132451Y-93317770D01*
X186102500Y-93545258D01*
X186102500Y-93774741D01*
X186108525Y-93820500D01*
X186132452Y-94002238D01*
X186191842Y-94223887D01*
X186279650Y-94435876D01*
X186279657Y-94435890D01*
X186308863Y-94486476D01*
X186325336Y-94554376D01*
X186302483Y-94620403D01*
X186247562Y-94663594D01*
X186178009Y-94670235D01*
X186139476Y-94655863D01*
X186088890Y-94626657D01*
X186088876Y-94626650D01*
X185876887Y-94538842D01*
X185825257Y-94525008D01*
X185655238Y-94479452D01*
X185617215Y-94474446D01*
X185427741Y-94449500D01*
X185427734Y-94449500D01*
X185198266Y-94449500D01*
X185198258Y-94449500D01*
X184981715Y-94478009D01*
X184970762Y-94479452D01*
X184944548Y-94486476D01*
X184749112Y-94538842D01*
X184537123Y-94626650D01*
X184537109Y-94626657D01*
X184338382Y-94741392D01*
X184156338Y-94881081D01*
X183994081Y-95043338D01*
X183854392Y-95225382D01*
X183739657Y-95424109D01*
X183739650Y-95424123D01*
X183651842Y-95636112D01*
X183623697Y-95741153D01*
X183608148Y-95799185D01*
X183592453Y-95857759D01*
X183592451Y-95857770D01*
X183562500Y-96085258D01*
X183562500Y-96314741D01*
X183587446Y-96504215D01*
X183592452Y-96542238D01*
X183613360Y-96620269D01*
X183651842Y-96763887D01*
X183739650Y-96975876D01*
X183739657Y-96975890D01*
X183854392Y-97174617D01*
X183994081Y-97356661D01*
X183994089Y-97356670D01*
X184156330Y-97518911D01*
X184156338Y-97518918D01*
X184258258Y-97597125D01*
X184299460Y-97653553D01*
X184303615Y-97723299D01*
X184269402Y-97784219D01*
X184207685Y-97816971D01*
X184182771Y-97819500D01*
X171359093Y-97819500D01*
X171346939Y-97818903D01*
X171296081Y-97813893D01*
X171228688Y-97807256D01*
X171204848Y-97802514D01*
X171096997Y-97769798D01*
X171074541Y-97760496D01*
X170975150Y-97707370D01*
X170954940Y-97693866D01*
X170867820Y-97622369D01*
X170850630Y-97605179D01*
X170779133Y-97518059D01*
X170765629Y-97497849D01*
X170726441Y-97424534D01*
X170712501Y-97398453D01*
X170703201Y-97376002D01*
X170697334Y-97356661D01*
X170670483Y-97268145D01*
X170665744Y-97244317D01*
X170654097Y-97126061D01*
X170653500Y-97113907D01*
X170653500Y-95001995D01*
X171552500Y-95001995D01*
X171552500Y-95238004D01*
X171552501Y-95238020D01*
X171577000Y-95424113D01*
X171583307Y-95472014D01*
X171601833Y-95541153D01*
X171644394Y-95699993D01*
X171734714Y-95918045D01*
X171734719Y-95918056D01*
X171781552Y-95999172D01*
X171852727Y-96122450D01*
X171852729Y-96122453D01*
X171852730Y-96122454D01*
X171996406Y-96309697D01*
X171996412Y-96309704D01*
X172163295Y-96476587D01*
X172163301Y-96476592D01*
X172350550Y-96620273D01*
X172481918Y-96696118D01*
X172554943Y-96738280D01*
X172554948Y-96738282D01*
X172554951Y-96738284D01*
X172773007Y-96828606D01*
X173000986Y-96889693D01*
X173234989Y-96920500D01*
X173234996Y-96920500D01*
X173471004Y-96920500D01*
X173471011Y-96920500D01*
X173705014Y-96889693D01*
X173932993Y-96828606D01*
X174151049Y-96738284D01*
X174355450Y-96620273D01*
X174542699Y-96476592D01*
X174709592Y-96309699D01*
X174853273Y-96122450D01*
X174971284Y-95918049D01*
X175061606Y-95699993D01*
X175104167Y-95541153D01*
X176252500Y-95541153D01*
X176252500Y-95698846D01*
X176283261Y-95853489D01*
X176283264Y-95853501D01*
X176343602Y-95999172D01*
X176343609Y-95999185D01*
X176431210Y-96130288D01*
X176431213Y-96130292D01*
X176542707Y-96241786D01*
X176542711Y-96241789D01*
X176673814Y-96329390D01*
X176673827Y-96329397D01*
X176819498Y-96389735D01*
X176819503Y-96389737D01*
X176974153Y-96420499D01*
X176974156Y-96420500D01*
X176974158Y-96420500D01*
X177131844Y-96420500D01*
X177131845Y-96420499D01*
X177286497Y-96389737D01*
X177432179Y-96329394D01*
X177563289Y-96241789D01*
X177674789Y-96130289D01*
X177762394Y-95999179D01*
X177822737Y-95853497D01*
X177853500Y-95698842D01*
X177853500Y-95541158D01*
X177853500Y-95541155D01*
X177853499Y-95541153D01*
X177845904Y-95502972D01*
X177822737Y-95386503D01*
X177803955Y-95341158D01*
X177803953Y-95341153D01*
X181152500Y-95341153D01*
X181152500Y-95498846D01*
X181183261Y-95653489D01*
X181183264Y-95653501D01*
X181243602Y-95799172D01*
X181243609Y-95799185D01*
X181331210Y-95930288D01*
X181331213Y-95930292D01*
X181442707Y-96041786D01*
X181442711Y-96041789D01*
X181573814Y-96129390D01*
X181573827Y-96129397D01*
X181719498Y-96189735D01*
X181719503Y-96189737D01*
X181874153Y-96220499D01*
X181874156Y-96220500D01*
X181874158Y-96220500D01*
X182031844Y-96220500D01*
X182031845Y-96220499D01*
X182186497Y-96189737D01*
X182332179Y-96129394D01*
X182463289Y-96041789D01*
X182574789Y-95930289D01*
X182662394Y-95799179D01*
X182722737Y-95653497D01*
X182753500Y-95498842D01*
X182753500Y-95341158D01*
X182753500Y-95341155D01*
X182753499Y-95341153D01*
X182749522Y-95321158D01*
X182722737Y-95186503D01*
X182722735Y-95186498D01*
X182662397Y-95040827D01*
X182662390Y-95040814D01*
X182574789Y-94909711D01*
X182574786Y-94909707D01*
X182463292Y-94798213D01*
X182463288Y-94798210D01*
X182332185Y-94710609D01*
X182332172Y-94710602D01*
X182186501Y-94650264D01*
X182186489Y-94650261D01*
X182031845Y-94619500D01*
X182031842Y-94619500D01*
X181874158Y-94619500D01*
X181874155Y-94619500D01*
X181719510Y-94650261D01*
X181719498Y-94650264D01*
X181573827Y-94710602D01*
X181573814Y-94710609D01*
X181442711Y-94798210D01*
X181442707Y-94798213D01*
X181331213Y-94909707D01*
X181331210Y-94909711D01*
X181243609Y-95040814D01*
X181243602Y-95040827D01*
X181183264Y-95186498D01*
X181183261Y-95186510D01*
X181152500Y-95341153D01*
X177803953Y-95341153D01*
X177762397Y-95240827D01*
X177762390Y-95240814D01*
X177674789Y-95109711D01*
X177674786Y-95109707D01*
X177563292Y-94998213D01*
X177563288Y-94998210D01*
X177432185Y-94910609D01*
X177432172Y-94910602D01*
X177286501Y-94850264D01*
X177286489Y-94850261D01*
X177131845Y-94819500D01*
X177131842Y-94819500D01*
X176974158Y-94819500D01*
X176974155Y-94819500D01*
X176819510Y-94850261D01*
X176819498Y-94850264D01*
X176673827Y-94910602D01*
X176673814Y-94910609D01*
X176542711Y-94998210D01*
X176542707Y-94998213D01*
X176431213Y-95109707D01*
X176431210Y-95109711D01*
X176343609Y-95240814D01*
X176343602Y-95240827D01*
X176283264Y-95386498D01*
X176283261Y-95386510D01*
X176252500Y-95541153D01*
X175104167Y-95541153D01*
X175122693Y-95472014D01*
X175153500Y-95238011D01*
X175153500Y-95001989D01*
X175122693Y-94767986D01*
X175061606Y-94540007D01*
X174971284Y-94321951D01*
X174971282Y-94321948D01*
X174971280Y-94321943D01*
X174929118Y-94248918D01*
X174853273Y-94117550D01*
X174709592Y-93930301D01*
X174709587Y-93930295D01*
X174542704Y-93763412D01*
X174542697Y-93763406D01*
X174355454Y-93619730D01*
X174355453Y-93619729D01*
X174355450Y-93619727D01*
X174273957Y-93572677D01*
X174151056Y-93501719D01*
X174151045Y-93501714D01*
X173932993Y-93411394D01*
X173705014Y-93350307D01*
X173705013Y-93350306D01*
X173705010Y-93350306D01*
X173471020Y-93319501D01*
X173471017Y-93319500D01*
X173471011Y-93319500D01*
X173234989Y-93319500D01*
X173234983Y-93319500D01*
X173234979Y-93319501D01*
X173000989Y-93350306D01*
X172773006Y-93411394D01*
X172554954Y-93501714D01*
X172554943Y-93501719D01*
X172350545Y-93619730D01*
X172163302Y-93763406D01*
X172163295Y-93763412D01*
X171996412Y-93930295D01*
X171996406Y-93930302D01*
X171852730Y-94117545D01*
X171734719Y-94321943D01*
X171734714Y-94321954D01*
X171644394Y-94540006D01*
X171583306Y-94767989D01*
X171552501Y-95001979D01*
X171552500Y-95001995D01*
X170653500Y-95001995D01*
X170653500Y-91441153D01*
X172552500Y-91441153D01*
X172552500Y-91598846D01*
X172583261Y-91753489D01*
X172583264Y-91753501D01*
X172643602Y-91899172D01*
X172643609Y-91899185D01*
X172731210Y-92030288D01*
X172731213Y-92030292D01*
X172842707Y-92141786D01*
X172842711Y-92141789D01*
X172973814Y-92229390D01*
X172973827Y-92229397D01*
X173119498Y-92289735D01*
X173119503Y-92289737D01*
X173274153Y-92320499D01*
X173274156Y-92320500D01*
X173274158Y-92320500D01*
X173431844Y-92320500D01*
X173431845Y-92320499D01*
X173586497Y-92289737D01*
X173732179Y-92229394D01*
X173863289Y-92141789D01*
X173974789Y-92030289D01*
X174062394Y-91899179D01*
X174122737Y-91753497D01*
X174143554Y-91648844D01*
X174145084Y-91641153D01*
X178952500Y-91641153D01*
X178952500Y-91798846D01*
X178983261Y-91953489D01*
X178983264Y-91953501D01*
X179043602Y-92099172D01*
X179043609Y-92099185D01*
X179131210Y-92230288D01*
X179131213Y-92230292D01*
X179242707Y-92341786D01*
X179242711Y-92341789D01*
X179373814Y-92429390D01*
X179373827Y-92429397D01*
X179519498Y-92489735D01*
X179519503Y-92489737D01*
X179674153Y-92520499D01*
X179674156Y-92520500D01*
X179674158Y-92520500D01*
X179831844Y-92520500D01*
X179831845Y-92520499D01*
X179986497Y-92489737D01*
X180099166Y-92443067D01*
X180132172Y-92429397D01*
X180132172Y-92429396D01*
X180132179Y-92429394D01*
X180263289Y-92341789D01*
X180374789Y-92230289D01*
X180462394Y-92099179D01*
X180522737Y-91953497D01*
X180553500Y-91798842D01*
X180553500Y-91641158D01*
X180553500Y-91641155D01*
X180553499Y-91641153D01*
X180547476Y-91610874D01*
X180522737Y-91486503D01*
X180512685Y-91462235D01*
X180462397Y-91340827D01*
X180462390Y-91340814D01*
X180374789Y-91209711D01*
X180374786Y-91209707D01*
X180263292Y-91098213D01*
X180263288Y-91098210D01*
X180132185Y-91010609D01*
X180132172Y-91010602D01*
X179986501Y-90950264D01*
X179986489Y-90950261D01*
X179831845Y-90919500D01*
X179831842Y-90919500D01*
X179674158Y-90919500D01*
X179674155Y-90919500D01*
X179519510Y-90950261D01*
X179519498Y-90950264D01*
X179373827Y-91010602D01*
X179373814Y-91010609D01*
X179242711Y-91098210D01*
X179242707Y-91098213D01*
X179131213Y-91209707D01*
X179131210Y-91209711D01*
X179043609Y-91340814D01*
X179043602Y-91340827D01*
X178983264Y-91486498D01*
X178983261Y-91486510D01*
X178952500Y-91641153D01*
X174145084Y-91641153D01*
X174151107Y-91610875D01*
X174151107Y-91610874D01*
X174153500Y-91598844D01*
X174153500Y-91441155D01*
X174153499Y-91441153D01*
X174133543Y-91340827D01*
X174122737Y-91286503D01*
X174090929Y-91209711D01*
X174062397Y-91140827D01*
X174062390Y-91140814D01*
X173974789Y-91009711D01*
X173974786Y-91009707D01*
X173863292Y-90898213D01*
X173863288Y-90898210D01*
X173732185Y-90810609D01*
X173732172Y-90810602D01*
X173586501Y-90750264D01*
X173586489Y-90750261D01*
X173431845Y-90719500D01*
X173431842Y-90719500D01*
X173274158Y-90719500D01*
X173274155Y-90719500D01*
X173119510Y-90750261D01*
X173119498Y-90750264D01*
X172973827Y-90810602D01*
X172973814Y-90810609D01*
X172842711Y-90898210D01*
X172842707Y-90898213D01*
X172731213Y-91009707D01*
X172731210Y-91009711D01*
X172643609Y-91140814D01*
X172643602Y-91140827D01*
X172583264Y-91286498D01*
X172583261Y-91286510D01*
X172552500Y-91441153D01*
X170653500Y-91441153D01*
X170653500Y-89441153D01*
X176452500Y-89441153D01*
X176452500Y-89598846D01*
X176483261Y-89753489D01*
X176483264Y-89753501D01*
X176543602Y-89899172D01*
X176543609Y-89899185D01*
X176631210Y-90030288D01*
X176631213Y-90030292D01*
X176742707Y-90141786D01*
X176742711Y-90141789D01*
X176873814Y-90229390D01*
X176873827Y-90229397D01*
X177019498Y-90289735D01*
X177019503Y-90289737D01*
X177174153Y-90320499D01*
X177174156Y-90320500D01*
X177174158Y-90320500D01*
X177331844Y-90320500D01*
X177331845Y-90320499D01*
X177486497Y-90289737D01*
X177632179Y-90229394D01*
X177763289Y-90141789D01*
X177874789Y-90030289D01*
X177962394Y-89899179D01*
X178022737Y-89753497D01*
X178053500Y-89598842D01*
X178053500Y-89441158D01*
X178053500Y-89441155D01*
X178053499Y-89441153D01*
X178033326Y-89339737D01*
X178022737Y-89286503D01*
X177995398Y-89220500D01*
X177962397Y-89140827D01*
X177962390Y-89140814D01*
X177874789Y-89009711D01*
X177874786Y-89009707D01*
X177763292Y-88898213D01*
X177763288Y-88898210D01*
X177632185Y-88810609D01*
X177632172Y-88810602D01*
X177486501Y-88750264D01*
X177486489Y-88750261D01*
X177331845Y-88719500D01*
X177331842Y-88719500D01*
X177174158Y-88719500D01*
X177174155Y-88719500D01*
X177019510Y-88750261D01*
X177019498Y-88750264D01*
X176873827Y-88810602D01*
X176873814Y-88810609D01*
X176742711Y-88898210D01*
X176742707Y-88898213D01*
X176631213Y-89009707D01*
X176631210Y-89009711D01*
X176543609Y-89140814D01*
X176543602Y-89140827D01*
X176483264Y-89286498D01*
X176483261Y-89286510D01*
X176452500Y-89441153D01*
X170653500Y-89441153D01*
X170653500Y-88041153D01*
X172552500Y-88041153D01*
X172552500Y-88198846D01*
X172583261Y-88353489D01*
X172583264Y-88353501D01*
X172643602Y-88499172D01*
X172643609Y-88499185D01*
X172731210Y-88630288D01*
X172731213Y-88630292D01*
X172842707Y-88741786D01*
X172842711Y-88741789D01*
X172973814Y-88829390D01*
X172973827Y-88829397D01*
X173119498Y-88889735D01*
X173119503Y-88889737D01*
X173274153Y-88920499D01*
X173274156Y-88920500D01*
X173274158Y-88920500D01*
X173431844Y-88920500D01*
X173431845Y-88920499D01*
X173586497Y-88889737D01*
X173732179Y-88829394D01*
X173863289Y-88741789D01*
X173974789Y-88630289D01*
X174062394Y-88499179D01*
X174062395Y-88499176D01*
X174062397Y-88499173D01*
X174065719Y-88491153D01*
X182602500Y-88491153D01*
X182602500Y-88648846D01*
X182633261Y-88803489D01*
X182633264Y-88803501D01*
X182693602Y-88949172D01*
X182693609Y-88949185D01*
X182781210Y-89080288D01*
X182781213Y-89080292D01*
X182892707Y-89191786D01*
X182892711Y-89191789D01*
X183023814Y-89279390D01*
X183023827Y-89279397D01*
X183169498Y-89339735D01*
X183169503Y-89339737D01*
X183319131Y-89369500D01*
X183324153Y-89370499D01*
X183324156Y-89370500D01*
X183324158Y-89370500D01*
X183481844Y-89370500D01*
X183481845Y-89370499D01*
X183636497Y-89339737D01*
X183782179Y-89279394D01*
X183913289Y-89191789D01*
X184024789Y-89080289D01*
X184112394Y-88949179D01*
X184172737Y-88803497D01*
X184203500Y-88648842D01*
X184203500Y-88491158D01*
X184203500Y-88491155D01*
X184203499Y-88491153D01*
X184172737Y-88336503D01*
X184148711Y-88278498D01*
X184112397Y-88190827D01*
X184112390Y-88190814D01*
X184024789Y-88059711D01*
X184024786Y-88059707D01*
X183913292Y-87948213D01*
X183913288Y-87948210D01*
X183782185Y-87860609D01*
X183782172Y-87860602D01*
X183636501Y-87800264D01*
X183636489Y-87800261D01*
X183481845Y-87769500D01*
X183481842Y-87769500D01*
X183324158Y-87769500D01*
X183324155Y-87769500D01*
X183169510Y-87800261D01*
X183169498Y-87800264D01*
X183023827Y-87860602D01*
X183023814Y-87860609D01*
X182892711Y-87948210D01*
X182892707Y-87948213D01*
X182781213Y-88059707D01*
X182781210Y-88059711D01*
X182693609Y-88190814D01*
X182693602Y-88190827D01*
X182633264Y-88336498D01*
X182633261Y-88336510D01*
X182602500Y-88491153D01*
X174065719Y-88491153D01*
X174087895Y-88437614D01*
X174087895Y-88437613D01*
X174093138Y-88424955D01*
X174122737Y-88353497D01*
X174153500Y-88198842D01*
X174153500Y-88041158D01*
X174153500Y-88041155D01*
X174153499Y-88041153D01*
X174135012Y-87948213D01*
X174122737Y-87886503D01*
X174122735Y-87886498D01*
X174062397Y-87740827D01*
X174062390Y-87740814D01*
X173974789Y-87609711D01*
X173974786Y-87609707D01*
X173863292Y-87498213D01*
X173863288Y-87498210D01*
X173732185Y-87410609D01*
X173732172Y-87410602D01*
X173586501Y-87350264D01*
X173586489Y-87350261D01*
X173431845Y-87319500D01*
X173431842Y-87319500D01*
X173274158Y-87319500D01*
X173274155Y-87319500D01*
X173119510Y-87350261D01*
X173119498Y-87350264D01*
X172973827Y-87410602D01*
X172973814Y-87410609D01*
X172842711Y-87498210D01*
X172842707Y-87498213D01*
X172731213Y-87609707D01*
X172731210Y-87609711D01*
X172643609Y-87740814D01*
X172643602Y-87740827D01*
X172583264Y-87886498D01*
X172583261Y-87886510D01*
X172552500Y-88041153D01*
X170653500Y-88041153D01*
X170653500Y-87141153D01*
X176852500Y-87141153D01*
X176852500Y-87298846D01*
X176883261Y-87453489D01*
X176883264Y-87453501D01*
X176943602Y-87599172D01*
X176943609Y-87599185D01*
X177031210Y-87730288D01*
X177031213Y-87730292D01*
X177142707Y-87841786D01*
X177142711Y-87841789D01*
X177273814Y-87929390D01*
X177273827Y-87929397D01*
X177419498Y-87989735D01*
X177419503Y-87989737D01*
X177574153Y-88020499D01*
X177574156Y-88020500D01*
X177574158Y-88020500D01*
X177731844Y-88020500D01*
X177731845Y-88020499D01*
X177886497Y-87989737D01*
X178032179Y-87929394D01*
X178163289Y-87841789D01*
X178274789Y-87730289D01*
X178362394Y-87599179D01*
X178422737Y-87453497D01*
X178453500Y-87298842D01*
X178453500Y-87141158D01*
X178453500Y-87141155D01*
X178453499Y-87141153D01*
X178433734Y-87041789D01*
X178422737Y-86986503D01*
X178374359Y-86869707D01*
X178362397Y-86840827D01*
X178362390Y-86840814D01*
X178274789Y-86709711D01*
X178274786Y-86709707D01*
X178163292Y-86598213D01*
X178163288Y-86598210D01*
X178032185Y-86510609D01*
X178032172Y-86510602D01*
X177886501Y-86450264D01*
X177886489Y-86450261D01*
X177731845Y-86419500D01*
X177731842Y-86419500D01*
X177574158Y-86419500D01*
X177574155Y-86419500D01*
X177419510Y-86450261D01*
X177419498Y-86450264D01*
X177273827Y-86510602D01*
X177273814Y-86510609D01*
X177142711Y-86598210D01*
X177142707Y-86598213D01*
X177031213Y-86709707D01*
X177031210Y-86709711D01*
X176943609Y-86840814D01*
X176943602Y-86840827D01*
X176883264Y-86986498D01*
X176883261Y-86986510D01*
X176852500Y-87141153D01*
X170653500Y-87141153D01*
X170653500Y-86341153D01*
X193652500Y-86341153D01*
X193652500Y-86498846D01*
X193683261Y-86653489D01*
X193683264Y-86653501D01*
X193743602Y-86799172D01*
X193743609Y-86799185D01*
X193831210Y-86930288D01*
X193831213Y-86930292D01*
X193942707Y-87041786D01*
X193942711Y-87041789D01*
X194073814Y-87129390D01*
X194073827Y-87129397D01*
X194219498Y-87189735D01*
X194219503Y-87189737D01*
X194374153Y-87220499D01*
X194374156Y-87220500D01*
X194374158Y-87220500D01*
X194531844Y-87220500D01*
X194531845Y-87220499D01*
X194686497Y-87189737D01*
X194832179Y-87129394D01*
X194963289Y-87041789D01*
X195074789Y-86930289D01*
X195162394Y-86799179D01*
X195222737Y-86653497D01*
X195253500Y-86498842D01*
X195253500Y-86341158D01*
X195253500Y-86341155D01*
X195253499Y-86341153D01*
X195222738Y-86186510D01*
X195222737Y-86186503D01*
X195222735Y-86186498D01*
X195162397Y-86040827D01*
X195162390Y-86040814D01*
X195074789Y-85909711D01*
X195074786Y-85909707D01*
X194963292Y-85798213D01*
X194963288Y-85798210D01*
X194832185Y-85710609D01*
X194832172Y-85710602D01*
X194686501Y-85650264D01*
X194686489Y-85650261D01*
X194531845Y-85619500D01*
X194531842Y-85619500D01*
X194374158Y-85619500D01*
X194374155Y-85619500D01*
X194219510Y-85650261D01*
X194219498Y-85650264D01*
X194073827Y-85710602D01*
X194073814Y-85710609D01*
X193942711Y-85798210D01*
X193942707Y-85798213D01*
X193831213Y-85909707D01*
X193831210Y-85909711D01*
X193743609Y-86040814D01*
X193743602Y-86040827D01*
X193683264Y-86186498D01*
X193683261Y-86186510D01*
X193652500Y-86341153D01*
X170653500Y-86341153D01*
X170653500Y-85041153D01*
X198152500Y-85041153D01*
X198152500Y-85198846D01*
X198183261Y-85353489D01*
X198183264Y-85353501D01*
X198243602Y-85499172D01*
X198243609Y-85499185D01*
X198331210Y-85630288D01*
X198331213Y-85630292D01*
X198442707Y-85741786D01*
X198442711Y-85741789D01*
X198573814Y-85829390D01*
X198573827Y-85829397D01*
X198719498Y-85889735D01*
X198719503Y-85889737D01*
X198874153Y-85920499D01*
X198874156Y-85920500D01*
X198874158Y-85920500D01*
X199031844Y-85920500D01*
X199031845Y-85920499D01*
X199186497Y-85889737D01*
X199332179Y-85829394D01*
X199463289Y-85741789D01*
X199574789Y-85630289D01*
X199662394Y-85499179D01*
X199722737Y-85353497D01*
X199753500Y-85198842D01*
X199753500Y-85041158D01*
X199753500Y-85041155D01*
X199753499Y-85041153D01*
X199722738Y-84886510D01*
X199722737Y-84886503D01*
X199722735Y-84886498D01*
X199662397Y-84740827D01*
X199662390Y-84740814D01*
X199574789Y-84609711D01*
X199574786Y-84609707D01*
X199463292Y-84498213D01*
X199463288Y-84498210D01*
X199332185Y-84410609D01*
X199332172Y-84410602D01*
X199186501Y-84350264D01*
X199186489Y-84350261D01*
X199031845Y-84319500D01*
X199031842Y-84319500D01*
X198874158Y-84319500D01*
X198874155Y-84319500D01*
X198719510Y-84350261D01*
X198719498Y-84350264D01*
X198573827Y-84410602D01*
X198573814Y-84410609D01*
X198442711Y-84498210D01*
X198442707Y-84498213D01*
X198331213Y-84609707D01*
X198331210Y-84609711D01*
X198243609Y-84740814D01*
X198243602Y-84740827D01*
X198183264Y-84886498D01*
X198183261Y-84886510D01*
X198152500Y-85041153D01*
X170653500Y-85041153D01*
X170653500Y-81872190D01*
X170673185Y-81805151D01*
X170725989Y-81759396D01*
X170795147Y-81749452D01*
X170858703Y-81778477D01*
X170892061Y-81824738D01*
X170943602Y-81949172D01*
X170943609Y-81949185D01*
X171031210Y-82080288D01*
X171031213Y-82080292D01*
X171142707Y-82191786D01*
X171142711Y-82191789D01*
X171273814Y-82279390D01*
X171273827Y-82279397D01*
X171370646Y-82319500D01*
X171419503Y-82339737D01*
X171574153Y-82370499D01*
X171574156Y-82370500D01*
X171574158Y-82370500D01*
X171731844Y-82370500D01*
X171731845Y-82370499D01*
X171886497Y-82339737D01*
X172032179Y-82279394D01*
X172163289Y-82191789D01*
X172274789Y-82080289D01*
X172362394Y-81949179D01*
X172422737Y-81803497D01*
X172453500Y-81648842D01*
X172453500Y-81491158D01*
X172453500Y-81491155D01*
X172453499Y-81491153D01*
X172452938Y-81488334D01*
X172422737Y-81336503D01*
X172413938Y-81315261D01*
X172362397Y-81190827D01*
X172362390Y-81190814D01*
X172274789Y-81059711D01*
X172274786Y-81059707D01*
X172163292Y-80948213D01*
X172163288Y-80948210D01*
X172032185Y-80860609D01*
X172032173Y-80860602D01*
X172005674Y-80849627D01*
X171886501Y-80800264D01*
X171886489Y-80800261D01*
X171731845Y-80769500D01*
X171731842Y-80769500D01*
X171574158Y-80769500D01*
X171574155Y-80769500D01*
X171419510Y-80800261D01*
X171419498Y-80800264D01*
X171273827Y-80860602D01*
X171273814Y-80860609D01*
X171142711Y-80948210D01*
X171142707Y-80948213D01*
X171031213Y-81059707D01*
X171031210Y-81059711D01*
X170943609Y-81190814D01*
X170943602Y-81190827D01*
X170892061Y-81315261D01*
X170848220Y-81369665D01*
X170781926Y-81391730D01*
X170714227Y-81374451D01*
X170666616Y-81323314D01*
X170653500Y-81267809D01*
X170653500Y-80741153D01*
X174752500Y-80741153D01*
X174752500Y-80898846D01*
X174783261Y-81053489D01*
X174783264Y-81053501D01*
X174843602Y-81199172D01*
X174843609Y-81199185D01*
X174931210Y-81330288D01*
X174931213Y-81330292D01*
X174958240Y-81357319D01*
X174991725Y-81418642D01*
X174986741Y-81488334D01*
X174958240Y-81532681D01*
X174931213Y-81559707D01*
X174931210Y-81559711D01*
X174843609Y-81690814D01*
X174843602Y-81690827D01*
X174783264Y-81836498D01*
X174783261Y-81836510D01*
X174752500Y-81991153D01*
X174752500Y-82148846D01*
X174783261Y-82303489D01*
X174783264Y-82303501D01*
X174843602Y-82449172D01*
X174843609Y-82449185D01*
X174931210Y-82580288D01*
X174931213Y-82580292D01*
X175042707Y-82691786D01*
X175042711Y-82691789D01*
X175173814Y-82779390D01*
X175173827Y-82779397D01*
X175314455Y-82837646D01*
X175319503Y-82839737D01*
X175474153Y-82870499D01*
X175474156Y-82870500D01*
X175474158Y-82870500D01*
X175631844Y-82870500D01*
X175631845Y-82870499D01*
X175786497Y-82839737D01*
X175932179Y-82779394D01*
X176063289Y-82691789D01*
X176174789Y-82580289D01*
X176262394Y-82449179D01*
X176322737Y-82303497D01*
X176353500Y-82148842D01*
X176353500Y-81991158D01*
X176353500Y-81991155D01*
X176353499Y-81991153D01*
X176345148Y-81949172D01*
X176322737Y-81836503D01*
X176298702Y-81778477D01*
X176262397Y-81690827D01*
X176262390Y-81690814D01*
X176174789Y-81559711D01*
X176174786Y-81559707D01*
X176147760Y-81532681D01*
X176114275Y-81471358D01*
X176119259Y-81401666D01*
X176147760Y-81357319D01*
X176174786Y-81330292D01*
X176174789Y-81330289D01*
X176262394Y-81199179D01*
X176265854Y-81190827D01*
X176320163Y-81059711D01*
X176322737Y-81053497D01*
X176353500Y-80898842D01*
X176353500Y-80741158D01*
X176353500Y-80741155D01*
X176353499Y-80741153D01*
X176322738Y-80586510D01*
X176322737Y-80586503D01*
X176322735Y-80586498D01*
X176262397Y-80440827D01*
X176262390Y-80440814D01*
X176174789Y-80309711D01*
X176174786Y-80309707D01*
X176063292Y-80198213D01*
X176063288Y-80198210D01*
X175932185Y-80110609D01*
X175932172Y-80110602D01*
X175786501Y-80050264D01*
X175786489Y-80050261D01*
X175631845Y-80019500D01*
X175631842Y-80019500D01*
X175474158Y-80019500D01*
X175474155Y-80019500D01*
X175319510Y-80050261D01*
X175319498Y-80050264D01*
X175173827Y-80110602D01*
X175173814Y-80110609D01*
X175042711Y-80198210D01*
X175042707Y-80198213D01*
X174931213Y-80309707D01*
X174931210Y-80309711D01*
X174843609Y-80440814D01*
X174843602Y-80440827D01*
X174783264Y-80586498D01*
X174783261Y-80586510D01*
X174752500Y-80741153D01*
X170653500Y-80741153D01*
X170653500Y-77441153D01*
X187752500Y-77441153D01*
X187752500Y-77598846D01*
X187783261Y-77753489D01*
X187783264Y-77753501D01*
X187843602Y-77899172D01*
X187843609Y-77899185D01*
X187931210Y-78030288D01*
X187931213Y-78030292D01*
X188042707Y-78141786D01*
X188042711Y-78141789D01*
X188173814Y-78229390D01*
X188173827Y-78229397D01*
X188319498Y-78289735D01*
X188319503Y-78289737D01*
X188474153Y-78320499D01*
X188474156Y-78320500D01*
X188474158Y-78320500D01*
X188631844Y-78320500D01*
X188631845Y-78320499D01*
X188786497Y-78289737D01*
X188932179Y-78229394D01*
X189063289Y-78141789D01*
X189174789Y-78030289D01*
X189262394Y-77899179D01*
X189322737Y-77753497D01*
X189353500Y-77598842D01*
X189353500Y-77441158D01*
X189353500Y-77441155D01*
X189353499Y-77441153D01*
X189351338Y-77430288D01*
X189322737Y-77286503D01*
X189322735Y-77286498D01*
X189262397Y-77140827D01*
X189262390Y-77140814D01*
X189174789Y-77009711D01*
X189174786Y-77009707D01*
X189063292Y-76898213D01*
X189063288Y-76898210D01*
X188977897Y-76841153D01*
X197902500Y-76841153D01*
X197902500Y-76998846D01*
X197933261Y-77153489D01*
X197933264Y-77153501D01*
X197993602Y-77299172D01*
X197993609Y-77299185D01*
X198081210Y-77430288D01*
X198081213Y-77430292D01*
X198192707Y-77541786D01*
X198192711Y-77541789D01*
X198323814Y-77629390D01*
X198323827Y-77629397D01*
X198469498Y-77689735D01*
X198469503Y-77689737D01*
X198624153Y-77720499D01*
X198624156Y-77720500D01*
X198624158Y-77720500D01*
X198781844Y-77720500D01*
X198781845Y-77720499D01*
X198936497Y-77689737D01*
X199082179Y-77629394D01*
X199213289Y-77541789D01*
X199324789Y-77430289D01*
X199412394Y-77299179D01*
X199472737Y-77153497D01*
X199503500Y-76998842D01*
X199503500Y-76841158D01*
X199503500Y-76841155D01*
X199503499Y-76841153D01*
X199481269Y-76729397D01*
X199472737Y-76686503D01*
X199454215Y-76641786D01*
X199412397Y-76540827D01*
X199412390Y-76540814D01*
X199324789Y-76409711D01*
X199324786Y-76409707D01*
X199213292Y-76298213D01*
X199213288Y-76298210D01*
X199082185Y-76210609D01*
X199082172Y-76210602D01*
X198936501Y-76150264D01*
X198936489Y-76150261D01*
X198781845Y-76119500D01*
X198781842Y-76119500D01*
X198624158Y-76119500D01*
X198624155Y-76119500D01*
X198469510Y-76150261D01*
X198469498Y-76150264D01*
X198323827Y-76210602D01*
X198323814Y-76210609D01*
X198192711Y-76298210D01*
X198192707Y-76298213D01*
X198081213Y-76409707D01*
X198081210Y-76409711D01*
X197993609Y-76540814D01*
X197993602Y-76540827D01*
X197933264Y-76686498D01*
X197933261Y-76686510D01*
X197902500Y-76841153D01*
X188977897Y-76841153D01*
X188932185Y-76810609D01*
X188932172Y-76810602D01*
X188786501Y-76750264D01*
X188786489Y-76750261D01*
X188631845Y-76719500D01*
X188631842Y-76719500D01*
X188474158Y-76719500D01*
X188474155Y-76719500D01*
X188319510Y-76750261D01*
X188319498Y-76750264D01*
X188173827Y-76810602D01*
X188173814Y-76810609D01*
X188042711Y-76898210D01*
X188042707Y-76898213D01*
X187931213Y-77009707D01*
X187931210Y-77009711D01*
X187843609Y-77140814D01*
X187843602Y-77140827D01*
X187783264Y-77286498D01*
X187783261Y-77286510D01*
X187752500Y-77441153D01*
X170653500Y-77441153D01*
X170653500Y-75941153D01*
X171552500Y-75941153D01*
X171552500Y-76098846D01*
X171583261Y-76253489D01*
X171583264Y-76253501D01*
X171643602Y-76399172D01*
X171643609Y-76399185D01*
X171731210Y-76530288D01*
X171731213Y-76530292D01*
X171842707Y-76641786D01*
X171842711Y-76641789D01*
X171973814Y-76729390D01*
X171973827Y-76729397D01*
X172119498Y-76789735D01*
X172119503Y-76789737D01*
X172274153Y-76820499D01*
X172274156Y-76820500D01*
X172274158Y-76820500D01*
X172431844Y-76820500D01*
X172431845Y-76820499D01*
X172586497Y-76789737D01*
X172732179Y-76729394D01*
X172863289Y-76641789D01*
X172974789Y-76530289D01*
X173062394Y-76399179D01*
X173122737Y-76253497D01*
X173153500Y-76098842D01*
X173153500Y-75941158D01*
X173153500Y-75941155D01*
X173153499Y-75941153D01*
X173131269Y-75829397D01*
X173122737Y-75786503D01*
X173122735Y-75786498D01*
X173062397Y-75640827D01*
X173062389Y-75640812D01*
X173020855Y-75578653D01*
X186015000Y-75578653D01*
X186015000Y-75736346D01*
X186045761Y-75890989D01*
X186045764Y-75891001D01*
X186106102Y-76036672D01*
X186106109Y-76036685D01*
X186193710Y-76167788D01*
X186193713Y-76167792D01*
X186305207Y-76279286D01*
X186305211Y-76279289D01*
X186436314Y-76366890D01*
X186436327Y-76366897D01*
X186539691Y-76409711D01*
X186582003Y-76427237D01*
X186736653Y-76457999D01*
X186736656Y-76458000D01*
X186736658Y-76458000D01*
X186894344Y-76458000D01*
X186894345Y-76457999D01*
X187048997Y-76427237D01*
X187194679Y-76366894D01*
X187325789Y-76279289D01*
X187437289Y-76167789D01*
X187524894Y-76036679D01*
X187585237Y-75890997D01*
X187616000Y-75736342D01*
X187616000Y-75578658D01*
X187616000Y-75578655D01*
X187615999Y-75578653D01*
X187600192Y-75499185D01*
X187585237Y-75424003D01*
X187574553Y-75398210D01*
X187524897Y-75278327D01*
X187524890Y-75278314D01*
X187437289Y-75147211D01*
X187437286Y-75147207D01*
X187325792Y-75035713D01*
X187325788Y-75035710D01*
X187194685Y-74948109D01*
X187194672Y-74948102D01*
X187049001Y-74887764D01*
X187048989Y-74887761D01*
X186894345Y-74857000D01*
X186894342Y-74857000D01*
X186736658Y-74857000D01*
X186736655Y-74857000D01*
X186582010Y-74887761D01*
X186581998Y-74887764D01*
X186436327Y-74948102D01*
X186436314Y-74948109D01*
X186305211Y-75035710D01*
X186305207Y-75035713D01*
X186193713Y-75147207D01*
X186193710Y-75147211D01*
X186106109Y-75278314D01*
X186106102Y-75278327D01*
X186045764Y-75423998D01*
X186045761Y-75424010D01*
X186015000Y-75578653D01*
X173020855Y-75578653D01*
X172974789Y-75509711D01*
X172974786Y-75509707D01*
X172863292Y-75398213D01*
X172863288Y-75398210D01*
X172732185Y-75310609D01*
X172732172Y-75310602D01*
X172586501Y-75250264D01*
X172586489Y-75250261D01*
X172431845Y-75219500D01*
X172431842Y-75219500D01*
X172274158Y-75219500D01*
X172274155Y-75219500D01*
X172119510Y-75250261D01*
X172119498Y-75250264D01*
X171973827Y-75310602D01*
X171973814Y-75310609D01*
X171842711Y-75398210D01*
X171842707Y-75398213D01*
X171731213Y-75509707D01*
X171731210Y-75509711D01*
X171643609Y-75640814D01*
X171643602Y-75640827D01*
X171583264Y-75786498D01*
X171583261Y-75786510D01*
X171552500Y-75941153D01*
X170653500Y-75941153D01*
X170653500Y-72641153D01*
X176052500Y-72641153D01*
X176052500Y-72798846D01*
X176083261Y-72953489D01*
X176083264Y-72953501D01*
X176143602Y-73099172D01*
X176143609Y-73099185D01*
X176231210Y-73230288D01*
X176231213Y-73230292D01*
X176342707Y-73341786D01*
X176342711Y-73341789D01*
X176473814Y-73429390D01*
X176473827Y-73429397D01*
X176619498Y-73489735D01*
X176619503Y-73489737D01*
X176774153Y-73520499D01*
X176774156Y-73520500D01*
X176774158Y-73520500D01*
X176931844Y-73520500D01*
X176931845Y-73520499D01*
X177086497Y-73489737D01*
X177232179Y-73429394D01*
X177363289Y-73341789D01*
X177474789Y-73230289D01*
X177562394Y-73099179D01*
X177622737Y-72953497D01*
X177653500Y-72798842D01*
X177653500Y-72641158D01*
X177653500Y-72641155D01*
X177653499Y-72641153D01*
X177644759Y-72597214D01*
X177622737Y-72486503D01*
X177599080Y-72429390D01*
X177562397Y-72340827D01*
X177562390Y-72340814D01*
X177474789Y-72209711D01*
X177474786Y-72209707D01*
X177363289Y-72098210D01*
X177348259Y-72088168D01*
X177232185Y-72010609D01*
X177232172Y-72010602D01*
X177185217Y-71991153D01*
X188512500Y-71991153D01*
X188512500Y-72148846D01*
X188543261Y-72303489D01*
X188543264Y-72303501D01*
X188603602Y-72449172D01*
X188603612Y-72449190D01*
X188655008Y-72526110D01*
X188675886Y-72592787D01*
X188657401Y-72660167D01*
X188655008Y-72663890D01*
X188603612Y-72740809D01*
X188603602Y-72740827D01*
X188543264Y-72886498D01*
X188543261Y-72886510D01*
X188512500Y-73041153D01*
X188512500Y-73198846D01*
X188543261Y-73353489D01*
X188543264Y-73353501D01*
X188603602Y-73499172D01*
X188603612Y-73499190D01*
X188655008Y-73576110D01*
X188675886Y-73642787D01*
X188657401Y-73710167D01*
X188655008Y-73713890D01*
X188603612Y-73790809D01*
X188603602Y-73790827D01*
X188543264Y-73936498D01*
X188543261Y-73936510D01*
X188512500Y-74091153D01*
X188512500Y-74248846D01*
X188543261Y-74403489D01*
X188543264Y-74403501D01*
X188592574Y-74522548D01*
X188600043Y-74592018D01*
X188592574Y-74617452D01*
X188543264Y-74736498D01*
X188543261Y-74736510D01*
X188512500Y-74891153D01*
X188512500Y-75048846D01*
X188543261Y-75203489D01*
X188543264Y-75203501D01*
X188603602Y-75349172D01*
X188603609Y-75349185D01*
X188691210Y-75480288D01*
X188691213Y-75480292D01*
X188802707Y-75591786D01*
X188802711Y-75591789D01*
X188933814Y-75679390D01*
X188933827Y-75679397D01*
X189071316Y-75736346D01*
X189079503Y-75739737D01*
X189234153Y-75770499D01*
X189234156Y-75770500D01*
X189234158Y-75770500D01*
X189391844Y-75770500D01*
X189391845Y-75770499D01*
X189546497Y-75739737D01*
X189692179Y-75679394D01*
X189823289Y-75591789D01*
X189934789Y-75480289D01*
X190022394Y-75349179D01*
X190082737Y-75203497D01*
X190113500Y-75048842D01*
X190113500Y-74891158D01*
X190113500Y-74891155D01*
X190113499Y-74891153D01*
X190109999Y-74873559D01*
X190082737Y-74736503D01*
X190079791Y-74729390D01*
X190033425Y-74617452D01*
X190025956Y-74547983D01*
X190033425Y-74522548D01*
X190063954Y-74448844D01*
X190082737Y-74403497D01*
X190113500Y-74248842D01*
X190113500Y-74091158D01*
X190113500Y-74091155D01*
X190113499Y-74091153D01*
X190093543Y-73990827D01*
X190082737Y-73936503D01*
X190050929Y-73859711D01*
X190022397Y-73790827D01*
X190022395Y-73790823D01*
X190022394Y-73790821D01*
X189970991Y-73713891D01*
X189950113Y-73647214D01*
X189968597Y-73579834D01*
X189970991Y-73576109D01*
X189973971Y-73571647D01*
X190022394Y-73499179D01*
X190082737Y-73353497D01*
X190113500Y-73198842D01*
X190113500Y-73041158D01*
X190113500Y-73041155D01*
X190107155Y-73009258D01*
X190107155Y-73009257D01*
X190103554Y-72991153D01*
X197902500Y-72991153D01*
X197902500Y-73148846D01*
X197933261Y-73303489D01*
X197933264Y-73303501D01*
X197993602Y-73449172D01*
X197993609Y-73449185D01*
X198081210Y-73580288D01*
X198081213Y-73580292D01*
X198133240Y-73632319D01*
X198166725Y-73693642D01*
X198161741Y-73763334D01*
X198133240Y-73807681D01*
X198081213Y-73859707D01*
X198081210Y-73859711D01*
X197993609Y-73990814D01*
X197993602Y-73990827D01*
X197933264Y-74136498D01*
X197933261Y-74136510D01*
X197902500Y-74291153D01*
X197902500Y-74448846D01*
X197933261Y-74603489D01*
X197933264Y-74603501D01*
X197993602Y-74749172D01*
X197993609Y-74749185D01*
X198081210Y-74880288D01*
X198081213Y-74880292D01*
X198192707Y-74991786D01*
X198192711Y-74991789D01*
X198323814Y-75079390D01*
X198323827Y-75079397D01*
X198469498Y-75139735D01*
X198469503Y-75139737D01*
X198624153Y-75170499D01*
X198624156Y-75170500D01*
X198624158Y-75170500D01*
X198781844Y-75170500D01*
X198781845Y-75170499D01*
X198936497Y-75139737D01*
X199082179Y-75079394D01*
X199213289Y-74991789D01*
X199324789Y-74880289D01*
X199412394Y-74749179D01*
X199415854Y-74740827D01*
X199456877Y-74641786D01*
X199472737Y-74603497D01*
X199503500Y-74448842D01*
X199503500Y-74291158D01*
X199503500Y-74291155D01*
X199503499Y-74291153D01*
X199498583Y-74266439D01*
X199472737Y-74136503D01*
X199457138Y-74098844D01*
X199412394Y-73990820D01*
X199379207Y-73941153D01*
X200252500Y-73941153D01*
X200252500Y-74098846D01*
X200283261Y-74253489D01*
X200283264Y-74253501D01*
X200343602Y-74399172D01*
X200343609Y-74399185D01*
X200431210Y-74530288D01*
X200431213Y-74530292D01*
X200542707Y-74641786D01*
X200542711Y-74641789D01*
X200673814Y-74729390D01*
X200673827Y-74729397D01*
X200755979Y-74763425D01*
X200810383Y-74807265D01*
X200832448Y-74873559D01*
X200830144Y-74902177D01*
X200802500Y-75041153D01*
X200802500Y-75198846D01*
X200833261Y-75353489D01*
X200833264Y-75353501D01*
X200893602Y-75499172D01*
X200893609Y-75499185D01*
X200981210Y-75630288D01*
X200981213Y-75630292D01*
X201092707Y-75741786D01*
X201092711Y-75741789D01*
X201223814Y-75829390D01*
X201223827Y-75829397D01*
X201369498Y-75889735D01*
X201369503Y-75889737D01*
X201524153Y-75920499D01*
X201524156Y-75920500D01*
X201524158Y-75920500D01*
X201681844Y-75920500D01*
X201681845Y-75920499D01*
X201836497Y-75889737D01*
X201982179Y-75829394D01*
X202113289Y-75741789D01*
X202224789Y-75630289D01*
X202312394Y-75499179D01*
X202372737Y-75353497D01*
X202403500Y-75198842D01*
X202403500Y-75041158D01*
X202403500Y-75041155D01*
X202403499Y-75041153D01*
X202402417Y-75035713D01*
X202372737Y-74886503D01*
X202370163Y-74880288D01*
X202312397Y-74740827D01*
X202312390Y-74740814D01*
X202224789Y-74609711D01*
X202224786Y-74609707D01*
X202113292Y-74498213D01*
X202113288Y-74498210D01*
X201982185Y-74410609D01*
X201982176Y-74410604D01*
X201900019Y-74376574D01*
X201845616Y-74332733D01*
X201823551Y-74266439D01*
X201825855Y-74237821D01*
X201853500Y-74098844D01*
X201853500Y-73941155D01*
X201853499Y-73941153D01*
X201837298Y-73859707D01*
X201822737Y-73786503D01*
X201795191Y-73720000D01*
X201762397Y-73640827D01*
X201762390Y-73640814D01*
X201674789Y-73509711D01*
X201674786Y-73509707D01*
X201563292Y-73398213D01*
X201563288Y-73398210D01*
X201432185Y-73310609D01*
X201432172Y-73310602D01*
X201286501Y-73250264D01*
X201286489Y-73250261D01*
X201131845Y-73219500D01*
X201131842Y-73219500D01*
X200974158Y-73219500D01*
X200974155Y-73219500D01*
X200819510Y-73250261D01*
X200819498Y-73250264D01*
X200673827Y-73310602D01*
X200673814Y-73310609D01*
X200542711Y-73398210D01*
X200542707Y-73398213D01*
X200431213Y-73509707D01*
X200431210Y-73509711D01*
X200343609Y-73640814D01*
X200343602Y-73640827D01*
X200283264Y-73786498D01*
X200283261Y-73786510D01*
X200252500Y-73941153D01*
X199379207Y-73941153D01*
X199324789Y-73859711D01*
X199324786Y-73859707D01*
X199272760Y-73807681D01*
X199239275Y-73746358D01*
X199244259Y-73676666D01*
X199272760Y-73632319D01*
X199324786Y-73580292D01*
X199324789Y-73580289D01*
X199412394Y-73449179D01*
X199472737Y-73303497D01*
X199503500Y-73148842D01*
X199503500Y-72991158D01*
X199503500Y-72991155D01*
X199503499Y-72991153D01*
X199472737Y-72836503D01*
X199457138Y-72798844D01*
X199412397Y-72690827D01*
X199412390Y-72690814D01*
X199324789Y-72559711D01*
X199324786Y-72559707D01*
X199213292Y-72448213D01*
X199213288Y-72448210D01*
X199082185Y-72360609D01*
X199082172Y-72360602D01*
X198936501Y-72300264D01*
X198936489Y-72300261D01*
X198781845Y-72269500D01*
X198781842Y-72269500D01*
X198624158Y-72269500D01*
X198624155Y-72269500D01*
X198469510Y-72300261D01*
X198469498Y-72300264D01*
X198323827Y-72360602D01*
X198323814Y-72360609D01*
X198192711Y-72448210D01*
X198192707Y-72448213D01*
X198081213Y-72559707D01*
X198081210Y-72559711D01*
X197993609Y-72690814D01*
X197993602Y-72690827D01*
X197933264Y-72836498D01*
X197933261Y-72836510D01*
X197902500Y-72991153D01*
X190103554Y-72991153D01*
X190082738Y-72886510D01*
X190082737Y-72886503D01*
X190082735Y-72886498D01*
X190022397Y-72740827D01*
X190022395Y-72740823D01*
X190022394Y-72740821D01*
X189970991Y-72663891D01*
X189950113Y-72597214D01*
X189968597Y-72529834D01*
X189970991Y-72526109D01*
X189997458Y-72486498D01*
X190022394Y-72449179D01*
X190082737Y-72303497D01*
X190113500Y-72148842D01*
X190113500Y-71991158D01*
X190113500Y-71991155D01*
X190113499Y-71991153D01*
X190082737Y-71836503D01*
X190067138Y-71798844D01*
X190022394Y-71690820D01*
X189989207Y-71641153D01*
X200852500Y-71641153D01*
X200852500Y-71798846D01*
X200883261Y-71953489D01*
X200883264Y-71953501D01*
X200943602Y-72099172D01*
X200943609Y-72099185D01*
X201031210Y-72230288D01*
X201031213Y-72230292D01*
X201142707Y-72341786D01*
X201142711Y-72341789D01*
X201273814Y-72429390D01*
X201273827Y-72429397D01*
X201411683Y-72486498D01*
X201419503Y-72489737D01*
X201574153Y-72520499D01*
X201574156Y-72520500D01*
X201574158Y-72520500D01*
X201731844Y-72520500D01*
X201731845Y-72520499D01*
X201886497Y-72489737D01*
X202032179Y-72429394D01*
X202163289Y-72341789D01*
X202274789Y-72230289D01*
X202362394Y-72099179D01*
X202422737Y-71953497D01*
X202453500Y-71798842D01*
X202453500Y-71641158D01*
X202453500Y-71641155D01*
X202453499Y-71641153D01*
X202422738Y-71486510D01*
X202422737Y-71486503D01*
X202406876Y-71448210D01*
X202362397Y-71340827D01*
X202362390Y-71340814D01*
X202274789Y-71209711D01*
X202274786Y-71209707D01*
X202163292Y-71098213D01*
X202163288Y-71098210D01*
X202032185Y-71010609D01*
X202032172Y-71010602D01*
X201886501Y-70950264D01*
X201886489Y-70950261D01*
X201731845Y-70919500D01*
X201731842Y-70919500D01*
X201574158Y-70919500D01*
X201574155Y-70919500D01*
X201419510Y-70950261D01*
X201419498Y-70950264D01*
X201273827Y-71010602D01*
X201273814Y-71010609D01*
X201142711Y-71098210D01*
X201142707Y-71098213D01*
X201031213Y-71209707D01*
X201031210Y-71209711D01*
X200943609Y-71340814D01*
X200943602Y-71340827D01*
X200883264Y-71486498D01*
X200883261Y-71486510D01*
X200852500Y-71641153D01*
X189989207Y-71641153D01*
X189934789Y-71559711D01*
X189934786Y-71559707D01*
X189823292Y-71448213D01*
X189823288Y-71448210D01*
X189692185Y-71360609D01*
X189692172Y-71360602D01*
X189546501Y-71300264D01*
X189546489Y-71300261D01*
X189391845Y-71269500D01*
X189391842Y-71269500D01*
X189234158Y-71269500D01*
X189234155Y-71269500D01*
X189079510Y-71300261D01*
X189079498Y-71300264D01*
X188933827Y-71360602D01*
X188933814Y-71360609D01*
X188802711Y-71448210D01*
X188802707Y-71448213D01*
X188691213Y-71559707D01*
X188691210Y-71559711D01*
X188603609Y-71690814D01*
X188603602Y-71690827D01*
X188543264Y-71836498D01*
X188543261Y-71836510D01*
X188512500Y-71991153D01*
X177185217Y-71991153D01*
X177086501Y-71950264D01*
X177086489Y-71950261D01*
X176931845Y-71919500D01*
X176931842Y-71919500D01*
X176774158Y-71919500D01*
X176774155Y-71919500D01*
X176619510Y-71950261D01*
X176619498Y-71950264D01*
X176473827Y-72010602D01*
X176473814Y-72010609D01*
X176342711Y-72098210D01*
X176342707Y-72098213D01*
X176231213Y-72209707D01*
X176231210Y-72209711D01*
X176143609Y-72340814D01*
X176143602Y-72340827D01*
X176083264Y-72486498D01*
X176083261Y-72486510D01*
X176052500Y-72641153D01*
X170653500Y-72641153D01*
X170653500Y-69991153D01*
X171352500Y-69991153D01*
X171352500Y-70148846D01*
X171383261Y-70303489D01*
X171383264Y-70303501D01*
X171443602Y-70449172D01*
X171443609Y-70449185D01*
X171531210Y-70580288D01*
X171531213Y-70580292D01*
X171642707Y-70691786D01*
X171642711Y-70691789D01*
X171773814Y-70779390D01*
X171773827Y-70779397D01*
X171919498Y-70839735D01*
X171919503Y-70839737D01*
X172074153Y-70870499D01*
X172074156Y-70870500D01*
X172074158Y-70870500D01*
X172231844Y-70870500D01*
X172231845Y-70870499D01*
X172386497Y-70839737D01*
X172532179Y-70779394D01*
X172663289Y-70691789D01*
X172774789Y-70580289D01*
X172862394Y-70449179D01*
X172922737Y-70303497D01*
X172953500Y-70148842D01*
X172953500Y-69991158D01*
X172953500Y-69991155D01*
X172953499Y-69991153D01*
X172922737Y-69836503D01*
X172897197Y-69774844D01*
X172862397Y-69690827D01*
X172862390Y-69690814D01*
X172774789Y-69559711D01*
X172774786Y-69559707D01*
X172663292Y-69448213D01*
X172663288Y-69448210D01*
X172532185Y-69360609D01*
X172532172Y-69360602D01*
X172386501Y-69300264D01*
X172386489Y-69300261D01*
X172231845Y-69269500D01*
X172231842Y-69269500D01*
X172074158Y-69269500D01*
X172074155Y-69269500D01*
X171919510Y-69300261D01*
X171919498Y-69300264D01*
X171773827Y-69360602D01*
X171773814Y-69360609D01*
X171642711Y-69448210D01*
X171642707Y-69448213D01*
X171531213Y-69559707D01*
X171531210Y-69559711D01*
X171443609Y-69690814D01*
X171443602Y-69690827D01*
X171383264Y-69836498D01*
X171383261Y-69836510D01*
X171352500Y-69991153D01*
X170653500Y-69991153D01*
X170653500Y-67891153D01*
X182852500Y-67891153D01*
X182852500Y-68048846D01*
X182883261Y-68203489D01*
X182883264Y-68203501D01*
X182943602Y-68349172D01*
X182943609Y-68349185D01*
X183031210Y-68480288D01*
X183031213Y-68480292D01*
X183142707Y-68591786D01*
X183142711Y-68591789D01*
X183273814Y-68679390D01*
X183273827Y-68679397D01*
X183419498Y-68739735D01*
X183419503Y-68739737D01*
X183574153Y-68770499D01*
X183574156Y-68770500D01*
X183574158Y-68770500D01*
X183731844Y-68770500D01*
X183731845Y-68770499D01*
X183886497Y-68739737D01*
X184032179Y-68679394D01*
X184163289Y-68591789D01*
X184274789Y-68480289D01*
X184362394Y-68349179D01*
X184422737Y-68203497D01*
X184449261Y-68070153D01*
X199902500Y-68070153D01*
X199902500Y-68227846D01*
X199933261Y-68382489D01*
X199933264Y-68382501D01*
X199993602Y-68528172D01*
X199993609Y-68528185D01*
X200081210Y-68659288D01*
X200081213Y-68659292D01*
X200192707Y-68770786D01*
X200192711Y-68770789D01*
X200265458Y-68819398D01*
X200310263Y-68873011D01*
X200318970Y-68942336D01*
X200288815Y-69005363D01*
X200265458Y-69025602D01*
X200192711Y-69074210D01*
X200192707Y-69074213D01*
X200081213Y-69185707D01*
X200081210Y-69185711D01*
X199993609Y-69316814D01*
X199993602Y-69316827D01*
X199933264Y-69462498D01*
X199933261Y-69462510D01*
X199902500Y-69617153D01*
X199902500Y-69774846D01*
X199933261Y-69929489D01*
X199933264Y-69929501D01*
X199993602Y-70075172D01*
X199993609Y-70075185D01*
X200081210Y-70206288D01*
X200081213Y-70206292D01*
X200192707Y-70317786D01*
X200192711Y-70317789D01*
X200323814Y-70405390D01*
X200323827Y-70405397D01*
X200469498Y-70465735D01*
X200469503Y-70465737D01*
X200624153Y-70496499D01*
X200624156Y-70496500D01*
X200624158Y-70496500D01*
X200781844Y-70496500D01*
X200781845Y-70496499D01*
X200936497Y-70465737D01*
X201082179Y-70405394D01*
X201213289Y-70317789D01*
X201324789Y-70206289D01*
X201412394Y-70075179D01*
X201472737Y-69929497D01*
X201503500Y-69774842D01*
X201503500Y-69617158D01*
X201503500Y-69617155D01*
X201503499Y-69617153D01*
X201472738Y-69462510D01*
X201472737Y-69462503D01*
X201466817Y-69448210D01*
X201412397Y-69316827D01*
X201412390Y-69316814D01*
X201324789Y-69185711D01*
X201324786Y-69185707D01*
X201213292Y-69074213D01*
X201213288Y-69074210D01*
X201140541Y-69025602D01*
X201095736Y-68971990D01*
X201087029Y-68902665D01*
X201117183Y-68839638D01*
X201140541Y-68819398D01*
X201162326Y-68804841D01*
X201213289Y-68770789D01*
X201324789Y-68659289D01*
X201412394Y-68528179D01*
X201472737Y-68382497D01*
X201503500Y-68227842D01*
X201503500Y-68070158D01*
X201503500Y-68070155D01*
X201503499Y-68070153D01*
X201499261Y-68048846D01*
X201472737Y-67915503D01*
X201462065Y-67889738D01*
X201412397Y-67769827D01*
X201412390Y-67769814D01*
X201324789Y-67638711D01*
X201324786Y-67638707D01*
X201213292Y-67527213D01*
X201213288Y-67527210D01*
X201082185Y-67439609D01*
X201082172Y-67439602D01*
X200936501Y-67379264D01*
X200936489Y-67379261D01*
X200781845Y-67348500D01*
X200781842Y-67348500D01*
X200624158Y-67348500D01*
X200624155Y-67348500D01*
X200469510Y-67379261D01*
X200469498Y-67379264D01*
X200323827Y-67439602D01*
X200323814Y-67439609D01*
X200192711Y-67527210D01*
X200192707Y-67527213D01*
X200081213Y-67638707D01*
X200081210Y-67638711D01*
X199993609Y-67769814D01*
X199993602Y-67769827D01*
X199933264Y-67915498D01*
X199933261Y-67915510D01*
X199902500Y-68070153D01*
X184449261Y-68070153D01*
X184453500Y-68048845D01*
X184453500Y-67891155D01*
X184453499Y-67891153D01*
X184441213Y-67829390D01*
X184422737Y-67736503D01*
X184382229Y-67638707D01*
X184362397Y-67590827D01*
X184362390Y-67590814D01*
X184274789Y-67459711D01*
X184274786Y-67459707D01*
X184163292Y-67348213D01*
X184163288Y-67348210D01*
X184032185Y-67260609D01*
X184032172Y-67260602D01*
X183886501Y-67200264D01*
X183886489Y-67200261D01*
X183731845Y-67169500D01*
X183731842Y-67169500D01*
X183574158Y-67169500D01*
X183574155Y-67169500D01*
X183419510Y-67200261D01*
X183419498Y-67200264D01*
X183273827Y-67260602D01*
X183273814Y-67260609D01*
X183142711Y-67348210D01*
X183142707Y-67348213D01*
X183031213Y-67459707D01*
X183031210Y-67459711D01*
X182943609Y-67590814D01*
X182943602Y-67590827D01*
X182883264Y-67736498D01*
X182883261Y-67736510D01*
X182852500Y-67891153D01*
X170653500Y-67891153D01*
X170653500Y-67041153D01*
X186852500Y-67041153D01*
X186852500Y-67198846D01*
X186883261Y-67353489D01*
X186883264Y-67353501D01*
X186943602Y-67499172D01*
X186943609Y-67499185D01*
X187031210Y-67630288D01*
X187031213Y-67630292D01*
X187142707Y-67741786D01*
X187142711Y-67741789D01*
X187273814Y-67829390D01*
X187273827Y-67829397D01*
X187419498Y-67889735D01*
X187419503Y-67889737D01*
X187549037Y-67915503D01*
X187574153Y-67920499D01*
X187574156Y-67920500D01*
X187574158Y-67920500D01*
X187731844Y-67920500D01*
X187731845Y-67920499D01*
X187886497Y-67889737D01*
X188032179Y-67829394D01*
X188163289Y-67741789D01*
X188274789Y-67630289D01*
X188362394Y-67499179D01*
X188422737Y-67353497D01*
X188453500Y-67198842D01*
X188453500Y-67041158D01*
X188453500Y-67041155D01*
X188453499Y-67041153D01*
X188451338Y-67030288D01*
X188422737Y-66886503D01*
X188422735Y-66886498D01*
X188362397Y-66740827D01*
X188362390Y-66740814D01*
X188274789Y-66609711D01*
X188274786Y-66609707D01*
X188163292Y-66498213D01*
X188163288Y-66498210D01*
X188077897Y-66441153D01*
X192752500Y-66441153D01*
X192752500Y-66598846D01*
X192783261Y-66753489D01*
X192783264Y-66753501D01*
X192843602Y-66899172D01*
X192843609Y-66899185D01*
X192931210Y-67030288D01*
X192931213Y-67030292D01*
X193042707Y-67141786D01*
X193042711Y-67141789D01*
X193173814Y-67229390D01*
X193173827Y-67229397D01*
X193249181Y-67260609D01*
X193319503Y-67289737D01*
X193474153Y-67320499D01*
X193474156Y-67320500D01*
X193474158Y-67320500D01*
X193631844Y-67320500D01*
X193631845Y-67320499D01*
X193786497Y-67289737D01*
X193932179Y-67229394D01*
X194063289Y-67141789D01*
X194174789Y-67030289D01*
X194262394Y-66899179D01*
X194322737Y-66753497D01*
X194353500Y-66598842D01*
X194353500Y-66441158D01*
X194353500Y-66441155D01*
X194353499Y-66441153D01*
X194335419Y-66350261D01*
X194322737Y-66286503D01*
X194295398Y-66220500D01*
X194262397Y-66140827D01*
X194262390Y-66140814D01*
X194174789Y-66009711D01*
X194174786Y-66009707D01*
X194063292Y-65898213D01*
X194063288Y-65898210D01*
X193932185Y-65810609D01*
X193932172Y-65810602D01*
X193786501Y-65750264D01*
X193786489Y-65750261D01*
X193631845Y-65719500D01*
X193631842Y-65719500D01*
X193474158Y-65719500D01*
X193474155Y-65719500D01*
X193319510Y-65750261D01*
X193319498Y-65750264D01*
X193173827Y-65810602D01*
X193173814Y-65810609D01*
X193042711Y-65898210D01*
X193042707Y-65898213D01*
X192931213Y-66009707D01*
X192931210Y-66009711D01*
X192843609Y-66140814D01*
X192843602Y-66140827D01*
X192783264Y-66286498D01*
X192783261Y-66286510D01*
X192752500Y-66441153D01*
X188077897Y-66441153D01*
X188032185Y-66410609D01*
X188032172Y-66410602D01*
X187886501Y-66350264D01*
X187886489Y-66350261D01*
X187731845Y-66319500D01*
X187731842Y-66319500D01*
X187574158Y-66319500D01*
X187574155Y-66319500D01*
X187419510Y-66350261D01*
X187419498Y-66350264D01*
X187273827Y-66410602D01*
X187273814Y-66410609D01*
X187142711Y-66498210D01*
X187142707Y-66498213D01*
X187031213Y-66609707D01*
X187031210Y-66609711D01*
X186943609Y-66740814D01*
X186943602Y-66740827D01*
X186883264Y-66886498D01*
X186883261Y-66886510D01*
X186852500Y-67041153D01*
X170653500Y-67041153D01*
X170653500Y-65191153D01*
X173102500Y-65191153D01*
X173102500Y-65348846D01*
X173133261Y-65503489D01*
X173133264Y-65503501D01*
X173193602Y-65649172D01*
X173193609Y-65649185D01*
X173281210Y-65780288D01*
X173281213Y-65780292D01*
X173392707Y-65891786D01*
X173392711Y-65891789D01*
X173523814Y-65979390D01*
X173523827Y-65979397D01*
X173597013Y-66009711D01*
X173669503Y-66039737D01*
X173824153Y-66070499D01*
X173824156Y-66070500D01*
X173824158Y-66070500D01*
X173981844Y-66070500D01*
X173981845Y-66070499D01*
X174136497Y-66039737D01*
X174282179Y-65979394D01*
X174413289Y-65891789D01*
X174524789Y-65780289D01*
X174612394Y-65649179D01*
X174672737Y-65503497D01*
X174703500Y-65348842D01*
X174703500Y-65191158D01*
X174703500Y-65191155D01*
X174703499Y-65191153D01*
X174691392Y-65130288D01*
X174672737Y-65036503D01*
X174672735Y-65036498D01*
X174612397Y-64890827D01*
X174612390Y-64890814D01*
X174524789Y-64759711D01*
X174524786Y-64759707D01*
X174413289Y-64648210D01*
X174398259Y-64638168D01*
X174282185Y-64560609D01*
X174282172Y-64560602D01*
X174235217Y-64541153D01*
X184152500Y-64541153D01*
X184152500Y-64698846D01*
X184183261Y-64853489D01*
X184183264Y-64853501D01*
X184243602Y-64999172D01*
X184243609Y-64999185D01*
X184331210Y-65130288D01*
X184331213Y-65130292D01*
X184442707Y-65241786D01*
X184442711Y-65241789D01*
X184573814Y-65329390D01*
X184573827Y-65329397D01*
X184719498Y-65389735D01*
X184719503Y-65389737D01*
X184874153Y-65420499D01*
X184874156Y-65420500D01*
X184874158Y-65420500D01*
X185031844Y-65420500D01*
X185031845Y-65420499D01*
X185186497Y-65389737D01*
X185231363Y-65371153D01*
X197732500Y-65371153D01*
X197732500Y-65528846D01*
X197763261Y-65683489D01*
X197763264Y-65683501D01*
X197823602Y-65829172D01*
X197823609Y-65829185D01*
X197911210Y-65960288D01*
X197911213Y-65960292D01*
X198022707Y-66071786D01*
X198022711Y-66071789D01*
X198153814Y-66159390D01*
X198153827Y-66159397D01*
X198227078Y-66189738D01*
X198299503Y-66219737D01*
X198454153Y-66250499D01*
X198454156Y-66250500D01*
X198454158Y-66250500D01*
X198611844Y-66250500D01*
X198611845Y-66250499D01*
X198766497Y-66219737D01*
X198912179Y-66159394D01*
X199043289Y-66071789D01*
X199154789Y-65960289D01*
X199242394Y-65829179D01*
X199302737Y-65683497D01*
X199333500Y-65528842D01*
X199333500Y-65371158D01*
X199329061Y-65348844D01*
X199327531Y-65341153D01*
X202852500Y-65341153D01*
X202852500Y-65498846D01*
X202883261Y-65653489D01*
X202883264Y-65653501D01*
X202943602Y-65799172D01*
X202943609Y-65799185D01*
X203031210Y-65930288D01*
X203031213Y-65930292D01*
X203142707Y-66041786D01*
X203142711Y-66041789D01*
X203273814Y-66129390D01*
X203273827Y-66129397D01*
X203419498Y-66189735D01*
X203419503Y-66189737D01*
X203570312Y-66219735D01*
X203574153Y-66220499D01*
X203574156Y-66220500D01*
X203574158Y-66220500D01*
X203731844Y-66220500D01*
X203731845Y-66220499D01*
X203886497Y-66189737D01*
X204004592Y-66140821D01*
X204032172Y-66129397D01*
X204032172Y-66129396D01*
X204032179Y-66129394D01*
X204163289Y-66041789D01*
X204274789Y-65930289D01*
X204362394Y-65799179D01*
X204422737Y-65653497D01*
X204453500Y-65498842D01*
X204453500Y-65341158D01*
X204453500Y-65341155D01*
X204453499Y-65341153D01*
X204433734Y-65241789D01*
X204422737Y-65186503D01*
X204374823Y-65070827D01*
X204362397Y-65040827D01*
X204362390Y-65040814D01*
X204274789Y-64909711D01*
X204274786Y-64909707D01*
X204163292Y-64798213D01*
X204163288Y-64798210D01*
X204032185Y-64710609D01*
X204032172Y-64710602D01*
X203886501Y-64650264D01*
X203886489Y-64650261D01*
X203731845Y-64619500D01*
X203731842Y-64619500D01*
X203574158Y-64619500D01*
X203574155Y-64619500D01*
X203419510Y-64650261D01*
X203419498Y-64650264D01*
X203273827Y-64710602D01*
X203273814Y-64710609D01*
X203142711Y-64798210D01*
X203142707Y-64798213D01*
X203031213Y-64909707D01*
X203031210Y-64909711D01*
X202943609Y-65040814D01*
X202943602Y-65040827D01*
X202883264Y-65186498D01*
X202883261Y-65186510D01*
X202852500Y-65341153D01*
X199327531Y-65341153D01*
X199311780Y-65261964D01*
X199302737Y-65216503D01*
X199267028Y-65130292D01*
X199242397Y-65070827D01*
X199242390Y-65070814D01*
X199154789Y-64939711D01*
X199154786Y-64939707D01*
X199043292Y-64828213D01*
X199043288Y-64828210D01*
X198912185Y-64740609D01*
X198912172Y-64740602D01*
X198766501Y-64680264D01*
X198766489Y-64680261D01*
X198611845Y-64649500D01*
X198611842Y-64649500D01*
X198454158Y-64649500D01*
X198454155Y-64649500D01*
X198299510Y-64680261D01*
X198299498Y-64680264D01*
X198153827Y-64740602D01*
X198153814Y-64740609D01*
X198022711Y-64828210D01*
X198022707Y-64828213D01*
X197911213Y-64939707D01*
X197911210Y-64939711D01*
X197823609Y-65070814D01*
X197823602Y-65070827D01*
X197763264Y-65216498D01*
X197763261Y-65216510D01*
X197732500Y-65371153D01*
X185231363Y-65371153D01*
X185332179Y-65329394D01*
X185332185Y-65329390D01*
X185433096Y-65261964D01*
X185448094Y-65251941D01*
X185463289Y-65241789D01*
X185574789Y-65130289D01*
X185662394Y-64999179D01*
X185722737Y-64853497D01*
X185753500Y-64698842D01*
X185753500Y-64541158D01*
X185753500Y-64541155D01*
X185753499Y-64541153D01*
X185739246Y-64469500D01*
X185722737Y-64386503D01*
X185722735Y-64386498D01*
X185662397Y-64240827D01*
X185662390Y-64240814D01*
X185574789Y-64109711D01*
X185574786Y-64109707D01*
X185463292Y-63998213D01*
X185463288Y-63998210D01*
X185332185Y-63910609D01*
X185332172Y-63910602D01*
X185186501Y-63850264D01*
X185186489Y-63850261D01*
X185031845Y-63819500D01*
X185031842Y-63819500D01*
X184874158Y-63819500D01*
X184874155Y-63819500D01*
X184719510Y-63850261D01*
X184719498Y-63850264D01*
X184573827Y-63910602D01*
X184573814Y-63910609D01*
X184442711Y-63998210D01*
X184442707Y-63998213D01*
X184331213Y-64109707D01*
X184331210Y-64109711D01*
X184243609Y-64240814D01*
X184243602Y-64240827D01*
X184183264Y-64386498D01*
X184183261Y-64386510D01*
X184152500Y-64541153D01*
X174235217Y-64541153D01*
X174136501Y-64500264D01*
X174136489Y-64500261D01*
X173981845Y-64469500D01*
X173981842Y-64469500D01*
X173824158Y-64469500D01*
X173824155Y-64469500D01*
X173669510Y-64500261D01*
X173669498Y-64500264D01*
X173523827Y-64560602D01*
X173523814Y-64560609D01*
X173392711Y-64648210D01*
X173392707Y-64648213D01*
X173281213Y-64759707D01*
X173281210Y-64759711D01*
X173193609Y-64890814D01*
X173193602Y-64890827D01*
X173133264Y-65036498D01*
X173133261Y-65036510D01*
X173102500Y-65191153D01*
X170653500Y-65191153D01*
X170653500Y-63941153D01*
X171452500Y-63941153D01*
X171452500Y-64098846D01*
X171483261Y-64253489D01*
X171483264Y-64253501D01*
X171543602Y-64399172D01*
X171543609Y-64399185D01*
X171631210Y-64530288D01*
X171631213Y-64530292D01*
X171742707Y-64641786D01*
X171742711Y-64641789D01*
X171873814Y-64729390D01*
X171873827Y-64729397D01*
X171947013Y-64759711D01*
X172019503Y-64789737D01*
X172174153Y-64820499D01*
X172174156Y-64820500D01*
X172174158Y-64820500D01*
X172331844Y-64820500D01*
X172331845Y-64820499D01*
X172486497Y-64789737D01*
X172632179Y-64729394D01*
X172763289Y-64641789D01*
X172874789Y-64530289D01*
X172962394Y-64399179D01*
X173022737Y-64253497D01*
X173053500Y-64098842D01*
X173053500Y-63941158D01*
X173053500Y-63941155D01*
X173053499Y-63941153D01*
X173035419Y-63850261D01*
X173022737Y-63786503D01*
X173022735Y-63786498D01*
X172962397Y-63640827D01*
X172962390Y-63640814D01*
X172874789Y-63509711D01*
X172874786Y-63509707D01*
X172763292Y-63398213D01*
X172763288Y-63398210D01*
X172632185Y-63310609D01*
X172632172Y-63310602D01*
X172486501Y-63250264D01*
X172486489Y-63250261D01*
X172331845Y-63219500D01*
X172331842Y-63219500D01*
X172174158Y-63219500D01*
X172174155Y-63219500D01*
X172019510Y-63250261D01*
X172019498Y-63250264D01*
X171873827Y-63310602D01*
X171873814Y-63310609D01*
X171742711Y-63398210D01*
X171742707Y-63398213D01*
X171631213Y-63509707D01*
X171631210Y-63509711D01*
X171543609Y-63640814D01*
X171543602Y-63640827D01*
X171483264Y-63786498D01*
X171483261Y-63786510D01*
X171452500Y-63941153D01*
X170653500Y-63941153D01*
X170653500Y-61941153D01*
X185752500Y-61941153D01*
X185752500Y-62098846D01*
X185783261Y-62253489D01*
X185783264Y-62253501D01*
X185843602Y-62399172D01*
X185843609Y-62399185D01*
X185931210Y-62530288D01*
X185931213Y-62530292D01*
X186042707Y-62641786D01*
X186042711Y-62641789D01*
X186173814Y-62729390D01*
X186173827Y-62729397D01*
X186319498Y-62789735D01*
X186319503Y-62789737D01*
X186474153Y-62820499D01*
X186474156Y-62820500D01*
X186474158Y-62820500D01*
X186631844Y-62820500D01*
X186631845Y-62820499D01*
X186786497Y-62789737D01*
X186903790Y-62741153D01*
X197652500Y-62741153D01*
X197652500Y-62898846D01*
X197683261Y-63053489D01*
X197683264Y-63053501D01*
X197743602Y-63199172D01*
X197743609Y-63199185D01*
X197831210Y-63330288D01*
X197831213Y-63330292D01*
X197942707Y-63441786D01*
X197942711Y-63441789D01*
X198073814Y-63529390D01*
X198073827Y-63529397D01*
X198219498Y-63589735D01*
X198219503Y-63589737D01*
X198374153Y-63620499D01*
X198374156Y-63620500D01*
X198374158Y-63620500D01*
X198531844Y-63620500D01*
X198531845Y-63620499D01*
X198686497Y-63589737D01*
X198832179Y-63529394D01*
X198963289Y-63441789D01*
X199074789Y-63330289D01*
X199162394Y-63199179D01*
X199222737Y-63053497D01*
X199253500Y-62898842D01*
X199253500Y-62741158D01*
X199253500Y-62741155D01*
X199253499Y-62741153D01*
X199233734Y-62641788D01*
X199222737Y-62586503D01*
X199199452Y-62530288D01*
X199162397Y-62440827D01*
X199162390Y-62440814D01*
X199074789Y-62309711D01*
X199074786Y-62309707D01*
X198963292Y-62198213D01*
X198963288Y-62198210D01*
X198832185Y-62110609D01*
X198832172Y-62110602D01*
X198686501Y-62050264D01*
X198686489Y-62050261D01*
X198531845Y-62019500D01*
X198531842Y-62019500D01*
X198374158Y-62019500D01*
X198374155Y-62019500D01*
X198219510Y-62050261D01*
X198219498Y-62050264D01*
X198073827Y-62110602D01*
X198073814Y-62110609D01*
X197942711Y-62198210D01*
X197942707Y-62198213D01*
X197831213Y-62309707D01*
X197831210Y-62309711D01*
X197743609Y-62440814D01*
X197743602Y-62440827D01*
X197683264Y-62586498D01*
X197683261Y-62586510D01*
X197652500Y-62741153D01*
X186903790Y-62741153D01*
X186932179Y-62729394D01*
X187063289Y-62641789D01*
X187174789Y-62530289D01*
X187262394Y-62399179D01*
X187322737Y-62253497D01*
X187353500Y-62098842D01*
X187353500Y-61941158D01*
X187353500Y-61941155D01*
X187353499Y-61941153D01*
X187322738Y-61786510D01*
X187322737Y-61786503D01*
X187322735Y-61786498D01*
X187262397Y-61640827D01*
X187262390Y-61640814D01*
X187174789Y-61509711D01*
X187174786Y-61509707D01*
X187063292Y-61398213D01*
X187063288Y-61398210D01*
X186932185Y-61310609D01*
X186932172Y-61310602D01*
X186786501Y-61250264D01*
X186786489Y-61250261D01*
X186631845Y-61219500D01*
X186631842Y-61219500D01*
X186474158Y-61219500D01*
X186474155Y-61219500D01*
X186319510Y-61250261D01*
X186319498Y-61250264D01*
X186173827Y-61310602D01*
X186173814Y-61310609D01*
X186042711Y-61398210D01*
X186042707Y-61398213D01*
X185931213Y-61509707D01*
X185931210Y-61509711D01*
X185843609Y-61640814D01*
X185843602Y-61640827D01*
X185783264Y-61786498D01*
X185783261Y-61786510D01*
X185752500Y-61941153D01*
X170653500Y-61941153D01*
X170653500Y-60471262D01*
X174121350Y-60471262D01*
X174121350Y-60588737D01*
X174131759Y-60667807D01*
X174162162Y-60781273D01*
X174162163Y-60781276D01*
X174192684Y-60854959D01*
X174251421Y-60956694D01*
X174251426Y-60956700D01*
X174251427Y-60956702D01*
X174299968Y-61019962D01*
X174299974Y-61019969D01*
X174383030Y-61103025D01*
X174383036Y-61103030D01*
X174446306Y-61151579D01*
X174548041Y-61210316D01*
X174621724Y-61240837D01*
X174735195Y-61271241D01*
X174800132Y-61279789D01*
X174814262Y-61281650D01*
X174814263Y-61281650D01*
X174931738Y-61281650D01*
X174943725Y-61280071D01*
X175010805Y-61271241D01*
X175124276Y-61240837D01*
X175197959Y-61210316D01*
X175299694Y-61151579D01*
X175362964Y-61103030D01*
X175446030Y-61019964D01*
X175494579Y-60956694D01*
X175553316Y-60854959D01*
X175583837Y-60781276D01*
X175614241Y-60667805D01*
X175624650Y-60588737D01*
X175624650Y-60471263D01*
X175614241Y-60392195D01*
X175583837Y-60278724D01*
X175553316Y-60205041D01*
X175494579Y-60103306D01*
X175446030Y-60040036D01*
X175446025Y-60040030D01*
X175362969Y-59956974D01*
X175362962Y-59956968D01*
X175299702Y-59908427D01*
X175299700Y-59908426D01*
X175299694Y-59908421D01*
X175197961Y-59849685D01*
X175197960Y-59849684D01*
X175197888Y-59849654D01*
X175124276Y-59819163D01*
X175124274Y-59819162D01*
X175124273Y-59819162D01*
X175010807Y-59788759D01*
X174931738Y-59778350D01*
X174931737Y-59778350D01*
X174814263Y-59778350D01*
X174814262Y-59778350D01*
X174735192Y-59788759D01*
X174621726Y-59819162D01*
X174621717Y-59819166D01*
X174548041Y-59849684D01*
X174548037Y-59849686D01*
X174446306Y-59908421D01*
X174446297Y-59908427D01*
X174383037Y-59956968D01*
X174383030Y-59956974D01*
X174299974Y-60040030D01*
X174299968Y-60040037D01*
X174251427Y-60103297D01*
X174251421Y-60103306D01*
X174192686Y-60205037D01*
X174192684Y-60205041D01*
X174162166Y-60278717D01*
X174162162Y-60278726D01*
X174131759Y-60392192D01*
X174121350Y-60471262D01*
X170653500Y-60471262D01*
X170653500Y-59741153D01*
X194452500Y-59741153D01*
X194452500Y-59898846D01*
X194483261Y-60053489D01*
X194483264Y-60053501D01*
X194543602Y-60199172D01*
X194543609Y-60199185D01*
X194631210Y-60330288D01*
X194631213Y-60330292D01*
X194742707Y-60441786D01*
X194742711Y-60441789D01*
X194873814Y-60529390D01*
X194873827Y-60529397D01*
X195017089Y-60588737D01*
X195019503Y-60589737D01*
X195174153Y-60620499D01*
X195174156Y-60620500D01*
X195174158Y-60620500D01*
X195331844Y-60620500D01*
X195331845Y-60620499D01*
X195486497Y-60589737D01*
X195632179Y-60529394D01*
X195763289Y-60441789D01*
X195874789Y-60330289D01*
X195962394Y-60199179D01*
X196022737Y-60053497D01*
X196053500Y-59898842D01*
X196053500Y-59741158D01*
X196053500Y-59741155D01*
X196053499Y-59741153D01*
X196022738Y-59586510D01*
X196022737Y-59586503D01*
X196022735Y-59586498D01*
X195962397Y-59440827D01*
X195962390Y-59440814D01*
X195874789Y-59309711D01*
X195874786Y-59309707D01*
X195763292Y-59198213D01*
X195763288Y-59198210D01*
X195632185Y-59110609D01*
X195632172Y-59110602D01*
X195486501Y-59050264D01*
X195486489Y-59050261D01*
X195331845Y-59019500D01*
X195331842Y-59019500D01*
X195174158Y-59019500D01*
X195174155Y-59019500D01*
X195019510Y-59050261D01*
X195019498Y-59050264D01*
X194873827Y-59110602D01*
X194873814Y-59110609D01*
X194742711Y-59198210D01*
X194742707Y-59198213D01*
X194631213Y-59309707D01*
X194631210Y-59309711D01*
X194543609Y-59440814D01*
X194543602Y-59440827D01*
X194483264Y-59586498D01*
X194483261Y-59586510D01*
X194452500Y-59741153D01*
X170653500Y-59741153D01*
X170653500Y-58441153D01*
X181352500Y-58441153D01*
X181352500Y-58598846D01*
X181383261Y-58753489D01*
X181383264Y-58753501D01*
X181443602Y-58899172D01*
X181443609Y-58899185D01*
X181531210Y-59030288D01*
X181531213Y-59030292D01*
X181642707Y-59141786D01*
X181642711Y-59141789D01*
X181773814Y-59229390D01*
X181773827Y-59229397D01*
X181919498Y-59289735D01*
X181919503Y-59289737D01*
X182074153Y-59320499D01*
X182074156Y-59320500D01*
X182074158Y-59320500D01*
X182231844Y-59320500D01*
X182231845Y-59320499D01*
X182386497Y-59289737D01*
X182532179Y-59229394D01*
X182663289Y-59141789D01*
X182774789Y-59030289D01*
X182862394Y-58899179D01*
X182922737Y-58753497D01*
X182953500Y-58598842D01*
X182953500Y-58441158D01*
X182953500Y-58441155D01*
X182937209Y-58359258D01*
X182937209Y-58359257D01*
X182933608Y-58341153D01*
X203152500Y-58341153D01*
X203152500Y-58498846D01*
X203183261Y-58653489D01*
X203183264Y-58653501D01*
X203243602Y-58799172D01*
X203243609Y-58799185D01*
X203331210Y-58930288D01*
X203331213Y-58930292D01*
X203442707Y-59041786D01*
X203442711Y-59041789D01*
X203573814Y-59129390D01*
X203573827Y-59129397D01*
X203719498Y-59189735D01*
X203719503Y-59189737D01*
X203874153Y-59220499D01*
X203874156Y-59220500D01*
X203874158Y-59220500D01*
X204031844Y-59220500D01*
X204031845Y-59220499D01*
X204186497Y-59189737D01*
X204332179Y-59129394D01*
X204463289Y-59041789D01*
X204574789Y-58930289D01*
X204662394Y-58799179D01*
X204722737Y-58653497D01*
X204753500Y-58498842D01*
X204753500Y-58341158D01*
X204753500Y-58341155D01*
X204753499Y-58341153D01*
X204722738Y-58186510D01*
X204722737Y-58186503D01*
X204703812Y-58140814D01*
X204662397Y-58040827D01*
X204662390Y-58040814D01*
X204574789Y-57909711D01*
X204574786Y-57909707D01*
X204463292Y-57798213D01*
X204463288Y-57798210D01*
X204332185Y-57710609D01*
X204332172Y-57710602D01*
X204186501Y-57650264D01*
X204186489Y-57650261D01*
X204031845Y-57619500D01*
X204031842Y-57619500D01*
X203874158Y-57619500D01*
X203874155Y-57619500D01*
X203719510Y-57650261D01*
X203719498Y-57650264D01*
X203573827Y-57710602D01*
X203573814Y-57710609D01*
X203442711Y-57798210D01*
X203442707Y-57798213D01*
X203331213Y-57909707D01*
X203331210Y-57909711D01*
X203243609Y-58040814D01*
X203243602Y-58040827D01*
X203183264Y-58186498D01*
X203183261Y-58186510D01*
X203152500Y-58341153D01*
X182933608Y-58341153D01*
X182922738Y-58286510D01*
X182922737Y-58286503D01*
X182881314Y-58186498D01*
X182862397Y-58140827D01*
X182862390Y-58140814D01*
X182774789Y-58009711D01*
X182774786Y-58009707D01*
X182663292Y-57898213D01*
X182663288Y-57898210D01*
X182532185Y-57810609D01*
X182532172Y-57810602D01*
X182386501Y-57750264D01*
X182386489Y-57750261D01*
X182231845Y-57719500D01*
X182231842Y-57719500D01*
X182074158Y-57719500D01*
X182074155Y-57719500D01*
X181919510Y-57750261D01*
X181919498Y-57750264D01*
X181773827Y-57810602D01*
X181773814Y-57810609D01*
X181642711Y-57898210D01*
X181642707Y-57898213D01*
X181531213Y-58009707D01*
X181531210Y-58009711D01*
X181443609Y-58140814D01*
X181443602Y-58140827D01*
X181383264Y-58286498D01*
X181383261Y-58286510D01*
X181352500Y-58441153D01*
X170653500Y-58441153D01*
X170653500Y-56841153D01*
X183852500Y-56841153D01*
X183852500Y-56998846D01*
X183883261Y-57153489D01*
X183883264Y-57153501D01*
X183943602Y-57299172D01*
X183943609Y-57299185D01*
X184031210Y-57430288D01*
X184031213Y-57430292D01*
X184142707Y-57541786D01*
X184142711Y-57541789D01*
X184273814Y-57629390D01*
X184273827Y-57629397D01*
X184419498Y-57689735D01*
X184419503Y-57689737D01*
X184569131Y-57719500D01*
X184574153Y-57720499D01*
X184574156Y-57720500D01*
X184574158Y-57720500D01*
X184731844Y-57720500D01*
X184731845Y-57720499D01*
X184886497Y-57689737D01*
X185032179Y-57629394D01*
X185163289Y-57541789D01*
X185274789Y-57430289D01*
X185362394Y-57299179D01*
X185422737Y-57153497D01*
X185453500Y-56998842D01*
X185453500Y-56991153D01*
X186802500Y-56991153D01*
X186802500Y-57148846D01*
X186833261Y-57303489D01*
X186833264Y-57303501D01*
X186893602Y-57449172D01*
X186893609Y-57449185D01*
X186981210Y-57580288D01*
X186981213Y-57580292D01*
X187092707Y-57691786D01*
X187092711Y-57691789D01*
X187223814Y-57779390D01*
X187223827Y-57779397D01*
X187369498Y-57839735D01*
X187369503Y-57839737D01*
X187524153Y-57870499D01*
X187524156Y-57870500D01*
X187524158Y-57870500D01*
X187681844Y-57870500D01*
X187681845Y-57870499D01*
X187836497Y-57839737D01*
X187982179Y-57779394D01*
X188113289Y-57691789D01*
X188224789Y-57580289D01*
X188312394Y-57449179D01*
X188372737Y-57303497D01*
X188403500Y-57148842D01*
X188403500Y-57041153D01*
X201252500Y-57041153D01*
X201252500Y-57198846D01*
X201283261Y-57353489D01*
X201283264Y-57353501D01*
X201343602Y-57499172D01*
X201343609Y-57499185D01*
X201431210Y-57630288D01*
X201431213Y-57630292D01*
X201542707Y-57741786D01*
X201542711Y-57741789D01*
X201673814Y-57829390D01*
X201673827Y-57829397D01*
X201773060Y-57870500D01*
X201819503Y-57889737D01*
X201974153Y-57920499D01*
X201974156Y-57920500D01*
X201974158Y-57920500D01*
X202131844Y-57920500D01*
X202131845Y-57920499D01*
X202286497Y-57889737D01*
X202432179Y-57829394D01*
X202563289Y-57741789D01*
X202674789Y-57630289D01*
X202762394Y-57499179D01*
X202822737Y-57353497D01*
X202853500Y-57198842D01*
X202853500Y-57041158D01*
X202853500Y-57041155D01*
X202853499Y-57041153D01*
X202822737Y-56886503D01*
X202803955Y-56841158D01*
X202762397Y-56740827D01*
X202762390Y-56740814D01*
X202674789Y-56609711D01*
X202674786Y-56609707D01*
X202563292Y-56498213D01*
X202563288Y-56498210D01*
X202432185Y-56410609D01*
X202432172Y-56410602D01*
X202286501Y-56350264D01*
X202286489Y-56350261D01*
X202131845Y-56319500D01*
X202131842Y-56319500D01*
X201974158Y-56319500D01*
X201974155Y-56319500D01*
X201819510Y-56350261D01*
X201819498Y-56350264D01*
X201673827Y-56410602D01*
X201673814Y-56410609D01*
X201542711Y-56498210D01*
X201542707Y-56498213D01*
X201431213Y-56609707D01*
X201431210Y-56609711D01*
X201343609Y-56740814D01*
X201343602Y-56740827D01*
X201283264Y-56886498D01*
X201283261Y-56886510D01*
X201252500Y-57041153D01*
X188403500Y-57041153D01*
X188403500Y-56991158D01*
X188403500Y-56991155D01*
X188403499Y-56991153D01*
X188382684Y-56886510D01*
X188372737Y-56836503D01*
X188372735Y-56836498D01*
X188312397Y-56690827D01*
X188312390Y-56690814D01*
X188224789Y-56559711D01*
X188224786Y-56559707D01*
X188113292Y-56448213D01*
X188113288Y-56448210D01*
X187982185Y-56360609D01*
X187982172Y-56360602D01*
X187836501Y-56300264D01*
X187836489Y-56300261D01*
X187681845Y-56269500D01*
X187681842Y-56269500D01*
X187524158Y-56269500D01*
X187524155Y-56269500D01*
X187369510Y-56300261D01*
X187369498Y-56300264D01*
X187223827Y-56360602D01*
X187223814Y-56360609D01*
X187092711Y-56448210D01*
X187092707Y-56448213D01*
X186981213Y-56559707D01*
X186981210Y-56559711D01*
X186893609Y-56690814D01*
X186893602Y-56690827D01*
X186833264Y-56836498D01*
X186833261Y-56836510D01*
X186802500Y-56991153D01*
X185453500Y-56991153D01*
X185453500Y-56841158D01*
X185453500Y-56841155D01*
X185453499Y-56841153D01*
X185441663Y-56781650D01*
X185422737Y-56686503D01*
X185390929Y-56609711D01*
X185362397Y-56540827D01*
X185362390Y-56540814D01*
X185274789Y-56409711D01*
X185274786Y-56409707D01*
X185163292Y-56298213D01*
X185163288Y-56298210D01*
X185032185Y-56210609D01*
X185032172Y-56210602D01*
X184886501Y-56150264D01*
X184886489Y-56150261D01*
X184731845Y-56119500D01*
X184731842Y-56119500D01*
X184574158Y-56119500D01*
X184574155Y-56119500D01*
X184419510Y-56150261D01*
X184419498Y-56150264D01*
X184273827Y-56210602D01*
X184273814Y-56210609D01*
X184142711Y-56298210D01*
X184142707Y-56298213D01*
X184031213Y-56409707D01*
X184031210Y-56409711D01*
X183943609Y-56540814D01*
X183943602Y-56540827D01*
X183883264Y-56686498D01*
X183883261Y-56686510D01*
X183852500Y-56841153D01*
X170653500Y-56841153D01*
X170653500Y-55971262D01*
X174121350Y-55971262D01*
X174121350Y-56088737D01*
X174131759Y-56167807D01*
X174162162Y-56281273D01*
X174162163Y-56281276D01*
X174192684Y-56354959D01*
X174251421Y-56456694D01*
X174251426Y-56456700D01*
X174251427Y-56456702D01*
X174299968Y-56519962D01*
X174299974Y-56519969D01*
X174383030Y-56603025D01*
X174383037Y-56603031D01*
X174391743Y-56609711D01*
X174446306Y-56651579D01*
X174548041Y-56710316D01*
X174621724Y-56740837D01*
X174735195Y-56771241D01*
X174800132Y-56779789D01*
X174814262Y-56781650D01*
X174814263Y-56781650D01*
X174931738Y-56781650D01*
X174943725Y-56780071D01*
X175010805Y-56771241D01*
X175124276Y-56740837D01*
X175197959Y-56710316D01*
X175299694Y-56651579D01*
X175362964Y-56603030D01*
X175446030Y-56519964D01*
X175494579Y-56456694D01*
X175553316Y-56354959D01*
X175583837Y-56281276D01*
X175614241Y-56167805D01*
X175624650Y-56088737D01*
X175624650Y-55971263D01*
X175614241Y-55892195D01*
X175583837Y-55778724D01*
X175553316Y-55705041D01*
X175494579Y-55603306D01*
X175446030Y-55540036D01*
X175446025Y-55540030D01*
X175362969Y-55456974D01*
X175362962Y-55456968D01*
X175299702Y-55408427D01*
X175299700Y-55408426D01*
X175299694Y-55408421D01*
X175197961Y-55349685D01*
X175197960Y-55349684D01*
X175197888Y-55349654D01*
X175124276Y-55319163D01*
X175124274Y-55319162D01*
X175124273Y-55319162D01*
X175010807Y-55288759D01*
X174931738Y-55278350D01*
X174931737Y-55278350D01*
X174814263Y-55278350D01*
X174814262Y-55278350D01*
X174735192Y-55288759D01*
X174621726Y-55319162D01*
X174621717Y-55319166D01*
X174548041Y-55349684D01*
X174548037Y-55349686D01*
X174446306Y-55408421D01*
X174446297Y-55408427D01*
X174383037Y-55456968D01*
X174383030Y-55456974D01*
X174299974Y-55540030D01*
X174299968Y-55540037D01*
X174251427Y-55603297D01*
X174251421Y-55603306D01*
X174192686Y-55705037D01*
X174192684Y-55705041D01*
X174162166Y-55778717D01*
X174162162Y-55778726D01*
X174131759Y-55892192D01*
X174121350Y-55971262D01*
X170653500Y-55971262D01*
X170653500Y-55241153D01*
X180252500Y-55241153D01*
X180252500Y-55398846D01*
X180283261Y-55553489D01*
X180283264Y-55553501D01*
X180343602Y-55699172D01*
X180343609Y-55699185D01*
X180431210Y-55830288D01*
X180431213Y-55830292D01*
X180542707Y-55941786D01*
X180542711Y-55941789D01*
X180673814Y-56029390D01*
X180673827Y-56029397D01*
X180817089Y-56088737D01*
X180819503Y-56089737D01*
X180969131Y-56119500D01*
X180974153Y-56120499D01*
X180974156Y-56120500D01*
X180974158Y-56120500D01*
X181131844Y-56120500D01*
X181131845Y-56120499D01*
X181286497Y-56089737D01*
X181432179Y-56029394D01*
X181563289Y-55941789D01*
X181674789Y-55830289D01*
X181762394Y-55699179D01*
X181822737Y-55553497D01*
X181853500Y-55398842D01*
X181853500Y-55241158D01*
X181853500Y-55241155D01*
X181853499Y-55241153D01*
X181852858Y-55237930D01*
X181822737Y-55086503D01*
X181822735Y-55086498D01*
X181762397Y-54940827D01*
X181762390Y-54940814D01*
X181674789Y-54809711D01*
X181674786Y-54809707D01*
X181563297Y-54698218D01*
X181563291Y-54698213D01*
X181563289Y-54698211D01*
X181559497Y-54695677D01*
X181432185Y-54610609D01*
X181432172Y-54610602D01*
X181416977Y-54604308D01*
X184310494Y-54604308D01*
X184310494Y-54695691D01*
X184320903Y-54774749D01*
X184320904Y-54774754D01*
X184325299Y-54791158D01*
X184344553Y-54863011D01*
X184344557Y-54863024D01*
X184375065Y-54936678D01*
X184375068Y-54936684D01*
X184375070Y-54936688D01*
X184420754Y-55015816D01*
X184469305Y-55079088D01*
X184533912Y-55143695D01*
X184597184Y-55192246D01*
X184676312Y-55237930D01*
X184676318Y-55237932D01*
X184676321Y-55237934D01*
X184749975Y-55268442D01*
X184749980Y-55268443D01*
X184749991Y-55268448D01*
X184838246Y-55292096D01*
X184917316Y-55302506D01*
X184917323Y-55302506D01*
X185008677Y-55302506D01*
X185008684Y-55302506D01*
X185087754Y-55292096D01*
X185176009Y-55268448D01*
X185176021Y-55268442D01*
X185176024Y-55268442D01*
X185222547Y-55249172D01*
X185249688Y-55237930D01*
X185328816Y-55192246D01*
X185392088Y-55143695D01*
X185456695Y-55079088D01*
X185505246Y-55015816D01*
X185550930Y-54936688D01*
X185581448Y-54863009D01*
X185605096Y-54774754D01*
X185615506Y-54695684D01*
X185615506Y-54604316D01*
X185605096Y-54525246D01*
X185581448Y-54436991D01*
X185581443Y-54436980D01*
X185581442Y-54436975D01*
X185550934Y-54363321D01*
X185550932Y-54363318D01*
X185550930Y-54363312D01*
X185505246Y-54284184D01*
X185456695Y-54220912D01*
X185392088Y-54156305D01*
X185328816Y-54107754D01*
X185249688Y-54062070D01*
X185249684Y-54062068D01*
X185249678Y-54062065D01*
X185176024Y-54031557D01*
X185176011Y-54031553D01*
X185176012Y-54031553D01*
X185176009Y-54031552D01*
X185087754Y-54007904D01*
X185087753Y-54007903D01*
X185087750Y-54007903D01*
X185008691Y-53997494D01*
X185008684Y-53997494D01*
X184917316Y-53997494D01*
X184917308Y-53997494D01*
X184838249Y-54007903D01*
X184794118Y-54019728D01*
X184749991Y-54031552D01*
X184749989Y-54031552D01*
X184749988Y-54031553D01*
X184749975Y-54031557D01*
X184676321Y-54062065D01*
X184676310Y-54062071D01*
X184597185Y-54107753D01*
X184533909Y-54156307D01*
X184469307Y-54220909D01*
X184420753Y-54284185D01*
X184375071Y-54363310D01*
X184375065Y-54363321D01*
X184344557Y-54436975D01*
X184344553Y-54436988D01*
X184344552Y-54436991D01*
X184332728Y-54481118D01*
X184320903Y-54525249D01*
X184310494Y-54604308D01*
X181416977Y-54604308D01*
X181286501Y-54550264D01*
X181286489Y-54550261D01*
X181131845Y-54519500D01*
X181131842Y-54519500D01*
X180974158Y-54519500D01*
X180974155Y-54519500D01*
X180819510Y-54550261D01*
X180819498Y-54550264D01*
X180673827Y-54610602D01*
X180673814Y-54610609D01*
X180542711Y-54698210D01*
X180542707Y-54698213D01*
X180431213Y-54809707D01*
X180431210Y-54809711D01*
X180343609Y-54940814D01*
X180343602Y-54940827D01*
X180283264Y-55086498D01*
X180283261Y-55086510D01*
X180252500Y-55241153D01*
X170653500Y-55241153D01*
X170653500Y-53741153D01*
X186252500Y-53741153D01*
X186252500Y-53898846D01*
X186283261Y-54053489D01*
X186283264Y-54053501D01*
X186343602Y-54199172D01*
X186343609Y-54199185D01*
X186431210Y-54330288D01*
X186431213Y-54330292D01*
X186542707Y-54441786D01*
X186542711Y-54441789D01*
X186673814Y-54529390D01*
X186673827Y-54529397D01*
X186819498Y-54589735D01*
X186819503Y-54589737D01*
X186951691Y-54616031D01*
X186974153Y-54620499D01*
X186974156Y-54620500D01*
X186974158Y-54620500D01*
X187131842Y-54620500D01*
X187154308Y-54616031D01*
X187223898Y-54622257D01*
X187279076Y-54665119D01*
X187302322Y-54731008D01*
X187302500Y-54737648D01*
X187302500Y-54748846D01*
X187333261Y-54903489D01*
X187333264Y-54903501D01*
X187393602Y-55049172D01*
X187393609Y-55049185D01*
X187481210Y-55180288D01*
X187481213Y-55180292D01*
X187592707Y-55291786D01*
X187592711Y-55291789D01*
X187723814Y-55379390D01*
X187723827Y-55379397D01*
X187793913Y-55408427D01*
X187869503Y-55439737D01*
X188024153Y-55470499D01*
X188024156Y-55470500D01*
X188024158Y-55470500D01*
X188181844Y-55470500D01*
X188181845Y-55470499D01*
X188336497Y-55439737D01*
X188482179Y-55379394D01*
X188613289Y-55291789D01*
X188724789Y-55180289D01*
X188812394Y-55049179D01*
X188872737Y-54903497D01*
X188903500Y-54748842D01*
X188903500Y-54604308D01*
X190090494Y-54604308D01*
X190090494Y-54695691D01*
X190100903Y-54774749D01*
X190100904Y-54774754D01*
X190105299Y-54791158D01*
X190124553Y-54863011D01*
X190124557Y-54863024D01*
X190155065Y-54936678D01*
X190155068Y-54936684D01*
X190155070Y-54936688D01*
X190200754Y-55015816D01*
X190249305Y-55079088D01*
X190313912Y-55143695D01*
X190377184Y-55192246D01*
X190456312Y-55237930D01*
X190456318Y-55237932D01*
X190456321Y-55237934D01*
X190529975Y-55268442D01*
X190529980Y-55268443D01*
X190529991Y-55268448D01*
X190618246Y-55292096D01*
X190697316Y-55302506D01*
X190697323Y-55302506D01*
X190788677Y-55302506D01*
X190788684Y-55302506D01*
X190867754Y-55292096D01*
X190956009Y-55268448D01*
X190956021Y-55268442D01*
X190956024Y-55268442D01*
X191002547Y-55249172D01*
X191029688Y-55237930D01*
X191108816Y-55192246D01*
X191172088Y-55143695D01*
X191236695Y-55079088D01*
X191285246Y-55015816D01*
X191330930Y-54936688D01*
X191361448Y-54863009D01*
X191380702Y-54791153D01*
X197452500Y-54791153D01*
X197452500Y-54948846D01*
X197483261Y-55103489D01*
X197483264Y-55103501D01*
X197543602Y-55249172D01*
X197543609Y-55249185D01*
X197631210Y-55380288D01*
X197631213Y-55380292D01*
X197742707Y-55491786D01*
X197742711Y-55491789D01*
X197873814Y-55579390D01*
X197873827Y-55579397D01*
X198019498Y-55639735D01*
X198019503Y-55639737D01*
X198174153Y-55670499D01*
X198174156Y-55670500D01*
X198174158Y-55670500D01*
X198331844Y-55670500D01*
X198331845Y-55670499D01*
X198486497Y-55639737D01*
X198632179Y-55579394D01*
X198763289Y-55491789D01*
X198874789Y-55380289D01*
X198962394Y-55249179D01*
X198965719Y-55241153D01*
X198990929Y-55180288D01*
X199022737Y-55103497D01*
X199053500Y-54948842D01*
X199053500Y-54791158D01*
X199053500Y-54791155D01*
X199053499Y-54791153D01*
X199049069Y-54768880D01*
X199022737Y-54636503D01*
X199016836Y-54622257D01*
X198962397Y-54490827D01*
X198962390Y-54490814D01*
X198874789Y-54359711D01*
X198874786Y-54359707D01*
X198763292Y-54248213D01*
X198763288Y-54248210D01*
X198632185Y-54160609D01*
X198632172Y-54160602D01*
X198486501Y-54100264D01*
X198486489Y-54100261D01*
X198331845Y-54069500D01*
X198331842Y-54069500D01*
X198174158Y-54069500D01*
X198174155Y-54069500D01*
X198019510Y-54100261D01*
X198019498Y-54100264D01*
X197873827Y-54160602D01*
X197873814Y-54160609D01*
X197742711Y-54248210D01*
X197742707Y-54248213D01*
X197631213Y-54359707D01*
X197631210Y-54359711D01*
X197543609Y-54490814D01*
X197543602Y-54490827D01*
X197483264Y-54636498D01*
X197483261Y-54636510D01*
X197452500Y-54791153D01*
X191380702Y-54791153D01*
X191385096Y-54774754D01*
X191395506Y-54695684D01*
X191395506Y-54604316D01*
X191385096Y-54525246D01*
X191361448Y-54436991D01*
X191361443Y-54436980D01*
X191361442Y-54436975D01*
X191330934Y-54363321D01*
X191330932Y-54363318D01*
X191330930Y-54363312D01*
X191285246Y-54284184D01*
X191236695Y-54220912D01*
X191172088Y-54156305D01*
X191108816Y-54107754D01*
X191029688Y-54062070D01*
X191029684Y-54062068D01*
X191029678Y-54062065D01*
X190956024Y-54031557D01*
X190956011Y-54031553D01*
X190956012Y-54031553D01*
X190956009Y-54031552D01*
X190867754Y-54007904D01*
X190867753Y-54007903D01*
X190867750Y-54007903D01*
X190788691Y-53997494D01*
X190788684Y-53997494D01*
X190697316Y-53997494D01*
X190697308Y-53997494D01*
X190618249Y-54007903D01*
X190574118Y-54019728D01*
X190529991Y-54031552D01*
X190529989Y-54031552D01*
X190529988Y-54031553D01*
X190529975Y-54031557D01*
X190456321Y-54062065D01*
X190456310Y-54062071D01*
X190377185Y-54107753D01*
X190313909Y-54156307D01*
X190249307Y-54220909D01*
X190200753Y-54284185D01*
X190155071Y-54363310D01*
X190155065Y-54363321D01*
X190124557Y-54436975D01*
X190124553Y-54436988D01*
X190124552Y-54436991D01*
X190112728Y-54481118D01*
X190100903Y-54525249D01*
X190090494Y-54604308D01*
X188903500Y-54604308D01*
X188903500Y-54591158D01*
X188903500Y-54591155D01*
X188903499Y-54591153D01*
X188883543Y-54490827D01*
X188872737Y-54436503D01*
X188872735Y-54436498D01*
X188833459Y-54341675D01*
X188825990Y-54272206D01*
X188844917Y-54225334D01*
X188862394Y-54199179D01*
X188922737Y-54053497D01*
X188953500Y-53898842D01*
X188953500Y-53741158D01*
X188953500Y-53741155D01*
X188953499Y-53741153D01*
X188922738Y-53586510D01*
X188922737Y-53586503D01*
X188922735Y-53586498D01*
X188862397Y-53440827D01*
X188862390Y-53440814D01*
X188774789Y-53309711D01*
X188774786Y-53309707D01*
X188663292Y-53198213D01*
X188663288Y-53198210D01*
X188532185Y-53110609D01*
X188532172Y-53110602D01*
X188386501Y-53050264D01*
X188386489Y-53050261D01*
X188231845Y-53019500D01*
X188231842Y-53019500D01*
X188074158Y-53019500D01*
X188074155Y-53019500D01*
X187919510Y-53050261D01*
X187919498Y-53050264D01*
X187773827Y-53110602D01*
X187773814Y-53110609D01*
X187671891Y-53178713D01*
X187605213Y-53199591D01*
X187537833Y-53181107D01*
X187534109Y-53178713D01*
X187432185Y-53110609D01*
X187432172Y-53110602D01*
X187286501Y-53050264D01*
X187286489Y-53050261D01*
X187131845Y-53019500D01*
X187131842Y-53019500D01*
X186974158Y-53019500D01*
X186974155Y-53019500D01*
X186819510Y-53050261D01*
X186819498Y-53050264D01*
X186673827Y-53110602D01*
X186673814Y-53110609D01*
X186542711Y-53198210D01*
X186542707Y-53198213D01*
X186431213Y-53309707D01*
X186431210Y-53309711D01*
X186343609Y-53440814D01*
X186343602Y-53440827D01*
X186283264Y-53586498D01*
X186283261Y-53586510D01*
X186252500Y-53741153D01*
X170653500Y-53741153D01*
X170653500Y-51001995D01*
X171552500Y-51001995D01*
X171552500Y-51238004D01*
X171552501Y-51238020D01*
X171567704Y-51353501D01*
X171583307Y-51472014D01*
X171625717Y-51630288D01*
X171644394Y-51699993D01*
X171734714Y-51918045D01*
X171734719Y-51918056D01*
X171805677Y-52040957D01*
X171852727Y-52122450D01*
X171852729Y-52122453D01*
X171852730Y-52122454D01*
X171996406Y-52309697D01*
X171996412Y-52309704D01*
X172163295Y-52476587D01*
X172163301Y-52476592D01*
X172350550Y-52620273D01*
X172481918Y-52696118D01*
X172554943Y-52738280D01*
X172554948Y-52738282D01*
X172554951Y-52738284D01*
X172773007Y-52828606D01*
X173000986Y-52889693D01*
X173234989Y-52920500D01*
X173234996Y-52920500D01*
X173471004Y-52920500D01*
X173471011Y-52920500D01*
X173705014Y-52889693D01*
X173932993Y-52828606D01*
X174151049Y-52738284D01*
X174355450Y-52620273D01*
X174542699Y-52476592D01*
X174709592Y-52309699D01*
X174853273Y-52122450D01*
X174969869Y-51920500D01*
X174971280Y-51918056D01*
X174971280Y-51918055D01*
X174971284Y-51918049D01*
X175061606Y-51699993D01*
X175122693Y-51472014D01*
X175153500Y-51238011D01*
X175153500Y-51041153D01*
X183252500Y-51041153D01*
X183252500Y-51198846D01*
X183283261Y-51353489D01*
X183283264Y-51353501D01*
X183343602Y-51499172D01*
X183343609Y-51499185D01*
X183431210Y-51630288D01*
X183431213Y-51630292D01*
X183542707Y-51741786D01*
X183542711Y-51741789D01*
X183673814Y-51829390D01*
X183673827Y-51829397D01*
X183819498Y-51889735D01*
X183819503Y-51889737D01*
X183961816Y-51918045D01*
X183974153Y-51920499D01*
X183974156Y-51920500D01*
X183974158Y-51920500D01*
X184131844Y-51920500D01*
X184131845Y-51920499D01*
X184286497Y-51889737D01*
X184432179Y-51829394D01*
X184563289Y-51741789D01*
X184674789Y-51630289D01*
X184762394Y-51499179D01*
X184822737Y-51353497D01*
X184853500Y-51198842D01*
X184853500Y-51041158D01*
X184853500Y-51041155D01*
X184853499Y-51041153D01*
X190752500Y-51041153D01*
X190752500Y-51198846D01*
X190783261Y-51353489D01*
X190783264Y-51353501D01*
X190843602Y-51499172D01*
X190843609Y-51499185D01*
X190931210Y-51630288D01*
X190931213Y-51630292D01*
X191042707Y-51741786D01*
X191042711Y-51741789D01*
X191173814Y-51829390D01*
X191173827Y-51829397D01*
X191319498Y-51889735D01*
X191319503Y-51889737D01*
X191461816Y-51918045D01*
X191474153Y-51920499D01*
X191474156Y-51920500D01*
X191474158Y-51920500D01*
X191631844Y-51920500D01*
X191631845Y-51920499D01*
X191786497Y-51889737D01*
X191932179Y-51829394D01*
X192063289Y-51741789D01*
X192174789Y-51630289D01*
X192262394Y-51499179D01*
X192322737Y-51353497D01*
X192353500Y-51198842D01*
X192353500Y-51041158D01*
X192353500Y-51041155D01*
X192353499Y-51041153D01*
X192331447Y-50930292D01*
X192322737Y-50886503D01*
X192295398Y-50820500D01*
X192262397Y-50740827D01*
X192262390Y-50740814D01*
X192174789Y-50609711D01*
X192174786Y-50609707D01*
X192063292Y-50498213D01*
X192063288Y-50498210D01*
X191973429Y-50438168D01*
X191932185Y-50410609D01*
X191932172Y-50410602D01*
X191786501Y-50350264D01*
X191786489Y-50350261D01*
X191740701Y-50341153D01*
X197152500Y-50341153D01*
X197152500Y-50498846D01*
X197183261Y-50653489D01*
X197183264Y-50653501D01*
X197243602Y-50799172D01*
X197243609Y-50799185D01*
X197331210Y-50930288D01*
X197331213Y-50930292D01*
X197442707Y-51041786D01*
X197442711Y-51041789D01*
X197573814Y-51129390D01*
X197573827Y-51129397D01*
X197719498Y-51189735D01*
X197719503Y-51189737D01*
X197874153Y-51220499D01*
X197874156Y-51220500D01*
X197874158Y-51220500D01*
X198031844Y-51220500D01*
X198031845Y-51220499D01*
X198186497Y-51189737D01*
X198332179Y-51129394D01*
X198463289Y-51041789D01*
X198503083Y-51001995D01*
X200552500Y-51001995D01*
X200552500Y-51238004D01*
X200552501Y-51238020D01*
X200567704Y-51353501D01*
X200583307Y-51472014D01*
X200625717Y-51630288D01*
X200644394Y-51699993D01*
X200734714Y-51918045D01*
X200734719Y-51918056D01*
X200805677Y-52040957D01*
X200852727Y-52122450D01*
X200852729Y-52122453D01*
X200852730Y-52122454D01*
X200996406Y-52309697D01*
X200996412Y-52309704D01*
X201163295Y-52476587D01*
X201163301Y-52476592D01*
X201350550Y-52620273D01*
X201481918Y-52696118D01*
X201554943Y-52738280D01*
X201554948Y-52738282D01*
X201554951Y-52738284D01*
X201773007Y-52828606D01*
X202000986Y-52889693D01*
X202234989Y-52920500D01*
X202234996Y-52920500D01*
X202471004Y-52920500D01*
X202471011Y-52920500D01*
X202705014Y-52889693D01*
X202932993Y-52828606D01*
X203151049Y-52738284D01*
X203355450Y-52620273D01*
X203542699Y-52476592D01*
X203709592Y-52309699D01*
X203853273Y-52122450D01*
X203969869Y-51920500D01*
X203971280Y-51918056D01*
X203971280Y-51918055D01*
X203971284Y-51918049D01*
X204061606Y-51699993D01*
X204122693Y-51472014D01*
X204153500Y-51238011D01*
X204153500Y-51001989D01*
X204122693Y-50767986D01*
X204061606Y-50540007D01*
X203971284Y-50321951D01*
X203971282Y-50321948D01*
X203971280Y-50321943D01*
X203893080Y-50186498D01*
X203853273Y-50117550D01*
X203709592Y-49930301D01*
X203709587Y-49930295D01*
X203542704Y-49763412D01*
X203542697Y-49763406D01*
X203355454Y-49619730D01*
X203355453Y-49619729D01*
X203355450Y-49619727D01*
X203273957Y-49572677D01*
X203151056Y-49501719D01*
X203151045Y-49501714D01*
X202932993Y-49411394D01*
X202883801Y-49398213D01*
X202705014Y-49350307D01*
X202705013Y-49350306D01*
X202705010Y-49350306D01*
X202471020Y-49319501D01*
X202471017Y-49319500D01*
X202471011Y-49319500D01*
X202234989Y-49319500D01*
X202234983Y-49319500D01*
X202234979Y-49319501D01*
X202000989Y-49350306D01*
X201773006Y-49411394D01*
X201554954Y-49501714D01*
X201554943Y-49501719D01*
X201350545Y-49619730D01*
X201163302Y-49763406D01*
X201163295Y-49763412D01*
X200996412Y-49930295D01*
X200996406Y-49930302D01*
X200852730Y-50117545D01*
X200734719Y-50321943D01*
X200734714Y-50321954D01*
X200644394Y-50540006D01*
X200583306Y-50767989D01*
X200552501Y-51001979D01*
X200552500Y-51001995D01*
X198503083Y-51001995D01*
X198574789Y-50930289D01*
X198662394Y-50799179D01*
X198722737Y-50653497D01*
X198753500Y-50498842D01*
X198753500Y-50341158D01*
X198753500Y-50341155D01*
X198753499Y-50341153D01*
X198722738Y-50186510D01*
X198722737Y-50186503D01*
X198686427Y-50098842D01*
X198662397Y-50040827D01*
X198662390Y-50040814D01*
X198574789Y-49909711D01*
X198574786Y-49909707D01*
X198463292Y-49798213D01*
X198463288Y-49798210D01*
X198332185Y-49710609D01*
X198332172Y-49710602D01*
X198186501Y-49650264D01*
X198186489Y-49650261D01*
X198031845Y-49619500D01*
X198031842Y-49619500D01*
X197874158Y-49619500D01*
X197874155Y-49619500D01*
X197719510Y-49650261D01*
X197719498Y-49650264D01*
X197573827Y-49710602D01*
X197573814Y-49710609D01*
X197442711Y-49798210D01*
X197442707Y-49798213D01*
X197331213Y-49909707D01*
X197331210Y-49909711D01*
X197243609Y-50040814D01*
X197243602Y-50040827D01*
X197183264Y-50186498D01*
X197183261Y-50186510D01*
X197152500Y-50341153D01*
X191740701Y-50341153D01*
X191631845Y-50319500D01*
X191631842Y-50319500D01*
X191474158Y-50319500D01*
X191474155Y-50319500D01*
X191319510Y-50350261D01*
X191319498Y-50350264D01*
X191173827Y-50410602D01*
X191173814Y-50410609D01*
X191042711Y-50498210D01*
X191042707Y-50498213D01*
X190931213Y-50609707D01*
X190931210Y-50609711D01*
X190843609Y-50740814D01*
X190843602Y-50740827D01*
X190783264Y-50886498D01*
X190783261Y-50886510D01*
X190752500Y-51041153D01*
X184853499Y-51041153D01*
X184831447Y-50930292D01*
X184822737Y-50886503D01*
X184795398Y-50820500D01*
X184762397Y-50740827D01*
X184762390Y-50740814D01*
X184674789Y-50609711D01*
X184674786Y-50609707D01*
X184563292Y-50498213D01*
X184563288Y-50498210D01*
X184432185Y-50410609D01*
X184432172Y-50410602D01*
X184286501Y-50350264D01*
X184286489Y-50350261D01*
X184131845Y-50319500D01*
X184131842Y-50319500D01*
X183974158Y-50319500D01*
X183974155Y-50319500D01*
X183819510Y-50350261D01*
X183819498Y-50350264D01*
X183673827Y-50410602D01*
X183673814Y-50410609D01*
X183542711Y-50498210D01*
X183542707Y-50498213D01*
X183431213Y-50609707D01*
X183431210Y-50609711D01*
X183343609Y-50740814D01*
X183343602Y-50740827D01*
X183283264Y-50886498D01*
X183283261Y-50886510D01*
X183252500Y-51041153D01*
X175153500Y-51041153D01*
X175153500Y-51001989D01*
X175122693Y-50767986D01*
X175061606Y-50540007D01*
X174971284Y-50321951D01*
X174971282Y-50321948D01*
X174971280Y-50321943D01*
X174893080Y-50186498D01*
X174853273Y-50117550D01*
X174826214Y-50082287D01*
X174771171Y-50010552D01*
X174717919Y-49941153D01*
X178252500Y-49941153D01*
X178252500Y-50098846D01*
X178283261Y-50253489D01*
X178283264Y-50253501D01*
X178343602Y-50399172D01*
X178343609Y-50399185D01*
X178431210Y-50530288D01*
X178431213Y-50530292D01*
X178542707Y-50641786D01*
X178542711Y-50641789D01*
X178673814Y-50729390D01*
X178673827Y-50729397D01*
X178766998Y-50767989D01*
X178819503Y-50789737D01*
X178974153Y-50820499D01*
X178974156Y-50820500D01*
X178974158Y-50820500D01*
X179131844Y-50820500D01*
X179131845Y-50820499D01*
X179286497Y-50789737D01*
X179404592Y-50740821D01*
X179432172Y-50729397D01*
X179432172Y-50729396D01*
X179432179Y-50729394D01*
X179563289Y-50641789D01*
X179674789Y-50530289D01*
X179762394Y-50399179D01*
X179822737Y-50253497D01*
X179853500Y-50098842D01*
X179853500Y-49941158D01*
X179853500Y-49941155D01*
X179853499Y-49941153D01*
X179825066Y-49798211D01*
X179822737Y-49786503D01*
X179822735Y-49786498D01*
X179762397Y-49640827D01*
X179762390Y-49640814D01*
X179674789Y-49509711D01*
X179674786Y-49509707D01*
X179563292Y-49398213D01*
X179563288Y-49398210D01*
X179432185Y-49310609D01*
X179432172Y-49310602D01*
X179286501Y-49250264D01*
X179286489Y-49250261D01*
X179131845Y-49219500D01*
X179131842Y-49219500D01*
X178974158Y-49219500D01*
X178974155Y-49219500D01*
X178819510Y-49250261D01*
X178819498Y-49250264D01*
X178673827Y-49310602D01*
X178673814Y-49310609D01*
X178542711Y-49398210D01*
X178542707Y-49398213D01*
X178431213Y-49509707D01*
X178431210Y-49509711D01*
X178343609Y-49640814D01*
X178343602Y-49640827D01*
X178283264Y-49786498D01*
X178283261Y-49786510D01*
X178252500Y-49941153D01*
X174717919Y-49941153D01*
X174709593Y-49930302D01*
X174709587Y-49930295D01*
X174542704Y-49763412D01*
X174542697Y-49763406D01*
X174355454Y-49619730D01*
X174355453Y-49619729D01*
X174355450Y-49619727D01*
X174273957Y-49572677D01*
X174151056Y-49501719D01*
X174151045Y-49501714D01*
X173932993Y-49411394D01*
X173883801Y-49398213D01*
X173705014Y-49350307D01*
X173705013Y-49350306D01*
X173705010Y-49350306D01*
X173471020Y-49319501D01*
X173471017Y-49319500D01*
X173471011Y-49319500D01*
X173234989Y-49319500D01*
X173234983Y-49319500D01*
X173234979Y-49319501D01*
X173000989Y-49350306D01*
X172773006Y-49411394D01*
X172554954Y-49501714D01*
X172554943Y-49501719D01*
X172350545Y-49619730D01*
X172163302Y-49763406D01*
X172163295Y-49763412D01*
X171996412Y-49930295D01*
X171996406Y-49930302D01*
X171852730Y-50117545D01*
X171734719Y-50321943D01*
X171734714Y-50321954D01*
X171644394Y-50540006D01*
X171583306Y-50767989D01*
X171552501Y-51001979D01*
X171552500Y-51001995D01*
X170653500Y-51001995D01*
X170653500Y-49126092D01*
X170654097Y-49113938D01*
X170654097Y-49113937D01*
X170665744Y-48995678D01*
X170670483Y-48971856D01*
X170703203Y-48863990D01*
X170712499Y-48841549D01*
X170765632Y-48742144D01*
X170779133Y-48721940D01*
X170850635Y-48634814D01*
X170867814Y-48617635D01*
X170954942Y-48546131D01*
X170975144Y-48532632D01*
X171074549Y-48479499D01*
X171096990Y-48470203D01*
X171204856Y-48437483D01*
X171228682Y-48432744D01*
X171328730Y-48422890D01*
X171346940Y-48421097D01*
X171359093Y-48420500D01*
X171400595Y-48420500D01*
X204305405Y-48420500D01*
X204346907Y-48420500D01*
X204359061Y-48421097D01*
G37*
%TD.AperFunction*%
%TD*%
M02*
