%TF.GenerationSoftware,KiCad,Pcbnew,9.0.6*%
%TF.CreationDate,2025-12-15T12:31:01+01:00*%
%TF.ProjectId,neptune-gnd,6e657074-756e-4652-9d67-6e642e6b6963,rev?*%
%TF.SameCoordinates,Original*%
%TF.FileFunction,Profile,NP*%
%FSLAX46Y46*%
G04 Gerber Fmt 4.6, Leading zero omitted, Abs format (unit mm)*
G04 Created by KiCad (PCBNEW 9.0.6) date 2025-12-15 12:31:01*
%MOMM*%
%LPD*%
G01*
G04 APERTURE LIST*
%TA.AperFunction,Profile*%
%ADD10C,0.050000*%
%TD*%
%TA.AperFunction,Profile*%
%ADD11C,0.000000*%
%TD*%
G04 APERTURE END LIST*
D10*
X171353000Y-48120000D02*
X204353000Y-48120000D01*
X171353000Y-98120000D02*
X204353000Y-98120000D01*
X205353000Y-97120000D02*
G75*
G02*
X204353000Y-98120000I-1000000J0D01*
G01*
X170353000Y-49120000D02*
X170353000Y-97120000D01*
X204353000Y-48120000D02*
G75*
G02*
X205353000Y-49120000I0J-1000000D01*
G01*
X205353000Y-49120000D02*
X205353000Y-97120000D01*
X170353000Y-49120000D02*
G75*
G02*
X171353000Y-48120000I1000000J0D01*
G01*
X171353000Y-98120000D02*
G75*
G02*
X170353000Y-97120000I0J1000000D01*
G01*
D11*
%TA.AperFunction,Profile*%
%TO.C,SW3*%
G36*
X175045208Y-60114254D02*
G01*
X175146943Y-60172991D01*
X175230009Y-60256057D01*
X175288746Y-60357792D01*
X175319150Y-60471263D01*
X175319150Y-60588737D01*
X175288746Y-60702208D01*
X175230009Y-60803943D01*
X175146943Y-60887009D01*
X175045208Y-60945746D01*
X174931737Y-60976150D01*
X174814263Y-60976150D01*
X174700792Y-60945746D01*
X174599057Y-60887009D01*
X174515991Y-60803943D01*
X174457254Y-60702208D01*
X174426850Y-60588737D01*
X174426850Y-60471263D01*
X174457254Y-60357792D01*
X174515991Y-60256057D01*
X174599057Y-60172991D01*
X174700792Y-60114254D01*
X174814263Y-60083850D01*
X174931737Y-60083850D01*
X175045208Y-60114254D01*
G37*
%TD.AperFunction*%
%TA.AperFunction,Profile*%
G36*
X175045208Y-55614254D02*
G01*
X175146943Y-55672991D01*
X175230009Y-55756057D01*
X175288746Y-55857792D01*
X175319150Y-55971263D01*
X175319150Y-56088737D01*
X175288746Y-56202208D01*
X175230009Y-56303943D01*
X175146943Y-56387009D01*
X175045208Y-56445746D01*
X174931737Y-56476150D01*
X174814263Y-56476150D01*
X174700792Y-56445746D01*
X174599057Y-56387009D01*
X174515991Y-56303943D01*
X174457254Y-56202208D01*
X174426850Y-56088737D01*
X174426850Y-55971263D01*
X174457254Y-55857792D01*
X174515991Y-55756057D01*
X174599057Y-55672991D01*
X174700792Y-55614254D01*
X174814263Y-55583850D01*
X174931737Y-55583850D01*
X175045208Y-55614254D01*
G37*
%TD.AperFunction*%
%TA.AperFunction,Profile*%
%TO.C,J3*%
G36*
X185096939Y-54326642D02*
G01*
X185176067Y-54372326D01*
X185240674Y-54436933D01*
X185286358Y-54516061D01*
X185310006Y-54604316D01*
X185310006Y-54695684D01*
X185286358Y-54783939D01*
X185240674Y-54863067D01*
X185176067Y-54927674D01*
X185096939Y-54973358D01*
X185008684Y-54997006D01*
X184917316Y-54997006D01*
X184829061Y-54973358D01*
X184749933Y-54927674D01*
X184685326Y-54863067D01*
X184639642Y-54783939D01*
X184615994Y-54695684D01*
X184615994Y-54604316D01*
X184639642Y-54516061D01*
X184685326Y-54436933D01*
X184749933Y-54372326D01*
X184829061Y-54326642D01*
X184917316Y-54302994D01*
X185008684Y-54302994D01*
X185096939Y-54326642D01*
G37*
%TD.AperFunction*%
%TA.AperFunction,Profile*%
G36*
X190876939Y-54326642D02*
G01*
X190956067Y-54372326D01*
X191020674Y-54436933D01*
X191066358Y-54516061D01*
X191090006Y-54604316D01*
X191090006Y-54695684D01*
X191066358Y-54783939D01*
X191020674Y-54863067D01*
X190956067Y-54927674D01*
X190876939Y-54973358D01*
X190788684Y-54997006D01*
X190697316Y-54997006D01*
X190609061Y-54973358D01*
X190529933Y-54927674D01*
X190465326Y-54863067D01*
X190419642Y-54783939D01*
X190395994Y-54695684D01*
X190395994Y-54604316D01*
X190419642Y-54516061D01*
X190465326Y-54436933D01*
X190529933Y-54372326D01*
X190609061Y-54326642D01*
X190697316Y-54302994D01*
X190788684Y-54302994D01*
X190876939Y-54326642D01*
G37*
%TD.AperFunction*%
%TD*%
M02*
